<svg width="42" height="41" viewBox="0 0 42 41" fill="none" xmlns="http://www.w3.org/2000/svg">
<path d="M11.4815 0.800724C11.3665 0.874634 11.153 1.12921 11.0052 1.37557C10.8491 1.62194 10.1429 2.42672 9.43666 3.16581C7.84351 4.81645 6.67739 6.25357 5.38809 8.18341C4.27945 9.84226 3.34327 11.6407 2.9573 12.8725C1.81582 16.4859 2.53849 20.0253 4.87894 22.2754C5.60982 22.9734 6.07791 23.2855 6.29963 23.2116C6.46388 23.1623 6.47209 23.0966 6.4803 21.9962C6.48851 21.3556 6.48851 20.8054 6.4803 20.7644C6.44745 20.5591 6.73487 17.11 6.84163 16.453C7.0223 15.3033 7.33436 14.1454 7.67106 13.3324C8.0406 12.4373 8.15557 12.3059 8.08166 12.8725C7.2933 19.1712 8.67293 25.0757 12.2288 30.6107C12.7297 31.3826 12.935 31.5469 13.4031 31.5469C13.8301 31.5469 14.0601 31.3005 14.3064 30.5861C15.1194 28.2702 15.875 26.4718 16.9097 24.4023C18.7328 20.7726 20.4984 18.2515 23.0195 15.7303C24.8262 13.9155 26.7478 12.4209 28.6119 11.3779C29.039 11.1398 29.1622 11.1069 29.3018 11.1808C29.6385 11.3615 29.4989 11.5997 28.5134 12.5769C26.3947 14.671 24.7523 16.8226 23.4383 19.2041C23.1345 19.7543 22.8963 20.2716 22.9127 20.3538C22.9456 20.5426 23.5779 20.7726 24.4566 20.9204C26.6985 21.2899 28.9076 20.7151 30.7717 19.278C31.5026 18.7113 32.5784 17.5288 33.2107 16.5926C33.531 16.1245 34.3522 14.7942 35.042 13.6445C36.5941 11.033 37.1772 10.2118 38.2119 9.16066C39.1317 8.23269 39.9529 7.64963 40.9055 7.27187C41.6281 6.97623 41.9156 6.75451 41.9895 6.41781C42.0552 6.09754 41.8417 5.62945 41.5624 5.48984C41.4393 5.42414 40.8151 5.30917 40.1828 5.23527C34.1633 4.54545 30.123 4.8493 26.6082 6.25357C24.1856 7.2226 22.0176 8.7829 20.7119 10.5074C20.1042 11.3204 19.3651 12.774 19.1598 13.5623C18.9463 14.4 18.9052 15.7714 19.0777 16.5926L19.2173 17.2742L19.0202 17.537C17.3449 19.8364 16.3923 21.4049 15.1769 23.8685C14.6924 24.8622 14.0765 26.1926 13.8219 26.8249C13.5591 27.4572 13.3128 28.0239 13.2635 28.0814C13.2142 28.1388 13.0828 28.1799 12.9679 28.1635C12.779 28.1388 12.6722 27.9828 12.1713 26.9892C11.5964 25.8477 10.9477 24.2956 10.8574 23.8439C10.8163 23.6304 10.8656 23.5647 11.3911 23.1377C14.52 20.6166 15.604 17.4056 14.5117 13.8908C14.4214 13.5952 13.978 12.6015 13.5345 11.6736C12.2863 9.08675 11.8921 7.71532 11.8921 5.88402C11.8921 4.79181 12.0399 3.98702 12.4669 2.69772C12.8775 1.48233 12.8775 1.30988 12.5162 0.948544C12.2041 0.636482 11.8346 0.578997 11.4815 0.800724Z" fill="url(#paint0_linear_88648_1232)"/>
<path d="M21.6631 27.3667C19.0598 27.6049 16.7194 29.7154 16.1117 32.3515C15.9556 33.0249 15.7585 33.2466 15.0112 33.5915C13.5413 34.2731 12.3177 34.076 11.0202 32.9428C10.2154 32.2447 9.78834 31.9737 9.18885 31.7931C7.95704 31.4071 6.51992 31.711 5.47698 32.5732C4.77074 33.1645 4.41762 33.6737 3.80171 35.0204C3.62925 35.3818 3.5225 35.4475 2.74234 35.6692C1.10813 36.1209 0.319772 36.9749 0.0569841 38.6009C-0.0661976 39.3646 -0.000500726 39.6849 0.360832 40.0052L0.656468 40.2598L17.2203 40.2105C26.3275 40.1859 33.973 40.1448 34.2112 40.1202C34.9913 40.038 35.328 39.5617 35.213 38.6913C35.0077 37.2131 34.3179 36.1126 33.2503 35.5706C32.6262 35.2586 32.2156 35.16 31.2548 35.0861C30.4993 35.0286 30.4172 35.004 30.1954 34.7823C30.0394 34.6263 29.908 34.3553 29.8095 34.0021C29.4646 32.7539 28.6844 31.9902 27.4526 31.7027C26.2947 31.4317 26.0894 31.2675 25.9744 30.5038C25.7691 29.1488 24.718 27.8841 23.4779 27.531C22.821 27.3339 22.3693 27.2928 21.6631 27.3667Z" fill="url(#paint1_linear_88648_1232)"/>
<defs>
<linearGradient id="paint0_linear_88648_1232" x1="6.94067" y1="41.7002" x2="103.696" y2="-65.62" gradientUnits="userSpaceOnUse">
<stop stop-color="#A854E9"/>
<stop offset="1" stop-color="#4F91FC"/>
</linearGradient>
<linearGradient id="paint1_linear_88648_1232" x1="4.0197" y1="44.5103" x2="33.2866" y2="-24.5286" gradientUnits="userSpaceOnUse">
<stop stop-color="#A854E9"/>
<stop offset="1" stop-color="#4F91FC"/>
</linearGradient>
</defs>
</svg>
