<svg width="42" height="33" viewBox="0 0 42 33" fill="none" xmlns="http://www.w3.org/2000/svg">
<path d="M20.9607 0.771921C20.7967 0.830469 16.4524 2.4113 11.3 4.28488C6.14768 6.14675 1.70964 7.77442 1.44031 7.90323C0.573784 8.31308 0.620623 8.89857 1.55741 9.33184C1.897 9.48407 3.03286 9.91733 4.09845 10.292C5.16405 10.6668 6.054 10.9946 6.07742 11.0063C6.10084 11.0298 5.90177 11.2874 5.64416 11.6036C4.67224 12.7745 4.16871 14.2617 4.0282 16.4046C3.94623 17.681 3.94623 17.681 3.57151 17.9269C2.83379 18.4187 2.48249 19.6951 2.85721 20.5733C2.93918 20.7841 3.18508 21.112 3.39586 21.3227C3.75887 21.674 3.77058 21.7326 3.70032 22.2712C3.40757 24.5078 2.09607 27.5173 0.480105 29.6602C0.210778 30.0115 0 30.3393 0 30.3979C0 30.5735 1.45202 31.5689 2.20146 31.9202L2.95089 32.2598L3.4427 31.967C4.12187 31.5689 5.00011 30.597 5.32799 29.871C5.97203 28.4658 6.01887 28.1028 6.03058 24.6249C6.03058 21.6389 6.04229 21.3696 6.24136 21.1471C6.48727 20.8778 6.78001 20.14 6.79173 19.777C6.79173 19.3086 6.53411 18.6529 6.18281 18.243C5.81981 17.8332 5.81981 17.8332 5.89007 16.8144C6.01887 14.9292 6.60437 13.3835 7.588 12.353C8.11494 11.7909 8.34914 11.6738 14.6959 8.94541C21.6281 5.95939 21.675 5.94768 22.0731 6.52147C22.2722 6.80251 22.3073 7.44655 22.1317 7.76271C22.0614 7.90323 19.9419 8.87515 16.4875 10.3506C13.4429 11.6504 10.937 12.7277 10.9253 12.7394C10.9136 12.7511 13.2673 13.6176 16.1713 14.6715C20.1058 16.1001 21.5345 16.5685 21.8155 16.5217C22.1668 16.4749 41.1016 9.54261 41.5818 9.29671C41.8862 9.13277 42.0619 8.74634 41.9799 8.46531C41.933 8.32479 41.652 8.1023 41.3007 7.95007C40.4693 7.57536 21.5579 0.631403 21.3822 0.643112C21.312 0.643112 21.1246 0.701662 20.9607 0.771921Z" fill="#FDFCFC"/>
</svg>
