<svg width="36" height="43" viewBox="0 0 36 43" fill="none" xmlns="http://www.w3.org/2000/svg">
<path d="M6.11057 1.18983C3.98322 1.70267 1.83688 3.43114 0.830184 5.42553C-1.16421 9.35733 0.564265 14.2578 4.62902 16.1573C5.63572 16.6321 6.22454 16.7841 7.44016 16.841C10.0044 16.974 11.9038 16.2522 13.6893 14.4288L14.62 13.4791L15.9116 14.6757C17.697 16.3662 18.7797 16.7841 21.4009 16.7841C23.3003 16.7841 23.4713 16.7461 24.7249 16.1383C29.6444 13.707 30.822 7.45791 27.0992 3.50712C23.9461 0.164141 18.9506 0.126152 15.6647 3.39315L14.601 4.45683L13.8412 3.60209C11.9988 1.47474 8.90272 0.506035 6.11057 1.18983ZM9.03568 6.5272C10.0234 7.02105 10.5742 7.87579 10.5742 8.86348C10.5742 10.516 9.51053 11.5607 7.83904 11.5607C6.31951 11.5607 5.0469 9.96515 5.33181 8.42662C5.65471 6.75513 7.57312 5.76743 9.03568 6.5272ZM22.4646 6.54619C24.193 7.36294 24.5159 9.54728 23.1104 10.8959C22.6735 11.3137 22.3316 11.4467 21.5529 11.5037C19.8814 11.6366 18.6847 10.592 18.6847 9.01544C18.6847 6.96406 20.6601 5.69145 22.4646 6.54619Z" fill="url(#paint0_linear_88648_1211)"/>
<path d="M31.2016 19.842C29.4541 20.7347 27.9915 21.4375 27.9725 21.3995C27.9346 21.3615 27.7256 20.9247 27.4787 20.4308C27.2128 19.842 26.7759 19.3292 26.2821 19.0063L25.5033 18.4934L14.8476 18.4364L4.19181 18.3984L3.35606 18.8353C2.78624 19.1392 2.31138 19.5951 1.9315 20.2029L1.36167 21.1146L1.30469 25.8252C1.2667 28.7313 1.32368 30.8017 1.43765 31.2765C1.74156 32.3782 2.40635 33.2519 3.35606 33.7837C4.17281 34.2396 4.36275 34.2586 8.1426 34.3156L12.0934 34.3726L10.004 37.4306C8.63645 39.444 7.91467 40.6786 7.91467 41.0015C7.91467 41.8753 9.05432 42.5401 9.81409 42.1412C10.023 42.0272 11.2007 40.4317 12.4353 38.5893C14.4297 35.5882 14.6576 35.2843 14.8855 35.6072C19.0833 41.8943 19.1972 42.0462 19.805 42.1032C20.5458 42.1792 21.4006 41.5334 21.4006 40.8876C21.4006 40.6217 20.5458 39.1781 19.3112 37.3357L17.2218 34.2586L21.2676 34.1636C24.5916 34.0877 25.3893 34.0117 25.8832 33.7458C26.6619 33.3279 27.3837 32.4352 27.6686 31.5994L27.8776 30.9346L31.2775 32.6441C34.1836 34.1256 34.7345 34.3346 35.1334 34.1826C35.3993 34.0687 35.7222 33.8217 35.8361 33.5938C35.9691 33.3279 36.0261 30.9916 35.9881 26.0721L35.9311 18.9303L35.4753 18.5694C35.2283 18.3794 34.8864 18.2085 34.7155 18.2275C34.5445 18.2275 32.968 18.9493 31.2016 19.842Z" fill="url(#paint1_linear_88648_1211)"/>
<defs>
<linearGradient id="paint0_linear_88648_1211" x1="3.34131" y1="22.0796" x2="48.3747" y2="-49.7806" gradientUnits="userSpaceOnUse">
<stop stop-color="#A854E9"/>
<stop offset="1" stop-color="#4F91FC"/>
</linearGradient>
<linearGradient id="paint1_linear_88648_1211" x1="5.25239" y1="50.1621" x2="79.1173" y2="-42.1555" gradientUnits="userSpaceOnUse">
<stop stop-color="#A854E9"/>
<stop offset="1" stop-color="#4F91FC"/>
</linearGradient>
</defs>
</svg>
