<svg width="42" height="38" viewBox="0 0 42 38" fill="none" xmlns="http://www.w3.org/2000/svg">
<path d="M6.31956 0.311197C5.69323 0.461979 5.1249 0.902725 4.78855 1.45946C4.48698 1.99299 4.47538 2.06258 4.44059 4.03434C4.40579 5.26379 4.45219 6.29607 4.52178 6.65562C4.68416 7.36314 5.1713 7.98946 5.83242 8.31422L6.33116 8.55779H4.52178C2.85158 8.55779 2.6776 8.58099 2.20206 8.82456C1.8657 9.01013 1.57574 9.2885 1.34377 9.65966L0.995809 10.2164L0.961014 12.4317C0.914619 14.9022 0.984211 15.2966 1.55254 15.9461C2.32965 16.8276 1.80771 16.7928 11.4925 16.7928H20.1335L20.9686 15.9925C21.4209 15.5517 22.14 14.9486 22.5576 14.647L23.3231 14.1019V12.4085C23.3231 11.469 23.2651 10.5064 23.1955 10.2628C23.0563 9.74085 22.3604 8.92894 21.8733 8.72017C21.5601 8.58099 21.6993 8.56939 23.0911 8.55779C24.9237 8.55779 25.3876 8.4534 25.9908 7.90827C26.7447 7.22395 26.8258 6.8528 26.7795 4.17352L26.7447 1.85381L26.3967 1.34347C26.1995 1.06511 25.8052 0.717148 25.5268 0.554768L25.0049 0.264803L15.842 0.241606C10.8082 0.230007 6.51673 0.264803 6.31956 0.311197Z" fill="url(#paint0_linear_88648_1220)"/>
<path d="M29.3433 14.5888C27.6615 14.7975 25.7941 15.4819 24.4023 16.4097C23.4976 17.0013 22.013 18.4279 21.4098 19.2862C18.603 23.2413 18.603 28.5651 21.4098 32.5086C22.0478 33.3901 23.4048 34.7007 24.3559 35.3386C28.1138 37.8787 33.1476 37.9019 36.9055 35.3966C39.1789 33.8888 40.8027 31.6851 41.603 29.0174C42.0089 27.672 42.1249 25.0971 41.8465 23.7516C41.371 21.4667 40.3503 19.5414 38.7497 17.9408C37.1491 16.3286 35.5601 15.4007 33.484 14.8787C32.2777 14.5772 30.4683 14.4496 29.3433 14.5888ZM31.373 18.5555C31.4774 18.6947 31.5586 18.9614 31.5586 19.1238C31.5586 19.4022 31.6166 19.4486 32.0573 19.5182C32.8808 19.6573 34.3191 20.2605 34.5742 20.5852C34.8874 20.9912 34.8758 21.4899 34.5162 21.8379C34.1451 22.2206 33.7275 22.209 32.8228 21.7915C32.4169 21.5943 31.9413 21.4087 31.7674 21.3623L31.4426 21.2927V22.9165V24.5287L32.3473 24.8535C34.0755 25.4566 34.8874 26.1526 35.2237 27.3008C35.8037 29.319 34.5858 31.0472 32.2313 31.5227L31.5586 31.6503V32.3462C31.5586 33.1001 31.315 33.4945 30.8395 33.4945C30.3639 33.4945 30.1668 33.1697 30.1668 32.3926V31.6735L29.1577 31.4299C28.0558 31.1515 26.6176 30.5252 26.2348 30.1425C25.7129 29.6205 26.1189 28.5071 26.8264 28.5071C26.9771 28.5071 27.6151 28.7622 28.253 29.0754C28.8909 29.4002 29.61 29.6901 29.8536 29.7365L30.2827 29.8061V28.1243V26.4309L29.6332 26.2453C27.0003 25.4798 25.8869 23.914 26.5132 21.8147C26.8612 20.6432 28.1486 19.6689 29.5868 19.495C30.1436 19.4254 30.1668 19.4138 30.1668 19.0774C30.1668 18.3583 30.9903 18.0103 31.373 18.5555Z" fill="url(#paint1_linear_88648_1220)"/>
<path d="M29.2974 21.4206C29.0422 21.5365 28.7639 21.7453 28.6827 21.8961C28.4507 22.2789 28.4855 23.0328 28.7407 23.3807C28.961 23.6823 29.8541 24.2042 30.1441 24.2158C30.2485 24.2158 30.2833 23.8331 30.2833 22.708C30.2833 21.2234 30.2833 21.2002 30.0281 21.2002C29.8773 21.2002 29.5526 21.3046 29.2974 21.4206Z" fill="url(#paint2_linear_88648_1220)"/>
<path d="M31.4453 28.3445V29.9219L31.8281 29.8407C32.3616 29.7247 32.7907 29.4811 32.9995 29.1796C33.2663 28.8084 33.2431 27.9153 32.9531 27.5558C32.7444 27.2774 31.8281 26.7671 31.5613 26.7671C31.4917 26.7671 31.4453 27.3586 31.4453 28.3445Z" fill="url(#paint3_linear_88648_1220)"/>
<path d="M6.75037 17.8598C6.10085 17.999 5.16137 18.9037 5.05698 19.4721C5.02219 19.6924 4.99899 20.9219 5.02219 22.2093L5.05698 24.5406L5.40494 25.0394C5.60212 25.3177 5.97327 25.6425 6.27483 25.7933L6.79677 26.06L4.26828 26.0716C2.16893 26.0716 1.68179 26.1064 1.36863 26.2572C0.846696 26.524 0.48714 26.8719 0.231972 27.3823C0.0231972 27.7766 0 28.0666 0 30.2007C0 32.4625 0.0115986 32.6016 0.266767 33.0656C0.417549 33.3208 0.765506 33.7035 1.03227 33.9007L1.54261 34.2486L10.5779 34.2834L19.6132 34.3066L19.0797 33.4831C16.7715 29.9108 16.1916 25.5033 17.5255 21.525C17.8966 20.4231 18.5345 19.0893 19.0449 18.347C19.2189 18.0802 19.3348 17.8367 19.3 17.7903C19.1841 17.6743 7.30711 17.7323 6.75037 17.8598Z" fill="url(#paint4_linear_88648_1220)"/>
<defs>
<linearGradient id="paint0_linear_88648_1220" x1="3.89719" y1="22.2358" x2="53.7687" y2="-45.1423" gradientUnits="userSpaceOnUse">
<stop stop-color="#A854E9"/>
<stop offset="1" stop-color="#4F91FC"/>
</linearGradient>
<linearGradient id="paint1_linear_88648_1220" x1="21.8937" y1="44.7325" x2="92.7316" y2="-16.4866" gradientUnits="userSpaceOnUse">
<stop stop-color="#A854E9"/>
<stop offset="1" stop-color="#4F91FC"/>
</linearGradient>
<linearGradient id="paint2_linear_88648_1220" x1="28.7277" y1="25.2074" x2="36.3631" y2="21.3595" gradientUnits="userSpaceOnUse">
<stop stop-color="#A854E9"/>
<stop offset="1" stop-color="#4F91FC"/>
</linearGradient>
<linearGradient id="paint3_linear_88648_1220" x1="31.6439" y1="30.9592" x2="39.3726" y2="27.2687" gradientUnits="userSpaceOnUse">
<stop stop-color="#A854E9"/>
<stop offset="1" stop-color="#4F91FC"/>
</linearGradient>
<linearGradient id="paint4_linear_88648_1220" x1="2.23752" y1="39.7578" x2="54.4487" y2="-13.6997" gradientUnits="userSpaceOnUse">
<stop stop-color="#A854E9"/>
<stop offset="1" stop-color="#4F91FC"/>
</linearGradient>
</defs>
</svg>
