<svg width="72" height="73" viewBox="0 0 72 73" fill="none" xmlns="http://www.w3.org/2000/svg">
<rect y="0.259766" width="72" height="72" rx="36" fill="url(#paint0_linear_88648_1183)" fill-opacity="0.16"/>
<path d="M35.6809 15.1504C35.4546 15.2258 15.6685 28.3746 15.3333 28.6847C14.9562 29.0199 14.7886 29.4641 14.8305 30.0339C14.864 30.6289 15.0819 31.0144 15.5428 31.3329C15.8445 31.5424 16.5569 31.6514 16.9507 31.5508C17.0681 31.5173 21.4594 28.6344 26.7139 25.1314L36.2675 18.7623L45.8212 25.1314C51.0757 28.6344 55.467 31.5173 55.5843 31.5508C56.0117 31.6597 56.6905 31.5424 57.0341 31.3078C57.8721 30.7211 57.956 29.3635 57.2017 28.6847C56.9335 28.4333 37.2061 15.3012 36.9128 15.1755C36.653 15.0666 36.0077 15.0498 35.6809 15.1504Z" fill="url(#paint1_linear_88648_1183)"/>
<path d="M26.3381 28.6427L16.4492 34.8274V44.3727V53.918L16.642 54.5046C17.1532 56.0298 18.1337 57.0774 19.6338 57.6975L20.2204 57.9405L36.0174 57.9657C47.222 57.9824 51.9401 57.9573 52.2586 57.8903C53.0212 57.731 54.0101 57.1779 54.6302 56.5662C55.2504 55.9376 55.6107 55.3594 55.8957 54.5046L56.0884 53.918V44.3727V34.8274L46.1744 28.6343C40.7188 25.2319 36.2521 22.4496 36.2437 22.458C36.2353 22.458 31.7769 25.2403 26.3381 28.6427ZM39.5372 36.5706V39.8808H42.8474H46.1577V43.1492V46.4175H42.8474H39.5372V49.6859V52.9542H36.2688H33.0005V49.6859V46.4175H29.6902H26.38V43.1492V39.8808H29.6902H33.0005V36.5706V33.2603H36.2688H39.5372V36.5706Z" fill="url(#paint2_linear_88648_1183)"/>
<defs>
<linearGradient id="paint0_linear_88648_1183" x1="8.21394" y1="-23.414" x2="232.676" y2="170.852" gradientUnits="userSpaceOnUse">
<stop stop-color="#A854E9"/>
<stop offset="1" stop-color="#4F91FC"/>
</linearGradient>
<linearGradient id="paint1_linear_88648_1183" x1="19.7177" y1="37.0197" x2="58.3312" y2="-49.8154" gradientUnits="userSpaceOnUse">
<stop stop-color="#A854E9"/>
<stop offset="1" stop-color="#4F91FC"/>
</linearGradient>
<linearGradient id="paint2_linear_88648_1183" x1="20.9714" y1="69.6474" x2="132.774" y2="-38.3584" gradientUnits="userSpaceOnUse">
<stop stop-color="#A854E9"/>
<stop offset="1" stop-color="#4F91FC"/>
</linearGradient>
</defs>
</svg>
