<svg width="41" height="36" viewBox="0 0 41 36" fill="none" xmlns="http://www.w3.org/2000/svg">
<path d="M10.3381 6.64272L0.449219 12.8274V22.3727V31.918L0.641968 32.5046C1.15317 34.0298 2.13368 35.0774 3.63376 35.6975L4.22039 35.9405L20.0174 35.9657C31.222 35.9824 35.9401 35.9573 36.2586 35.8903C37.0212 35.731 38.0101 35.1779 38.6302 34.5662C39.2504 33.9376 39.6107 33.3594 39.8957 32.5046L40.0884 31.918V22.3727V12.8274L30.1744 6.63434C24.7188 3.2319 20.2521 0.449615 20.2437 0.457993C20.2353 0.457993 15.7769 3.24028 10.3381 6.64272ZM23.5372 14.5706V17.8808H26.8474H30.1577V21.1492V24.4175H26.8474H23.5372V27.6859V30.9542H20.2688H17.0005V27.6859V24.4175H13.6902H10.38V21.1492V17.8808H13.6902H17.0005V14.5706V11.2603H20.2688H23.5372V14.5706Z" fill="url(#paint0_linear_88648_1186)"/>
<defs>
<linearGradient id="paint0_linear_88648_1186" x1="4.97136" y1="47.6474" x2="116.774" y2="-60.3584" gradientUnits="userSpaceOnUse">
<stop stop-color="#A854E9"/>
<stop offset="1" stop-color="#4F91FC"/>
</linearGradient>
</defs>
</svg>
