<svg width="166" height="55" viewBox="0 0 166 55" fill="none" xmlns="http://www.w3.org/2000/svg">
<path d="M15.0085 25.5961C15.938 22.1279 19.5029 18.563 22.9711 17.6335L44.5931 11.839C48.0612 10.9096 50.1193 12.9677 49.1899 16.4358L43.3954 38.0579C42.4659 41.526 38.901 45.0909 35.4328 46.0204L13.8108 51.8149C10.3427 52.7443 8.28462 50.6862 9.21405 47.2181L15.0085 25.5961Z" fill="#9E77ED"/>
<path d="M6.34056 16.9281C7.26999 13.4599 10.8349 9.89499 14.3031 8.96556L35.9251 3.17107C39.3933 2.24165 41.4513 4.29969 40.5219 7.76784L34.7274 29.3899C33.798 32.858 30.2331 36.423 26.7649 37.3524L5.14285 43.1469C1.67469 44.0763 -0.383351 42.0183 0.546077 38.5501L6.34056 16.9281Z" fill="#6941C6"/>
<path d="M69.2799 35.8892H76.7174V38.8009H65.6719V16.8047H69.2799V35.8892Z" fill="black"/>
<path d="M78.5321 30.0024C78.5321 28.2512 78.8908 26.7003 79.6082 25.35C80.3466 23.9996 81.3383 22.9552 82.5832 22.2167C83.8491 21.4571 85.2417 21.0773 86.7609 21.0773C88.1323 21.0773 89.3245 21.3516 90.3372 21.9002C91.3711 22.4277 92.194 23.0923 92.8059 23.8941V21.3622H96.4455V38.8009H92.8059V36.2057C92.194 37.0285 91.3606 37.7143 90.3056 38.2629C89.2506 38.8114 88.0479 39.0857 86.6976 39.0857C85.1995 39.0857 83.828 38.7059 82.5832 37.9464C81.3383 37.1657 80.3466 36.0896 79.6082 34.7181C78.8908 33.3256 78.5321 31.7537 78.5321 30.0024ZM92.8059 30.0657C92.8059 28.863 92.5527 27.8186 92.0463 26.9324C91.561 26.0463 90.9175 25.3711 90.1157 24.9069C89.3139 24.4427 88.4488 24.2106 87.5205 24.2106C86.5921 24.2106 85.727 24.4427 84.9252 24.9069C84.1234 25.35 83.4694 26.0146 82.963 26.9008C82.4777 27.7659 82.235 28.7997 82.235 30.0024C82.235 31.2051 82.4777 32.2601 82.963 33.1673C83.4694 34.0746 84.1234 34.7709 84.9252 35.2562C85.7481 35.7204 86.6132 35.9525 87.5205 35.9525C88.4488 35.9525 89.3139 35.7204 90.1157 35.2562C90.9175 34.792 91.561 34.1168 92.0463 33.2306C92.5527 32.3234 92.8059 31.2684 92.8059 30.0657Z" fill="black"/>
<path d="M116.883 21.3622L106.185 46.998H102.45L105.995 38.516L99.1273 21.3622H103.147L108.052 34.6548L113.148 21.3622H116.883Z" fill="black"/>
<path d="M135.588 29.6543C135.588 30.3084 135.546 30.8991 135.462 31.4266H122.137C122.243 32.8192 122.76 33.9375 123.688 34.7814C124.616 35.6254 125.756 36.0474 127.106 36.0474C129.047 36.0474 130.419 35.2351 131.221 33.6104H135.113C134.586 35.214 133.626 36.5327 132.233 37.5666C130.862 38.5793 129.153 39.0857 127.106 39.0857C125.439 39.0857 123.941 38.7165 122.612 37.978C121.304 37.2184 120.27 36.1635 119.51 34.8131C118.772 33.4416 118.403 31.8592 118.403 30.0657C118.403 28.2723 118.761 26.7003 119.479 25.35C120.217 23.9785 121.241 22.9235 122.549 22.1851C123.878 21.4466 125.397 21.0773 127.106 21.0773C128.752 21.0773 130.218 21.436 131.505 22.1534C132.792 22.8708 133.795 23.8836 134.512 25.1917C135.229 26.4788 135.588 27.9663 135.588 29.6543ZM131.822 28.5149C131.801 27.1856 131.326 26.1201 130.398 25.3183C129.469 24.5165 128.319 24.1157 126.948 24.1157C125.703 24.1157 124.638 24.5165 123.751 25.3183C122.865 26.099 122.338 27.1645 122.169 28.5149H131.822Z" fill="black"/>
<path d="M142.747 23.8941C143.274 23.0079 143.971 22.3222 144.836 21.8369C145.722 21.3305 146.766 21.0773 147.969 21.0773V24.8119H147.051C145.637 24.8119 144.561 25.1706 143.823 25.888C143.106 26.6054 142.747 27.8503 142.747 29.6226V38.8009H139.139V21.3622H142.747V23.8941Z" fill="black"/>
<path d="M157.615 39.0857C156.244 39.0857 155.009 38.8431 153.912 38.3578C152.836 37.8514 151.982 37.1762 151.349 36.3323C150.716 35.4672 150.378 34.5071 150.336 33.4522H154.071C154.134 34.1907 154.482 34.8131 155.115 35.3195C155.769 35.8048 156.581 36.0474 157.552 36.0474C158.565 36.0474 159.345 35.8575 159.894 35.4777C160.464 35.0768 160.749 34.5704 160.749 33.9586C160.749 33.3045 160.432 32.8192 159.799 32.5027C159.187 32.1862 158.206 31.8381 156.856 31.4583C155.548 31.0996 154.482 30.7514 153.659 30.4138C152.836 30.0763 152.119 29.5593 151.507 28.863C150.916 28.1668 150.621 27.2489 150.621 26.1096C150.621 25.1812 150.895 24.3372 151.444 23.5776C151.992 22.7969 152.773 22.1851 153.786 21.742C154.82 21.2989 156.001 21.0773 157.33 21.0773C159.314 21.0773 160.907 21.5837 162.109 22.5965C163.333 23.5882 163.987 24.9491 164.072 26.6792H160.464C160.4 25.8986 160.084 25.2761 159.514 24.8119C158.945 24.3477 158.174 24.1157 157.204 24.1157C156.254 24.1157 155.526 24.295 155.02 24.6537C154.514 25.0124 154.26 25.4871 154.26 26.0779C154.26 26.5421 154.429 26.9324 154.767 27.2489C155.104 27.5654 155.516 27.8186 156.001 28.0085C156.486 28.1773 157.204 28.3988 158.153 28.6731C159.419 29.0107 160.453 29.3589 161.255 29.7176C162.078 30.0552 162.785 30.5615 163.375 31.2367C163.966 31.9119 164.272 32.8086 164.293 33.9269C164.293 34.9186 164.019 35.8048 163.47 36.5854C162.922 37.3661 162.141 37.978 161.128 38.4211C160.137 38.8642 158.966 39.0857 157.615 39.0857Z" fill="black"/>
</svg>
