<svg width="181" height="55" viewBox="0 0 181 55" fill="none" xmlns="http://www.w3.org/2000/svg">
<path d="M24.8926 2.62891C11.1588 2.62891 0.0253906 13.7623 0.0253906 27.4961C0.0253906 41.2299 11.1588 52.3634 24.8926 52.3634C37.2144 52.3634 47.4429 43.4017 49.416 31.6407H49.2376C47.3972 38.791 40.9064 44.0743 33.1817 44.0743C24.0259 44.0743 16.6035 36.652 16.6035 27.4961C16.6035 18.3403 24.0259 10.918 33.1817 10.918C40.9064 10.918 47.3972 16.2013 49.2376 23.3516H49.416C47.4429 11.5906 37.2144 2.62891 24.8926 2.62891Z" fill="#A4BCFD"/>
<path d="M0.0253906 27.4961C0.0253906 13.7623 11.1588 2.62891 24.8926 2.62891C37.2143 2.62891 47.4429 11.5906 49.416 23.3516H32.6594C30.8191 16.2013 24.3283 10.918 16.6035 10.918C7.44768 10.918 0.0253906 18.3403 0.0253906 27.4961Z" fill="#3538CD"/>
<path d="M0.0253906 27.496C0.0253906 41.2298 11.1588 52.3633 24.8926 52.3633C37.2143 52.3633 47.4429 43.4016 49.416 31.6406H32.6594C30.8191 38.7909 24.3283 44.0742 16.6035 44.0742C7.44768 44.0742 0.0253906 36.6519 0.0253906 27.496Z" fill="#3538CD"/>
<path d="M85.2963 23.5477C84.5882 18.4339 80.6545 15.4668 75.552 15.4668C69.5391 15.4668 65.0098 19.85 65.0098 27.2903C65.0098 34.7193 69.4829 39.1138 75.552 39.1138C81.0254 39.1138 84.6556 35.5735 85.2963 31.179L81.0929 31.1565C80.5646 33.8539 78.3618 35.3712 75.6082 35.3712C71.8768 35.3712 69.2019 32.5727 69.2019 27.2903C69.2019 22.0978 71.8544 19.2094 75.6194 19.2094C78.418 19.2094 80.6096 20.7941 81.0929 23.5477H85.2963Z" fill="black"/>
<path d="M93.9026 39.1475C96.6112 39.1475 98.2296 37.8775 98.9714 36.4277H99.1063V38.7991H103.017V27.2453C103.017 22.6823 99.2973 21.3111 96.0043 21.3111C92.3741 21.3111 89.5868 22.9295 88.6877 26.0765L92.4865 26.616C92.8911 25.4359 94.0375 24.4243 96.0268 24.4243C97.9149 24.4243 98.9489 25.3909 98.9489 27.088V27.1554C98.9489 28.3243 97.7239 28.3805 94.6781 28.7064C91.3288 29.0661 88.1257 30.0663 88.1257 33.9551C88.1257 37.3493 90.6095 39.1475 93.9026 39.1475ZM94.9591 36.1579C93.262 36.1579 92.0481 35.3824 92.0481 33.8876C92.0481 32.3254 93.4081 31.6735 95.2288 31.415C96.2965 31.2689 98.4319 30.9992 98.9602 30.5721V32.6064C98.9602 34.5283 97.4092 36.1579 94.9591 36.1579Z" fill="black"/>
<path d="M115.729 21.5359H112.323V17.3999H108.255V21.5359H105.805V24.6828H108.255V34.281C108.232 37.5291 110.593 39.125 113.65 39.0351C114.807 39.0014 115.605 38.7766 116.044 38.6305L115.358 35.4499C115.133 35.5061 114.672 35.6072 114.167 35.6072C113.144 35.6072 112.323 35.2476 112.323 33.6067V24.6828H115.729V21.5359Z" fill="black"/>
<path d="M124.099 39.1475C126.808 39.1475 128.426 37.8775 129.168 36.4277H129.303V38.7991H133.214V27.2453C133.214 22.6823 129.494 21.3111 126.201 21.3111C122.571 21.3111 119.783 22.9295 118.884 26.0765L122.683 26.616C123.088 25.4359 124.234 24.4243 126.223 24.4243C128.111 24.4243 129.145 25.3909 129.145 27.088V27.1554C129.145 28.3243 127.92 28.3805 124.875 28.7064C121.525 29.0661 118.322 30.0663 118.322 33.9551C118.322 37.3493 120.806 39.1475 124.099 39.1475ZM125.156 36.1579C123.459 36.1579 122.245 35.3824 122.245 33.8876C122.245 32.3254 123.605 31.6735 125.425 31.415C126.493 31.2689 128.628 30.9992 129.157 30.5721V32.6064C129.157 34.5283 127.606 36.1579 125.156 36.1579Z" fill="black"/>
<path d="M141.374 15.7815H137.305V38.7991H141.374V15.7815Z" fill="black"/>
<path d="M153.087 39.1363C158.145 39.1363 161.359 35.5735 161.359 30.2349C161.359 24.8851 158.145 21.3111 153.087 21.3111C148.03 21.3111 144.816 24.8851 144.816 30.2349C144.816 35.5735 148.03 39.1363 153.087 39.1363ZM153.11 35.8769C150.311 35.8769 148.94 33.3819 148.94 30.2237C148.94 27.0655 150.311 24.5367 153.11 24.5367C155.864 24.5367 157.235 27.0655 157.235 30.2237C157.235 33.3819 155.864 35.8769 153.11 35.8769Z" fill="black"/>
<path d="M172.32 45.6325C176.985 45.6325 180.424 43.497 180.424 39.0801V21.5359H176.411V24.3906H176.187C175.568 23.1431 174.276 21.3111 171.23 21.3111C167.24 21.3111 164.105 24.4356 164.105 30.1113C164.105 35.7421 167.24 38.5518 171.219 38.5518C174.175 38.5518 175.557 36.9671 176.187 35.6971H176.389V38.9677C176.389 41.5077 174.703 42.5529 172.388 42.5529C169.938 42.5529 168.859 41.3953 168.364 40.3838L164.7 41.2717C165.442 43.6881 167.926 45.6325 172.32 45.6325ZM172.354 35.3599C169.668 35.3599 168.252 33.2695 168.252 30.0888C168.252 26.9531 169.645 24.6491 172.354 24.6491C174.973 24.6491 176.411 26.8183 176.411 30.0888C176.411 33.3819 174.95 35.3599 172.354 35.3599Z" fill="black"/>
</svg>
