<svg width="208" height="55" viewBox="0 0 208 55" fill="none" xmlns="http://www.w3.org/2000/svg">
<path d="M18.135 38.1546C27.9448 38.1546 35.8973 30.2022 35.8973 20.3923C35.8973 19.2805 35.7951 18.1926 35.5997 17.1374C34.5445 16.942 33.4566 16.8398 32.3448 16.8398C22.535 16.8398 14.5825 24.7923 14.5825 34.6022C14.5825 35.7139 14.6847 36.8019 14.8801 37.8571C15.9353 38.0525 17.0232 38.1546 18.135 38.1546Z" fill="#175CD3"/>
<path fill-rule="evenodd" clip-rule="evenodd" d="M14.879 37.8569C6.62363 36.3281 0.371582 29.0903 0.371582 20.3922C0.371582 10.5823 8.32404 2.62988 18.1339 2.62988C26.832 2.62988 34.0698 8.88193 35.5986 17.1373C34.5435 16.9419 33.4555 16.8397 32.3437 16.8397C22.5339 16.8397 14.5814 24.7922 14.5814 34.602C14.5814 35.7138 14.6836 36.8017 14.879 37.8569Z" fill="#1570EF"/>
<path fill-rule="evenodd" clip-rule="evenodd" d="M18.1343 38.1539C27.9442 38.1539 35.8966 30.2015 35.8966 20.3916C35.8966 19.2798 35.7945 18.1919 35.5991 17.1367C43.8544 18.6656 50.1065 25.9034 50.1065 34.6015C50.1065 44.4113 42.154 52.3638 32.3442 52.3638C23.6461 52.3638 16.4082 46.1117 14.8794 37.8564C15.9346 38.0518 17.0225 38.1539 18.1343 38.1539Z" fill="#2E90FA"/>
<path d="M84.2744 33.0405C83.6414 35.0872 82.5337 36.6169 80.9512 37.6297C79.3687 38.6214 77.5225 39.1172 75.4126 39.1172C73.3448 39.1172 71.5514 38.6847 70.0322 37.8196C68.5342 36.9545 67.3737 35.7202 66.5508 34.1166C65.749 32.5131 65.3481 30.593 65.3481 28.3565C65.3481 26.1199 65.7596 24.1999 66.5825 22.5963C67.4053 20.9927 68.5658 19.7584 70.0639 18.8934C71.5619 18.0283 73.3237 17.5957 75.3493 17.5957C77.4803 17.5957 79.3054 18.0494 80.8246 18.9566C82.3649 19.8428 83.4198 21.1932 83.9895 23.0077L80.0334 24.6852C79.6747 23.4192 79.1261 22.5225 78.3876 21.995C77.6491 21.4464 76.6997 21.1721 75.5392 21.1721C73.809 21.1721 72.427 21.7945 71.3931 23.0394C70.3804 24.2632 69.874 26.0355 69.874 28.3565C69.874 30.6563 70.3593 32.4287 71.3298 33.6735C72.3004 34.9184 73.7035 35.5408 75.5392 35.5408C76.6786 35.5408 77.6597 35.2349 78.4826 34.623C79.3265 34.0111 79.9173 33.0827 80.2549 31.8379L84.2744 33.0405Z" fill="black"/>
<path d="M89.7376 20.6974C87.9441 20.6974 87.0474 19.9272 87.0474 18.387C87.0474 16.8256 87.9441 16.0449 89.7376 16.0449C91.531 16.0449 92.4277 16.8256 92.4277 18.387C92.4277 19.9272 91.531 20.6974 89.7376 20.6974ZM91.8897 22.9761V38.8007H87.5538V22.9761H91.8897Z" fill="black"/>
<path d="M96.486 38.8007V22.9761H100.252L100.537 26.0777C100.938 25.0016 101.539 24.1682 102.341 23.5774C103.164 22.9655 104.198 22.6596 105.443 22.6596C106.181 22.6596 106.751 22.7757 107.152 23.0077L106.645 26.6474C106.434 26.5841 106.171 26.5314 105.854 26.4892C105.559 26.4259 105.168 26.3942 104.683 26.3942C104.029 26.3942 103.407 26.5525 102.816 26.869C102.246 27.1643 101.771 27.6285 101.392 28.2615C101.012 28.8734 100.822 29.6541 100.822 30.6036V38.8007H96.486Z" fill="black"/>
<path d="M116.713 22.6596C118.823 22.6596 120.458 23.1132 121.619 24.0205C122.801 24.9278 123.581 26.025 123.961 27.312L119.91 28.7679C119.488 26.8479 118.443 25.8878 116.777 25.8878C115.574 25.8878 114.635 26.3098 113.96 27.1538C113.306 27.9978 112.979 29.2532 112.979 30.9201C112.979 32.608 113.316 33.8634 113.991 34.6863C114.688 35.4881 115.627 35.889 116.808 35.889C118.644 35.889 119.741 34.9501 120.1 33.0722L124.024 34.3382C123.666 35.7518 122.864 36.9018 121.619 37.7879C120.395 38.6741 118.802 39.1172 116.84 39.1172C115.194 39.1172 113.749 38.7902 112.504 38.1361C111.28 37.482 110.331 36.5431 109.656 35.3193C108.98 34.0955 108.643 32.6186 108.643 30.8884C108.643 29.1582 108.98 27.6813 109.656 26.4575C110.352 25.2337 111.301 24.2948 112.504 23.6407C113.728 22.9866 115.131 22.6596 116.713 22.6596Z" fill="black"/>
<path d="M134.609 22.6596C136.192 22.6596 137.595 22.9866 138.819 23.6407C140.043 24.2948 140.992 25.2337 141.667 26.4575C142.364 27.6813 142.712 29.1582 142.712 30.8884C142.712 32.6186 142.364 34.0955 141.667 35.3193C140.992 36.5431 140.043 37.482 138.819 38.1361C137.595 38.7902 136.192 39.1172 134.609 39.1172C133.006 39.1172 131.592 38.7902 130.368 38.1361C129.166 37.482 128.216 36.5431 127.52 35.3193C126.845 34.0955 126.507 32.6186 126.507 30.8884C126.507 29.1582 126.845 27.6813 127.52 26.4575C128.216 25.2337 129.166 24.2948 130.368 23.6407C131.592 22.9866 133.006 22.6596 134.609 22.6596ZM134.609 25.8878C133.428 25.8878 132.5 26.3098 131.824 27.1538C131.17 27.9767 130.843 29.2215 130.843 30.8884C130.843 32.5553 131.17 33.8107 131.824 34.6547C132.5 35.4775 133.428 35.889 134.609 35.889C135.77 35.889 136.677 35.4775 137.331 34.6547C138.006 33.8107 138.344 32.5553 138.344 30.8884C138.344 29.2215 138.006 27.9767 137.331 27.1538C136.677 26.3098 135.77 25.8878 134.609 25.8878Z" fill="black"/>
<path d="M153.556 22.6596C155.138 22.6596 156.541 22.9866 157.765 23.6407C158.989 24.2948 159.938 25.2337 160.613 26.4575C161.31 27.6813 161.658 29.1582 161.658 30.8884C161.658 32.6186 161.31 34.0955 160.613 35.3193C159.938 36.5431 158.989 37.482 157.765 38.1361C156.541 38.7902 155.138 39.1172 153.556 39.1172C151.952 39.1172 150.538 38.7902 149.315 38.1361C148.112 37.482 147.163 36.5431 146.466 35.3193C145.791 34.0955 145.454 32.6186 145.454 30.8884C145.454 29.1582 145.791 27.6813 146.466 26.4575C147.163 25.2337 148.112 24.2948 149.315 23.6407C150.538 22.9866 151.952 22.6596 153.556 22.6596ZM153.556 25.8878C152.374 25.8878 151.446 26.3098 150.771 27.1538C150.116 27.9767 149.789 29.2215 149.789 30.8884C149.789 32.5553 150.116 33.8107 150.771 34.6547C151.446 35.4775 152.374 35.889 153.556 35.889C154.716 35.889 155.623 35.4775 156.278 34.6547C156.953 33.8107 157.29 32.5553 157.29 30.8884C157.29 29.2215 156.953 27.9767 156.278 27.1538C155.623 26.3098 154.716 25.8878 153.556 25.8878Z" fill="black"/>
<path d="M169.559 16.0449V33.9267C169.559 34.6652 169.685 35.1821 169.938 35.4775C170.192 35.7729 170.614 35.9206 171.204 35.9206C171.563 35.9206 171.858 35.8995 172.091 35.8573C172.323 35.8151 172.618 35.7307 172.977 35.6041L172.597 38.4526C172.238 38.6636 171.785 38.8218 171.236 38.9273C170.709 39.0539 170.181 39.1172 169.654 39.1172C168.113 39.1172 166.984 38.748 166.267 38.0095C165.571 37.2499 165.223 36.0472 165.223 34.4015V16.0449H169.559Z" fill="black"/>
<path d="M182.735 39.1172C180.246 39.1172 178.252 38.3998 176.754 36.965C175.256 35.5092 174.506 33.4836 174.506 30.8884C174.506 29.1582 174.844 27.6813 175.519 26.4575C176.194 25.2337 177.133 24.2948 178.336 23.6407C179.56 22.9866 180.952 22.6596 182.514 22.6596C184.117 22.6596 185.478 22.9866 186.596 23.6407C187.715 24.2737 188.569 25.1493 189.16 26.2676C189.751 27.3648 190.046 28.6202 190.046 30.0339C190.046 30.4559 190.036 30.8568 190.015 31.2365C189.993 31.6163 189.962 31.9539 189.92 32.2493H178.747C178.916 33.4731 179.338 34.3909 180.013 35.0028C180.71 35.5936 181.606 35.889 182.704 35.889C183.632 35.889 184.381 35.7096 184.951 35.3509C185.52 34.9923 185.964 34.4964 186.28 33.8634L189.73 35.1927C189.223 36.4376 188.337 37.4081 187.071 38.1044C185.805 38.7796 184.36 39.1172 182.735 39.1172ZM182.482 25.8562C180.435 25.8562 179.201 26.985 178.779 29.2426H185.9C185.774 28.1455 185.415 27.312 184.824 26.7424C184.254 26.1516 183.474 25.8562 182.482 25.8562Z" fill="black"/>
<path d="M200.051 39.1172C198.447 39.1172 196.981 38.8324 195.651 38.2627C194.343 37.693 193.278 36.8912 192.455 35.8573L194.955 33.3254C195.461 34.085 196.137 34.7074 196.981 35.1927C197.825 35.678 198.827 35.9206 199.987 35.9206C200.81 35.9206 201.464 35.8046 201.95 35.5725C202.456 35.3193 202.709 34.929 202.709 34.4015C202.709 34.0639 202.593 33.779 202.361 33.5469C202.129 33.2937 201.665 33.0933 200.968 32.9456L198.183 32.3759C196.348 31.9961 195.039 31.4264 194.259 30.6669C193.499 29.8862 193.119 28.884 193.119 27.6602C193.119 26.7951 193.373 25.9828 193.879 25.2232C194.406 24.4636 195.187 23.8517 196.221 23.3875C197.255 22.9023 198.542 22.6596 200.082 22.6596C203.289 22.6596 205.589 23.6407 206.982 25.603L204.387 28.1349C203.922 27.3964 203.31 26.8373 202.551 26.4575C201.812 26.0566 201.032 25.8562 200.209 25.8562C198.352 25.8562 197.424 26.3731 197.424 27.407C197.424 27.7446 197.571 28.04 197.867 28.2932C198.162 28.5253 198.7 28.7257 199.481 28.8945L202.709 29.5591C204.271 29.8756 205.389 30.4137 206.064 31.1732C206.739 31.9117 207.077 32.8085 207.077 33.8634C207.077 35.3826 206.465 36.638 205.241 37.6297C204.038 38.6214 202.308 39.1172 200.051 39.1172Z" fill="black"/>
</svg>
