<svg width="181" height="55" viewBox="0 0 181 55" fill="none" xmlns="http://www.w3.org/2000/svg">
<path d="M24.8951 2.62891C11.1612 2.62891 0.027832 13.7623 0.027832 27.4961C0.027832 41.2299 11.1612 52.3634 24.8951 52.3634C37.2168 52.3634 47.4454 43.4017 49.4185 31.6407H49.24C47.3997 38.791 40.9089 44.0743 33.1841 44.0743C24.0283 44.0743 16.606 36.652 16.606 27.4961C16.606 18.3403 24.0283 10.918 33.1841 10.918C40.9089 10.918 47.3997 16.2013 49.24 23.3516H49.4185C47.4454 11.5906 37.2168 2.62891 24.8951 2.62891Z" fill="#A4BCFD"/>
<path d="M0.027832 27.4961C0.027832 13.7623 11.1613 2.62891 24.8951 2.62891C37.2168 2.62891 47.4453 11.5906 49.4185 23.3516H32.6619C30.8215 16.2013 24.3307 10.918 16.606 10.918C7.45012 10.918 0.027832 18.3403 0.027832 27.4961Z" fill="#3538CD"/>
<path d="M0.027832 27.496C0.027832 41.2298 11.1613 52.3633 24.8951 52.3633C37.2168 52.3633 47.4453 43.4016 49.4185 31.6406H32.6619C30.8215 38.7909 24.3307 44.0742 16.606 44.0742C7.45012 44.0742 0.027832 36.6519 0.027832 27.496Z" fill="#3538CD"/>
<path d="M85.2987 23.5477C84.5907 18.4339 80.657 15.4668 75.5544 15.4668C69.5415 15.4668 65.0122 19.85 65.0122 27.2903C65.0122 34.7193 69.4854 39.1138 75.5544 39.1138C81.0279 39.1138 84.6581 35.5735 85.2987 31.179L81.0953 31.1565C80.5671 33.8539 78.3642 35.3712 75.6106 35.3712C71.8793 35.3712 69.2044 32.5727 69.2044 27.2903C69.2044 22.0978 71.8568 19.2094 75.6219 19.2094C78.4204 19.2094 80.612 20.7941 81.0953 23.5477H85.2987Z" fill="black"/>
<path d="M93.905 39.1475C96.6136 39.1475 98.2321 37.8775 98.9738 36.4277H99.1087V38.7991H103.02V27.2453C103.02 22.6823 99.2998 21.3111 96.0067 21.3111C92.3765 21.3111 89.5892 22.9295 88.6901 26.0765L92.4889 26.616C92.8935 25.4359 94.0399 24.4243 96.0292 24.4243C97.9174 24.4243 98.9514 25.3909 98.9514 27.088V27.1554C98.9514 28.3243 97.7263 28.3805 94.6805 28.7064C91.3313 29.0661 88.1281 30.0663 88.1281 33.9551C88.1281 37.3493 90.612 39.1475 93.905 39.1475ZM94.9615 36.1579C93.2644 36.1579 92.0506 35.3824 92.0506 33.8876C92.0506 32.3254 93.4105 31.6735 95.2312 31.415C96.2989 31.2689 98.4344 30.9992 98.9626 30.5721V32.6064C98.9626 34.5283 97.4116 36.1579 94.9615 36.1579Z" fill="black"/>
<path d="M115.731 21.5359H112.326V17.3999H108.257V21.5359H105.807V24.6828H108.257V34.281C108.235 37.5291 110.595 39.125 113.652 39.0351C114.81 39.0014 115.608 38.7766 116.046 38.6305L115.36 35.4499C115.136 35.5061 114.675 35.6072 114.169 35.6072C113.146 35.6072 112.326 35.2476 112.326 33.6067V24.6828H115.731V21.5359Z" fill="black"/>
<path d="M124.102 39.1475C126.81 39.1475 128.429 37.8775 129.17 36.4277H129.305V38.7991H133.216V27.2453C133.216 22.6823 129.496 21.3111 126.203 21.3111C122.573 21.3111 119.786 22.9295 118.887 26.0765L122.685 26.616C123.09 25.4359 124.236 24.4243 126.226 24.4243C128.114 24.4243 129.148 25.3909 129.148 27.088V27.1554C129.148 28.3243 127.923 28.3805 124.877 28.7064C121.528 29.0661 118.325 30.0663 118.325 33.9551C118.325 37.3493 120.809 39.1475 124.102 39.1475ZM125.158 36.1579C123.461 36.1579 122.247 35.3824 122.247 33.8876C122.247 32.3254 123.607 31.6735 125.428 31.415C126.495 31.2689 128.631 30.9992 129.159 30.5721V32.6064C129.159 34.5283 127.608 36.1579 125.158 36.1579Z" fill="black"/>
<path d="M141.376 15.7815H137.307V38.7991H141.376V15.7815Z" fill="black"/>
<path d="M153.09 39.1363C158.147 39.1363 161.362 35.5735 161.362 30.2349C161.362 24.8851 158.147 21.3111 153.09 21.3111C148.032 21.3111 144.818 24.8851 144.818 30.2349C144.818 35.5735 148.032 39.1363 153.09 39.1363ZM153.112 35.8769C150.314 35.8769 148.943 33.3819 148.943 30.2237C148.943 27.0655 150.314 24.5367 153.112 24.5367C155.866 24.5367 157.237 27.0655 157.237 30.2237C157.237 33.3819 155.866 35.8769 153.112 35.8769Z" fill="black"/>
<path d="M172.323 45.6325C176.987 45.6325 180.426 43.497 180.426 39.0801V21.5359H176.414V24.3906H176.189C175.571 23.1431 174.278 21.3111 171.233 21.3111C167.243 21.3111 164.107 24.4356 164.107 30.1113C164.107 35.7421 167.243 38.5518 171.221 38.5518C174.177 38.5518 175.56 36.9671 176.189 35.6971H176.391V38.9677C176.391 41.5077 174.705 42.5529 172.39 42.5529C169.94 42.5529 168.861 41.3953 168.367 40.3838L164.703 41.2717C165.444 43.6881 167.928 45.6325 172.323 45.6325ZM172.356 35.3599C169.67 35.3599 168.254 33.2695 168.254 30.0888C168.254 26.9531 169.648 24.6491 172.356 24.6491C174.975 24.6491 176.414 26.8183 176.414 30.0888C176.414 33.3819 174.953 35.3599 172.356 35.3599Z" fill="black"/>
</svg>
