<svg width="212" height="55" viewBox="0 0 212 55" fill="none" xmlns="http://www.w3.org/2000/svg">
<path fill-rule="evenodd" clip-rule="evenodd" d="M24.8672 41.5876C32.6497 41.5876 38.9587 35.2786 38.9587 27.4961C38.9587 19.7137 32.6497 13.4047 24.8672 13.4047C17.0847 13.4047 10.7758 19.7137 10.7758 27.4961C10.7758 35.2786 17.0847 41.5876 24.8672 41.5876ZM24.8672 52.3634C38.601 52.3634 49.7345 41.2299 49.7345 27.4961C49.7345 13.7623 38.601 2.62891 24.8672 2.62891C11.1334 2.62891 0 13.7623 0 27.4961C0 41.2299 11.1334 52.3634 24.8672 52.3634Z" fill="#6938EF"/>
<path d="M25.1547 28.0406C27.7444 25.4509 31.9431 25.4509 34.5328 28.0406L47.4275 40.9353C50.0172 43.525 50.0172 47.7237 47.4275 50.3134C44.8379 52.903 40.6392 52.903 38.0495 50.3134L25.1547 37.4186C22.5651 34.8289 22.5651 30.6302 25.1547 28.0406Z" fill="#F670C7"/>
<path d="M28.7734 41.04L36.963 49.2296C40.8912 47.0389 44.1638 43.814 46.4127 39.9233L38.2902 31.8008C36.8635 36.2536 33.2824 39.7422 28.7734 41.04Z" fill="#6519BA"/>
<path d="M89.8823 41.1732C89.1649 42.0594 88.2893 42.7346 87.2554 43.1988C86.2426 43.663 85.1243 43.8951 83.9006 43.8951C82.2548 43.8951 80.7673 43.5364 79.438 42.819C78.1088 42.1227 76.5896 40.8778 74.8805 39.0844C72.8761 38.8312 71.0826 38.1876 69.5002 37.1538C67.9388 36.1199 66.715 34.7906 65.8289 33.166C64.9638 31.5202 64.5312 29.7057 64.5312 27.7223C64.5312 25.5491 65.0482 23.5974 66.0821 21.8672C67.137 20.1159 68.5823 18.7445 70.418 17.7528C72.2748 16.7611 74.3531 16.2653 76.6529 16.2653C78.9527 16.2653 81.0205 16.7611 82.8561 17.7528C84.6918 18.7445 86.1371 20.1159 87.1921 21.8672C88.2471 23.5974 88.7745 25.5491 88.7745 27.7223C88.7745 30.2964 88.0466 32.5541 86.5907 34.4952C85.156 36.4364 83.2465 37.7868 80.8622 38.5463C81.3897 39.0949 81.8961 39.4853 82.3814 39.7174C82.8878 39.9705 83.4258 40.0971 83.9955 40.0971C85.367 40.0971 86.5696 39.5486 87.6035 38.4514L89.8823 41.1732ZM69.7217 27.7223C69.7217 29.0938 70.0171 30.3175 70.6079 31.3936C71.2198 32.4697 72.0532 33.3137 73.1082 33.9256C74.1632 34.5163 75.3447 34.8117 76.6529 34.8117C77.9611 34.8117 79.1426 34.5163 80.1976 33.9256C81.2526 33.3137 82.0755 32.4697 82.6662 31.3936C83.2781 30.3175 83.5841 29.0938 83.5841 27.7223C83.5841 26.3508 83.2781 25.1271 82.6662 24.051C82.0755 22.9749 81.2526 22.1415 80.1976 21.5507C79.1426 20.9388 77.9611 20.6329 76.6529 20.6329C75.3447 20.6329 74.1632 20.9388 73.1082 21.5507C72.0532 22.1415 71.2198 22.9749 70.6079 24.051C70.0171 25.1271 69.7217 26.3508 69.7217 27.7223Z" fill="black"/>
<path d="M109.434 21.7723V38.7995H104.749V36.774C104.095 37.5125 103.315 38.0821 102.407 38.483C101.5 38.8628 100.519 39.0527 99.4641 39.0527C97.2275 39.0527 95.4552 38.4092 94.147 37.1221C92.8388 35.8351 92.1847 33.9256 92.1847 31.3936V21.7723H97.122V30.6657C97.122 33.4086 98.2719 34.7801 100.572 34.7801C101.753 34.7801 102.703 34.4003 103.42 33.6407C104.138 32.86 104.496 31.7101 104.496 30.1909V21.7723H109.434Z" fill="black"/>
<path d="M122.11 39.0527C120.316 39.0527 118.702 38.6835 117.267 37.945C115.854 37.1854 114.746 36.141 113.944 34.8117C113.143 33.4825 112.742 31.9738 112.742 30.2859C112.742 28.5979 113.143 27.0893 113.944 25.7601C114.746 24.4308 115.854 23.3969 117.267 22.6584C118.702 21.8989 120.316 21.5191 122.11 21.5191C123.903 21.5191 125.507 21.8989 126.92 22.6584C128.334 23.3969 129.442 24.4308 130.244 25.7601C131.045 27.0893 131.446 28.5979 131.446 30.2859C131.446 31.9738 131.045 33.4825 130.244 34.8117C129.442 36.141 128.334 37.1854 126.92 37.945C125.507 38.6835 123.903 39.0527 122.11 39.0527ZM122.11 35.0016C123.376 35.0016 124.41 34.5796 125.211 33.7357C126.034 32.8706 126.446 31.7207 126.446 30.2859C126.446 28.8511 126.034 27.7118 125.211 26.8678C124.41 26.0027 123.376 25.5702 122.11 25.5702C120.844 25.5702 119.799 26.0027 118.977 26.8678C118.154 27.7118 117.742 28.8511 117.742 30.2859C117.742 31.7207 118.154 32.8706 118.977 33.7357C119.799 34.5796 120.844 35.0016 122.11 35.0016Z" fill="black"/>
<path d="M145.729 37.9766C145.243 38.3353 144.642 38.6096 143.925 38.7995C143.228 38.9683 142.49 39.0527 141.709 39.0527C139.684 39.0527 138.112 38.5358 136.994 37.5019C135.896 36.468 135.348 34.9489 135.348 32.9444V25.95H132.721V22.152H135.348V18.006H140.285V22.152H144.526V25.95H140.285V32.8811C140.285 33.5985 140.464 34.1576 140.823 34.5585C141.203 34.9383 141.73 35.1282 142.406 35.1282C143.186 35.1282 143.851 34.9172 144.399 34.4952L145.729 37.9766Z" fill="black"/>
<path d="M148.5 21.7723H153.438V38.7995H148.5V21.7723ZM150.969 19.3986C150.062 19.3986 149.323 19.1348 148.753 18.6073C148.184 18.0798 147.899 17.4258 147.899 16.6451C147.899 15.8644 148.184 15.2103 148.753 14.6828C149.323 14.1553 150.062 13.8916 150.969 13.8916C151.876 13.8916 152.615 14.1448 153.184 14.6512C153.754 15.1576 154.039 15.7906 154.039 16.5501C154.039 17.373 153.754 18.0587 153.184 18.6073C152.615 19.1348 151.876 19.3986 150.969 19.3986Z" fill="black"/>
<path d="M174.699 30.3492C174.699 30.4125 174.667 30.8556 174.604 31.6785H161.723C161.955 32.7334 162.503 33.5669 163.368 34.1787C164.234 34.7906 165.31 35.0966 166.597 35.0966C167.483 35.0966 168.264 34.97 168.939 34.7168C169.635 34.4425 170.279 34.0205 170.869 33.4508L173.496 36.2992C171.893 38.1349 169.551 39.0527 166.47 39.0527C164.55 39.0527 162.852 38.6835 161.375 37.945C159.898 37.1854 158.758 36.141 157.956 34.8117C157.155 33.4825 156.754 31.9738 156.754 30.2859C156.754 28.619 157.144 27.121 157.925 25.7917C158.727 24.4413 159.813 23.3969 161.185 22.6584C162.577 21.8989 164.128 21.5191 165.837 21.5191C167.504 21.5191 169.013 21.8778 170.363 22.5951C171.713 23.3125 172.768 24.3464 173.528 25.6968C174.309 27.026 174.699 28.5768 174.699 30.3492ZM165.869 25.2537C164.751 25.2537 163.812 25.5702 163.052 26.2031C162.292 26.8361 161.828 27.7012 161.659 28.7984H170.046C169.878 27.7223 169.414 26.8678 168.654 26.2348C167.894 25.5807 166.966 25.2537 165.869 25.2537Z" fill="black"/>
<path d="M188.335 21.5191C190.445 21.5191 192.144 22.152 193.431 23.418C194.739 24.684 195.393 26.5618 195.393 29.0516V38.7995H190.456V29.8112C190.456 28.4608 190.16 27.4586 189.57 26.8045C188.979 26.1293 188.124 25.7917 187.006 25.7917C185.761 25.7917 184.769 26.182 184.031 26.9627C183.292 27.7223 182.923 28.8617 182.923 30.3808V38.7995H177.986V21.7723H182.702V23.7662C183.356 23.0488 184.168 22.5002 185.139 22.1204C186.109 21.7195 187.175 21.5191 188.335 21.5191Z" fill="black"/>
<path d="M210.851 37.9766C210.365 38.3353 209.764 38.6096 209.047 38.7995C208.35 38.9683 207.612 39.0527 206.831 39.0527C204.806 39.0527 203.234 38.5358 202.116 37.5019C201.018 36.468 200.47 34.9489 200.47 32.9444V25.95H197.843V22.152H200.47V18.006H205.407V22.152H209.648V25.95H205.407V32.8811C205.407 33.5985 205.586 34.1576 205.945 34.5585C206.325 34.9383 206.852 35.1282 207.528 35.1282C208.308 35.1282 208.973 34.9172 209.521 34.4952L210.851 37.9766Z" fill="black"/>
</svg>
