<svg width="192" height="55" viewBox="0 0 192 55" fill="none" xmlns="http://www.w3.org/2000/svg">
<rect y="22.0723" width="10.8511" height="10.8511" fill="#039855"/>
<rect x="32.5547" y="32.9229" width="10.8512" height="10.8511" transform="rotate(180 32.5547 32.9229)" fill="#027A48"/>
<path d="M10.8516 22.0718L21.7027 11.2207V22.0718L10.8516 32.923V22.0718Z" fill="#A6F4C5"/>
<path d="M21.7031 32.9223L10.852 43.7734L10.852 32.9223L21.7031 22.0712L21.7031 32.9223Z" fill="#6CE9A6"/>
<path d="M0 22.0714L21.7023 0.369141V11.2203L10.8511 22.0714H0Z" fill="#32D583"/>
<path d="M32.5547 32.9227L10.8524 54.625L10.8524 43.7739L21.7035 32.9227L32.5547 32.9227Z" fill="#12B76A"/>
<path d="M56.1883 39.1169C54.4792 39.1169 52.8229 38.8742 51.2194 38.3889C49.6369 37.9037 48.3815 37.2601 47.4531 36.4583L48.8773 33.2618C49.7846 33.9791 50.8923 34.5699 52.2005 35.0341C53.5298 35.4772 54.859 35.6988 56.1883 35.6988C57.8341 35.6988 59.0578 35.435 59.8596 34.9075C60.6825 34.38 61.0939 33.6838 61.0939 32.8187C61.0939 32.1857 60.8618 31.6688 60.3976 31.2679C59.9546 30.8459 59.3849 30.5188 58.6886 30.2867C57.9923 30.0546 57.0428 29.7909 55.8402 29.4955C54.1522 29.0946 52.7807 28.6937 51.7258 28.2928C50.6919 27.8919 49.7952 27.2695 49.0356 26.4255C48.2971 25.5605 47.9279 24.4 47.9279 22.9441C47.9279 21.7204 48.2549 20.6126 48.909 19.621C49.5842 18.6082 50.5864 17.8064 51.9157 17.2156C53.266 16.6248 54.9118 16.3294 56.8529 16.3294C58.2033 16.3294 59.5326 16.4982 60.8407 16.8358C62.1489 17.1734 63.2777 17.6587 64.2272 18.2917L62.9296 21.4883C61.959 20.9186 60.9462 20.486 59.8913 20.1906C58.8363 19.8952 57.813 19.7476 56.8213 19.7476C55.1966 19.7476 53.9834 20.0218 53.1816 20.5704C52.4009 21.119 52.0106 21.847 52.0106 22.7542C52.0106 23.3872 52.2322 23.9041 52.6752 24.305C53.1394 24.7059 53.7197 25.0224 54.4159 25.2545C55.1122 25.4866 56.0617 25.7504 57.2644 26.0457C58.9101 26.4255 60.2605 26.8264 61.3155 27.2484C62.3704 27.6493 63.2672 28.2717 64.0057 29.1157C64.7652 29.9597 65.145 31.0991 65.145 32.5338C65.145 33.7576 64.8074 34.8653 64.1323 35.857C63.4782 36.8487 62.4759 37.6399 61.1256 38.2307C59.7752 38.8215 58.1295 39.1169 56.1883 39.1169Z" fill="black"/>
<path d="M68.845 21.8997H72.8012V38.8004H68.845V21.8997ZM70.8389 19.1146C70.1215 19.1146 69.5202 18.893 69.0349 18.4499C68.5496 17.9857 68.307 17.4161 68.307 16.7409C68.307 16.0657 68.5496 15.5066 69.0349 15.0635C69.5202 14.5993 70.1215 14.3672 70.8389 14.3672C71.5563 14.3672 72.1576 14.5887 72.6429 15.0318C73.1282 15.4538 73.3709 15.9918 73.3709 16.6459C73.3709 17.3422 73.1282 17.933 72.6429 18.4183C72.1787 18.8825 71.5774 19.1146 70.8389 19.1146Z" fill="black"/>
<path d="M83.2157 39.0219C81.8443 39.0219 80.5044 38.8426 79.1963 38.4839C77.8881 38.1252 76.8437 37.6716 76.063 37.123L77.5822 34.1163C78.3418 34.6227 79.249 35.0341 80.304 35.3506C81.3801 35.646 82.435 35.7937 83.4689 35.7937C85.8321 35.7937 87.0136 35.1713 87.0136 33.9264C87.0136 33.3356 86.7077 32.9242 86.0958 32.6921C85.505 32.46 84.545 32.2384 83.2157 32.0274C81.8232 31.8165 80.6838 31.5738 79.7976 31.2995C78.9325 31.0252 78.173 30.5505 77.5189 29.8753C76.8859 29.179 76.5694 28.219 76.5694 26.9952C76.5694 25.3917 77.234 24.1151 78.5633 23.1657C79.9137 22.1951 81.7282 21.7098 84.007 21.7098C85.1674 21.7098 86.3279 21.847 87.4884 22.1212C88.6488 22.3744 89.5983 22.7226 90.3368 23.1657L88.8176 26.1723C87.3829 25.3284 85.7688 24.9064 83.9753 24.9064C82.8148 24.9064 81.9287 25.0857 81.3168 25.4444C80.726 25.782 80.4306 26.2356 80.4306 26.8053C80.4306 27.4383 80.7471 27.8919 81.3801 28.1662C82.0342 28.4194 83.0364 28.6621 84.3867 28.8942C85.7371 29.1052 86.8448 29.3478 87.7099 29.6221C88.575 29.8964 89.3135 30.3606 89.9254 31.0147C90.5583 31.6688 90.8748 32.5971 90.8748 33.7998C90.8748 35.3823 90.1891 36.6482 88.8176 37.5977C87.4462 38.5472 85.5789 39.0219 83.2157 39.0219Z" fill="black"/>
<path d="M109.797 21.8997L101.885 40.1613C101.147 41.9969 100.25 43.284 99.1949 44.0225C98.1399 44.7821 96.8634 45.1619 95.3653 45.1619C94.5213 45.1619 93.6879 45.0247 92.865 44.7504C92.0421 44.4761 91.367 44.0963 90.8395 43.6111L92.4219 40.6993C92.8017 41.058 93.2448 41.3429 93.7512 41.5539C94.2787 41.7649 94.8062 41.8704 95.3337 41.8704C96.0299 41.8704 96.5996 41.691 97.0427 41.3323C97.5069 40.9736 97.9289 40.3723 98.3087 39.5283L98.5935 38.8637L91.2193 21.8997H95.3337L100.651 34.4011L105.999 21.8997H109.797Z" fill="black"/>
<path d="M121.638 21.7098C123.284 21.7098 124.75 22.0685 126.037 22.7859C127.345 23.5033 128.369 24.516 129.107 25.8242C129.846 27.1324 130.215 28.641 130.215 30.35C130.215 32.0591 129.846 33.5783 129.107 34.9075C128.369 36.2157 127.345 37.2285 126.037 37.9458C124.75 38.6632 123.284 39.0219 121.638 39.0219C119.359 39.0219 117.555 38.2623 116.226 36.7432V44.9403H112.27V21.8997H116.036V24.1151C116.69 23.3134 117.492 22.712 118.442 22.3111C119.412 21.9102 120.478 21.7098 121.638 21.7098ZM121.195 35.6355C122.651 35.6355 123.843 35.1502 124.771 34.1796C125.721 33.209 126.196 31.9325 126.196 30.35C126.196 28.7676 125.721 27.4911 124.771 26.5205C123.843 25.5499 122.651 25.0646 121.195 25.0646C120.246 25.0646 119.391 25.2862 118.631 25.7293C117.872 26.1512 117.271 26.7631 116.827 27.5649C116.384 28.3667 116.163 29.2951 116.163 30.35C116.163 31.405 116.384 32.3334 116.827 33.1352C117.271 33.9369 117.872 34.5594 118.631 35.0025C119.391 35.4245 120.246 35.6355 121.195 35.6355Z" fill="black"/>
<path d="M143.557 21.7098C145.688 21.7098 147.397 22.3322 148.684 23.5771C149.971 24.822 150.614 26.6682 150.614 29.1157V38.8004H146.658V29.6221C146.658 28.1451 146.31 27.0374 145.614 26.2989C144.918 25.5394 143.926 25.1596 142.639 25.1596C141.183 25.1596 140.033 25.6027 139.189 26.4888C138.345 27.3539 137.923 28.6093 137.923 30.2551V38.8004H133.967V15.3167H137.923V23.8619C138.577 23.1657 139.379 22.6382 140.328 22.2795C141.299 21.8997 142.375 21.7098 143.557 21.7098Z" fill="black"/>
<path d="M171.996 21.8997V38.8004H168.229V36.6482C167.596 37.4078 166.805 37.9986 165.856 38.4206C164.906 38.8215 163.883 39.0219 162.786 39.0219C160.528 39.0219 158.745 38.3995 157.437 37.1546C156.15 35.8887 155.506 34.0213 155.506 31.5527V21.8997H159.463V31.0147C159.463 32.5338 159.8 33.6732 160.475 34.4328C161.172 35.1713 162.153 35.5405 163.419 35.5405C164.832 35.5405 165.951 35.108 166.774 34.2429C167.618 33.3567 168.04 32.0907 168.04 30.445V21.8997H171.996Z" fill="black"/>
<path d="M182.398 39.0219C181.026 39.0219 179.686 38.8426 178.378 38.4839C177.07 38.1252 176.026 37.6716 175.245 37.123L176.764 34.1163C177.524 34.6227 178.431 35.0341 179.486 35.3506C180.562 35.646 181.617 35.7937 182.651 35.7937C185.014 35.7937 186.196 35.1713 186.196 33.9264C186.196 33.3356 185.89 32.9242 185.278 32.6921C184.687 32.46 183.727 32.2384 182.398 32.0274C181.005 31.8165 179.866 31.5738 178.98 31.2995C178.114 31.0252 177.355 30.5505 176.701 29.8753C176.068 29.179 175.751 28.219 175.751 26.9952C175.751 25.3917 176.416 24.1151 177.745 23.1657C179.096 22.1951 180.91 21.7098 183.189 21.7098C184.349 21.7098 185.51 21.847 186.67 22.1212C187.831 22.3744 188.78 22.7226 189.519 23.1657L188 26.1723C186.565 25.3284 184.951 24.9064 183.157 24.9064C181.997 24.9064 181.111 25.0857 180.499 25.4444C179.908 25.782 179.613 26.2356 179.613 26.8053C179.613 27.4383 179.929 27.8919 180.562 28.1662C181.216 28.4194 182.218 28.6621 183.569 28.8942C184.919 29.1052 186.027 29.3478 186.892 29.6221C187.757 29.8964 188.495 30.3606 189.107 31.0147C189.74 31.6688 190.057 32.5971 190.057 33.7998C190.057 35.3823 189.371 36.6482 188 37.5977C186.628 38.5472 184.761 39.0219 182.398 39.0219Z" fill="black"/>
</svg>
