<svg width="19" height="20" viewBox="0 0 19 20" fill="none" xmlns="http://www.w3.org/2000/svg">
<path d="M2.125 0.0214844C1.56141 0.0214844 1.02091 0.245368 0.622398 0.643883C0.223883 1.0424 0 1.5829 0 2.14648C0 2.71007 0.223883 3.25057 0.622398 3.64909C1.02091 4.0476 1.56141 4.27148 2.125 4.27148C2.68859 4.27148 3.22909 4.0476 3.6276 3.64909C4.02612 3.25057 4.25 2.71007 4.25 2.14648C4.25 1.5829 4.02612 1.0424 3.6276 0.643883C3.22909 0.245368 2.68859 0.0214844 2.125 0.0214844ZM0.125 6.02148C0.0918479 6.02148 0.0600536 6.03465 0.0366116 6.0581C0.0131695 6.08154 0 6.11333 0 6.14648V19.1465C0 19.2155 0.056 19.2715 0.125 19.2715H4.125C4.15815 19.2715 4.18995 19.2583 4.21339 19.2349C4.23683 19.2114 4.25 19.1796 4.25 19.1465V6.14648C4.25 6.11333 4.23683 6.08154 4.21339 6.0581C4.18995 6.03465 4.15815 6.02148 4.125 6.02148H0.125ZM6.625 6.02148C6.59185 6.02148 6.56005 6.03465 6.53661 6.0581C6.51317 6.08154 6.5 6.11333 6.5 6.14648V19.1465C6.5 19.2155 6.556 19.2715 6.625 19.2715H10.625C10.6582 19.2715 10.6899 19.2583 10.7134 19.2349C10.7368 19.2114 10.75 19.1796 10.75 19.1465V12.1465C10.75 11.6492 10.9475 11.1723 11.2992 10.8207C11.6508 10.469 12.1277 10.2715 12.625 10.2715C13.1223 10.2715 13.5992 10.469 13.9508 10.8207C14.3025 11.1723 14.5 11.6492 14.5 12.1465V19.1465C14.5 19.2155 14.556 19.2715 14.625 19.2715H18.625C18.6582 19.2715 18.6899 19.2583 18.7134 19.2349C18.7368 19.2114 18.75 19.1796 18.75 19.1465V10.5265C18.75 8.09948 16.64 6.20148 14.225 6.42048C13.4778 6.4885 12.7459 6.67342 12.056 6.96848L10.75 7.52848V6.14648C10.75 6.11333 10.7368 6.08154 10.7134 6.0581C10.6899 6.03465 10.6582 6.02148 10.625 6.02148H6.625Z" fill="url(#paint0_linear_88648_1487)"/>
<defs>
<linearGradient id="paint0_linear_88648_1487" x1="2.13905" y1="-6.30796" x2="61.905" y2="44.0744" gradientUnits="userSpaceOnUse">
<stop stop-color="#A854E9"/>
<stop offset="1" stop-color="#4F91FC"/>
</linearGradient>
</defs>
</svg>
