<svg width="18" height="19" viewBox="0 0 18 19" fill="none" xmlns="http://www.w3.org/2000/svg">
<path d="M9.92538 0.0225917C10.5821 0.0200716 11.2389 0.0266721 11.8954 0.0423911L12.07 0.0486908C12.2716 0.0558906 12.4705 0.0648903 12.7108 0.0756899C13.6684 0.120688 14.3217 0.271883 14.895 0.494176C15.489 0.722768 15.9894 1.03236 16.4898 1.53274C16.9473 1.98237 17.3014 2.52626 17.5274 3.12659C17.7497 3.69987 17.9009 4.35414 17.9459 5.31171C17.9567 5.5511 17.9657 5.7509 17.9729 5.95249L17.9783 6.12708C17.9943 6.78333 18.0012 7.43978 17.999 8.09622L17.9999 8.76759V9.94655C18.0021 10.6033 17.9952 11.26 17.9792 11.9166L17.9738 12.0912C17.9666 12.2928 17.9576 12.4917 17.9468 12.732C17.9018 13.6895 17.7488 14.3429 17.5274 14.9162C17.3021 15.5171 16.9479 16.0615 16.4898 16.5109C16.0397 16.9684 15.4956 17.3225 14.895 17.5486C14.3217 17.7709 13.6684 17.9221 12.7108 17.9671C12.4705 17.9779 12.2716 17.9869 12.07 17.9941L11.8954 17.9995C11.2389 18.0155 10.5821 18.0224 9.92538 18.0202L9.254 18.0211H8.07594C7.4192 18.0233 6.76246 18.0164 6.10591 18.0004L5.93132 17.995C5.71767 17.9872 5.50408 17.9782 5.29054 17.968C4.33297 17.923 3.67959 17.77 3.10541 17.5486C2.50485 17.323 1.96087 16.9689 1.51157 16.5109C1.05352 16.0612 0.699097 15.517 0.473003 14.9162C0.250711 14.3429 0.0995159 13.6895 0.0545174 12.732C0.0444944 12.5184 0.0354946 12.3048 0.0275183 12.0912L0.0230186 11.9166C0.00642639 11.26 -0.00107416 10.6033 0.000519283 9.94655V8.09622C-0.0019925 7.43978 0.00460798 6.78334 0.0203187 6.12708L0.0266184 5.95249C0.0338182 5.7509 0.0428179 5.5511 0.0536175 5.31171C0.098616 4.35324 0.249811 3.70077 0.472103 3.12659C0.698331 2.52596 1.05345 1.98223 1.51247 1.53364C1.96146 1.07533 2.5051 0.720583 3.10541 0.494176C3.67959 0.271883 4.33207 0.120688 5.29054 0.0756899L5.93132 0.0486908L6.10591 0.0441911C6.76215 0.0276072 7.41859 0.0201067 8.07504 0.0216918L9.92538 0.0225917ZM9.00021 4.52244C8.40399 4.51401 7.81203 4.62416 7.25875 4.84649C6.70547 5.06882 6.20189 5.3989 5.77728 5.81754C5.35268 6.23619 5.01551 6.73505 4.78538 7.28513C4.55524 7.83521 4.43673 8.42555 4.43673 9.02184C4.43673 9.61812 4.55524 10.2085 4.78538 10.7585C5.01551 11.3086 5.35268 11.8075 5.77728 12.2261C6.20189 12.6448 6.70547 12.9749 7.25875 13.1972C7.81203 13.4195 8.40399 13.5297 9.00021 13.5212C10.1936 13.5212 11.3382 13.0471 12.1821 12.2033C13.026 11.3594 13.5001 10.2148 13.5001 9.02139C13.5001 7.82795 13.026 6.6834 12.1821 5.83951C11.3382 4.99563 10.1936 4.52244 9.00021 4.52244ZM9.00021 6.32238C9.35886 6.31577 9.71522 6.38069 10.0485 6.51336C10.3818 6.64602 10.6853 6.84377 10.9412 7.09504C11.1972 7.34631 11.4006 7.64608 11.5394 7.97683C11.6783 8.30758 11.7498 8.66267 11.7499 9.02138C11.7499 9.38008 11.6785 9.7352 11.5398 10.066C11.401 10.3968 11.1978 10.6966 10.9419 10.948C10.686 11.1993 10.3826 11.3972 10.0493 11.53C9.7161 11.6627 9.35976 11.7278 9.00111 11.7213C8.28505 11.7213 7.59832 11.4368 7.09199 10.9305C6.58566 10.4242 6.30121 9.73745 6.30121 9.02139C6.30121 8.30533 6.58566 7.61859 7.09199 7.11226C7.59832 6.60593 8.28505 6.32148 9.00111 6.32148L9.00021 6.32238ZM13.7251 3.17248C13.4347 3.1841 13.1601 3.30762 12.9588 3.51715C12.7575 3.72668 12.6451 4.00598 12.6451 4.29655C12.6451 4.58712 12.7575 4.86641 12.9588 5.07595C13.1601 5.28548 13.4347 5.40899 13.7251 5.42061C14.0234 5.42061 14.3096 5.30209 14.5205 5.09111C14.7315 4.88014 14.85 4.594 14.85 4.29565C14.85 3.99729 14.7315 3.71115 14.5205 3.50018C14.3096 3.28921 14.0234 3.17068 13.7251 3.17068V3.17248Z" fill="url(#paint0_linear_88648_1483)"/>
<defs>
<linearGradient id="paint0_linear_88648_1483" x1="2.05352" y1="-5.89696" x2="58.1691" y2="42.6705" gradientUnits="userSpaceOnUse">
<stop stop-color="#A854E9"/>
<stop offset="1" stop-color="#4F91FC"/>
</linearGradient>
</defs>
</svg>
