<svg width="1140" height="174" viewBox="0 0 1140 174" fill="none" xmlns="http://www.w3.org/2000/svg">
<path d="M318.147 402.999C312.404 403.008 306.67 402.677 301.003 402.012C289.442 400.633 278.757 397.803 269.252 393.6C259.035 389.083 250.075 382.929 242.619 375.309C227.628 359.992 220.13 341.649 212.879 323.901C211.454 320.418 209.981 316.816 208.486 313.322C198.278 289.502 185.344 268.638 168.939 249.536C136.214 211.426 90.1924 178.911 35.844 155.493C-27.0042 128.41 -94.572 114.92 -154.433 117.508C-189.612 119.027 -236.092 133.491 -256.865 158.194C-269.193 172.854 -270.187 189.121 -259.737 205.239L-259.945 205.308C-265.417 196.855 -267.811 188.382 -267.038 180.123C-266.329 172.546 -262.973 165.14 -257.061 158.11C-247.658 146.92 -232.152 137.018 -212.218 129.452C-193.8 122.459 -173.282 118.16 -154.447 117.346C-123.124 115.993 -89.8137 118.995 -55.4335 126.265C-24.2705 132.86 6.47986 142.644 35.9626 155.35C90.3405 178.795 136.39 211.326 169.133 249.46C185.549 268.574 198.492 289.45 208.702 313.283C210.2 316.779 211.666 320.381 213.098 323.866C220.344 341.591 227.838 359.921 242.806 375.216C257.282 390.009 276.874 398.971 301.04 401.851C334.506 405.842 375.14 397.497 409.746 379.532C459.612 353.641 494.217 315.962 527.683 279.514C533.55 273.126 539.615 266.521 545.62 260.143C561.211 243.581 582.328 222.12 607.408 203C633.058 183.457 659.123 169.099 687.096 159.102C704.052 153.023 722.252 148.888 741.023 146.851C758.262 144.994 776.509 144.877 795.257 146.505C827.417 149.299 862.061 157.192 901.179 170.634C978.198 197.102 1055.13 229.227 1129.85 266.121C1200.87 301.188 1270.53 340.866 1336.86 384.055L1336.71 384.173C1199.18 294.656 1052.61 222.853 901.079 170.78C815.472 141.361 747.509 137.698 687.199 159.248C625.842 181.174 582.978 220.741 545.8 260.232C539.797 266.61 533.732 273.216 527.866 279.602C494.388 316.057 459.771 353.755 409.871 379.66C393.747 388.033 375.607 394.563 357.417 398.546C347.807 400.654 338.252 402.024 329.018 402.633C325.349 402.877 321.725 402.999 318.147 402.999Z" fill="#FDFCFC"/>
<path d="M323.904 393.917C308.874 393.917 294.948 391.881 282.511 387.865C268.637 383.385 256.662 376.445 246.925 367.235C246.063 366.424 245.208 365.576 244.382 364.728C229.562 349.484 221.724 331.373 214.15 313.864C212.617 310.325 211.035 306.665 209.428 303.114C199.87 281.967 188.356 263.329 174.231 246.137C172.492 244.021 170.69 241.9 168.873 239.834C135.667 202.049 89.2717 169.949 34.7021 146.981C-28.5998 120.361 -96.3682 107.428 -156.113 110.566C-191.036 112.418 -237.302 127.12 -258.164 151.632C-270.656 166.31 -272.072 182.606 -262.268 198.774L-262.475 198.839C-267.621 190.368 -269.733 181.878 -268.757 173.609C-267.858 166.015 -264.365 158.591 -258.369 151.554C-248.871 140.392 -233.412 130.472 -213.663 122.863C-195.411 115.833 -174.985 111.411 -156.143 110.41C-124.857 108.768 -91.5095 111.482 -57.0222 118.478C-25.7862 124.816 5.1123 134.361 34.807 146.848C89.4085 169.829 135.829 201.956 169.056 239.754C170.88 241.822 172.676 243.943 174.416 246.061C188.552 263.264 200.071 281.912 209.633 303.071C211.229 306.623 212.825 310.283 214.355 313.823C221.924 331.32 229.752 349.413 244.558 364.642C245.383 365.488 246.236 366.332 247.096 367.144C267.223 386.178 294.88 393.921 323.963 393.921H323.893L323.904 393.917ZM330.108 393.803C357.147 392.815 385.056 385.425 408.982 374.432C460.611 350.619 497.72 313.844 533.607 278.279C535.085 276.813 536.562 275.349 538.04 273.888C541.284 270.675 545.13 266.875 549.059 263.043C566.672 245.854 587.987 225.863 612.536 207.864C638.656 188.713 664.748 174.503 692.309 164.419C709.054 158.275 726.974 153.908 745.499 151.458C762.512 149.225 780.488 148.593 798.926 149.582C830.782 151.29 865.032 157.764 903.635 169.367C941.276 180.67 972.215 191.31 1001 202.851C1041.79 219.217 1080.64 238.073 1113.26 254.359C1189.11 292.334 1263.53 335.453 1334.45 382.519L1334.3 382.638C1263.38 335.576 1188.97 292.462 1113.14 254.492C1080.52 238.207 1041.67 219.354 1000.9 202.992C972.117 191.454 941.185 180.817 903.544 169.516C819.446 144.218 752.357 142.645 692.416 164.554C630.193 187.325 585.89 227.381 549.253 263.139C545.326 266.971 541.48 270.771 538.236 273.982L533.803 278.373C497.905 313.95 460.784 350.739 409.117 374.568C396.484 380.391 382.87 385.057 368.597 388.458C355.482 391.56 342.566 393.352 330.108 393.803Z" fill="#FDFCFC"/>
<path d="M330.258 385.041C328.451 385.041 326.654 385.013 324.868 384.956C309.852 384.485 295.956 382.037 283.566 377.67C270.016 372.898 258.276 365.832 248.682 356.658C247.829 355.847 246.979 354.996 246.158 354.144C231.489 338.969 223.331 321.114 215.442 303.833C213.798 300.233 212.097 296.51 210.376 292.897C200.344 271.815 188.529 253.328 174.252 236.371C172.487 234.274 170.656 232.171 168.814 230.121C135.125 192.677 88.3572 160.977 33.5642 138.46C-30.1914 112.301 -98.1491 99.9258 -157.789 103.615C-191.369 105.723 -237.5 119.587 -259.434 145.035C-272.106 159.737 -273.951 176.08 -264.769 192.3L-264.981 192.362C-269.79 183.864 -271.627 175.355 -270.453 167.064C-269.363 159.442 -265.725 152.003 -259.639 144.942C-250.043 133.808 -234.63 123.881 -215.072 116.238C-196.992 109.174 -176.661 104.63 -157.821 103.447C-126.585 101.515 -93.1878 103.941 -58.5934 110.658C-27.2799 116.739 3.76233 126.043 33.6668 138.313C88.4894 160.844 135.286 192.558 168.994 230.027C170.838 232.079 172.669 234.182 174.436 236.282C188.72 253.251 200.542 271.751 210.581 292.838C212.303 296.451 214.001 300.176 215.65 303.777C223.532 321.039 231.685 338.889 246.327 354.049C247.148 354.897 247.996 355.74 248.835 356.556C287.848 393.819 356.987 389.818 408.207 369.325C461.995 347.612 501.965 311.527 540.62 276.628L541.017 276.27C544.761 272.887 548.632 269.39 552.485 265.938C593.147 229.513 637.837 192.081 697.505 169.728C714.048 163.519 731.69 158.922 749.956 156.059C766.748 153.448 784.453 152.301 802.579 152.653C834.177 153.265 868.031 158.329 906.075 168.111C946.054 178.365 976.144 187.792 1003.63 198.675C1042.79 214.212 1080.73 233.846 1114.21 251.169C1188.73 289.945 1262.02 333.625 1332.03 380.998L1331.87 381.115C1261.88 333.749 1188.59 290.072 1114.07 251.299C1080.61 233.979 1042.68 214.349 1003.53 198.816C976.068 187.941 945.972 178.518 906.011 168.267C823.545 147.044 757.33 147.555 697.619 169.876C637.99 192.216 593.318 229.633 552.675 266.042C548.821 269.494 544.95 272.99 541.206 276.373L540.807 276.732C521.546 294.123 501.625 312.106 480.116 328.167C455.948 346.218 432.464 359.728 408.33 369.469C383.081 379.576 355.578 385.041 330.258 385.041Z" fill="#FDFCFC"/>
<path d="M1329.47 379.59C1260.37 331.912 1188.22 287.681 1115.04 248.105C1111.94 246.441 1108.83 244.77 1105.72 243.092C1074.02 226.029 1041.24 208.388 1006.18 194.64C972.177 181.342 937.712 173.211 908.483 167.011C827.8 149.792 762.458 152.391 702.842 175.189C641.645 198.661 594.226 237.624 556.124 268.947C553.844 270.827 551.559 272.709 549.268 274.592L544.205 278.766C522.508 296.613 502.777 312.572 480.971 327.131C456.062 343.765 432.054 355.947 407.571 364.375C384.623 372.274 360.113 376.455 337.313 376.455C333.159 376.455 329.069 376.315 325.044 376.036C310.361 375.013 296.772 372.144 284.643 367.49C271.419 362.419 259.902 355.214 250.443 346.084C249.597 345.273 248.753 344.418 247.935 343.567C233.443 328.471 224.97 310.859 216.774 293.828C215.009 290.16 213.183 286.369 211.338 282.683C200.825 261.675 188.707 243.334 174.288 226.611C172.494 224.53 170.64 222.445 168.766 220.415C134.596 183.296 87.4546 152.012 32.4404 129.944C-31.7803 104.244 -99.9272 92.4264 -159.463 96.6622C-200.165 99.6169 -241.784 116.782 -260.674 138.408C-273.545 153.141 -275.827 169.544 -267.286 185.827L-267.5 185.882C-271.976 177.356 -273.535 168.821 -272.136 160.516C-270.847 152.87 -267.06 145.402 -260.875 138.323C-251.176 127.218 -235.815 117.295 -216.453 109.619C-198.546 102.525 -178.318 97.8639 -159.492 96.4984C-128.284 94.2767 -94.8633 96.4157 -60.1595 102.854C-28.7684 108.679 2.41742 117.742 32.5339 129.793C87.5868 151.877 134.751 183.181 168.951 220.321C170.823 222.353 172.683 224.44 174.478 226.52C188.905 243.253 201.03 261.605 211.548 282.631C213.395 286.313 215.221 290.108 216.986 293.778C225.176 310.806 233.646 328.399 248.117 343.478C248.933 344.326 249.775 345.171 250.625 345.988C291.355 385.29 360.576 380.381 407.478 364.235C463.436 344.975 506.256 309.747 544.05 278.666C545.738 277.275 547.427 275.884 549.116 274.493C551.396 272.609 553.68 270.726 555.969 268.846C577.718 250.972 599.196 233.602 622.808 217.601C649.96 199.193 676.112 185.276 702.754 175.058C719.097 168.778 736.46 163.946 754.455 160.669C771.035 157.678 788.468 156.016 806.27 155.732C837.666 155.228 871.125 158.867 908.553 166.855C937.792 173.057 972.272 181.193 1006.3 194.497C1041.37 208.249 1074.15 225.896 1105.86 242.963C1108.97 244.639 1112.08 246.31 1115.18 247.975C1188.37 287.556 1260.53 331.797 1329.64 379.473L1329.47 379.59Z" fill="#FDFCFC"/>
<path d="M1327.05 378.063C1257.56 329.175 1186.55 284.376 1115.98 244.908C1111.76 242.547 1107.44 240.112 1103.27 237.759C1073.35 220.907 1042.42 203.48 1008.82 190.461C975.267 177.504 940.514 170.701 910.942 165.755C832.223 152.457 767.758 157.147 708.049 180.512C651.102 202.87 606.489 236.491 563.344 269.004L558.609 272.572C554.867 275.392 550.998 278.308 547.184 281.167C503.996 313.494 460.772 343.792 406.793 359.288C393.952 363 380.531 365.602 366.818 367.039C352.397 368.522 338.388 368.543 325.18 367.099C310.834 365.53 297.551 362.233 285.693 357.308C272.793 351.947 261.525 344.612 252.177 335.51C251.336 334.686 250.499 333.838 249.689 332.988C235.38 317.983 226.6 300.629 218.107 283.851C216.212 280.106 214.251 276.229 212.272 272.473C201.274 251.529 188.852 233.335 174.297 216.849C172.473 214.79 170.592 212.724 168.692 210.706C134.036 173.917 86.528 143.045 31.2882 121.426C-33.3703 96.196 -101.709 84.9382 -161.144 89.7206C-201.472 93.0385 -242.9 110.326 -261.89 131.761C-274.975 146.531 -277.709 162.992 -269.797 179.362L-270.012 179.414C-274.152 170.849 -275.431 162.283 -273.815 153.954C-272.323 146.275 -268.377 138.78 -262.084 131.677C-252.28 120.61 -236.972 110.695 -217.818 103.002C-200.086 95.8814 -179.97 91.1071 -161.169 89.5616C-129.99 87.0415 -96.5332 88.8886 -61.7244 95.051C-30.2604 100.62 1.0759 109.444 31.4022 121.277C86.6717 142.907 134.212 173.797 168.886 210.609C170.788 212.626 172.673 214.694 174.493 216.755C189.057 233.246 201.488 251.45 212.491 272.405C214.47 276.166 216.431 280.04 218.326 283.784C226.814 300.558 235.588 317.9 249.883 332.889C250.69 333.737 251.527 334.584 252.366 335.406C292.113 374.164 358.158 373.071 406.708 359.13C460.635 343.646 503.85 313.359 547.02 281.047C550.834 278.19 554.703 275.274 558.445 272.452L563.18 268.884C584.359 252.925 606.259 236.423 630.041 221.071C656.977 203.683 682.458 190.367 707.94 180.366C739.32 167.98 774.128 160.624 809.926 158.812C841.185 157.175 874.245 159.395 910.997 165.601C940.582 170.55 975.356 177.358 1008.93 190.323C1042.55 203.349 1073.49 220.78 1103.41 237.638C1107.58 239.991 1111.91 242.423 1116.13 244.786C1186.69 284.256 1257.72 329.06 1327.21 377.952L1327.05 378.063Z" fill="#FDFCFC"/>
<path d="M1324.63 376.536C1255.73 327.105 1185.85 281.743 1116.92 241.712C1111.74 238.702 1106.43 235.576 1101.3 232.55C1072.99 215.88 1043.73 198.642 1011.45 186.281C978.054 173.548 943.141 168.118 913.394 164.499C836.854 155.025 773.256 161.8 713.246 185.819C660.874 206.865 617.874 236.695 576.289 265.543C571.913 268.579 567.397 271.717 562.978 274.757C557.8 278.325 553.844 281.041 550.153 283.552C530.385 296.991 506.844 312.463 482.143 325.331C455.966 338.968 431.071 348.406 406.005 354.186C393.097 357.186 379.738 359.098 366.203 359.881C351.991 360.676 338.232 360.092 325.309 358.144C311.307 356.036 298.329 352.323 286.738 347.117C274.166 341.465 263.124 334.001 253.906 324.929C253.076 324.107 252.244 323.257 251.437 322.404C237.314 307.497 228.238 290.413 219.462 273.891C217.426 270.061 215.321 266.097 213.199 262.251C201.705 241.365 188.978 223.319 174.295 207.083C172.448 205.041 170.535 202.991 168.611 200.993C133.476 164.533 85.5917 134.071 30.1284 112.903C-34.9587 88.1321 -103.489 77.4305 -162.817 82.7626C-196.574 85.8633 -240.665 100.147 -263.068 125.066C-276.388 139.882 -279.582 156.416 -272.307 172.881L-272.535 172.93C-276.338 164.32 -277.323 155.714 -275.499 147.354C-273.798 139.637 -269.685 132.111 -263.276 124.975C-253.367 113.948 -238.118 104.055 -219.174 96.3459C-201.618 89.2105 -181.624 84.3227 -162.858 82.5989C-131.72 79.7998 -98.2287 81.3615 -63.3128 87.2418C-31.7553 92.5576 -0.277649 101.141 30.2584 112.756C85.7536 133.937 133.668 164.415 168.821 200.896C170.747 202.897 172.663 204.95 174.521 206.99C189.213 223.236 201.945 241.291 213.445 262.186C215.57 266.036 217.674 269.998 219.71 273.83C228.482 290.343 237.551 307.418 251.66 322.308C252.467 323.16 253.297 324.008 254.125 324.83C287.185 357.415 343.957 368.332 405.957 354.032C462.111 341.079 507.916 312.054 550.019 283.435C553.71 280.925 557.666 278.211 562.844 274.641C567.253 271.6 571.779 268.462 576.154 265.426C596.624 251.225 617.794 236.541 640.37 222.79C665.906 207.24 689.712 195.1 713.157 185.678C729.138 179.258 745.965 173.968 763.397 169.884C779.736 166.093 796.546 163.414 813.598 161.885C844.779 159.079 877.438 159.882 913.462 164.338C943.227 167.968 978.164 173.394 1011.58 186.139C1043.89 198.506 1073.16 215.749 1101.47 232.425C1106.61 235.449 1111.92 238.577 1117.1 241.586C1186.02 281.622 1255.91 326.987 1324.8 376.422L1324.63 376.536Z" fill="#FDFCFC"/>
<path d="M1322.21 375.008C1253.91 325.031 1185.17 279.112 1117.89 238.514C1112.16 235.061 1106.28 231.437 1100.59 227.932C1073.51 211.238 1045.5 193.977 1014.1 182.102C980.684 169.521 945.7 165.507 915.871 163.24C842.801 157.536 778.232 166.66 718.468 191.133C670.882 210.708 630.091 236.894 590.642 262.216C582.676 267.331 574.436 272.621 566.426 277.663C561.529 280.744 557.186 283.459 553.15 285.945C534.383 297.502 509.42 312.32 482.746 324.427C455.942 336.59 430.591 344.661 405.244 349.09C377.599 353.921 350.009 353.955 325.456 349.195C311.807 346.547 299.14 342.418 287.806 336.921C275.569 330.987 264.76 323.393 255.681 314.347C254.858 313.523 254.032 312.672 253.23 311.819C239.306 297.026 229.951 280.222 220.902 263.979C218.713 260.048 216.451 255.984 214.171 252.035C202.171 231.205 189.143 213.306 174.339 197.32C172.465 195.296 170.525 193.265 168.573 191.284C132.96 155.152 84.7012 125.104 29.0145 104.386C-36.5469 80.0846 -105.277 69.941 -164.491 75.8196C-204.619 79.89 -244.704 96.9826 -264.209 118.35C-277.785 133.219 -281.453 149.84 -274.821 166.415L-275.049 166.46C-278.514 157.797 -279.221 149.149 -277.148 140.75C-275.233 132.989 -270.949 125.422 -264.41 118.262C-254.389 107.285 -239.2 97.4091 -220.474 89.6996C-203.108 82.5415 -183.238 77.5548 -164.523 75.6574C-133.422 72.5762 -99.8944 73.8444 -64.8713 79.4441C-33.2523 84.494 -1.62869 92.8376 29.1171 104.233C84.8357 124.963 133.122 155.031 168.758 191.183C170.712 193.165 172.652 195.197 174.529 197.222C189.349 213.219 202.374 231.125 214.379 251.965C216.659 255.916 218.923 259.98 221.111 263.911C230.156 280.152 239.506 296.948 253.417 311.726C254.219 312.579 255.042 313.427 255.863 314.251C288.362 346.626 344.183 359.59 405.187 348.931C460.801 339.212 509.096 312.855 553 285.821C557.033 283.334 561.376 280.632 566.274 277.539C574.281 272.498 582.521 267.209 590.487 262.094C629.945 236.765 670.743 210.574 718.352 190.992C734.16 184.496 750.722 178.975 767.855 174.489C783.908 170.317 800.433 167.129 817.249 164.96C848.424 160.947 880.69 160.332 915.891 163.079C945.736 165.35 980.755 169.363 1014.2 181.959C1045.63 193.843 1073.65 211.11 1100.74 227.81C1106.43 231.313 1112.31 234.938 1118.03 238.39C1185.32 278.986 1254.07 324.914 1322.37 374.894L1322.21 375.008Z" fill="#FDFCFC"/>
<path d="M1319.79 373.479C1252.1 322.951 1184.49 276.467 1118.83 235.312C1112.8 231.532 1106.59 227.528 1100.59 223.653C1074.49 206.819 1047.51 189.41 1016.74 177.922C983.184 165.448 948.163 162.863 918.331 161.982C848.023 159.756 784.352 171.023 723.672 196.445C681.12 214.358 643.188 237.029 606.503 258.953C593.89 266.49 581.974 273.611 569.856 280.565C564.927 283.395 560.438 285.936 556.128 288.336C528.312 303.797 505.191 314.977 483.326 323.517C455.895 334.233 430.099 340.929 404.463 343.991C394.688 345.168 384.793 345.765 374.88 345.774C357.634 345.774 340.947 343.919 325.584 340.245C297.782 333.596 274.849 321.323 257.426 303.771C256.605 302.939 255.786 302.088 254.991 301.238C241.281 286.575 231.662 270.068 222.359 254.104C220.002 250.059 217.571 245.879 215.111 241.815C202.601 221.033 189.27 203.283 174.356 187.551C172.452 185.545 170.48 183.533 168.506 181.569C132.413 145.762 83.7808 116.132 27.8729 95.8614C-38.1376 72.0226 -107.048 62.4352 -166.171 68.8603C-206.475 73.3313 -245.394 90.1044 -265.319 111.58C-279.168 126.511 -283.331 143.232 -277.337 159.934L-277.565 159.973C-280.691 151.252 -281.106 142.55 -278.796 134.11C-276.66 126.297 -272.184 118.687 -265.515 111.491C-255.397 100.584 -240.273 90.7336 -221.778 83.0225C-204.598 75.8547 -184.865 70.7691 -166.212 68.6998C-135.147 65.3234 -101.583 66.3094 -66.4552 71.6302C-34.7632 76.432 -2.98914 84.5339 27.9687 95.7106C83.9176 115.991 132.577 145.647 168.693 181.47C170.674 183.434 172.644 185.448 174.548 187.456C189.468 203.196 202.806 220.955 215.323 241.745C217.779 245.811 220.216 249.993 222.571 254.037C231.871 269.993 241.495 286.492 255.175 301.144C255.966 301.992 256.785 302.844 257.603 303.674C290.146 336.451 343.658 351.089 404.419 343.832C462.259 336.923 513.492 311.836 555.98 288.208C560.289 285.809 564.779 283.268 569.706 280.438C581.824 273.486 593.737 266.367 606.35 258.828C643.04 236.901 680.981 214.231 723.542 196.305C739.185 189.729 755.484 183.978 772.309 179.096C788.088 174.541 804.33 170.844 820.896 168.036C852.132 162.764 884.004 160.739 918.325 161.82C948.179 162.702 983.229 165.289 1016.82 177.778C1047.62 189.28 1074.61 206.695 1100.72 223.537C1106.73 227.409 1112.93 231.413 1118.96 235.193C1184.63 276.349 1252.25 322.836 1319.94 373.361L1319.79 373.479Z" fill="#FDFCFC"/>
<path d="M1317.38 371.952C1249.36 320.149 1184.72 274.409 1119.79 232.119C1113.6 228.083 1107.49 223.964 1101.04 219.601C1075.79 202.548 1049.68 184.913 1019.39 173.742C985.416 161.274 948.857 160.236 920.804 160.724C853.699 161.743 790.926 175.157 728.894 201.753C691.677 217.787 657.315 237.041 624.087 255.663C606.622 265.448 590.126 274.691 573.304 283.462C568.311 286.068 563.671 288.442 559.123 290.722C530.942 304.822 507.045 314.953 483.924 322.601C455.857 331.883 429.616 337.211 403.7 338.888C390.613 339.75 377.433 339.587 364.397 338.401C351.136 337.196 338.143 334.798 325.73 331.266C298.826 323.556 276.432 310.738 259.186 293.171C258.375 292.337 257.561 291.484 256.772 290.634C243.292 276.12 233.432 259.929 223.894 244.272C221.35 240.094 218.719 235.774 216.072 231.574C203.037 210.838 189.396 193.236 174.389 177.763C172.457 175.775 170.462 173.781 168.461 171.834C131.883 136.362 82.8785 107.129 26.7449 87.3171C-25.0795 69.1186 -78.5067 59.6155 -127.502 59.6155C-141.016 59.5913 -154.509 60.3588 -167.846 61.9102C-207.664 66.7023 -246.34 83.537 -266.381 104.781C-280.517 119.783 -285.184 136.616 -279.851 153.461L-280.079 153.496C-282.863 144.707 -282.979 135.945 -280.426 127.455C-278.057 119.584 -273.399 111.926 -266.577 104.692C-256.354 93.8509 -241.299 84.0462 -223.043 76.3399C-205.808 69.0634 -186.736 64.0151 -167.892 61.7448C-136.861 58.0798 -103.263 58.7787 -68.0278 63.8189C-36.2515 68.371 -4.33145 76.2394 26.8361 87.1906C82.9925 107.021 132.033 136.263 168.632 171.757C170.638 173.703 172.635 175.699 174.56 177.69C189.582 193.171 203.224 210.781 216.263 231.53C218.912 235.731 221.544 240.052 224.088 244.23C233.621 259.881 243.468 276.065 256.945 290.568C257.734 291.416 258.541 292.269 259.357 293.101C291.603 325.951 344.201 342.585 403.663 338.737C463.835 334.845 518.272 310.967 558.977 290.6C563.523 288.33 568.161 285.948 573.154 283.343C589.98 274.571 606.481 265.328 623.936 255.541C657.172 236.918 691.538 217.658 728.768 201.62C760.704 187.928 792.043 177.943 824.578 171.113C855.956 164.521 887.427 161.068 920.794 160.562C939.83 160.238 955.357 160.807 969.666 162.377C988.134 164.404 1004.44 168.075 1019.49 173.599C1049.81 184.789 1075.93 202.423 1101.19 219.483C1107.65 223.845 1113.75 227.964 1119.94 231.999C1184.88 274.293 1249.52 320.035 1317.55 371.842L1317.38 371.952Z" fill="#FDFCFC"/>
<path d="M1314.96 370.424C1247.56 318.054 1184.03 271.767 1120.74 228.921C1114.47 224.682 1108.3 220.315 1101.76 215.691C1077.27 198.368 1051.95 180.455 1022.02 169.562C987.766 157.152 951.249 157.648 923.262 159.466C859.935 163.439 798.06 179.01 734.099 207.074C702.585 220.965 672.578 236.866 643.561 252.242C620.624 264.405 598.957 275.878 576.734 286.372C571.718 288.746 566.786 291.017 562.101 293.119C533.861 305.768 508.478 315.12 484.501 321.693C455.789 329.561 429.097 333.521 402.92 333.797C389.783 333.949 376.66 333.095 363.78 331.249C350.681 329.369 337.949 326.374 325.856 322.33C299.864 313.594 278.024 300.231 260.931 282.615C260.129 281.783 259.321 280.928 258.535 280.074C245.311 265.736 235.231 249.888 225.489 234.561C222.732 230.225 219.88 225.741 217.014 221.38C203.443 200.682 189.506 183.23 174.403 168.027C172.444 166.055 170.422 164.078 168.391 162.151C131.331 126.998 81.9557 98.1822 25.5987 78.8144C-41.3056 55.9162 -110.599 47.4446 -169.519 54.9595C-208.824 60.0597 -247.24 76.93 -267.393 97.9341C-281.857 113.016 -287.033 129.975 -282.361 146.982L-282.589 147.013C-285.024 138.147 -284.837 129.317 -282.03 120.771C-279.427 112.836 -274.566 105.121 -267.584 97.8433C-257.26 87.0802 -242.276 77.3257 -224.264 69.626C-207.226 62.3511 -188.309 57.2201 -169.556 54.7859C-138.561 50.8339 -104.927 51.2442 -69.5867 56.0054C-37.7397 60.3094 -5.67834 67.9297 25.6967 78.6717C82.088 98.0509 131.489 126.883 168.573 162.047C170.607 163.976 172.631 165.954 174.59 167.926C189.699 183.142 203.644 200.605 217.226 221.309C220.094 225.671 222.946 230.157 225.703 234.493C235.443 249.815 245.514 265.657 258.731 279.985C259.52 280.838 260.327 281.691 261.127 282.522C293.711 316.104 344.069 334.254 402.923 333.638C450.677 333.135 501.22 320.217 561.985 292.986C566.67 290.877 571.59 288.607 576.613 286.241C598.834 275.749 620.496 264.269 643.433 252.116C672.453 236.737 702.464 220.835 733.985 206.937C766.234 192.79 797.069 182.079 828.252 174.194C859.844 166.205 890.918 161.336 923.251 159.308C951.265 157.487 987.823 156.993 1022.13 169.421C1052.09 180.325 1077.43 198.248 1101.93 215.579C1108.47 220.203 1114.64 224.57 1120.9 228.807C1184.19 271.656 1247.73 317.945 1315.13 370.317L1314.96 370.424Z" fill="#FDFCFC"/>
<path d="M1312.54 368.897C1245.77 315.956 1183.34 269.125 1121.69 225.723C1115.43 221.319 1109.25 216.739 1102.71 211.892C1078.91 194.26 1054.29 176.027 1024.66 165.384C990.083 153.018 953.626 155.054 925.73 158.208C866.147 164.816 806.91 182.032 739.311 212.387C713.957 223.823 689.18 236.368 665.211 248.502C636.109 263.236 608.623 277.155 580.167 289.277C575.039 291.463 569.964 293.56 565.082 295.511C536.338 306.984 510.171 315.247 485.084 320.775C471.032 323.871 457.161 326.114 443.854 327.44C429.661 328.856 415.628 329.279 402.144 328.699C374.784 327.52 349.164 322.36 325.992 313.363C300.967 303.647 279.667 289.741 262.686 272.032C261.888 271.196 261.09 270.339 260.305 269.488C247.362 255.361 237.109 239.889 227.191 224.927C224.188 220.398 221.085 215.714 217.964 211.157C203.85 190.494 189.609 173.189 174.429 158.252C172.441 156.306 170.391 154.338 168.332 152.43C130.792 117.615 81.0426 89.2132 24.4622 70.2946C-42.889 47.8602 -112.374 39.9513 -171.194 48.0078C-234.174 56.7649 -295.545 94.6296 -284.875 140.514L-285.103 140.541C-287.772 129.063 -286.211 117.753 -280.458 106.927C-275.214 97.0346 -266.582 87.7359 -254.833 79.2739C-243.91 71.4055 -230.807 64.6122 -215.884 59.0823C-201.693 53.8215 -186.244 49.9376 -171.242 47.8489C-140.284 43.6082 -106.615 43.7298 -71.1679 48.2121C-39.2479 52.2485 -7.03375 59.6288 24.5534 70.1471C81.1681 89.077 130.947 117.5 168.508 152.331C170.56 154.241 172.612 156.202 174.607 158.158C189.794 173.101 204.042 190.414 218.155 211.088C221.276 215.643 224.382 220.331 227.384 224.857C237.298 239.816 247.547 255.282 260.483 269.399C261.263 270.25 262.063 271.105 262.861 271.941C295.495 305.974 344.962 326.073 402.149 328.538C450.562 330.622 503.818 319.781 564.961 295.372C569.843 293.426 574.916 291.326 580.041 289.139C608.496 277.021 635.979 263.103 665.085 248.37C689.048 236.237 713.827 223.69 739.185 212.252C806.814 181.884 866.078 164.66 925.689 158.049C944.435 155.929 959.955 155.253 974.536 155.92C993.175 156.771 1009.6 159.82 1024.76 165.239C1054.43 175.897 1079.05 194.14 1102.87 211.782C1109.41 216.629 1115.59 221.205 1121.84 225.61C1183.5 269.013 1245.94 315.847 1312.71 368.79L1312.54 368.897Z" fill="#FDFCFC"/>
<path d="M1310.13 367.369C1243.99 313.854 1182.66 266.473 1122.64 222.527C1116.43 217.986 1110.29 213.215 1103.79 208.172C1080.64 190.202 1056.69 171.619 1027.31 161.203C991.965 148.735 953.819 152.804 928.194 156.949C858.642 168.059 796.316 193.894 744.519 217.701C725.905 226.296 707.335 235.393 689.375 244.194C653.351 261.849 619.322 278.525 583.604 292.18C578.36 294.191 573.116 296.116 568.068 297.903C538.761 308.248 511.809 315.428 485.671 319.852C456.042 324.868 427.679 326.13 401.37 323.6C374.343 321.005 349.026 314.54 326.13 304.396C302.11 293.758 281.353 279.31 264.438 261.455C263.647 260.617 262.842 259.759 262.076 258.906C249.454 245.037 239.071 229.99 229.016 215.437C225.724 210.677 222.329 205.738 218.909 200.947C204.032 180.027 189.903 163.356 174.449 148.494C172.435 146.557 170.345 144.618 168.272 142.725C130.251 108.232 80.1274 80.2418 23.3235 61.7724C-44.4746 39.8131 -114.161 32.4572 -172.871 41.057C-236.077 50.4384 -296.193 87.7826 -287.388 134.041L-287.616 134.062C-289.82 122.715 -287.886 111.155 -281.998 100.493C-276.583 90.6011 -267.91 81.2829 -256.234 72.8112C-245.336 64.9103 -232.294 58.0652 -217.474 52.4671C-203.368 47.135 -187.96 43.1376 -172.918 40.9045C-141.995 36.3752 -108.29 36.2016 -72.7352 40.418C-40.7309 44.1998 -8.37994 51.3401 23.417 61.6378C80.2596 80.1055 130.42 108.112 168.448 142.618C170.548 144.512 172.616 146.458 174.629 148.39C190.094 163.262 204.228 179.936 219.112 200.868C222.532 205.666 225.936 210.598 229.228 215.365C239.26 229.914 249.65 244.958 262.263 258.817C263.04 259.67 263.834 260.528 264.623 261.365C297.507 296.069 346.085 318.124 401.402 323.439C451.015 328.21 505.498 319.808 567.965 297.757C573.02 295.973 578.246 294.046 583.494 292.037C619.204 278.387 653.226 261.712 689.248 244.061C707.207 235.259 725.778 226.158 744.396 217.564C779.225 201.557 808.198 189.73 835.573 180.345C867.799 169.298 898.077 161.594 928.141 156.79C946.468 153.826 962.439 152.485 976.974 152.687C995.691 152.95 1012.18 155.687 1027.4 161.058C1056.83 171.488 1080.79 190.087 1103.95 208.063C1110.45 213.105 1116.59 217.868 1122.8 222.413C1182.82 266.361 1244.15 313.743 1310.29 367.262L1310.13 367.369Z" fill="#FDFCFC"/>
<path d="M1307.71 365.84C1242.21 311.745 1181.98 263.821 1123.58 219.328C1117.46 214.663 1111.4 209.735 1104.98 204.516C1082.44 186.191 1059.13 167.227 1029.94 157.023C994.221 144.583 956.17 150.305 930.652 155.689C867.64 168.875 811.434 193.981 749.725 223.014C738.597 228.269 727.34 233.695 716.453 238.941C674.586 259.121 631.291 279.989 587.034 295.084C581.657 296.92 576.279 298.673 571.046 300.294C541.543 309.426 513.016 315.7 486.255 318.927C455.943 322.589 427.121 322.445 400.593 318.501C373.943 314.538 348.933 306.775 326.265 295.428C303.317 283.943 283.103 268.954 266.185 250.877C265.403 250.035 264.614 249.177 263.844 248.323C251.602 234.781 241.153 220.224 231.048 206.144C227.4 201.071 223.643 195.827 219.86 190.723C204.402 169.822 189.978 153.298 174.47 138.721C172.434 136.807 170.327 134.884 168.211 133.006C129.704 98.8485 79.2115 71.2702 22.1796 53.2516C-46.0562 31.7627 -115.929 24.9629 -174.552 34.106C-235.75 43.7534 -296.988 79.7889 -289.907 127.567L-290.135 127.585C-291.85 116.19 -289.587 104.671 -283.548 94.0467C-277.969 84.1382 -269.245 74.8152 -257.622 66.3337C-236.176 50.6893 -205.916 38.8851 -174.6 33.9471C-143.713 29.1307 -109.971 28.6766 -74.3123 32.5978C-42.2304 36.1266 -9.73355 43.0253 22.2731 53.104C79.3438 71.1323 129.859 98.7269 168.382 132.906C170.5 134.783 172.607 136.708 174.645 138.624C190.149 153.207 204.591 169.737 220.054 190.647C223.839 195.752 227.603 200.997 231.244 206.07C241.347 220.146 251.794 234.7 264.028 248.233C264.799 249.086 265.586 249.944 266.37 250.784C300.214 286.948 346.644 310.311 400.639 318.34C450.635 325.774 507.936 319.652 570.955 300.143C576.185 298.522 581.562 296.77 586.936 294.936C631.168 279.846 674.465 258.982 716.326 238.806C727.213 233.559 738.471 228.133 749.6 222.877C776.611 210.169 808.041 195.59 839.234 183.421C871.863 170.689 901.747 161.567 930.589 155.528C948.746 151.696 964.718 149.708 979.413 149.452C997.942 149.127 1014.98 151.625 1030.04 156.872C1043.12 161.444 1056.28 168.266 1070.28 177.732C1082.63 186.089 1094.08 195.4 1105.16 204.404C1111.57 209.621 1117.63 214.549 1123.75 219.213C1182.15 263.706 1242.38 311.633 1307.88 365.729L1307.71 365.84Z" fill="#FDFCFC"/>
<path d="M1305.29 364.312C1240.44 309.632 1181.31 261.162 1124.54 216.131C1118.53 211.363 1112.57 206.286 1106.27 200.911C1084.31 182.199 1061.61 162.849 1032.59 152.845C1005.47 143.525 972.931 144.044 933.122 154.429C877.465 168.862 827.709 193.025 775.032 218.601C768.472 221.786 761.691 225.078 754.943 228.331C752.298 229.608 749.654 230.886 747.01 232.164C696.821 256.439 644.921 281.542 590.475 297.989C584.971 299.653 579.44 301.232 574.034 302.692C543.883 310.789 514.551 315.942 486.853 318.008C455.845 320.321 426.557 318.774 399.824 313.408C373.59 308.144 348.888 299.078 326.408 286.463C304.615 274.239 284.943 258.708 267.937 240.305C267.162 239.464 266.38 238.603 265.611 237.748C253.837 224.63 243.42 210.666 233.347 197.149C229.266 191.677 225.048 186.019 220.807 180.512C204.751 159.625 190.027 143.244 174.491 128.964C172.425 127.066 170.291 125.161 168.148 123.302C129.169 89.4675 78.3026 62.2929 21.0472 44.7317C-47.6469 23.713 -117.698 17.4712 -176.223 27.1559C-236.299 37.1779 -297.439 73.5085 -292.416 121.095L-292.644 121.107C-293.855 109.628 -291.313 98.3576 -285.088 87.6074C-279.345 77.6876 -270.572 68.3532 -259.01 59.8653C-237.658 44.1868 -207.5 32.2074 -176.273 26.9969C-145.422 21.8919 -111.644 21.1508 -75.8801 24.7915C-43.7321 28.0656 -11.078 34.7243 21.1384 44.576C78.4257 62.1551 129.322 89.3345 168.326 123.186C170.469 125.047 172.603 126.953 174.671 128.852C190.223 143.139 204.945 159.526 221.005 180.421C225.246 185.935 229.467 191.588 233.545 197.06C243.616 210.568 254.031 224.536 265.803 237.647C266.569 238.502 267.351 239.362 268.126 240.203C302.707 277.625 348.268 302.88 399.885 313.239C450.843 323.465 509.407 319.862 573.954 302.526C579.355 301.067 584.884 299.495 590.386 297.823C644.812 281.383 696.7 256.285 746.883 232.014L754.813 228.18C761.561 224.937 768.344 221.637 774.904 218.45C827.593 192.869 877.36 168.708 933.045 154.26C951.029 149.569 966.996 146.935 981.855 146.212C1000.45 145.305 1017.56 147.482 1032.7 152.682C1045.69 157.163 1058.69 164.016 1072.43 173.635C1084.55 182.121 1095.69 191.613 1106.45 200.791C1112.76 206.166 1118.71 211.24 1124.72 216.006C1181.49 261.039 1240.62 309.511 1305.48 364.192L1305.29 364.312Z" fill="#FDFCFC"/>
<path d="M1302.87 362.792C1243.68 311.838 1183.99 261.422 1125.49 212.948C1119.53 208.041 1113.63 202.77 1107.38 197.188C1087.05 179.035 1064.01 158.461 1035.23 148.681C1007.79 139.377 975.195 140.851 935.591 153.184C888.489 167.802 846.81 189.296 802.681 212.051C788.862 219.179 774.573 226.547 760.157 233.657C734.997 246.094 707.781 259.254 679.251 271.241C648.699 284.077 620.785 293.783 593.913 300.905C588.27 302.403 582.586 303.811 577.02 305.091C546.24 312.166 516.101 316.193 487.466 317.059C455.774 318.015 426.023 315.075 399.055 308.318C349.255 295.682 305.73 269.235 269.69 229.736C268.922 228.891 268.146 228.03 267.383 227.173C256.211 214.636 245.971 201.406 236.076 188.613C231.418 182.592 226.602 176.364 221.757 170.304C205.091 149.422 190.079 133.185 174.516 119.207C172.421 117.327 170.261 115.439 168.093 113.599C128.624 80.085 77.3833 53.3304 19.9044 36.2119C-49.2252 15.6651 -119.472 9.98112 -177.904 20.2042C-238.344 30.8409 -297.953 66.6882 -294.936 114.622L-295.164 114.63C-295.887 103.149 -293.019 91.8908 -286.639 81.1683C-280.73 71.2354 -271.906 61.8913 -260.419 53.3969C-249.587 45.3939 -236.753 38.3963 -222.266 32.5971C-208.363 27.0127 -193.462 22.7911 -177.968 20.0469C-147.149 14.6548 -113.337 13.625 -77.4675 16.9852C-45.2306 20.0064 -12.4419 26.425 19.982 36.0611C77.5041 53.1893 128.774 79.9698 168.264 113.48C170.435 115.323 172.596 117.21 174.691 119.091C190.264 133.077 205.28 149.32 221.953 170.209C226.799 176.27 231.616 182.498 236.274 188.521C246.167 201.312 256.4 214.539 267.574 227.073C268.336 227.928 269.111 228.789 269.879 229.632C305.892 269.109 349.376 295.526 399.13 308.151C450.378 320.994 511.867 319.877 576.95 304.922C582.51 303.642 588.19 302.235 593.833 300.74C653.906 284.81 708.873 258.793 760.024 233.509C774.439 226.4 788.727 219.031 802.546 211.905C846.683 189.145 888.373 167.646 935.498 153.022C975.17 140.668 1007.83 139.194 1035.33 148.518C1048.22 152.897 1061.02 159.765 1074.46 169.508C1086.32 178.103 1097.11 187.744 1107.56 197.077C1113.81 202.655 1119.71 207.927 1125.66 212.831C1184.18 261.32 1243.86 311.731 1303.05 362.686L1302.87 362.792Z" fill="#FDFCFC"/>
<path d="M1300.46 361.257C1242.17 310.022 1183.62 259.042 1126.44 209.737C1120.67 204.776 1114.94 199.411 1108.88 193.732C1089.05 175.162 1066.59 154.1 1037.86 144.485C1010.09 135.198 977.439 137.627 938.038 151.909C896.754 166.851 858.824 187.951 822.146 208.355C803.751 218.586 784.733 229.166 765.351 238.956C734.763 254.424 709.035 266.223 684.354 276.093C653.932 288.255 625.469 297.321 597.333 303.796C591.558 305.124 585.721 306.36 579.989 307.468C550.121 313.238 520.771 316.157 492.704 316.157C491.146 316.157 489.593 316.147 488.044 316.129C455.595 315.753 425.389 311.403 398.267 303.204C384.897 299.115 372.136 294.087 360.172 288.194C348.715 282.568 337.454 275.945 326.704 268.505C307.361 255.12 289.283 238.974 271.435 219.149C270.675 218.296 269.915 217.441 269.155 216.583C258.799 204.886 249.002 192.659 239.528 180.833C234.056 174.008 228.404 166.949 222.709 160.076C205.176 138.906 190.319 123.288 174.539 109.432C172.419 107.569 170.23 105.702 168.034 103.878C128.093 70.7064 76.4811 44.3621 18.7788 27.6944C-50.7931 7.62122 -121.234 2.49345 -179.567 13.2614C-238.875 24.237 -298.406 60.3584 -297.443 108.158H-297.671C-298.127 85.8935 -285.717 64.7224 -261.798 46.9341C-250.988 38.8938 -238.218 31.8524 -223.845 25.9819C-209.976 20.312 -195.108 15.9808 -179.631 13.1025C-148.851 7.42662 -115 6.10494 -79.0263 9.18452C-46.7119 11.9463 -13.7796 18.1233 18.8541 27.5404C76.5928 44.2178 128.235 70.5767 168.194 103.768C170.39 105.59 172.581 107.46 174.703 109.325C190.49 123.187 205.351 138.812 222.891 159.988C228.591 166.861 234.243 173.92 239.713 180.746C249.184 192.568 258.979 204.794 269.333 216.489C270.093 217.346 270.853 218.2 271.613 219.053C309.538 261.181 350.995 288.658 398.351 303.057C463.944 322.887 533.295 316.317 579.923 307.314C585.655 306.206 591.487 304.972 597.251 303.642C661.958 288.752 720.998 261.183 765.208 238.827C784.588 229.04 803.603 218.461 821.993 208.23C858.683 187.821 896.62 166.715 937.924 151.768C955.556 145.377 971.513 141.454 986.716 139.767C1005.45 137.695 1022.69 139.232 1037.95 144.337C1050.81 148.643 1063.49 155.564 1076.71 165.496C1088.36 174.245 1098.88 184.101 1109.05 193.632C1115.11 199.308 1120.84 204.674 1126.61 209.631C1183.79 258.931 1242.34 309.918 1300.63 361.153L1300.46 361.257Z" fill="#FDFCFC"/>
<path d="M1298.04 359.729L1127.39 206.538C1121.81 201.536 1116.28 196.092 1110.42 190.322C1091.08 171.306 1069.16 149.752 1040.51 140.297C1012.8 131.154 979.154 134.634 940.51 150.641C903.36 166.03 869.474 186.494 836.706 206.284C815.347 219.184 793.261 232.523 770.568 244.262C702.362 279.547 642.753 300.387 582.979 309.85C558.181 313.774 533.719 315.748 509.996 315.748C502.806 315.748 495.689 315.566 488.644 315.204C455.429 313.492 424.765 307.743 397.503 298.102C372.234 289.168 349.121 276.553 326.843 259.538C309.059 245.952 292.003 229.754 273.181 208.564C263.25 197.374 253.628 185.761 244.326 174.525C223.272 149.097 201.503 122.793 174.558 99.6612C133.212 64.1706 78.9482 36.336 17.6276 19.1689C-52.3844 -0.432452 -123.016 -5.00723 -181.259 6.30241C-237.644 17.2472 -298.841 51.7599 -299.967 101.675H-300.195C-299.691 79.3642 -286.901 58.1963 -263.202 40.46C-241.77 24.4231 -212.696 12.2426 -181.318 6.14835C-150.57 0.178927 -116.687 -1.42654 -80.6085 1.37249C-48.2142 3.88772 -15.136 9.82471 17.7074 19.0197C48.0874 27.5274 76.8609 38.6909 103.365 52.2529C129.887 65.7962 153.869 81.693 174.729 99.5574C201.692 122.709 223.466 149.008 244.524 174.442C253.827 185.677 263.448 197.296 273.377 208.478C300.838 239.395 339.776 277.508 397.606 297.958C463.926 321.409 534.992 317.287 582.931 309.699C642.667 300.243 702.257 279.41 770.438 244.139C793.122 232.403 815.206 219.066 836.558 206.169C869.335 186.374 903.227 165.905 940.394 150.509C979.106 134.474 1012.82 130.991 1040.6 140.158C1053.43 144.392 1065.99 151.374 1079 161.504C1090.45 170.423 1100.7 180.493 1110.6 190.234C1116.46 195.996 1122 201.437 1127.56 206.438L1298.21 359.629L1298.04 359.729Z" fill="#FDFCFC"/>
<path d="M1296.66 347.953C1253.21 305.303 1215.92 270.688 1179.33 239.031C1161.57 223.651 1143.42 208.514 1125.41 194.039C1119.96 189.66 1114.56 185.003 1108.85 180.071C1094.48 167.677 1079.63 154.86 1062.53 145.349C1053.36 140.233 1044.52 136.569 1035.52 134.15C1007.9 126.65 975.503 131.609 939.216 148.891C920.436 157.82 903.336 167.983 889.086 176.747C873.999 186.024 859.118 196.256 844.724 206.15C824.037 220.372 802.647 235.077 779.651 247.708C765.658 255.415 751.474 262.304 737.491 268.181C709.272 280.017 679.352 289.67 648.243 296.974C628.938 301.464 609.54 304.858 590.591 307.062C574.504 308.935 558.254 310.019 541.958 310.306C518.1 310.698 494.858 309.201 472.874 305.852C449.5 302.285 427.381 296.609 407.128 288.954C389.071 282.134 372.016 273.548 354.985 262.683C323.252 242.48 297.941 219.12 279.437 201.025C270.344 192.094 261.47 182.987 252.886 174.18C228.169 148.816 204.822 124.858 175.594 103.518C151.653 86.1681 124.464 71.2477 94.7956 59.1778C71.8976 49.8482 46.9931 42.2182 20.7754 36.4985C14.5305 35.1379 8.16702 33.8714 1.86737 32.733C-25.2646 27.8468 -55.7915 24.6651 -88.8766 23.2753C-122.242 21.8417 -151.107 23.0823 -177.113 27.0717C-191.779 29.2997 -206.004 32.8035 -219.466 37.504C-266.769 54.0452 -297.145 81.8149 -300.723 111.787L-301.008 111.769C-300.026 103.703 -297.219 95.8035 -292.695 88.3746C-288.363 81.2181 -282.408 74.3162 -275.002 67.8603C-261.008 55.6652 -241.849 45.1048 -219.598 37.3223C-206.115 32.6148 -191.868 29.1056 -177.179 26.8738C-151.15 22.8861 -122.26 21.6374 -88.8675 23.0726C-55.7551 24.464 -25.2054 27.6474 1.93576 32.5368C8.24225 33.6719 14.608 34.9433 20.8597 36.3055C47.098 42.0285 72.0207 49.665 94.9392 59.0091C124.633 71.0885 151.845 86.0209 175.806 103.385C205.04 124.738 228.392 148.701 253.119 174.073C261.701 182.88 270.574 191.986 279.665 200.915C298.16 219 323.459 242.349 355.172 262.539C372.185 273.378 389.221 281.96 407.26 288.774C446.894 303.747 492.209 310.923 541.949 310.101C558.232 309.815 574.467 308.732 590.541 306.858C609.478 304.657 628.86 301.266 648.152 296.779C679.245 289.48 709.149 279.834 737.354 268.005C751.326 262.133 765.501 255.249 779.484 247.548C802.467 234.925 823.851 220.223 844.532 206.005C858.928 196.113 873.812 185.875 888.906 176.594C903.163 167.826 920.272 157.658 939.066 148.722C955.22 141.027 970.865 135.712 985.562 132.919C1003.62 129.491 1020.46 129.838 1035.63 133.96C1044.66 136.393 1053.52 140.061 1062.71 145.19C1079.84 154.715 1094.7 167.539 1109.07 179.941C1114.79 184.873 1120.18 189.529 1125.63 193.904C1143.64 208.381 1161.79 223.521 1179.56 238.901C1216.16 270.561 1253.44 305.176 1296.9 347.833L1296.66 347.953Z" fill="#FDFCFC"/>
<path d="M1295.29 336.172C1255 292.797 1217.18 256.5 1179.69 225.21C1161.4 209.927 1142.48 195.235 1123.44 181.541C1118.38 177.909 1113.41 174.133 1108.12 170.137C1092.3 158.171 1075.95 145.798 1057.64 137.237C1048.39 132.895 1039.53 129.873 1030.54 127.993C996.14 120.798 961.19 134.426 937.927 147.129C921.445 156.1 906.395 166.244 891.146 176.715C877.801 185.881 865.245 195.741 851.953 206.178C832.224 221.671 811.825 237.692 788.735 251.144C775.035 259.17 760.737 266.109 746.238 271.768C719.232 282.309 689.658 290.501 655.827 296.802C636.911 300.324 617.646 302.818 598.198 304.262C582.143 305.445 565.995 305.865 549.862 305.521C526.378 304.998 503.432 302.65 481.644 298.547C458.979 294.294 437.172 287.996 416.753 279.807C399.074 272.694 382.008 263.869 364.573 252.829C332.911 232.806 305.786 210.607 285.685 193.504C278.248 187.18 270.929 180.803 263.85 174.642C235.657 150.102 209.029 126.923 176.658 107.394C152.465 92.7976 125.303 80.455 95.9323 70.7151C73.7091 63.3429 50.1613 57.8195 23.9253 53.8285C17.8719 52.909 11.7136 52.0755 5.62372 51.3652C-21.1252 48.2402 -49.6708 47.058 -84.2083 45.8352C-109.106 44.9092 -141.698 44.2995 -173.007 47.8396C-187.638 49.4436 -201.945 52.2922 -215.621 56.3243C-262.958 70.3551 -295.072 94.8701 -301.522 121.9L-301.859 121.86C-300.149 114.692 -296.686 107.66 -291.565 100.963C-286.686 94.5799 -280.275 88.4596 -272.511 82.7675C-257.757 71.9541 -238.131 62.7316 -215.753 56.0989C-202.054 52.0604 -187.723 49.2063 -173.067 47.598C-141.726 44.0562 -109.108 44.666 -84.1946 45.5936C-49.6435 46.8147 -21.0865 47.9986 5.68073 51.1252C11.7752 51.8403 17.938 52.6706 23.9959 53.5901C50.2524 57.5892 73.8299 63.1143 96.0759 70.4946C125.488 80.2458 152.663 92.5981 176.879 107.208C209.273 126.749 235.913 149.938 264.114 174.487C271.182 180.649 278.512 187.018 285.948 193.347C306.034 210.443 333.143 232.632 364.794 252.646C382.209 263.673 399.259 272.488 416.915 279.593C456.587 295.559 501.319 304.201 549.867 305.281C565.984 305.625 582.116 305.205 598.155 304.022C617.586 302.578 636.835 300.084 655.734 296.562C689.537 290.265 719.086 282.084 746.067 271.551C760.548 265.898 774.827 258.967 788.512 250.956C811.579 237.515 831.971 221.501 851.693 206.016C864.99 195.574 877.548 185.712 890.909 176.54C906.165 166.064 921.222 155.915 937.72 146.936C952.8 138.703 967.674 132.779 981.931 129.328C999.218 125.144 1015.61 124.625 1030.64 127.761C1039.66 129.646 1048.55 132.68 1057.83 137.032C1076.17 145.611 1092.54 157.994 1108.37 169.97C1113.64 173.966 1118.63 177.74 1123.68 181.369C1142.73 195.068 1161.66 209.765 1179.95 225.053C1217.46 256.351 1255.28 292.654 1295.58 336.039L1295.29 336.172Z" fill="#FDFCFC"/>
<path d="M1293.9 324.393C1256.2 279.708 1218.95 242.745 1180.04 211.393C1161.22 196.202 1141.5 181.956 1121.44 169.046C1117.15 166.289 1112.74 163.358 1108.47 160.525C1090.84 148.826 1072.62 136.73 1052.72 129.126C1043.37 125.532 1034.49 123.15 1025.54 121.84C991.213 116.813 958.235 131.86 936.623 145.366C921.969 154.483 908.579 164.826 895.62 174.812L893.194 176.684C881.431 185.749 870.394 195.695 858.716 206.224C840.113 222.989 820.868 240.327 797.803 254.581C784.376 262.936 769.964 269.927 754.969 275.36C728.826 284.832 699.736 291.6 663.399 296.627C644.394 299.253 625.142 300.872 605.8 301.469C589.783 301.958 573.738 301.716 557.765 300.744C510.455 297.825 466.25 287.704 426.375 270.657C409.138 263.29 392.059 254.231 374.163 242.964C343.878 223.936 316.935 204.379 291.951 185.978C288.599 183.509 285.28 181.06 281.994 178.63C247.853 153.412 215.614 129.593 177.725 111.268C152.992 99.2968 125.86 89.5375 97.077 82.2545C75.9505 76.903 53.057 73.2801 27.081 71.159C21.2282 70.6854 15.2751 70.2946 9.38815 69.9978C-5.43185 69.2697 -21.1433 69.1513 -37.7805 69.0248C-51.1436 68.9243 -64.9604 68.8205 -79.5387 68.3989C-107.699 67.5118 -139.614 66.5064 -168.899 68.6081C-184.008 69.693 -198.432 71.892 -211.763 75.1451C-259.08 86.6915 -292.931 107.953 -302.306 132.022L-302.691 131.946C-300.218 125.601 -296.079 119.411 -290.414 113.548C-284.987 107.942 -278.12 102.6 -270.003 97.6719C-254.479 88.2483 -234.383 80.3653 -211.89 74.8775C-198.53 71.6163 -184.074 69.4124 -168.937 68.3259C-139.624 66.2177 -107.692 67.228 -79.5205 68.1151C-64.949 68.5367 -51.1322 68.6405 -37.7737 68.741C-21.1297 68.8675 -5.39764 68.9859 9.42236 69.7141C15.3162 70.0092 21.2784 70.4016 27.1334 70.8768C53.1254 72.9996 76.0576 76.6322 97.2137 81.9853C126.024 89.2829 153.188 99.0471 177.951 111.028C215.874 129.376 248.129 153.203 282.277 178.43C285.568 180.861 288.886 183.31 292.234 185.778C317.22 204.176 344.147 223.726 374.423 242.75C392.3 254.006 409.359 263.053 426.576 270.412C466.398 287.44 510.546 297.546 557.794 300.459C573.751 301.431 589.779 301.674 605.779 301.185C625.102 300.589 644.337 298.974 663.324 296.353C699.615 291.317 728.682 284.566 754.798 275.109C769.764 269.687 784.148 262.709 797.552 254.369C820.598 240.132 839.823 222.806 858.412 206.043C870.1 195.502 881.139 185.561 892.911 176.486L895.337 174.614C908.299 164.615 921.703 154.275 936.377 145.148C958.064 131.599 991.158 116.509 1025.65 121.558C1034.63 122.873 1043.56 125.265 1052.93 128.872C1072.88 136.493 1091.12 148.603 1108.77 160.313C1113.04 163.144 1117.45 166.073 1121.73 168.831C1141.8 181.747 1161.52 196.003 1180.35 211.2C1219.28 242.565 1256.54 279.542 1294.26 324.242L1293.9 324.393Z" fill="#FDFCFC"/>
<path d="M1292.53 312.611C1257.91 267.249 1220.19 228.546 1180.4 197.575C1161.05 182.48 1140.56 168.676 1119.48 156.546C1116.44 154.796 1113.33 152.978 1110.31 151.219C1090.38 139.606 1069.79 127.597 1047.85 121.013C1038.43 118.158 1029.51 116.414 1020.59 115.681C986.351 112.872 955.333 129.303 935.34 143.597C922.926 152.422 911.722 162.237 900.885 171.728C899.008 173.372 897.133 175.01 895.26 176.644C884.952 185.615 875.315 195.635 865.112 206.246C847.766 224.282 829.826 242.932 806.892 258.012C793.422 266.868 779.304 273.716 763.713 278.946C731.109 289.887 698.535 293.938 670.967 296.46C651.873 298.181 632.63 298.92 613.386 298.672C597.41 298.466 581.467 297.56 565.647 295.961C519.758 291.289 476.132 279.697 435.984 261.506C419.28 253.94 402.19 244.641 383.74 233.099C365.101 221.462 347.73 210.264 330.933 199.435C319.515 192.074 308.732 185.122 298.201 178.452C258.392 153.238 221.928 131.069 178.793 115.135C153.25 105.728 126.196 98.5622 98.2246 93.7933C78.017 90.3326 56.4162 88.6477 30.2487 88.4888C24.6034 88.458 18.8487 88.505 13.1601 88.6282C4.51202 88.8277 -4.4324 89.2461 -13.9035 89.6872C-32.0751 90.5353 -52.6635 91.497 -74.8639 90.9586C-83.3136 90.7527 -91.9342 90.4624 -100.272 90.1802C-121.718 89.4553 -143.893 88.7061 -164.796 89.3693C-180.138 89.8559 -194.646 91.4062 -207.918 93.9587C-255.155 103.048 -290.741 121.06 -303.106 142.142L-303.527 142.017C-300.29 136.504 -295.493 131.152 -289.268 126.125C-283.292 121.295 -275.971 116.734 -267.506 112.568C-251.197 104.54 -230.633 97.9983 -208.036 93.6506C-194.712 91.0932 -180.184 89.5445 -164.808 89.0499C-143.893 88.3801 -121.716 89.1293 -100.252 89.8607C-91.916 90.1429 -83.2953 90.4332 -74.8479 90.6391C-52.6818 91.1775 -32.0956 90.2159 -13.9332 89.3693C-4.45975 88.9266 4.48926 88.5082 13.1464 88.3104C18.8464 88.1855 24.6011 88.1385 30.2464 88.1693C56.4504 88.3315 78.0831 90.0164 98.3249 93.4836C126.334 98.2563 153.425 105.43 179.003 114.848C198.488 122.045 218.232 131.162 239.366 142.723C258.29 153.071 276.692 164.393 298.504 178.209C309.036 184.88 319.822 191.831 331.238 199.193C348.035 210.023 365.404 221.22 384.041 232.856C402.475 244.393 419.545 253.675 436.23 261.236C476.324 279.398 519.888 290.977 565.714 295.643C581.514 297.24 597.438 298.145 613.395 298.351C632.616 298.599 651.837 297.86 670.908 296.139C698.441 293.624 730.977 289.579 763.52 278.657C779.062 273.442 793.148 266.611 806.582 257.778C829.48 242.724 847.394 224.088 864.735 206.067C874.945 195.452 884.587 185.425 894.907 176.443C896.782 174.811 898.657 173.173 900.529 171.529C911.373 162.026 922.588 152.208 935.028 143.376C948.035 134.082 961.38 126.932 974.7 122.132C990.466 116.439 1005.94 114.165 1020.66 115.373C1029.63 116.109 1038.59 117.861 1048.04 120.725C1070.04 127.328 1090.67 139.351 1110.61 150.98C1113.63 152.738 1116.75 154.556 1119.79 156.306C1140.88 168.443 1161.39 182.253 1180.75 197.364C1201.88 213.809 1222.57 232.554 1242.25 253.054C1259.64 271.18 1276.7 291.164 1292.95 312.463L1292.53 312.611Z" fill="#FDFCFC"/>
<path d="M1291.17 300.826C1259.13 254.167 1221.98 214.778 1180.77 183.757C1160.9 168.758 1139.62 155.402 1117.53 144.056L1114.37 142.435C1091.4 130.622 1067.65 118.408 1042.98 112.907C1033.42 110.776 1024.48 109.664 1015.63 109.529C981.537 108.983 952.455 126.794 934.067 141.831C923.246 150.631 913.643 160.272 904.354 169.598C902.056 171.902 899.682 174.286 897.336 176.609C888.405 185.453 880.106 195.511 871.319 206.157C855.334 225.525 838.804 245.551 815.988 261.457C802.787 270.655 788.551 277.554 772.465 282.548C740.773 292.386 708.598 294.969 678.547 296.295C660.018 297.106 640.654 296.975 620.993 295.882C605.064 294.977 589.223 293.407 573.553 291.179C529.226 284.854 486.179 271.793 445.616 252.357C429.371 244.573 412.759 235.33 393.338 223.237C356.422 200.331 329.007 184.198 304.47 170.929C255.648 144.535 218.386 129.007 179.879 119.008C153.875 112.276 126.87 107.688 99.3954 105.334C80.2252 103.681 59.8807 103.831 33.4327 105.82C28.0132 106.232 22.4682 106.719 16.9506 107.264C11.7408 107.787 6.44437 108.387 0.83786 109.022C-19.8623 111.365 -43.3258 114.021 -70.1796 113.525C-84.3339 113.264 -98.789 112.552 -112.772 111.858C-128.659 111.071 -145.091 110.259 -160.666 110.149C-176.286 110.038 -190.883 110.929 -204.048 112.792C-251.13 119.459 -288.453 134.224 -303.884 152.29L-304.324 152.1C-300.314 147.407 -294.851 142.9 -288.086 138.705C-281.556 134.651 -273.781 130.874 -264.978 127.465C-247.878 120.845 -226.836 115.648 -204.146 112.435C-190.949 110.565 -176.33 109.678 -160.661 109.784C-145.071 109.894 -128.632 110.706 -112.736 111.493C-98.7594 112.184 -84.3088 112.899 -70.1659 113.16C-43.36 113.655 -19.9215 111.002 0.758057 108.662C6.36002 108.024 11.6564 107.423 16.8754 106.897C22.3998 106.351 27.9493 105.866 33.3734 105.454C59.8625 103.464 80.2434 103.316 99.4524 104.967C126.969 107.325 154.014 111.92 180.057 118.662C218.617 128.675 255.917 144.219 304.773 170.634C329.329 183.909 356.744 200.047 393.659 222.958C413.064 235.033 429.658 244.278 445.885 252.051C486.394 271.461 529.376 284.503 573.638 290.809C589.288 293.032 605.108 294.599 621.016 295.501C640.654 296.591 660.004 296.73 678.499 295.914C708.504 294.589 740.627 292.011 772.244 282.195C788.272 277.22 802.458 270.345 815.612 261.178C838.382 245.313 854.892 225.308 870.861 205.961C879.653 195.307 887.961 185.242 896.903 176.385C899.249 174.064 901.623 171.682 903.919 169.374C913.214 160.043 922.829 150.392 933.666 141.582C945.665 131.767 958.244 124.003 971.058 118.505C986.065 112.065 1001.06 108.921 1015.63 109.153C1024.52 109.296 1033.51 110.406 1043.11 112.547C1067.87 118.061 1091.65 130.298 1114.66 142.127L1117.81 143.748C1139.93 155.1 1161.23 168.479 1181.13 183.494C1222.38 214.541 1259.56 253.96 1291.61 300.653L1291.17 300.826Z" fill="#FDFCFC"/>
<path d="M689.881 296.123C688.603 296.123 687.343 296.123 686.101 296.123C667.665 296.068 648.31 295.046 628.572 293.084C612.695 291.484 596.956 289.253 581.43 286.401C559.727 282.402 537.942 276.654 516.678 269.32C496.158 262.238 475.47 253.453 455.219 243.21C435.383 233.177 416.842 221.997 402.911 213.371C370.307 193.262 339.299 176.447 310.735 163.404C264.465 142.28 223.231 129.402 180.967 122.878C154.94 118.902 128.396 116.888 101.776 116.866H100.549C77.9222 116.922 56.4423 119.912 36.5995 123.136C31.4352 123.981 26.0932 124.905 20.7215 125.881C17.778 126.423 14.8323 126.981 11.711 127.571C-10.2888 131.741 -35.2251 136.465 -65.5195 136.077C-83.9692 135.842 -102.813 134.481 -121.037 133.158C-132.802 132.308 -144.977 131.429 -156.576 130.901C-172.536 130.171 -187.212 130.406 -200.215 131.596C-247.046 135.884 -286.112 147.406 -304.714 162.408L-305.141 162.139C-295.601 154.443 -281.249 147.776 -262.482 142.329C-244.561 137.125 -223.056 133.273 -200.288 131.188C-187.249 129.994 -172.529 129.759 -156.539 130.489C-144.923 131.019 -132.75 131.898 -120.971 132.748C-102.761 134.063 -83.9282 135.422 -65.5012 135.657C-35.2867 136.045 -10.3914 131.327 11.5627 127.166C14.6841 126.574 17.6321 126.016 20.5779 125.474C25.9541 124.501 31.2939 123.572 36.4695 122.727C56.3442 119.498 77.8629 116.502 100.538 116.446C127.608 116.404 154.607 118.422 181.074 122.466C202.889 125.833 224.034 130.792 245.721 137.622C266.606 144.202 287.969 152.519 311.029 163.047C339.621 176.1 370.656 192.924 403.271 213.049C417.179 221.661 435.711 232.833 455.534 242.857C496.626 263.637 539.027 278.148 581.558 285.984C597.062 288.832 612.779 291.06 628.633 292.659C648.349 294.618 667.678 295.638 686.089 295.693C714.893 295.777 748.333 295.088 780.965 285.737C797.477 281.005 811.763 274.086 824.636 264.584C847.247 247.897 862.238 226.475 876.734 205.766C884.189 195.111 891.235 185.047 898.893 176.335C901.346 173.544 903.823 170.668 906.216 167.886C914.306 158.492 922.669 148.776 932.304 139.797C943.317 129.467 955.134 121.088 967.416 114.893C981.666 107.712 996.194 103.692 1010.6 102.949C1019.49 102.49 1028.51 102.959 1038.19 104.383C1064.04 108.187 1089.67 119.241 1115.84 131.204C1138.65 141.634 1161.36 154.924 1181.5 169.638C1203.88 185.934 1224.9 205.052 1243.98 226.46C1260.99 245.533 1276.57 266.527 1290.27 288.861L1289.75 289.023C1260.3 241.06 1223.74 200.988 1181.08 169.922C1160.97 155.229 1138.3 141.959 1115.52 131.544C1089.43 119.622 1063.85 108.588 1038.08 104.796C1028.47 103.382 1019.49 102.915 1010.66 103.371C984.195 104.738 956.532 117.768 932.765 140.061C923.148 149.025 914.792 158.73 906.709 168.117C904.315 170.899 901.839 173.776 899.383 176.567C891.739 185.263 884.7 195.319 877.251 205.965C870.138 216.128 862.783 226.638 854.342 236.741C844.766 248.194 835.19 257.4 825.053 264.883C812.123 274.426 797.773 281.377 781.186 286.127C766.555 290.32 750.83 293.092 733.11 294.603C718.112 295.888 703.041 296.123 689.881 296.123Z" fill="#FDFCFC"/>
<path d="M726.444 296.936C714.816 296.936 703.644 296.449 693.662 295.943C675.29 295.027 655.944 293.12 636.158 290.279C620.339 287.983 604.704 285.089 589.318 281.611C548.075 272.263 507.356 256.708 464.83 234.055C446.286 224.177 428.806 213.549 412.495 203.509C380.306 183.757 348.171 167.726 317.013 155.885C271.185 138.47 228.307 129.211 182.073 126.75C155.284 125.357 128.366 125.912 101.735 128.405C79.7925 130.484 59.0992 135.5 39.7945 140.461C34.9632 141.708 29.8241 143.07 24.5185 144.515C23.1931 144.877 21.8547 145.244 20.5034 145.616C-1.73798 151.733 -26.9046 158.655 -59.2031 158.655C-59.748 158.655 -60.2906 158.655 -60.8401 158.655C-82.6917 158.492 -105.001 156.279 -126.579 154.133C-135.134 153.282 -143.978 152.403 -152.469 151.691C-169.049 150.303 -183.411 149.894 -196.37 150.442C-243.514 152.435 -283.307 160.507 -305.541 172.585L-305.922 172.231C-294.93 166.259 -279.036 161.076 -259.964 157.239C-241.204 153.467 -219.225 150.961 -196.407 149.996C-183.411 149.447 -169.012 149.857 -152.403 151.248C-143.905 151.96 -135.056 152.841 -126.5 153.691C-104.942 155.835 -82.6529 158.051 -60.8356 158.209C-27.8645 158.449 -2.28973 151.414 20.2754 145.208C21.6267 144.835 22.9651 144.467 24.2905 144.105C29.5983 142.665 34.7397 141.303 39.5665 140.051C58.9077 135.083 79.6329 130.058 101.637 127.972C128.31 125.475 155.272 124.919 182.103 126.315C204.755 127.496 227.156 130.444 248.902 135.106C271.586 139.95 293.962 146.62 317.302 155.491C348.502 167.347 380.666 183.384 412.905 203.168C429.209 213.203 446.679 223.825 465.206 233.695C507.669 256.317 548.326 271.852 589.502 281.183C604.867 284.657 620.48 287.546 636.277 289.839C656.035 292.677 675.353 294.579 693.698 295.496C724.565 297.038 757.402 297.829 789.705 289.303C806.702 284.815 821.084 277.852 833.677 268.013C856.107 250.486 870.068 226.581 882.387 205.491C888.584 194.878 894.439 184.855 900.898 176.31C903.23 173.229 905.574 170.041 907.843 166.958C914.938 157.318 922.273 147.348 930.96 138.038C941.008 127.192 952.061 118.197 963.812 111.303C977.31 103.383 991.371 98.4917 1005.6 96.7695C1014.49 95.6927 1023.55 95.5192 1033.28 96.2392C1060.47 98.255 1088.09 108.217 1113.89 118.68C1137.71 128.342 1161.24 141.179 1181.91 155.804C1204.91 172.021 1226.1 191.333 1244.89 213.192C1261.69 232.74 1276.53 254.237 1288.98 277.086L1288.39 277.249C1261.92 228.673 1224.95 186.786 1181.46 156.118C1160.83 141.523 1137.35 128.712 1113.58 119.066C1087.84 108.626 1060.29 98.6896 1033.21 96.6868C1023.54 95.97 1014.54 96.1419 1005.7 97.2122C979.426 100.396 953.067 114.983 931.477 138.288C922.813 147.58 915.481 157.537 908.392 167.168C906.124 170.25 903.78 173.438 901.445 176.524C895.002 185.049 889.154 195.063 882.961 205.664C870.622 226.79 856.639 250.732 834.135 268.316C821.474 278.209 807.003 285.211 789.917 289.723C775.085 293.637 759.082 295.903 740.997 296.649C736.109 296.853 731.239 296.936 726.444 296.936Z" fill="#FDFCFC"/>
<path d="M749.392 298.693H748.895C732.465 298.664 716.334 297.234 701.218 295.774C682.878 294 663.538 291.211 643.741 287.483C627.985 284.492 612.452 280.936 597.202 276.828C557.607 266.148 518.603 249.649 474.451 224.907C458.55 215.999 442.903 206.406 427.771 197.132L422.089 193.65C389.713 173.895 356.479 158.659 323.294 148.37C277.851 134.277 232.021 128.471 183.184 130.62C156.065 131.839 129.183 134.96 102.928 139.938C82.6355 143.819 64.5369 150.045 42.9954 157.777C38.627 159.35 33.9666 161.051 28.3259 163.128L28.0113 163.245C17.122 167.275 4.78949 171.843 -9.04782 175.325C-24.9371 179.315 -40.3522 181.235 -56.1595 181.214C-80.8108 181.17 -105.964 177.905 -130.289 174.749C-136.249 173.976 -142.412 173.176 -148.363 172.453C-165.428 170.382 -179.875 169.336 -192.526 169.258C-239.111 168.967 -280.612 173.875 -306.385 182.718L-306.684 182.281C-294.059 177.944 -277.03 174.425 -257.436 172.103C-237.805 169.774 -215.358 168.62 -192.519 168.764C-179.831 168.842 -165.349 169.899 -148.246 171.967C-142.291 172.688 -136.126 173.489 -130.164 174.263C-105.868 177.416 -80.7447 180.675 -56.1549 180.719H-55.8266C-20.653 180.719 6.14383 170.793 27.6898 162.812L28.0067 162.695C33.6497 160.62 38.3123 158.919 42.6808 157.344C64.2587 149.594 82.3824 143.359 102.745 139.466C129.046 134.479 155.976 131.352 183.142 130.132C207.041 129.081 229.584 129.882 252.062 132.584C276.287 135.503 299.676 140.511 323.568 147.92C356.817 158.229 390.114 173.491 422.536 193.279L428.22 196.759C443.345 206.032 458.988 215.619 474.878 224.521C518.973 249.232 557.92 265.711 597.448 276.371C612.677 280.473 628.188 284.024 643.921 287.011C663.689 290.731 683.001 293.517 701.314 295.289C734.116 298.463 766.23 300.665 798.442 292.857C815.925 288.619 830.405 281.61 842.712 271.433C864.942 253.049 877.086 227.573 887.802 205.096C892.818 194.573 897.555 184.632 902.9 176.279C904.952 173.065 907.02 169.74 909.015 166.524C915.253 156.47 921.703 146.075 929.612 136.273C938.716 124.907 949.004 115.294 960.192 107.703C972.944 99.0492 986.532 93.289 1000.58 90.584C1009.29 88.9072 1018.18 88.0898 1027.74 88.0898H1028.36C1058.06 88.1985 1088.62 97.7956 1111.93 106.146C1136.77 115.039 1161.1 127.424 1182.3 141.957C1205.93 158.103 1227.29 177.602 1245.78 199.915C1262.38 219.936 1276.47 241.939 1287.67 265.309L1287.02 265.471C1270.36 230.696 1238.59 181.102 1181.83 142.313C1160.67 127.811 1136.4 115.457 1111.63 106.585C1088.37 98.2594 1057.91 88.6899 1028.36 88.5845C1018.63 88.5439 1009.6 89.358 1000.77 91.0591C974.736 96.0718 949.678 112.217 930.212 136.521C922.321 146.3 915.877 156.686 909.646 166.727C907.651 169.944 905.588 173.271 903.529 176.486C898.198 184.819 893.465 194.746 888.456 205.258C877.722 227.777 865.556 253.301 843.237 271.757C830.849 282.003 816.271 289.057 798.67 293.325C783.745 296.934 767.62 298.693 749.392 298.693Z" fill="#FDFCFC"/>
<path d="M767.639 300.975C764.1 300.975 760.481 300.894 756.781 300.732C740.575 300.023 724.825 297.897 708.774 295.595C690.164 292.925 671.382 289.354 651.318 284.677C635.454 280.948 619.897 276.692 605.077 272.028C567.487 260.235 530.163 242.875 484.059 215.741C472.609 209.003 461.164 201.936 450.087 195.1C444.061 191.37 437.832 187.532 431.663 183.775C398.908 163.886 364.555 149.44 329.564 140.836C283.328 129.464 235.806 127.376 184.285 134.47C157.062 138.213 129.337 144.085 104.097 151.451C83.8235 157.367 66.1627 165.675 47.4621 174.479L46.1693 175.087C43.2479 176.466 40.2946 177.862 37.3093 179.278L32.1063 181.741C21.2011 186.93 9.42715 192.334 -4.07959 196.498C-19.7569 201.331 -35.2677 203.708 -51.5036 203.767C-78.5216 203.859 -106.08 199.388 -132.726 195.071C-136.532 194.455 -140.465 193.816 -144.284 193.211C-162.188 190.373 -176.306 188.738 -188.712 188.069C-234.499 185.592 -277.709 187.337 -307.272 192.858L-307.461 192.348C-277.821 186.814 -234.526 185.062 -188.659 187.543C-176.217 188.216 -162.068 189.854 -144.129 192.697C-140.305 193.302 -136.377 193.941 -132.567 194.557C-106.244 198.827 -79.0346 203.241 -52.3745 203.241H-51.5127C-17.0277 203.118 7.51877 192.794 31.6822 181.305L36.8852 178.843C39.8766 177.427 42.8314 176.029 45.7498 174.651L47.0426 174.043C65.7728 165.232 83.4633 156.91 103.815 150.974C129.098 143.597 156.875 137.714 184.144 133.963C235.797 126.858 283.444 128.947 329.806 140.347C364.886 148.975 399.316 163.455 432.144 183.385C438.316 187.143 444.547 190.991 450.573 194.713C461.64 201.547 473.081 208.612 484.524 215.347C530.58 242.449 567.845 259.781 605.364 271.558C620.162 276.206 635.688 280.453 651.534 284.18C671.555 288.85 690.319 292.416 708.899 295.082C737.103 299.128 772.203 304.164 807.167 296.407C825.136 292.419 839.714 285.367 851.734 274.85C873.75 255.583 883.958 228.488 892.966 204.581C896.878 194.202 900.574 184.386 904.888 176.245C906.568 173.073 908.251 169.792 909.881 166.619C915.353 155.976 920.994 144.971 928.249 134.509C936.432 122.613 945.953 112.381 956.555 104.098C968.566 94.7132 981.685 88.0837 995.543 84.3976C1004.51 82.0219 1013.89 80.5228 1023.42 79.9412C1036.62 79.0915 1050.68 79.9996 1066.39 82.7111C1079.7 84.996 1093.95 88.5637 1109.97 93.6039C1135.81 101.73 1160.96 113.661 1182.7 128.105C1206.96 144.175 1228.48 163.865 1246.68 186.63C1263.06 207.13 1276.41 229.637 1286.35 253.526L1285.64 253.676C1264.65 203.241 1227.91 158.783 1182.19 128.49C1160.52 114.086 1135.44 102.186 1109.68 94.0856C1075.15 83.23 1047.78 78.9001 1023.51 80.4634C1014.04 81.0407 1004.73 82.5295 995.826 84.889C962.846 93.6574 941.245 116.836 928.933 134.738C921.694 145.178 916.053 156.17 910.595 166.8C908.967 169.974 907.28 173.256 905.599 176.432C901.299 184.54 897.619 194.345 893.7 204.719C884.674 228.674 874.443 255.829 852.327 275.182C840.214 285.783 825.519 292.89 807.411 296.913C795.122 299.631 782.028 300.975 767.639 300.975Z" fill="#FDFCFC"/>
<path d="M783.446 303.598C759.335 303.598 736.155 299.192 716.323 295.424C697.664 291.879 678.881 287.448 658.901 281.881C643.126 277.454 627.665 272.532 612.964 267.253C568.88 251.45 529.58 228.763 493.679 206.602C486.346 202.078 478.943 197.414 471.791 192.904C461.848 186.641 451.567 180.166 441.266 173.93C408.015 153.834 372.552 140.175 335.864 133.321C288.401 124.456 239.192 126.095 185.411 138.336C157.725 144.638 130.023 153.16 105.299 162.985C86.2314 170.56 70.1004 180.122 53.0209 190.244L49.3729 192.401L48.7117 192.794C44.5598 195.257 40.2757 197.803 35.9118 200.359C25.483 206.508 13.9987 212.87 0.715393 217.732C-14.7042 223.374 -30.2493 226.187 -46.8112 226.327C-75.888 226.585 -105.521 220.771 -134.174 215.148C-136.182 214.755 -138.181 214.364 -140.173 213.974C-159.072 210.287 -172.854 208.101 -184.861 206.884C-229.498 202.366 -274.424 200.946 -308.117 202.992L-308.184 202.428C-274.44 200.381 -229.444 201.804 -184.749 206.328C-172.704 207.548 -158.889 209.734 -139.958 213.431L-133.957 214.607C-105.357 220.218 -75.7832 226.017 -46.818 225.764C-10.8465 225.44 14.4866 212.257 35.4079 199.919C39.7604 197.363 44.0536 194.817 48.2055 192.356L48.8667 191.963L52.5147 189.806C69.6147 179.666 85.7822 170.088 104.916 162.489C129.684 152.65 157.436 144.114 185.172 137.801C210.667 131.997 234.614 128.646 258.378 127.558C284.888 126.343 311.026 128.1 336.069 132.778C372.875 139.653 408.441 153.353 441.779 173.492C452.087 179.736 462.37 186.213 472.315 192.477C479.472 196.987 486.875 201.65 494.203 206.172C530.063 228.304 569.316 250.965 613.32 266.741C628.005 272.011 643.438 276.925 659.191 281.346C679.143 286.905 697.896 291.329 716.526 294.869C745.131 300.305 780.733 307.071 815.909 299.951C834.377 296.221 849.042 289.122 860.772 278.261C882.56 258.089 890.714 229.325 897.907 203.946C900.796 193.75 903.527 184.118 906.892 176.215C908.137 173.296 909.387 170.267 910.595 167.343C915.324 155.907 920.214 144.08 926.902 132.739C934.179 120.306 942.937 109.454 952.93 100.489C964.207 90.3712 976.856 82.8757 990.527 78.2101C999.401 75.181 1008.81 73.0207 1018.5 71.7883C1031.9 70.0482 1046.77 70.1066 1062.68 71.9618C1076.63 73.5835 1091.87 76.6501 1108 81.0692C1134.85 88.4268 1160.81 99.9034 1183.08 114.259C1207.97 130.252 1229.66 150.135 1247.56 173.353C1263.73 194.331 1276.34 217.343 1285.03 241.749L1284.26 241.888C1265.84 190.168 1229.72 144.998 1182.55 114.672C1160.35 100.364 1134.47 88.9246 1107.71 81.5897C1073.03 72.085 1043.89 69.059 1018.64 72.3461C1009.03 73.5703 999.684 75.7147 990.874 78.721C958.347 89.8214 938.534 114.343 927.64 132.958C920.969 144.271 916.085 156.08 911.363 167.5C910.153 170.419 908.903 173.45 907.658 176.377C904.302 184.26 901.578 193.878 898.691 204.063C895.23 216.272 891.306 230.11 885.613 243.084C879.09 257.948 871.172 269.569 861.406 278.612C855.759 283.84 849.27 288.29 842.118 291.836C834.425 295.652 825.681 298.568 816.126 300.501C805.195 302.711 794.226 303.598 783.446 303.598Z" fill="#FDFCFC"/>
<path d="M797.698 306.465C789.718 306.465 781.376 305.913 772.552 304.812C755.178 302.643 738.548 298.71 723.874 295.244C705.379 290.866 686.069 285.43 666.48 279.075C650.805 273.961 635.451 268.371 620.843 262.464C578.921 245.52 542.803 222.995 503.293 197.447C499.782 195.177 496.225 192.859 492.766 190.62C479.191 181.799 465.151 172.679 450.849 164.061C417.052 143.742 380.483 130.869 342.159 125.803C293.823 119.412 241.451 124.927 186.531 142.193C158.35 151.054 130.671 162.224 106.503 174.499C88.2968 183.742 73.3104 194.637 57.4438 206.173C55.8266 207.338 54.2039 208.515 52.576 209.704C48.5222 212.646 44.1606 215.803 39.7191 218.964C30.4099 225.613 19.0646 233.192 5.5191 238.956C-9.6543 245.407 -25.2358 248.658 -42.1192 248.893C-73.0223 249.326 -104.479 242.048 -134.902 235.012L-136.062 234.743C-150.957 231.298 -166.714 227.82 -181.019 225.707C-224.622 219.267 -270.064 214.796 -308.973 213.117L-308.92 212.511C-269.973 214.191 -224.487 218.673 -180.846 225.11C-166.5 227.229 -150.716 230.714 -135.798 234.165L-134.637 234.433C-104.281 241.455 -72.8878 248.715 -42.1351 248.285C-6.62186 247.789 17.9064 233.69 39.1241 218.535C43.5609 215.375 47.9225 212.211 51.9741 209.277C53.602 208.099 55.2216 206.923 56.8328 205.75C72.7267 194.194 87.7405 183.278 106.006 174.006C130.224 161.702 157.951 150.512 186.186 141.632C211.95 133.523 237.306 127.95 261.545 125.044C289.238 121.724 316.413 121.776 342.314 125.206C380.787 130.291 417.49 143.207 451.403 163.596C465.717 172.222 479.761 181.347 493.355 190.171C496.802 192.412 500.368 194.728 503.879 196.996C543.353 222.52 579.432 245.022 621.279 261.935C635.871 267.835 651.195 273.415 666.847 278.522C686.407 284.869 705.689 290.3 724.155 294.667C753.111 301.514 789.135 310.034 824.661 303.507C843.608 300.025 858.378 292.888 869.806 281.686C891.354 260.579 897.59 228.765 902.599 203.196C904.55 193.24 906.395 183.836 908.894 176.18C909.68 173.767 910.476 171.281 911.242 168.883C915.234 156.396 919.361 143.469 925.554 130.976C935.114 111.529 953.269 85.52 985.502 72.0227C994.278 68.3327 1003.72 65.511 1013.57 63.6353C1039.7 58.5481 1070.81 60.1941 1106.03 68.5247C1133.89 75.1136 1160.67 86.1313 1183.48 100.402C1208.99 116.321 1230.85 136.404 1248.46 160.069C1256.69 171.181 1263.77 182.702 1269.66 194.541C1275.43 206.117 1280.13 217.951 1283.72 229.965L1282.88 230.092C1267.04 177.092 1231.54 131.196 1182.92 100.859C1160.19 86.647 1133.51 75.6666 1105.76 69.102C1070.7 60.8103 1039.76 59.1676 1013.79 64.2224C1004.02 66.0833 994.646 68.8838 985.935 72.5465C953.931 85.9497 935.873 111.825 926.365 131.172C920.189 143.635 916.067 156.535 912.081 169.012C911.313 171.419 910.519 173.905 909.731 176.32C907.241 183.942 905.399 193.339 903.451 203.282C900.93 216.145 898.073 230.726 893.191 244.484C887.58 260.295 880.159 272.58 870.503 282.037C864.995 287.433 858.554 291.983 851.351 295.561C843.599 299.417 834.689 302.286 824.865 304.091C816.242 305.674 807.242 306.465 797.698 306.465Z" fill="#FDFCFC"/>
<path d="M810.83 309.498C801.277 309.498 791.202 308.616 780.438 306.852C763 303.993 746.224 299.248 731.418 295.061C712.781 289.792 693.481 283.467 674.051 276.265C658.478 270.469 643.225 264.211 628.715 257.668C588.79 239.667 554.544 216.487 518.288 191.936L512.898 188.287C496.04 176.883 478.604 165.097 460.433 154.194C426.046 133.617 388.369 121.532 348.448 118.276C298.302 114.184 244.2 123.525 187.64 146.039C159.352 157.3 130.955 171.499 107.678 186.007C90.1038 196.965 76.0088 209.294 61.0862 222.349C59.3215 223.894 57.5469 225.444 55.7625 226.998C52.1988 230.107 47.9534 233.793 43.512 237.564C35.288 244.564 24.0773 253.456 10.2924 260.154C-4.63705 267.404 -20.2596 271.1 -37.4554 271.449C-51.5914 271.7 -67.1911 270.151 -85.1461 266.704C-100.564 263.746 -115.47 259.88 -131.982 255.5C-147.046 251.455 -162.944 247.274 -177.208 244.514C-219.456 236.339 -264.076 229.178 -309.852 223.231L-309.687 222.592C-263.896 228.544 -219.242 235.708 -176.969 243.888C-162.666 246.656 -146.743 250.842 -131.66 254.893C-103.999 262.234 -69.5737 271.374 -37.4805 270.802C-0.772461 270.054 22.7959 254.186 42.812 237.147C47.2512 233.38 51.492 229.687 55.0556 226.588C56.8401 225.035 58.6147 223.485 60.3794 221.94C75.3271 208.865 89.4449 196.514 107.076 185.521C130.398 170.977 158.853 156.757 187.195 145.473C243.924 122.891 298.213 113.526 348.551 117.63C367.99 119.231 386.983 122.893 404.897 128.496C424.302 134.543 443.185 143.021 461.019 153.695C479.213 164.604 496.657 176.399 513.527 187.815L518.917 191.462C555.139 215.99 589.353 239.158 629.205 257.116C643.692 263.65 658.923 269.898 674.472 275.688C693.875 282.878 713.148 289.193 731.753 294.456C760.998 302.726 797.392 313.019 833.381 307.048C852.875 303.814 867.741 296.634 878.829 285.097C900.183 263.061 903.989 229.4 907.046 202.354C908.138 192.679 909.173 183.542 910.886 176.154C911.238 174.629 911.592 173.097 911.946 171.556C915.138 157.639 918.448 143.25 924.196 129.206C932.404 109.006 948.82 81.6159 980.467 65.8402C989.147 61.4931 998.623 58.0099 1008.63 55.4873C1022.7 51.8888 1038.38 50.1974 1055.23 50.4601C1070.62 50.6969 1087.04 52.5569 1104.05 55.9868C1132.93 61.807 1160.52 72.3756 1183.87 86.5523C1210.01 102.393 1232.04 122.661 1249.34 146.79C1257.43 158.121 1264.26 169.885 1269.77 181.974C1275.19 193.817 1279.41 205.921 1282.4 218.191L1281.5 218.303C1268.45 164.802 1232.64 116.962 1183.27 87.0502C1160.02 72.9415 1132.55 62.4103 1103.81 56.616C1068.38 49.4709 1035.57 49.2957 1008.94 56.1068C999.01 58.6109 989.609 62.0666 980.993 66.3786C949.566 82.0457 933.239 109.295 925.076 129.394C919.344 143.402 916.043 157.774 912.851 171.668C912.495 173.21 912.142 174.743 911.791 176.267C910.083 183.63 909.055 192.753 907.96 202.414C904.894 229.538 901.077 263.295 879.583 285.472C874.239 291.034 867.848 295.688 860.591 299.301C852.78 303.193 843.696 306.012 833.591 307.689C826.127 308.911 818.49 309.519 810.83 309.498Z" fill="#FDFCFC"/>
<path d="M823.169 312.654C812.284 312.654 800.752 311.404 788.324 308.889C770.74 305.332 753.859 299.778 738.966 294.879C720.147 288.686 700.856 281.479 681.631 273.456C666.171 266.986 651.02 260.061 636.596 252.874C601.081 235.185 570.727 213.514 538.591 190.57C533.347 186.821 527.907 182.949 522.514 179.131C503.568 165.736 487.389 154.691 470.022 144.33C435.024 123.48 396.241 112.181 354.75 110.748C302.608 108.946 246.762 122.114 188.766 149.886C159.949 163.683 131.579 180.597 108.877 197.516C91.7769 210.261 78.4046 224.135 64.2504 238.822C62.4978 240.642 60.7361 242.466 58.9654 244.295C55.8076 247.557 51.6329 251.854 47.3191 256.164C29.168 274.34 5.47198 293.058 -32.7727 294.01C-33.9652 294.036 -35.1622 294.05 -36.3569 294.05C-66.2249 294.05 -96.6994 285.645 -127.885 276.259L-129.83 275.668C-145.279 270.979 -159.869 266.55 -173.378 263.326C-224.281 251.176 -273.509 240.921 -310.707 233.344L-310.44 232.681C-273.231 240.261 -223.992 250.519 -173.07 262.672C-159.527 265.904 -144.919 270.34 -129.452 275.034L-127.507 275.625C-95.1809 285.355 -63.6097 294.031 -32.8069 293.32C5.00458 292.373 28.5251 273.803 46.5211 255.764C50.8303 251.458 55.0027 247.169 58.1491 243.904C59.9214 242.077 61.6823 240.253 63.4319 238.431C77.6089 223.721 91.0016 209.825 108.159 197.039C130.906 180.088 159.333 163.138 188.205 149.315C215.015 136.484 241.821 126.631 267.9 120.024C297.811 112.449 327.052 109.094 354.807 110.054C396.515 111.494 435.494 122.846 470.656 143.795C488.05 154.173 504.245 165.228 523.21 178.635C528.602 182.449 534.035 186.327 539.288 190.077C571.393 212.998 601.717 234.648 637.164 252.303C651.565 259.479 666.695 266.394 682.133 272.856C701.33 280.868 720.594 288.063 739.386 294.246C768.884 303.952 805.597 316.031 842.134 310.593C862.109 307.62 877.068 300.397 887.873 288.511C908.958 265.471 910.217 229.916 911.248 201.347C911.581 192.025 911.895 183.219 912.901 176.126L912.923 175.964C915.181 160.071 917.513 143.649 922.86 127.44C927.49 113.302 933.941 100.59 942.028 89.6546C951.148 77.3298 962.393 67.2348 975.452 59.6534C984.035 54.6456 993.542 50.4987 1003.71 47.3286C1031.47 38.5894 1065.5 37.2401 1102.1 43.4366C1117.05 45.9861 1131.54 49.7487 1145.29 54.6505C1159.21 59.5867 1172.29 65.6387 1184.28 72.6885C1211.06 88.4529 1233.25 108.912 1250.25 133.502C1265.53 155.6 1276.2 180.808 1281.1 206.401L1280.14 206.494C1269.65 151.72 1234.49 103.144 1183.66 73.2221C1159.87 59.2107 1131.59 49.1433 1101.86 44.1177C1065.47 37.9666 1031.66 39.2964 1004.09 47.9757C993.998 51.1189 984.562 55.2308 976.043 60.1967C951.658 74.3524 933.587 97.6576 923.781 127.602C918.448 143.769 916.118 160.175 913.865 176.04L913.842 176.202C912.839 183.271 912.524 192.064 912.194 201.373C911.17 230.029 909.898 265.692 888.662 288.895C883.454 294.624 877.109 299.379 869.809 303.025C861.936 306.956 852.683 309.732 842.31 311.276C836.013 312.204 829.599 312.666 823.169 312.654Z" fill="#FDFCFC"/>
<path d="M-32.0632 316.626C-45.4171 316.626 -59.9544 314.776 -76.3636 310.997C-92.6678 307.243 -108.792 302.06 -123.788 297.02C-126.504 296.102 -129.2 295.187 -131.875 294.276C-145.199 289.747 -157.782 285.469 -169.547 282.138C-216.449 268.853 -261.155 256.915 -304.389 245.371L-311.555 243.457L-311.194 242.774L-304.028 244.688C-260.79 256.233 -216.08 268.173 -169.166 281.46C-157.372 284.8 -144.77 289.082 -131.432 293.622C-128.757 294.532 -126.062 295.446 -123.348 296.365C-92.5675 306.713 -59.8541 316.739 -28.1302 315.846C10.8578 314.691 34.2346 293.084 50.238 274.391C54.342 269.608 58.2841 264.846 61.2663 261.229C62.9125 259.234 64.5496 257.244 66.1775 255.258C79.6979 238.79 92.4681 223.235 109.269 208.568C131.431 189.205 159.831 169.529 189.243 153.158C216.525 137.97 244.056 125.969 271.074 117.493C302.064 107.763 332.333 102.721 361.041 102.492C404.238 102.035 444.359 112.603 480.285 133.906C500.194 145.728 518.044 158.516 532.88 169.469C540.953 175.429 549.029 181.538 556.836 187.446C584.476 208.365 613.058 229.986 645.115 247.502C659.433 255.328 674.461 262.908 689.783 270.043C708.741 278.844 727.993 286.923 747.011 294.055C776.73 305.203 813.719 319.078 850.88 314.153C871.334 311.443 886.389 304.178 896.907 291.936C917.714 267.852 916.31 230.349 915.181 200.215C914.846 191.296 914.531 182.886 914.91 176.109C915.767 160.831 917.053 143.075 921.522 125.684C925.279 110.948 930.959 97.6157 938.394 86.0596C946.807 72.9872 957.587 62.0278 970.432 53.4848C978.929 47.8323 988.466 43.0276 998.782 39.2026C1013.48 33.7359 1029.97 30.2995 1047.8 28.986C1064.5 27.7584 1082.1 28.4038 1100.13 30.9028C1131.06 35.2445 1160.06 44.8284 1184.67 58.8412C1198.62 66.8296 1211.46 76.263 1222.81 86.8801C1233.56 96.9346 1243.1 108.158 1251.14 120.224C1266.19 142.796 1276.1 168.524 1279.79 194.627L1278.77 194.7C1270.85 138.649 1236.32 89.3386 1184.02 59.4104C1160.07 45.6877 1130.21 35.8181 1099.93 31.6196C1062.5 26.4302 1027.69 29.273 999.256 39.8448C989.016 43.6417 979.548 48.4109 971.114 54.0215C946.91 70.1184 930.557 94.275 922.509 125.818C918.058 143.17 916.773 160.887 915.92 176.141C915.541 182.894 915.856 191.299 916.191 200.199C916.747 215.065 917.379 231.916 915.261 248.201C912.805 267.103 907.083 281.534 897.766 292.31C892.693 298.212 886.398 303.067 879.052 306.743C871.115 310.716 861.697 313.446 851.054 314.852C845.753 315.547 840.374 315.893 834.984 315.886C803.048 315.886 772.102 304.278 746.52 294.681C727.478 287.546 708.196 279.447 689.213 270.633C673.868 263.498 658.82 255.904 644.479 248.066C612.358 230.514 583.749 208.867 556.079 187.931C548.274 182.024 540.201 175.917 532.139 169.961C517.319 159.022 499.496 146.252 479.626 134.446C443.905 113.258 404.016 102.75 361.066 103.201C293.607 103.739 230.743 130.966 189.886 153.713C160.515 170.073 132.179 189.708 110.058 209.024C93.3117 223.647 80.562 239.177 67.0621 255.621C65.4327 257.608 63.7949 259.599 62.1487 261.594C59.1642 265.212 55.213 269.98 51.1112 274.765C44.3943 282.613 33.8494 294.034 19.8752 302.598C13.0922 306.755 5.87375 310.024 -1.57956 312.311C-9.9744 314.876 -18.9614 316.321 -28.0914 316.572C-29.4047 316.607 -30.7286 316.625 -32.0632 316.626Z" fill="#FDFCFC"/>
<path d="M-27.7756 339.205C-41.1432 339.205 -55.6532 337.213 -71.9757 333.146C-88.875 328.93 -105.583 323.015 -119.698 317.78C-124.03 316.169 -128.362 314.537 -132.548 312.953C-144.249 308.532 -155.303 304.358 -165.725 300.952C-203.149 288.708 -240.333 276.753 -276.293 265.192C-288.186 261.369 -300.486 257.408 -312.406 253.575L-311.95 252.872C-300.03 256.713 -287.732 260.666 -275.837 264.49C-239.877 276.053 -202.69 288.005 -165.257 300.252C-154.808 303.67 -143.741 307.849 -132.026 312.275C-127.843 313.856 -123.515 315.489 -119.183 317.101C-89.9125 327.957 -55.961 339.448 -23.4505 338.366C16.4518 337.007 38.8733 313.412 53.9464 293.008C57.811 287.781 61.5479 282.533 64.3706 278.545C65.8192 276.499 67.2632 274.454 68.7026 272.412C81.6279 254.064 93.8441 236.732 110.356 220.084C131.833 198.437 160.21 176.034 190.263 157C232.112 130.609 296.794 98.4151 367.275 94.922C412.103 92.6419 453.357 102.427 489.894 124.009C506.31 133.708 522.543 144.899 542.534 160.292C552.639 168.076 562.662 176.134 572.359 183.93C597.581 204.212 623.659 225.185 653.046 242.692C667.285 251.173 682.212 259.422 697.415 267.21C715.824 276.63 735.069 285.592 754.613 293.846C784.634 306.448 821.996 322.133 859.605 317.695C880.225 315.311 895.809 307.794 905.921 295.356C926.441 270.182 922.038 228.998 918.821 198.926C917.909 190.493 917.068 182.517 916.899 176.087C916.525 161.797 916.555 142.953 920.153 123.924C926.356 90.9456 941.585 65.1689 965.388 47.3076C973.777 40.9904 983.346 35.5233 993.828 31.06C1008.8 24.6624 1025.7 20.3568 1044.05 18.2746C1061.34 16.3091 1079.54 16.3399 1098.14 18.367C1113.92 20.1328 1129.32 23.2958 1144 27.7825C1158.67 32.2339 1172.46 38.0179 1185.04 44.9902C1199.31 52.9365 1212.35 62.399 1223.79 73.1265C1234.63 83.2912 1244.13 94.6706 1252.02 106.945C1266.84 129.993 1275.98 156.244 1278.45 182.853L1277.37 182.903C1272.05 125.573 1238.16 75.5266 1184.37 45.5968C1159.99 32.0184 1129.31 22.6175 1097.97 19.1276C1059.35 14.9112 1023.53 19.2736 994.392 31.72C983.994 36.1479 974.501 41.5713 966.179 47.8379C942.526 65.5792 927.403 91.2115 921.229 124.026C917.645 143 917.613 161.812 917.987 176.073C918.153 182.48 919.006 190.441 919.906 198.869C921.568 214.413 923.452 232.031 922.373 249.233C921.119 269.263 916.044 284.476 906.869 295.742C901.929 301.818 895.679 306.781 888.297 310.491C880.292 314.514 870.699 317.193 859.797 318.455C842.879 320.451 824.671 318.656 804.13 312.969C786.276 308.024 769.171 300.845 754.077 294.509C734.506 286.239 715.233 277.269 696.797 267.836C681.573 260.037 666.623 251.781 652.367 243.282C622.92 225.74 596.812 204.744 571.563 184.441C561.871 176.647 551.851 168.589 541.755 160.814C521.798 145.447 505.594 134.279 489.219 124.6C452.887 103.16 411.893 93.43 367.353 95.7004C297.172 99.1773 232.705 131.274 190.981 157.586C160.99 176.582 132.673 198.938 111.241 220.538C94.7767 237.134 82.5787 254.441 69.667 272.756C68.2291 274.798 66.7851 276.843 65.335 278.889C62.5101 282.882 58.7709 288.133 54.9018 293.364C39.6942 313.948 17.0537 337.753 -23.414 339.132C-24.8534 339.18 -26.3073 339.205 -27.7756 339.205Z" fill="#FDFCFC"/>
<path d="M-23.4044 361.783C-59.93 361.783 -98.2522 345.827 -132.229 331.681C-142.669 327.334 -152.521 323.229 -161.903 319.757L-313.254 263.682L-312.727 262.964L-161.376 319.037C-151.98 322.519 -142.106 326.63 -131.654 330.981C-96.3643 345.673 -56.3686 362.326 -18.7942 360.885C22.0018 359.318 43.4931 333.739 57.6588 311.629C62.2917 304.4 66.7673 297.034 71.0948 289.924C82.928 270.464 95.167 250.341 111.451 231.614C124.383 216.743 140.45 201.147 157.908 186.514C177.06 170.46 197.569 155.732 218.859 142.739C242.332 128.414 266.199 116.565 289.795 107.522C315.894 97.518 341.608 90.981 366.22 88.1106C415.53 82.3455 460.384 91.0945 499.516 114.118C532.038 133.253 559.681 156.906 586.414 179.783C609.683 199.697 633.744 220.289 660.992 237.89C692.646 258.321 726.493 276.964 762.224 293.65C792.32 307.697 829.753 325.177 868.34 321.247C900.933 317.931 919.775 302.42 925.944 273.829C931.188 249.504 926.202 220.664 922.189 197.484C920.821 189.584 919.531 182.123 918.897 176.077C915.399 142.723 917.629 115.188 925.714 91.9021C930.757 77.3751 938.199 64.4243 947.83 53.4098C958.592 41.1077 972.406 30.8521 988.888 22.9221C1003.15 16.0672 1019.22 11.0838 1036.66 8.12584C1053.26 5.30411 1070.74 4.35866 1088.61 5.31545C1123.76 7.19661 1158.14 16.3689 1185.42 31.1408C1200.01 39.0368 1213.23 48.5366 1224.77 59.3727C1235.7 69.6445 1245.16 81.1844 1252.9 93.6697C1267.5 117.184 1275.86 143.961 1277.13 171.081L1275.99 171.108C1273.3 113.359 1239.18 61.275 1184.73 31.7879C1126.9 0.471483 1044.81 -2.97298 989.531 23.5967C934.775 49.9167 912.043 99.7721 920.039 176.012C920.671 182.044 921.961 189.495 923.327 197.385C927.346 220.614 932.349 249.523 927.078 273.953C924.205 287.25 918.432 297.953 909.918 305.738C905.238 310.048 899.409 313.66 892.763 316.366C885.743 319.214 877.583 321.127 868.507 322.05C864.757 322.43 860.974 322.62 857.186 322.618C843.203 322.618 828.31 320.102 811.99 315.007C793.602 309.266 775.861 300.984 761.602 294.327C725.818 277.619 691.921 258.95 660.222 238.49C632.916 220.85 608.828 200.237 585.536 180.302C558.835 157.452 531.226 133.824 498.786 114.742C459.912 91.8762 415.373 83.1839 366.403 88.9101C267.346 100.492 165.307 171.224 112.411 232.04C96.168 250.717 83.9471 270.813 72.1276 290.247C67.7956 297.366 63.3223 304.729 58.6756 311.966C49.2706 326.644 39.9796 337.155 29.4438 345.038C22.866 349.959 15.7296 353.837 8.23978 356.566C-0.145996 359.611 -9.34296 361.358 -18.7463 361.694C-20.2906 361.754 -21.8433 361.784 -23.4044 361.783Z" fill="#FDFCFC"/>
</svg>
