<svg width="91" height="55" viewBox="0 0 91 55" fill="none" xmlns="http://www.w3.org/2000/svg">
<path d="M13.372 4.73486H17.9273V26.6297H14.4006L4.55531 13.3753V26.6297H0V4.73486H3.4973L13.372 17.9012V4.73486Z" fill="black"/>
<path d="M54.3654 10.2306C58.9207 10.2306 62.5062 13.9043 62.5062 18.6065C62.5062 23.2794 59.0089 26.9824 54.3361 26.9824C52.367 26.9824 50.6036 26.3358 49.4575 25.1015V26.6297H45.343V4.73486H49.7514V11.9352C50.8387 10.8478 52.4552 10.2306 54.3654 10.2306ZM53.807 23.0149C56.2169 23.0149 57.9509 21.1927 57.9509 18.6065C57.9509 16.0497 56.2169 14.1981 53.807 14.1981C51.4265 14.1981 49.7514 16.0203 49.7514 18.6065C49.7514 21.2221 51.4265 23.0149 53.807 23.0149Z" fill="black"/>
<path d="M66.5154 26.6297V4.73486H70.9237V26.6297H66.5154Z" fill="black"/>
<path d="M91 18.1363C91 18.7828 90.9412 19.4 90.7943 19.8409H79.5089C79.7734 21.8687 81.2134 23.1618 83.3882 23.1618C84.9459 23.1618 86.092 22.4859 86.7092 21.3985L90.2359 23.0737C89.266 25.4248 86.621 26.9824 83.3295 26.9824C78.2451 26.9824 74.9242 23.2206 74.9242 18.5771C74.9242 13.7867 78.4509 10.2306 83.0356 10.2306C87.5321 10.2306 91 13.6985 91 18.1363ZM79.597 16.6081H86.3271C86.1508 14.9035 84.8577 13.7573 83.0356 13.7573C81.3016 13.7573 80.0379 14.7565 79.597 16.6081Z" fill="black"/>
<path d="M28.4521 13.7694C28.3221 13.9711 28.1083 14.1073 27.8685 14.1169C27.2423 14.1418 26.6284 14.0526 26.0268 13.8493C25.3045 13.6052 24.6626 13.2326 24.1011 12.7314C23.5569 12.2237 23.1558 11.6234 22.8977 10.9302C22.4912 9.83858 22.4037 8.8353 22.6352 7.92041C22.884 6.99906 23.3392 6.20803 24.0008 5.54733C24.6797 4.88018 25.4697 4.37884 26.3707 4.04331C26.7693 3.8949 27.2067 3.77147 27.6831 3.67301C27.8167 3.64539 27.95 3.621 28.083 3.59985C28.6562 3.50865 29.1599 3.93751 29.2405 4.51238C29.3291 5.14476 28.8765 5.72208 28.2533 5.86096C28.2465 5.86245 28.2398 5.86396 28.2331 5.86547C27.8325 5.95544 27.4763 6.0585 27.1644 6.17464C26.5406 6.40693 26.028 6.72604 25.6267 7.13198C25.2254 7.53791 24.9604 7.99177 24.8315 8.49355C24.6962 8.97801 24.7254 9.48015 24.919 9.99999C25.0932 10.4678 25.3812 10.844 25.7831 11.1284C26.1958 11.3891 26.6618 11.5806 27.1809 11.703C27.6935 11.808 28.1923 11.8492 28.6771 11.8265C29.0469 11.7956 29.4096 12.2844 29.2085 12.5962L28.4521 13.7694Z" fill="url(#paint0_linear_88648_1091)"/>
<mask id="path-3-inside-1_88648_1091" fill="white">
<path d="M40.4667 20.9645C41.1893 21.1717 41.6167 21.9322 41.2975 22.6128C40.6585 23.9754 39.6671 25.1529 38.4155 26.0171C36.7883 27.1407 34.8218 27.6653 32.8511 27.5016C30.8805 27.3378 29.0276 26.4959 27.6081 25.1191C26.1887 23.7424 25.2905 21.916 25.0666 19.9513C24.8428 17.9865 25.3071 16.005 26.3805 14.3442C27.4538 12.6834 29.0699 11.4462 30.9532 10.8433C32.8365 10.2405 34.8706 10.3093 36.7089 11.038C38.1228 11.5986 39.3537 12.5229 40.2828 13.7068C40.7469 14.2982 40.5015 15.1354 39.844 15.4998C39.1866 15.8643 38.368 15.612 37.8612 15.0568C37.2689 14.4078 36.5333 13.8968 35.7056 13.5687C34.4528 13.0721 33.0666 13.0252 31.7831 13.436C30.4996 13.8469 29.3983 14.69 28.6668 15.8219C27.9353 16.9537 27.6188 18.3041 27.7714 19.6431C27.924 20.9821 28.5361 22.2267 29.5034 23.165C30.4708 24.1033 31.7336 24.6771 33.0766 24.7887C34.4196 24.9003 35.7597 24.5427 36.8687 23.777C37.6013 23.2711 38.2031 22.6077 38.6343 21.8422C39.0032 21.1872 39.744 20.7573 40.4667 20.9645Z"/>
</mask>
<path d="M40.4667 20.9645C41.1893 21.1717 41.6167 21.9322 41.2975 22.6128C40.6585 23.9754 39.6671 25.1529 38.4155 26.0171C36.7883 27.1407 34.8218 27.6653 32.8511 27.5016C30.8805 27.3378 29.0276 26.4959 27.6081 25.1191C26.1887 23.7424 25.2905 21.916 25.0666 19.9513C24.8428 17.9865 25.3071 16.005 26.3805 14.3442C27.4538 12.6834 29.0699 11.4462 30.9532 10.8433C32.8365 10.2405 34.8706 10.3093 36.7089 11.038C38.1228 11.5986 39.3537 12.5229 40.2828 13.7068C40.7469 14.2982 40.5015 15.1354 39.844 15.4998C39.1866 15.8643 38.368 15.612 37.8612 15.0568C37.2689 14.4078 36.5333 13.8968 35.7056 13.5687C34.4528 13.0721 33.0666 13.0252 31.7831 13.436C30.4996 13.8469 29.3983 14.69 28.6668 15.8219C27.9353 16.9537 27.6188 18.3041 27.7714 19.6431C27.924 20.9821 28.5361 22.2267 29.5034 23.165C30.4708 24.1033 31.7336 24.6771 33.0766 24.7887C34.4196 24.9003 35.7597 24.5427 36.8687 23.777C37.6013 23.2711 38.2031 22.6077 38.6343 21.8422C39.0032 21.1872 39.744 20.7573 40.4667 20.9645Z" stroke="url(#paint1_linear_88648_1091)" stroke-width="3.02557" mask="url(#path-3-inside-1_88648_1091)"/>
<circle cx="40.6125" cy="18.1942" r="0.907672" transform="rotate(16 40.6125 18.1942)" stroke="url(#paint2_linear_88648_1091)" stroke-width="0.605115"/>
<circle cx="32.4596" cy="4.36803" r="0.907672" transform="rotate(16 32.4596 4.36803)" stroke="url(#paint3_linear_88648_1091)" stroke-width="0.605115"/>
<circle cx="39.3338" cy="34.0252" r="1.60314" stroke="url(#paint4_linear_88648_1091)" stroke-width="1.06876"/>
<path d="M27.5347 31.8877H31.943V53.7826H27.3877V39.6758L20.7752 48.1986H20.1874L13.5748 39.3525V53.7826H9.01953V31.8877H13.4279L20.4519 41.1453L27.5347 31.8877Z" fill="black"/>
<path d="M37.1305 53.7826V37.7361H41.5389V53.7826H37.1305Z" fill="black"/>
<path d="M55.032 37.3835C58.6468 37.3835 61.1155 39.8227 61.1155 43.467V53.7826H56.7071V44.4074C56.7071 42.5559 55.5022 41.351 53.7682 41.351C52.0343 41.351 50.8293 42.5559 50.8293 44.4074V53.7826H46.421V37.7361H50.5354V39.6758C51.3583 38.1182 53.0041 37.3835 55.032 37.3835Z" fill="black"/>
<path d="M77.5723 31.8877H81.9807V53.7826H77.8662V52.2543C76.72 53.4887 74.9567 54.1352 72.9876 54.1352C68.3148 54.1352 64.8175 50.4322 64.8175 45.7593C64.8175 41.0571 68.4029 37.3835 72.9582 37.3835C74.8685 37.3835 76.4849 38.0006 77.5723 39.088V31.8877ZM73.5166 50.1677C75.8971 50.1677 77.5723 48.375 77.5723 45.7593C77.5723 43.1731 75.8971 41.351 73.5166 41.351C71.1067 41.351 69.3728 43.2025 69.3728 45.7593C69.3728 48.3456 71.1067 50.1677 73.5166 50.1677Z" fill="black"/>
<defs>
<linearGradient id="paint0_linear_88648_1091" x1="21.7731" y1="1.15618" x2="55.2138" y2="13.2432" gradientUnits="userSpaceOnUse">
<stop stop-color="#A854E9"/>
<stop offset="1" stop-color="#4F91FC"/>
</linearGradient>
<linearGradient id="paint1_linear_88648_1091" x1="31.1226" y1="3.54619" x2="69.6374" y2="62.5722" gradientUnits="userSpaceOnUse">
<stop stop-color="#A854E9"/>
<stop offset="1" stop-color="#4F91FC"/>
</linearGradient>
<linearGradient id="paint2_linear_88648_1091" x1="39.6784" y1="16.1881" x2="47.2242" y2="22.7189" gradientUnits="userSpaceOnUse">
<stop stop-color="#A854E9"/>
<stop offset="1" stop-color="#4F91FC"/>
</linearGradient>
<linearGradient id="paint3_linear_88648_1091" x1="31.5255" y1="2.36194" x2="39.0714" y2="8.89268" gradientUnits="userSpaceOnUse">
<stop stop-color="#A854E9"/>
<stop offset="1" stop-color="#4F91FC"/>
</linearGradient>
<linearGradient id="paint4_linear_88648_1091" x1="37.684" y1="30.482" x2="51.0116" y2="42.0167" gradientUnits="userSpaceOnUse">
<stop stop-color="#A854E9"/>
<stop offset="1" stop-color="#4F91FC"/>
</linearGradient>
</defs>
</svg>
