<svg width="272" height="47" viewBox="0 0 272 47" fill="none" xmlns="http://www.w3.org/2000/svg">
<path d="M21.1601 7.27734H28.3685V41.9242H22.7878L7.2084 20.95V41.9242H0V7.27734H5.53419L21.1601 28.1119V7.27734Z" fill="#FDFCFC"/>
<path d="M86.0288 15.9739C93.2372 15.9739 98.9109 21.7872 98.9109 29.2281C98.9109 36.6225 93.3767 42.4822 85.9823 42.4822C82.8664 42.4822 80.0761 41.4591 78.2624 39.5059V41.9242H71.7515V7.27734H78.7274V18.6713C80.4481 16.9506 83.006 15.9739 86.0288 15.9739ZM85.1452 36.2039C88.9587 36.2039 91.7025 33.3206 91.7025 29.2281C91.7025 25.1821 88.9587 22.2522 85.1452 22.2522C81.3782 22.2522 78.7274 25.1356 78.7274 29.2281C78.7274 33.3671 81.3782 36.2039 85.1452 36.2039Z" fill="#FDFCFC"/>
<path d="M105.255 41.9242V7.27734H112.231V41.9242H105.255Z" fill="#FDFCFC"/>
<path d="M144 28.484C144 29.5071 143.907 30.4837 143.674 31.1813H125.816C126.235 34.3902 128.514 36.4365 131.955 36.4365C134.42 36.4365 136.234 35.3668 137.21 33.6461L142.791 36.297C141.256 40.0174 137.071 42.4822 131.862 42.4822C123.816 42.4822 118.561 36.5295 118.561 29.1816C118.561 21.6011 124.142 15.9739 131.397 15.9739C138.512 15.9739 144 21.4616 144 28.484ZM125.956 26.0657H136.606C136.327 23.3683 134.28 21.5546 131.397 21.5546C128.653 21.5546 126.653 23.1358 125.956 26.0657Z" fill="#FDFCFC"/>
<path d="M45.0256 21.5742C44.8198 21.8934 44.4816 22.109 44.1021 22.1241C43.1112 22.1635 42.1397 22.0223 41.1877 21.7007C40.0448 21.3145 39.029 20.7248 38.1405 19.9317C37.2793 19.1284 36.6445 18.1783 36.2361 17.0815C35.5928 15.354 35.4544 13.7664 35.8207 12.3187C36.2145 10.8607 36.9348 9.609 37.9817 8.56349C39.056 7.50777 40.3061 6.71444 41.7319 6.18349C42.3626 5.94865 43.0548 5.75333 43.8086 5.59754C44.0201 5.55382 44.231 5.51523 44.4414 5.48176C45.3486 5.33744 46.1456 6.01607 46.2731 6.92577C46.4132 7.92646 45.6972 8.84002 44.7109 9.05978C44.7003 9.06214 44.6896 9.06452 44.679 9.06691C44.0451 9.20928 43.4814 9.37237 42.9878 9.55616C42.0007 9.92374 41.1896 10.4287 40.5546 11.0711C39.9196 11.7134 39.5001 12.4316 39.2963 13.2256C39.0822 13.9923 39.1283 14.7869 39.4346 15.6095C39.7103 16.3498 40.1661 16.945 40.802 17.3951C41.4552 17.8075 42.1925 18.1106 43.0139 18.3043C43.8252 18.4705 44.6144 18.5357 45.3816 18.4998C45.9667 18.4508 46.5407 19.2243 46.2225 19.7178L45.0256 21.5742Z" fill="url(#paint0_linear_88648_1442)"/>
<mask id="path-3-inside-1_88648_1442" fill="white">
<path d="M64.0353 32.9595C65.1787 33.2874 65.8551 34.4908 65.35 35.5679C64.3388 37.724 62.7701 39.5874 60.7895 40.955C58.2145 42.733 55.1027 43.5631 51.9843 43.304C48.8659 43.0449 45.9338 41.7125 43.6877 39.5339C41.4415 37.3553 40.0202 34.4653 39.666 31.3563C39.3117 28.2472 40.0465 25.1115 41.745 22.4835C43.4435 19.8555 46.0008 17.8977 48.981 16.9437C51.9611 15.9897 55.1799 16.0986 58.0888 17.2518C60.3263 18.1388 62.274 19.6015 63.7443 21.475C64.4787 22.4108 64.0904 23.7355 63.05 24.3122C62.0096 24.8889 60.7143 24.4897 59.9123 23.6111C58.975 22.5842 57.811 21.7756 56.5013 21.2564C54.5188 20.4705 52.3252 20.3963 50.2942 21.0464C48.2632 21.6965 46.5205 23.0308 45.3629 24.8218C44.2054 26.6128 43.7046 28.7498 43.9461 30.8686C44.1875 32.9874 45.1561 34.957 46.6869 36.4417C48.2176 37.9264 50.2159 38.8344 52.3411 39.011C54.4663 39.1876 56.5869 38.6219 58.3418 37.4102C59.5011 36.6096 60.4534 35.5599 61.1357 34.3485C61.7195 33.312 62.8918 32.6317 64.0353 32.9595Z"/>
</mask>
<path d="M64.0353 32.9595C65.1787 33.2874 65.8551 34.4908 65.35 35.5679C64.3388 37.724 62.7701 39.5874 60.7895 40.955C58.2145 42.733 55.1027 43.5631 51.9843 43.304C48.8659 43.0449 45.9338 41.7125 43.6877 39.5339C41.4415 37.3553 40.0202 34.4653 39.666 31.3563C39.3117 28.2472 40.0465 25.1115 41.745 22.4835C43.4435 19.8555 46.0008 17.8977 48.981 16.9437C51.9611 15.9897 55.1799 16.0986 58.0888 17.2518C60.3263 18.1388 62.274 19.6015 63.7443 21.475C64.4787 22.4108 64.0904 23.7355 63.05 24.3122C62.0096 24.8889 60.7143 24.4897 59.9123 23.6111C58.975 22.5842 57.811 21.7756 56.5013 21.2564C54.5188 20.4705 52.3252 20.3963 50.2942 21.0464C48.2632 21.6965 46.5205 23.0308 45.3629 24.8218C44.2054 26.6128 43.7046 28.7498 43.9461 30.8686C44.1875 32.9874 45.1561 34.957 46.6869 36.4417C48.2176 37.9264 50.2159 38.8344 52.3411 39.011C54.4663 39.1876 56.5869 38.6219 58.3418 37.4102C59.5011 36.6096 60.4534 35.5599 61.1357 34.3485C61.7195 33.312 62.8918 32.6317 64.0353 32.9595Z" stroke="url(#paint1_linear_88648_1442)" stroke-width="4.78772" mask="url(#path-3-inside-1_88648_1442)"/>
<circle cx="64.2686" cy="28.5758" r="1.43632" transform="rotate(16 64.2686 28.5758)" stroke="url(#paint2_linear_88648_1442)" stroke-width="0.957545"/>
<circle cx="51.3658" cy="6.6969" r="1.43632" transform="rotate(16 51.3658 6.6969)" stroke="url(#paint3_linear_88648_1442)" stroke-width="0.957545"/>
<circle cx="203.97" cy="9.24183" r="2.53684" stroke="url(#paint4_linear_88648_1442)" stroke-width="1.69123"/>
<path d="M185.299 5.85938H192.275V40.5062H185.066V18.1834L174.602 31.6701H173.672L163.208 17.6719V40.5062H156V5.85938H162.976L174.091 20.5087L185.299 5.85938Z" fill="#FDFCFC"/>
<path d="M200.483 40.5062V15.114H207.459V40.5062H200.483Z" fill="#FDFCFC"/>
<path d="M228.811 14.556C234.531 14.556 238.438 18.4159 238.438 24.1827V40.5062H231.462V25.6708C231.462 22.741 229.555 20.8342 226.811 20.8342C224.067 20.8342 222.161 22.741 222.161 25.6708V40.5062H215.185V15.114H221.695V18.1834C222.998 15.7186 225.602 14.556 228.811 14.556Z" fill="#FDFCFC"/>
<path d="M264.479 5.85938H271.455V40.5062H264.944V38.0879C263.13 40.0411 260.34 41.0643 257.224 41.0643C249.83 41.0643 244.296 35.2045 244.296 27.8101C244.296 20.3692 249.969 14.556 257.178 14.556C260.201 14.556 262.758 15.5326 264.479 17.2533V5.85938ZM258.061 34.786C261.828 34.786 264.479 31.9491 264.479 27.8101C264.479 23.7176 261.828 20.8342 258.061 20.8342C254.248 20.8342 251.504 23.7641 251.504 27.8101C251.504 31.9026 254.248 34.786 258.061 34.786Z" fill="#FDFCFC"/>
<defs>
<linearGradient id="paint0_linear_88648_1442" x1="34.4566" y1="1.61485" x2="87.3736" y2="20.7415" gradientUnits="userSpaceOnUse">
<stop stop-color="#A854E9"/>
<stop offset="1" stop-color="#4F91FC"/>
</linearGradient>
<linearGradient id="paint1_linear_88648_1442" x1="49.2491" y1="5.39656" x2="110.196" y2="98.8003" gradientUnits="userSpaceOnUse">
<stop stop-color="#A854E9"/>
<stop offset="1" stop-color="#4F91FC"/>
</linearGradient>
<linearGradient id="paint2_linear_88648_1442" x1="62.7905" y1="25.4013" x2="74.7311" y2="35.7357" gradientUnits="userSpaceOnUse">
<stop stop-color="#A854E9"/>
<stop offset="1" stop-color="#4F91FC"/>
</linearGradient>
<linearGradient id="paint3_linear_88648_1442" x1="49.8876" y1="3.52244" x2="61.8283" y2="13.8568" gradientUnits="userSpaceOnUse">
<stop stop-color="#A854E9"/>
<stop offset="1" stop-color="#4F91FC"/>
</linearGradient>
<linearGradient id="paint4_linear_88648_1442" x1="201.359" y1="3.63506" x2="222.449" y2="21.8877" gradientUnits="userSpaceOnUse">
<stop stop-color="#A854E9"/>
<stop offset="1" stop-color="#4F91FC"/>
</linearGradient>
</defs>
</svg>
