<svg width="42" height="43" viewBox="0 0 42 43" fill="none" xmlns="http://www.w3.org/2000/svg">
<path d="M19.7753 0.341763C18.789 0.711624 18.074 1.36094 17.6055 2.31437C17.3507 2.84039 17.3425 2.89793 17.3425 3.88423C17.3425 4.88697 17.3507 4.92806 17.6219 5.48697C17.9671 6.1856 18.6411 6.87601 19.2986 7.19656L19.7671 7.42669V8.80752V10.1883L19.0274 10.3281C17.4986 10.6075 15.9945 11.2157 14.7699 12.0541L14.1123 12.4979L13.1507 11.5281L12.189 10.5582L12.3123 10.1637C12.6164 9.21026 12.5589 8.28149 12.1315 7.36916C11.4082 5.81573 9.57534 4.96916 7.89041 5.40477C6.50137 5.77464 5.53973 6.72806 5.17808 8.13354C4.93973 9.03765 5.05479 9.90889 5.52329 10.813C6.34521 12.3829 8.23562 13.1308 9.93699 12.5472L10.3315 12.4075L11.3014 13.3774L12.2712 14.339L11.8274 14.9966C10.989 16.2212 10.3808 17.7253 10.1014 19.2541L9.96164 19.9938H8.58082H7.2L6.96986 19.5253C6.64931 18.8678 5.9589 18.1938 5.26027 17.8486C4.70137 17.5774 4.66027 17.5692 3.65753 17.5692C2.65479 17.5692 2.6137 17.5774 2.05479 17.8486C1.29863 18.2185 0.649315 18.8678 0.279452 19.624C0.00821918 20.1829 0 20.224 0 21.2267C0 22.2294 0.00821918 22.2705 0.279452 22.8294C0.649315 23.5856 1.30685 24.2349 2.05479 24.5966C2.56438 24.8431 2.72055 24.8842 3.46849 24.9089C4.16712 24.9418 4.38904 24.9171 4.8411 24.7609C5.7863 24.4486 6.53425 23.7911 6.99452 22.8705L7.2 22.4596H8.58082H9.96164L10.1014 23.1993C10.3808 24.7281 10.989 26.2322 11.8274 27.4568L12.2712 28.1144L11.3014 29.076L10.3315 30.0377L9.93699 29.9144C8.98356 29.6103 8.05479 29.6678 7.14247 30.0952C5.58904 30.8185 4.74247 32.6514 5.17808 34.3198C5.70411 36.35 7.70959 37.5664 9.68219 37.0486C11.8274 36.4897 12.9863 34.3938 12.3123 32.2897L12.189 31.8952L13.1507 30.9253L14.1123 29.9555L14.7863 30.4075C16.0521 31.2623 17.4986 31.8459 19.0274 32.1253L19.7671 32.2651V33.6459V35.0267L19.2986 35.2568C18.6411 35.5774 17.9671 36.2678 17.6219 36.9664C17.3507 37.5253 17.3425 37.5664 17.3425 38.5692C17.3425 39.5555 17.3507 39.613 17.6055 40.139C18.0822 41.1089 18.8055 41.7582 19.8164 42.1116C20.2192 42.2514 20.4493 42.276 21.1644 42.2514C21.9452 42.2267 22.0849 42.1938 22.6027 41.939C23.3589 41.5774 24.0082 40.9281 24.3781 40.1719C24.6493 39.613 24.6575 39.5719 24.6575 38.5692C24.6575 37.5746 24.6493 37.5253 24.3863 36.9829C24.0411 36.2842 23.3507 35.5692 22.7014 35.2568L22.2329 35.0267V33.6459V32.2651L22.9726 32.1253C24.5014 31.8459 25.9479 31.2623 27.2137 30.4075L27.8877 29.9555L28.8493 30.9253L29.811 31.8952L29.6877 32.2897C29.3753 33.2514 29.4329 34.1637 29.8685 35.0924C30.3205 36.0541 31.1918 36.7609 32.3014 37.0486C34.9973 37.7472 37.5205 35.224 36.8219 32.5281C36.263 30.3993 34.1671 29.2486 32.063 29.9144L31.6685 30.0377L30.6986 29.076L29.7288 28.1144L30.1808 27.4404C31.0356 26.1746 31.6192 24.7281 31.8986 23.1993L32.0384 22.4596H33.411H34.7836L34.9973 22.8705C35.4822 23.8075 36.2219 24.4486 37.1589 24.7609C37.611 24.9171 37.8329 24.9418 38.5315 24.9089C39.2794 24.8842 39.4356 24.8431 39.9452 24.5966C40.6931 24.2349 41.3507 23.5856 41.7205 22.8294C41.9918 22.2705 42 22.2294 42 21.2267C42 20.224 41.9918 20.1829 41.7205 19.624C41.3507 18.8678 40.7014 18.2185 39.9452 17.8486C39.3863 17.5774 39.3452 17.5692 38.3425 17.5692C37.3397 17.5692 37.2986 17.5774 36.7397 17.8486C36.0411 18.1856 35.3589 18.8596 35.0219 19.5253L34.7918 19.9938H33.411H32.0384L31.8986 19.2541C31.6192 17.7253 31.011 16.2212 30.1726 14.9966L29.7288 14.339L30.6986 13.3774L31.6685 12.4075L32.063 12.5472C34.1096 13.2459 36.263 12.0541 36.8219 9.90889C37.5205 7.22943 34.989 4.70615 32.3014 5.40477C30.1726 5.96368 29.0137 8.06779 29.6877 10.1637L29.811 10.5582L28.8493 11.5281L27.8877 12.4979L27.2301 12.0541C26.0055 11.2157 24.5014 10.6075 22.9726 10.3281L22.2329 10.1883V8.80752V7.42669L22.6438 7.22121C23.5644 6.76094 24.2219 6.01299 24.5342 5.06779C24.6904 4.61573 24.7151 4.39382 24.6822 3.69519C24.6575 2.94724 24.6164 2.79108 24.3699 2.28149C24.0082 1.52532 23.3589 0.876007 22.6027 0.514366C22.0685 0.25135 21.9534 0.226692 21.1233 0.210255C20.3836 0.185596 20.137 0.210255 19.7753 0.341763ZM22.5205 15.3829C23.3507 15.6623 23.9918 16.0815 24.6082 16.7555C25.4384 17.6596 25.8493 18.7363 25.8493 19.9938C25.8493 21.0952 25.5616 21.9664 24.8877 22.8952C24.7233 23.1089 24.6082 23.2979 24.6247 23.3144C24.6411 23.3308 24.8219 23.4294 25.0274 23.5281C25.9479 23.9966 27.0164 24.876 27.6575 25.7061L28.0027 26.1582L27.7562 26.4623C27.6247 26.6349 27.2466 27.0294 26.926 27.3418L26.3425 27.9007L25.989 27.424C25.1178 26.2486 23.7452 25.3445 22.3726 25.0486C21.3945 24.8349 19.8575 24.9089 18.9863 25.2048C17.811 25.6075 16.9151 26.2733 16.1425 27.3171C15.9041 27.6294 15.6904 27.8842 15.6658 27.8842C15.5918 27.8842 14.3014 26.5856 14.137 26.3555C14.0301 26.1911 14.0548 26.1335 14.6548 25.4103C15.3616 24.5637 15.8959 24.1116 16.7671 23.6431C17.0877 23.4788 17.3589 23.3226 17.3753 23.3144C17.3918 23.2979 17.2767 23.1089 17.1123 22.8952C16.4384 21.9664 16.1507 21.0952 16.1507 19.9938C16.1507 18.7363 16.5616 17.6596 17.3918 16.7555C18.7562 15.2678 20.663 14.7582 22.5205 15.3829Z" fill="url(#paint0_linear_88648_1193)"/>
<path d="M19.8667 17.7823C18.979 18.2179 18.5352 18.9658 18.5352 19.9932C18.5352 21.0206 18.979 21.7686 19.8667 22.2042C20.2941 22.4261 20.4584 22.459 21.0009 22.459C21.5434 22.459 21.7078 22.4261 22.1352 22.2042C23.0228 21.7686 23.4667 21.0288 23.4667 19.985C23.4667 18.5302 22.4557 17.5275 20.9927 17.5275C20.4584 17.5275 20.2941 17.5604 19.8667 17.7823Z" fill="url(#paint1_linear_88648_1193)"/>
<defs>
<linearGradient id="paint0_linear_88648_1193" x1="4.79147" y1="56.0885" x2="135.882" y2="-57.2107" gradientUnits="userSpaceOnUse">
<stop stop-color="#A854E9"/>
<stop offset="1" stop-color="#4F91FC"/>
</linearGradient>
<linearGradient id="paint1_linear_88648_1193" x1="19.0978" y1="24.0805" x2="34.4719" y2="10.7746" gradientUnits="userSpaceOnUse">
<stop stop-color="#A854E9"/>
<stop offset="1" stop-color="#4F91FC"/>
</linearGradient>
</defs>
</svg>
