<svg width="1140" height="223" viewBox="0 0 1140 223" fill="none" xmlns="http://www.w3.org/2000/svg">
<g opacity="0.5">
<mask id="mask0_88648_1356" style="mask-type:luminance" maskUnits="userSpaceOnUse" x="0" y="0" width="1140" height="487">
<path d="M1140 0.369141H0V486.875H1140V0.369141Z" fill="white"/>
</mask>
<g mask="url(#mask0_88648_1356)">
<path d="M318.147 451.999C312.404 452.008 306.67 451.677 301.003 451.012C289.442 449.633 278.757 446.803 269.252 442.6C259.035 438.083 250.075 431.929 242.619 424.309C227.628 408.992 220.13 390.649 212.879 372.901C211.454 369.418 209.981 365.816 208.486 362.322C198.278 338.502 185.344 317.638 168.939 298.536C136.214 260.426 90.1924 227.911 35.844 204.493C-27.0042 177.41 -94.572 163.92 -154.433 166.508C-189.612 168.027 -236.092 182.491 -256.865 207.194C-269.193 221.854 -270.187 238.121 -259.737 254.239L-259.945 254.308C-265.417 245.855 -267.811 237.382 -267.038 229.123C-266.329 221.546 -262.973 214.14 -257.061 207.11C-247.658 195.92 -232.152 186.018 -212.218 178.452C-193.8 171.459 -173.282 167.16 -154.447 166.346C-123.124 164.993 -89.8137 167.995 -55.4335 175.265C-24.2705 181.86 6.47986 191.644 35.9626 204.35C90.3405 227.795 136.39 260.326 169.133 298.46C185.549 317.574 198.492 338.45 208.702 362.283C210.2 365.779 211.666 369.381 213.098 372.866C220.344 390.591 227.838 408.921 242.806 424.216C257.282 439.009 276.874 447.971 301.04 450.851C334.506 454.842 375.14 446.497 409.746 428.532C459.612 402.641 494.217 364.962 527.683 328.514C533.55 322.126 539.615 315.521 545.62 309.143C561.211 292.581 582.328 271.12 607.408 252C633.058 232.457 659.123 218.099 687.096 208.102C704.052 202.023 722.252 197.888 741.023 195.851C758.262 193.994 776.509 193.877 795.257 195.505C827.417 198.299 862.061 206.192 901.179 219.634C978.198 246.102 1055.13 278.227 1129.85 315.121C1200.87 350.188 1270.53 389.866 1336.86 433.055L1336.71 433.173C1199.18 343.656 1052.61 271.853 901.079 219.78C815.472 190.361 747.509 186.698 687.199 208.248C625.842 230.174 582.978 269.741 545.8 309.232C539.797 315.61 533.732 322.216 527.866 328.602C494.388 365.057 459.771 402.755 409.871 428.66C393.747 437.033 375.607 443.563 357.417 447.546C347.807 449.654 338.252 451.024 329.018 451.633C325.349 451.877 321.725 451.999 318.147 451.999Z" fill="#FDFCFC"/>
<path d="M323.904 442.917C308.874 442.917 294.948 440.881 282.511 436.865C268.637 432.385 256.662 425.445 246.925 416.235C246.063 415.424 245.208 414.576 244.382 413.728C229.562 398.484 221.724 380.373 214.15 362.864C212.617 359.325 211.035 355.665 209.428 352.114C199.87 330.967 188.356 312.329 174.231 295.137C172.492 293.021 170.69 290.9 168.873 288.834C135.667 251.049 89.2717 218.949 34.7021 195.981C-28.5998 169.361 -96.3682 156.428 -156.113 159.566C-191.036 161.418 -237.302 176.12 -258.164 200.632C-270.656 215.31 -272.072 231.606 -262.268 247.774L-262.475 247.839C-267.621 239.368 -269.733 230.878 -268.757 222.609C-267.858 215.015 -264.365 207.591 -258.369 200.554C-248.871 189.392 -233.412 179.472 -213.663 171.863C-195.411 164.833 -174.985 160.411 -156.143 159.41C-124.857 157.768 -91.5095 160.482 -57.0222 167.478C-25.7862 173.816 5.1123 183.361 34.807 195.848C89.4085 218.829 135.829 250.956 169.056 288.754C170.88 290.822 172.676 292.943 174.416 295.061C188.552 312.264 200.071 330.912 209.633 352.071C211.229 355.623 212.825 359.283 214.355 362.823C221.924 380.32 229.752 398.413 244.558 413.642C245.383 414.488 246.236 415.332 247.096 416.144C267.223 435.178 294.88 442.921 323.963 442.921H323.893L323.904 442.917ZM330.108 442.803C357.147 441.815 385.056 434.425 408.982 423.432C460.611 399.619 497.72 362.844 533.607 327.279C535.085 325.813 536.562 324.349 538.04 322.888C541.284 319.675 545.13 315.875 549.059 312.043C566.672 294.854 587.987 274.863 612.536 256.864C638.656 237.713 664.748 223.503 692.309 213.419C709.054 207.275 726.974 202.908 745.499 200.458C762.512 198.225 780.488 197.593 798.926 198.582C830.782 200.29 865.032 206.764 903.635 218.367C941.276 229.67 972.215 240.31 1001 251.851C1041.79 268.217 1080.64 287.073 1113.26 303.359C1189.11 341.334 1263.53 384.453 1334.45 431.519L1334.3 431.638C1263.38 384.576 1188.97 341.462 1113.14 303.492C1080.52 287.207 1041.67 268.354 1000.9 251.992C972.117 240.454 941.185 229.817 903.544 218.516C819.446 193.218 752.357 191.645 692.416 213.554C630.193 236.325 585.89 276.381 549.253 312.139C545.326 315.971 541.48 319.771 538.236 322.982L533.803 327.373C497.905 362.95 460.784 399.739 409.117 423.568C396.484 429.391 382.87 434.057 368.597 437.458C355.482 440.56 342.566 442.352 330.108 442.803Z" fill="#FDFCFC"/>
<path d="M330.258 434.041C328.451 434.041 326.654 434.013 324.868 433.956C309.852 433.485 295.956 431.037 283.566 426.67C270.016 421.898 258.276 414.832 248.682 405.658C247.829 404.847 246.979 403.996 246.158 403.144C231.489 387.969 223.331 370.114 215.442 352.833C213.798 349.233 212.097 345.51 210.376 341.897C200.344 320.815 188.529 302.328 174.252 285.371C172.487 283.274 170.656 281.171 168.814 279.121C135.125 241.677 88.3572 209.977 33.5642 187.46C-30.1914 161.301 -98.1491 148.926 -157.789 152.615C-191.369 154.723 -237.5 168.587 -259.434 194.035C-272.106 208.737 -273.951 225.08 -264.769 241.3L-264.981 241.362C-269.79 232.864 -271.627 224.355 -270.453 216.064C-269.363 208.442 -265.725 201.003 -259.639 193.942C-250.043 182.808 -234.63 172.881 -215.072 165.238C-196.992 158.174 -176.661 153.63 -157.821 152.447C-126.585 150.515 -93.1878 152.941 -58.5934 159.658C-27.2799 165.739 3.76233 175.043 33.6668 187.313C88.4894 209.844 135.286 241.558 168.994 279.027C170.838 281.079 172.669 283.182 174.436 285.282C188.72 302.251 200.542 320.751 210.581 341.838C212.303 345.451 214.001 349.176 215.65 352.777C223.532 370.039 231.685 387.889 246.327 403.049C247.148 403.897 247.996 404.74 248.835 405.556C287.848 442.819 356.987 438.818 408.207 418.325C461.995 396.612 501.965 360.527 540.62 325.628L541.017 325.27C544.761 321.887 548.632 318.39 552.485 314.938C593.147 278.513 637.837 241.081 697.505 218.728C714.048 212.519 731.69 207.922 749.956 205.059C766.748 202.448 784.453 201.301 802.579 201.653C834.177 202.265 868.031 207.329 906.075 217.111C946.054 227.365 976.144 236.792 1003.63 247.675C1042.79 263.212 1080.73 282.846 1114.21 300.169C1188.73 338.945 1262.02 382.625 1332.03 429.998L1331.87 430.115C1261.88 382.749 1188.59 339.072 1114.07 300.299C1080.61 282.979 1042.68 263.349 1003.53 247.816C976.068 236.941 945.972 227.518 906.011 217.267C823.545 196.044 757.33 196.555 697.619 218.876C637.99 241.216 593.318 278.633 552.675 315.042C548.821 318.494 544.95 321.99 541.206 325.373L540.807 325.732C521.546 343.123 501.625 361.106 480.116 377.167C455.948 395.218 432.464 408.728 408.33 418.469C383.081 428.576 355.578 434.041 330.258 434.041Z" fill="#FDFCFC"/>
<path d="M1329.47 428.59C1260.37 380.912 1188.22 336.681 1115.04 297.105C1111.94 295.441 1108.83 293.77 1105.72 292.092C1074.02 275.029 1041.24 257.388 1006.18 243.64C972.177 230.342 937.712 222.211 908.483 216.011C827.8 198.792 762.458 201.391 702.842 224.189C641.645 247.661 594.226 286.624 556.124 317.947C553.844 319.827 551.559 321.709 549.268 323.592L544.205 327.766C522.508 345.613 502.777 361.572 480.971 376.131C456.062 392.765 432.054 404.947 407.571 413.375C384.623 421.274 360.113 425.455 337.313 425.455C333.159 425.455 329.069 425.315 325.044 425.036C310.361 424.013 296.772 421.144 284.643 416.49C271.419 411.419 259.902 404.214 250.443 395.084C249.597 394.273 248.753 393.418 247.935 392.567C233.443 377.471 224.97 359.859 216.774 342.828C215.009 339.16 213.183 335.369 211.338 331.683C200.825 310.675 188.707 292.334 174.288 275.611C172.494 273.53 170.64 271.445 168.766 269.415C134.596 232.296 87.4546 201.012 32.4404 178.944C-31.7803 153.244 -99.9272 141.426 -159.463 145.662C-200.165 148.617 -241.784 165.782 -260.674 187.408C-273.545 202.141 -275.827 218.544 -267.286 234.827L-267.5 234.882C-271.976 226.356 -273.535 217.821 -272.136 209.516C-270.847 201.87 -267.06 194.402 -260.875 187.323C-251.176 176.218 -235.815 166.295 -216.453 158.619C-198.546 151.525 -178.318 146.864 -159.492 145.498C-128.284 143.277 -94.8633 145.416 -60.1595 151.854C-28.7684 157.679 2.41742 166.742 32.5339 178.793C87.5868 200.877 134.751 232.181 168.951 269.321C170.823 271.353 172.683 273.44 174.478 275.52C188.905 292.253 201.03 310.605 211.548 331.631C213.395 335.313 215.221 339.108 216.986 342.778C225.176 359.806 233.646 377.399 248.117 392.478C248.933 393.326 249.775 394.171 250.625 394.988C291.355 434.29 360.576 429.381 407.478 413.235C463.436 393.975 506.256 358.747 544.05 327.666C545.738 326.275 547.427 324.884 549.116 323.493C551.396 321.609 553.68 319.726 555.969 317.846C577.718 299.972 599.196 282.602 622.808 266.601C649.96 248.193 676.112 234.276 702.754 224.058C719.097 217.778 736.46 212.946 754.455 209.669C771.035 206.678 788.468 205.016 806.27 204.732C837.666 204.228 871.125 207.867 908.553 215.855C937.792 222.057 972.272 230.193 1006.3 243.497C1041.37 257.249 1074.15 274.896 1105.86 291.963C1108.97 293.639 1112.08 295.31 1115.18 296.975C1188.37 336.556 1260.53 380.797 1329.64 428.473L1329.47 428.59Z" fill="#FDFCFC"/>
<path d="M1327.05 427.063C1257.56 378.175 1186.55 333.376 1115.98 293.908C1111.76 291.547 1107.44 289.112 1103.27 286.759C1073.35 269.907 1042.42 252.48 1008.82 239.461C975.267 226.504 940.514 219.701 910.942 214.755C832.223 201.457 767.758 206.147 708.049 229.512C651.102 251.87 606.489 285.491 563.344 318.004L558.609 321.572C554.867 324.392 550.998 327.308 547.184 330.167C503.996 362.494 460.772 392.792 406.793 408.288C393.952 412 380.531 414.602 366.818 416.039C352.397 417.522 338.388 417.543 325.18 416.099C310.834 414.53 297.551 411.233 285.693 406.308C272.793 400.947 261.525 393.612 252.177 384.51C251.336 383.686 250.499 382.838 249.689 381.988C235.38 366.983 226.6 349.629 218.107 332.851C216.212 329.106 214.251 325.229 212.272 321.473C201.274 300.529 188.852 282.335 174.297 265.849C172.473 263.79 170.592 261.724 168.692 259.706C134.036 222.917 86.528 192.045 31.2882 170.426C-33.3703 145.196 -101.709 133.938 -161.144 138.721C-201.472 142.039 -242.9 159.326 -261.89 180.761C-274.975 195.531 -277.709 211.992 -269.797 228.362L-270.012 228.414C-274.152 219.849 -275.431 211.283 -273.815 202.954C-272.323 195.275 -268.377 187.78 -262.084 180.677C-252.28 169.61 -236.972 159.695 -217.818 152.002C-200.086 144.881 -179.97 140.107 -161.169 138.562C-129.99 136.042 -96.5332 137.889 -61.7244 144.051C-30.2604 149.62 1.0759 158.444 31.4022 170.277C86.6717 191.907 134.212 222.797 168.886 259.609C170.788 261.626 172.673 263.694 174.493 265.755C189.057 282.246 201.488 300.45 212.491 321.405C214.47 325.166 216.431 329.04 218.326 332.784C226.814 349.558 235.588 366.9 249.883 381.889C250.69 382.737 251.527 383.584 252.366 384.406C292.113 423.164 358.158 422.071 406.708 408.13C460.635 392.646 503.85 362.359 547.02 330.047C550.834 327.19 554.703 324.274 558.445 321.452L563.18 317.884C584.359 301.925 606.259 285.423 630.041 270.071C656.977 252.683 682.458 239.367 707.94 229.366C739.32 216.98 774.128 209.624 809.926 207.812C841.185 206.175 874.245 208.395 910.997 214.601C940.582 219.55 975.356 226.358 1008.93 239.323C1042.55 252.349 1073.49 269.78 1103.41 286.638C1107.58 288.991 1111.91 291.423 1116.13 293.786C1186.69 333.256 1257.72 378.06 1327.21 426.952L1327.05 427.063Z" fill="#FDFCFC"/>
<path d="M1324.63 425.536C1255.73 376.105 1185.85 330.743 1116.92 290.712C1111.74 287.702 1106.43 284.576 1101.3 281.55C1072.99 264.88 1043.73 247.642 1011.45 235.281C978.054 222.548 943.141 217.118 913.394 213.499C836.854 204.025 773.256 210.8 713.246 234.819C660.874 255.865 617.874 285.695 576.289 314.543C571.913 317.579 567.397 320.717 562.978 323.757C557.8 327.325 553.844 330.041 550.153 332.552C530.385 345.991 506.844 361.463 482.143 374.331C455.966 387.968 431.071 397.406 406.005 403.186C393.097 406.186 379.738 408.098 366.203 408.881C351.991 409.676 338.232 409.092 325.309 407.144C311.307 405.036 298.329 401.323 286.738 396.117C274.166 390.465 263.124 383.001 253.906 373.929C253.076 373.107 252.244 372.257 251.437 371.404C237.314 356.497 228.238 339.413 219.462 322.891C217.426 319.061 215.321 315.097 213.199 311.251C201.705 290.365 188.978 272.319 174.295 256.083C172.448 254.041 170.535 251.991 168.611 249.993C133.476 213.533 85.5917 183.071 30.1284 161.903C-34.9587 137.132 -103.489 126.431 -162.817 131.763C-196.574 134.863 -240.665 149.147 -263.068 174.066C-276.388 188.882 -279.582 205.416 -272.307 221.881L-272.535 221.93C-276.338 213.32 -277.323 204.714 -275.499 196.354C-273.798 188.637 -269.685 181.111 -263.276 173.975C-253.367 162.948 -238.118 153.055 -219.174 145.346C-201.618 138.21 -181.624 133.323 -162.858 131.599C-131.72 128.8 -98.2287 130.362 -63.3128 136.242C-31.7553 141.558 -0.277649 150.141 30.2584 161.756C85.7536 182.937 133.668 213.415 168.821 249.896C170.747 251.897 172.663 253.95 174.521 255.99C189.213 272.236 201.945 290.291 213.445 311.186C215.57 315.036 217.674 318.998 219.71 322.83C228.482 339.343 237.551 356.418 251.66 371.308C252.467 372.16 253.297 373.008 254.125 373.83C287.185 406.415 343.957 417.332 405.957 403.032C462.111 390.079 507.916 361.054 550.019 332.435C553.71 329.925 557.666 327.211 562.844 323.641C567.253 320.6 571.779 317.462 576.154 314.426C596.624 300.225 617.794 285.541 640.37 271.79C665.906 256.24 689.712 244.1 713.157 234.678C729.138 228.258 745.965 222.968 763.397 218.884C779.736 215.093 796.546 212.414 813.598 210.885C844.779 208.079 877.438 208.882 913.462 213.338C943.227 216.968 978.164 222.394 1011.58 235.139C1043.89 247.506 1073.16 264.749 1101.47 281.425C1106.61 284.449 1111.92 287.577 1117.1 290.586C1186.02 330.622 1255.91 375.987 1324.8 425.422L1324.63 425.536Z" fill="#FDFCFC"/>
<path d="M1322.21 424.008C1253.91 374.031 1185.17 328.112 1117.89 287.514C1112.16 284.061 1106.28 280.437 1100.59 276.932C1073.51 260.238 1045.5 242.977 1014.1 231.102C980.684 218.521 945.7 214.507 915.871 212.24C842.801 206.536 778.232 215.66 718.468 240.133C670.882 259.708 630.091 285.894 590.642 311.216C582.676 316.331 574.436 321.621 566.426 326.663C561.529 329.744 557.186 332.459 553.15 334.945C534.383 346.502 509.42 361.32 482.746 373.427C455.942 385.59 430.591 393.661 405.244 398.09C377.599 402.921 350.009 402.955 325.456 398.195C311.807 395.547 299.14 391.418 287.806 385.921C275.569 379.987 264.76 372.393 255.681 363.347C254.858 362.523 254.032 361.672 253.23 360.819C239.306 346.026 229.951 329.222 220.902 312.979C218.713 309.048 216.451 304.984 214.171 301.035C202.171 280.205 189.143 262.306 174.339 246.32C172.465 244.296 170.525 242.265 168.573 240.284C132.96 204.152 84.7012 174.104 29.0145 153.386C-36.5469 129.085 -105.277 118.941 -164.491 124.82C-204.619 128.89 -244.704 145.983 -264.209 167.35C-277.785 182.219 -281.453 198.84 -274.821 215.415L-275.049 215.46C-278.514 206.797 -279.221 198.149 -277.148 189.75C-275.233 181.989 -270.949 174.422 -264.41 167.262C-254.389 156.285 -239.2 146.409 -220.474 138.7C-203.108 131.541 -183.238 126.555 -164.523 124.657C-133.422 121.576 -99.8944 122.844 -64.8713 128.444C-33.2523 133.494 -1.62869 141.838 29.1171 153.233C84.8357 173.963 133.122 204.031 168.758 240.183C170.712 242.165 172.652 244.197 174.529 246.222C189.349 262.219 202.374 280.125 214.379 300.965C216.659 304.916 218.923 308.98 221.111 312.911C230.156 329.152 239.506 345.948 253.417 360.726C254.219 361.579 255.042 362.427 255.863 363.251C288.362 395.626 344.183 408.59 405.187 397.931C460.801 388.212 509.096 361.855 553 334.821C557.033 332.334 561.376 329.632 566.274 326.539C574.281 321.498 582.521 316.209 590.487 311.094C629.945 285.765 670.743 259.574 718.352 239.992C734.16 233.496 750.722 227.975 767.855 223.489C783.908 219.317 800.433 216.129 817.249 213.96C848.424 209.947 880.69 209.332 915.891 212.079C945.736 214.35 980.755 218.363 1014.2 230.959C1045.63 242.843 1073.65 260.11 1100.74 276.81C1106.43 280.313 1112.31 283.938 1118.03 287.39C1185.32 327.986 1254.07 373.914 1322.37 423.894L1322.21 424.008Z" fill="#FDFCFC"/>
<path d="M1319.79 422.479C1252.1 371.951 1184.49 325.467 1118.83 284.312C1112.8 280.532 1106.59 276.528 1100.59 272.653C1074.49 255.819 1047.51 238.41 1016.74 226.922C983.184 214.448 948.163 211.863 918.331 210.982C848.023 208.756 784.352 220.023 723.672 245.445C681.12 263.358 643.188 286.029 606.503 307.953C593.89 315.49 581.974 322.611 569.856 329.565C564.927 332.395 560.438 334.936 556.128 337.336C528.312 352.797 505.191 363.977 483.326 372.517C455.895 383.233 430.099 389.929 404.463 392.991C394.688 394.168 384.793 394.765 374.88 394.774C357.634 394.774 340.947 392.919 325.584 389.245C297.782 382.596 274.849 370.323 257.426 352.771C256.605 351.939 255.786 351.088 254.991 350.238C241.281 335.575 231.662 319.068 222.359 303.104C220.002 299.059 217.571 294.879 215.111 290.815C202.601 270.033 189.27 252.283 174.356 236.551C172.452 234.545 170.48 232.533 168.506 230.569C132.413 194.762 83.7808 165.132 27.8729 144.861C-38.1376 121.023 -107.048 111.435 -166.171 117.86C-206.475 122.331 -245.394 139.104 -265.319 160.58C-279.168 175.511 -283.331 192.232 -277.337 208.934L-277.565 208.973C-280.691 200.252 -281.106 191.55 -278.796 183.11C-276.66 175.297 -272.184 167.687 -265.515 160.491C-255.397 149.584 -240.273 139.734 -221.778 132.023C-204.598 124.855 -184.865 119.769 -166.212 117.7C-135.147 114.323 -101.583 115.309 -66.4552 120.63C-34.7632 125.432 -2.98914 133.534 27.9687 144.711C83.9176 164.991 132.577 194.647 168.693 230.47C170.674 232.434 172.644 234.448 174.548 236.456C189.468 252.196 202.806 269.955 215.323 290.745C217.779 294.811 220.216 298.993 222.571 303.037C231.871 318.993 241.495 335.492 255.175 350.144C255.966 350.992 256.785 351.844 257.603 352.674C290.146 385.451 343.658 400.089 404.419 392.832C462.259 385.923 513.492 360.836 555.98 337.208C560.289 334.809 564.779 332.268 569.706 329.438C581.824 322.486 593.737 315.367 606.35 307.828C643.04 285.901 680.981 263.231 723.542 245.305C739.185 238.729 755.484 232.978 772.309 228.096C788.088 223.541 804.33 219.844 820.896 217.036C852.132 211.764 884.004 209.739 918.325 210.82C948.179 211.702 983.229 214.289 1016.82 226.778C1047.62 238.28 1074.61 255.695 1100.72 272.537C1106.73 276.409 1112.93 280.413 1118.96 284.193C1184.63 325.349 1252.25 371.836 1319.94 422.361L1319.79 422.479Z" fill="#FDFCFC"/>
<path d="M1317.38 420.952C1249.36 369.149 1184.72 323.409 1119.79 281.119C1113.6 277.083 1107.49 272.964 1101.04 268.601C1075.79 251.548 1049.68 233.913 1019.39 222.742C985.416 210.274 948.857 209.236 920.804 209.724C853.699 210.743 790.926 224.157 728.894 250.753C691.677 266.787 657.315 286.041 624.087 304.663C606.622 314.448 590.126 323.691 573.304 332.462C568.311 335.068 563.671 337.442 559.123 339.722C530.942 353.822 507.045 363.953 483.924 371.601C455.857 380.883 429.616 386.211 403.7 387.888C390.613 388.75 377.433 388.587 364.397 387.401C351.136 386.196 338.143 383.798 325.73 380.266C298.826 372.556 276.432 359.738 259.186 342.171C258.375 341.337 257.561 340.484 256.772 339.634C243.292 325.12 233.432 308.929 223.894 293.272C221.35 289.094 218.719 284.774 216.072 280.574C203.037 259.838 189.396 242.236 174.389 226.763C172.457 224.775 170.462 222.781 168.461 220.834C131.883 185.362 82.8785 156.129 26.7449 136.317C-25.0795 118.119 -78.5067 108.615 -127.502 108.615C-141.016 108.591 -154.509 109.359 -167.846 110.91C-207.664 115.702 -246.34 132.537 -266.381 153.781C-280.517 168.783 -285.184 185.616 -279.851 202.461L-280.079 202.496C-282.863 193.707 -282.979 184.945 -280.426 176.455C-278.057 168.584 -273.399 160.926 -266.577 153.692C-256.354 142.851 -241.299 133.046 -223.043 125.34C-205.808 118.063 -186.736 113.015 -167.892 110.745C-136.861 107.08 -103.263 107.779 -68.0278 112.819C-36.2515 117.371 -4.33145 125.239 26.8361 136.191C82.9925 156.021 132.033 185.263 168.632 220.757C170.638 222.703 172.635 224.699 174.56 226.69C189.582 242.171 203.224 259.781 216.263 280.53C218.912 284.731 221.544 289.052 224.088 293.23C233.621 308.881 243.468 325.065 256.945 339.568C257.734 340.416 258.541 341.269 259.357 342.101C291.603 374.951 344.201 391.585 403.663 387.737C463.835 383.845 518.272 359.967 558.977 339.6C563.523 337.33 568.161 334.948 573.154 332.343C589.98 323.571 606.481 314.328 623.936 304.541C657.172 285.918 691.538 266.658 728.768 250.62C760.704 236.928 792.043 226.943 824.578 220.113C855.956 213.521 887.427 210.068 920.794 209.562C939.83 209.238 955.357 209.807 969.666 211.377C988.134 213.404 1004.44 217.075 1019.49 222.599C1049.81 233.789 1075.93 251.423 1101.19 268.483C1107.65 272.845 1113.75 276.964 1119.94 280.999C1184.88 323.293 1249.52 369.035 1317.55 420.842L1317.38 420.952Z" fill="#FDFCFC"/>
<path d="M1314.96 419.424C1247.56 367.054 1184.03 320.767 1120.74 277.921C1114.47 273.682 1108.3 269.315 1101.76 264.691C1077.27 247.368 1051.95 229.455 1022.02 218.562C987.766 206.152 951.249 206.648 923.262 208.466C859.935 212.439 798.06 228.01 734.099 256.074C702.585 269.965 672.578 285.866 643.561 301.242C620.624 313.405 598.957 324.878 576.734 335.372C571.718 337.746 566.786 340.017 562.101 342.119C533.861 354.768 508.478 364.12 484.501 370.693C455.789 378.561 429.097 382.521 402.92 382.797C389.783 382.949 376.66 382.095 363.78 380.249C350.681 378.369 337.949 375.374 325.856 371.33C299.864 362.594 278.024 349.231 260.931 331.615C260.129 330.783 259.321 329.928 258.535 329.074C245.311 314.736 235.231 298.888 225.489 283.561C222.732 279.225 219.88 274.741 217.014 270.38C203.443 249.682 189.506 232.23 174.403 217.027C172.444 215.055 170.422 213.078 168.391 211.151C131.331 175.998 81.9557 147.182 25.5987 127.814C-41.3056 104.916 -110.599 96.4446 -169.519 103.959C-208.824 109.06 -247.24 125.93 -267.393 146.934C-281.857 162.016 -287.033 178.975 -282.361 195.982L-282.589 196.013C-285.024 187.147 -284.837 178.317 -282.03 169.771C-279.427 161.836 -274.566 154.121 -267.584 146.843C-257.26 136.08 -242.276 126.326 -224.264 118.626C-207.226 111.351 -188.309 106.22 -169.556 103.786C-138.561 99.8339 -104.927 100.244 -69.5867 105.005C-37.7397 109.309 -5.67834 116.93 25.6967 127.672C82.088 147.051 131.489 175.883 168.573 211.047C170.607 212.976 172.631 214.954 174.59 216.926C189.699 232.142 203.644 249.605 217.226 270.309C220.094 274.671 222.946 279.157 225.703 283.493C235.443 298.815 245.514 314.657 258.731 328.985C259.52 329.838 260.327 330.691 261.127 331.522C293.711 365.104 344.069 383.254 402.923 382.638C450.677 382.135 501.22 369.217 561.985 341.986C566.67 339.877 571.59 337.607 576.613 335.241C598.834 324.749 620.496 313.269 643.433 301.116C672.453 285.737 702.464 269.835 733.985 255.937C766.234 241.79 797.069 231.079 828.252 223.194C859.844 215.205 890.918 210.336 923.251 208.308C951.265 206.487 987.823 205.993 1022.13 218.421C1052.09 229.325 1077.43 247.248 1101.93 264.579C1108.47 269.203 1114.64 273.57 1120.9 277.807C1184.19 320.656 1247.73 366.945 1315.13 419.317L1314.96 419.424Z" fill="#FDFCFC"/>
<path d="M1312.54 417.897C1245.77 364.956 1183.34 318.125 1121.69 274.723C1115.43 270.319 1109.25 265.739 1102.71 260.892C1078.91 243.26 1054.29 225.027 1024.66 214.384C990.083 202.018 953.626 204.054 925.73 207.208C866.147 213.816 806.91 231.032 739.311 261.387C713.957 272.823 689.18 285.368 665.211 297.502C636.109 312.236 608.623 326.155 580.167 338.277C575.039 340.463 569.964 342.56 565.082 344.511C536.338 355.984 510.171 364.247 485.084 369.775C471.032 372.871 457.161 375.114 443.854 376.44C429.661 377.856 415.628 378.279 402.144 377.699C374.784 376.52 349.164 371.36 325.992 362.363C300.967 352.647 279.667 338.741 262.686 321.032C261.888 320.196 261.09 319.339 260.305 318.488C247.362 304.361 237.109 288.889 227.191 273.927C224.188 269.398 221.085 264.714 217.964 260.157C203.85 239.494 189.609 222.189 174.429 207.252C172.441 205.306 170.391 203.338 168.332 201.43C130.792 166.615 81.0426 138.213 24.4622 119.295C-42.889 96.8602 -112.374 88.9513 -171.194 97.0078C-234.174 105.765 -295.545 143.63 -284.875 189.514L-285.103 189.541C-287.772 178.063 -286.211 166.753 -280.458 155.927C-275.214 146.035 -266.582 136.736 -254.833 128.274C-243.91 120.405 -230.807 113.612 -215.884 108.082C-201.693 102.822 -186.244 98.9376 -171.242 96.8489C-140.284 92.6082 -106.615 92.7298 -71.1679 97.2121C-39.2479 101.249 -7.03375 108.629 24.5534 119.147C81.1681 138.077 130.947 166.5 168.508 201.331C170.56 203.241 172.612 205.202 174.607 207.158C189.794 222.101 204.042 239.414 218.155 260.088C221.276 264.643 224.382 269.331 227.384 273.857C237.298 288.816 247.547 304.282 260.483 318.399C261.263 319.25 262.063 320.105 262.861 320.941C295.495 354.974 344.962 375.073 402.149 377.538C450.562 379.622 503.818 368.781 564.961 344.372C569.843 342.426 574.916 340.326 580.041 338.139C608.496 326.021 635.979 312.103 665.085 297.37C689.048 285.237 713.827 272.69 739.185 261.252C806.814 230.884 866.078 213.66 925.689 207.049C944.435 204.929 959.955 204.253 974.536 204.92C993.175 205.771 1009.6 208.82 1024.76 214.239C1054.43 224.897 1079.05 243.14 1102.87 260.782C1109.41 265.629 1115.59 270.205 1121.84 274.61C1183.5 318.013 1245.94 364.847 1312.71 417.79L1312.54 417.897Z" fill="#FDFCFC"/>
<path d="M1310.13 416.369C1243.99 362.854 1182.66 315.473 1122.64 271.527C1116.43 266.986 1110.29 262.215 1103.79 257.172C1080.64 239.202 1056.69 220.619 1027.31 210.203C991.965 197.735 953.819 201.804 928.194 205.949C858.642 217.059 796.316 242.894 744.519 266.701C725.905 275.296 707.335 284.393 689.375 293.194C653.351 310.849 619.322 327.525 583.604 341.18C578.36 343.191 573.116 345.116 568.068 346.903C538.761 357.248 511.809 364.428 485.671 368.852C456.042 373.868 427.679 375.13 401.37 372.6C374.343 370.005 349.026 363.54 326.13 353.396C302.11 342.758 281.353 328.31 264.438 310.455C263.647 309.617 262.842 308.759 262.076 307.906C249.454 294.037 239.071 278.99 229.016 264.437C225.724 259.677 222.329 254.738 218.909 249.947C204.032 229.027 189.903 212.356 174.449 197.494C172.435 195.557 170.345 193.618 168.272 191.725C130.251 157.232 80.1274 129.242 23.3235 110.772C-44.4746 88.8131 -114.161 81.4572 -172.871 90.057C-236.077 99.4384 -296.193 136.783 -287.388 183.041L-287.616 183.062C-289.82 171.715 -287.886 160.155 -281.998 149.493C-276.583 139.601 -267.91 130.283 -256.234 121.811C-245.336 113.91 -232.294 107.065 -217.474 101.467C-203.368 96.135 -187.96 92.1376 -172.918 89.9045C-141.995 85.3752 -108.29 85.2016 -72.7352 89.418C-40.7309 93.1998 -8.37994 100.34 23.417 110.638C80.2596 129.106 130.42 157.112 168.448 191.618C170.548 193.512 172.616 195.458 174.629 197.39C190.094 212.262 204.228 228.936 219.112 249.868C222.532 254.666 225.936 259.598 229.228 264.365C239.26 278.914 249.65 293.958 262.263 307.817C263.04 308.67 263.834 309.528 264.623 310.365C297.507 345.069 346.085 367.124 401.402 372.439C451.015 377.21 505.498 368.808 567.965 346.757C573.02 344.973 578.246 343.046 583.494 341.037C619.204 327.387 653.226 310.712 689.248 293.061C707.207 284.259 725.778 275.158 744.396 266.564C779.225 250.557 808.198 238.73 835.573 229.345C867.799 218.298 898.077 210.594 928.141 205.79C946.468 202.826 962.439 201.485 976.974 201.687C995.691 201.95 1012.18 204.687 1027.4 210.058C1056.83 220.488 1080.79 239.087 1103.95 257.063C1110.45 262.105 1116.59 266.868 1122.8 271.413C1182.82 315.361 1244.15 362.743 1310.29 416.262L1310.13 416.369Z" fill="#FDFCFC"/>
<path d="M1307.71 414.84C1242.21 360.745 1181.98 312.821 1123.58 268.328C1117.46 263.663 1111.4 258.735 1104.98 253.516C1082.44 235.191 1059.13 216.227 1029.94 206.023C994.221 193.583 956.17 199.305 930.652 204.689C867.64 217.875 811.434 242.981 749.725 272.014C738.597 277.269 727.34 282.695 716.453 287.941C674.586 308.121 631.291 328.989 587.034 344.084C581.657 345.92 576.279 347.673 571.046 349.294C541.543 358.426 513.016 364.7 486.255 367.927C455.943 371.589 427.121 371.445 400.593 367.501C373.943 363.538 348.933 355.775 326.265 344.428C303.317 332.943 283.103 317.954 266.185 299.877C265.403 299.035 264.614 298.177 263.844 297.323C251.602 283.781 241.153 269.224 231.048 255.144C227.4 250.071 223.643 244.827 219.86 239.723C204.402 218.822 189.978 202.298 174.47 187.721C172.434 185.807 170.327 183.884 168.211 182.006C129.704 147.849 79.2115 120.27 22.1796 102.252C-46.0562 80.7627 -115.929 73.9629 -174.552 83.106C-235.75 92.7534 -296.988 128.789 -289.907 176.567L-290.135 176.585C-291.85 165.19 -289.587 153.671 -283.548 143.047C-277.969 133.138 -269.245 123.815 -257.622 115.334C-236.176 99.6893 -205.916 87.8851 -174.6 82.9471C-143.713 78.1307 -109.971 77.6766 -74.3123 81.5978C-42.2304 85.1266 -9.73355 92.0253 22.2731 102.104C79.3438 120.132 129.859 147.727 168.382 181.906C170.5 183.783 172.607 185.708 174.645 187.624C190.149 202.207 204.591 218.737 220.054 239.647C223.839 244.752 227.603 249.997 231.244 255.07C241.347 269.146 251.794 283.7 264.028 297.233C264.799 298.086 265.586 298.944 266.37 299.784C300.214 335.948 346.644 359.311 400.639 367.34C450.635 374.774 507.936 368.652 570.955 349.143C576.185 347.522 581.562 345.77 586.936 343.936C631.168 328.846 674.465 307.982 716.326 287.806C727.213 282.559 738.471 277.133 749.6 271.877C776.611 259.169 808.041 244.59 839.234 232.421C871.863 219.689 901.747 210.567 930.589 204.528C948.746 200.696 964.718 198.708 979.413 198.452C997.942 198.127 1014.98 200.625 1030.04 205.872C1043.12 210.444 1056.28 217.266 1070.28 226.732C1082.63 235.089 1094.08 244.4 1105.16 253.404C1111.57 258.621 1117.63 263.549 1123.75 268.213C1182.15 312.706 1242.38 360.633 1307.88 414.729L1307.71 414.84Z" fill="#FDFCFC"/>
<path d="M1305.29 413.312C1240.44 358.632 1181.31 310.162 1124.54 265.131C1118.53 260.363 1112.57 255.286 1106.27 249.911C1084.31 231.199 1061.61 211.849 1032.59 201.845C1005.47 192.525 972.931 193.044 933.122 203.429C877.465 217.862 827.709 242.025 775.032 267.601C768.472 270.786 761.691 274.078 754.943 277.331C752.298 278.608 749.654 279.886 747.01 281.164C696.821 305.439 644.921 330.542 590.475 346.989C584.971 348.653 579.44 350.232 574.034 351.692C543.883 359.789 514.551 364.942 486.853 367.008C455.845 369.321 426.557 367.774 399.824 362.408C373.59 357.144 348.888 348.078 326.408 335.463C304.615 323.239 284.943 307.708 267.937 289.305C267.162 288.464 266.38 287.603 265.611 286.748C253.837 273.63 243.42 259.666 233.347 246.149C229.266 240.677 225.048 235.019 220.807 229.512C204.751 208.625 190.027 192.244 174.491 177.964C172.425 176.066 170.291 174.161 168.148 172.302C129.169 138.468 78.3026 111.293 21.0472 93.7317C-47.6469 72.713 -117.698 66.4712 -176.223 76.1559C-236.299 86.1779 -297.439 122.509 -292.416 170.095L-292.644 170.107C-293.855 158.628 -291.313 147.358 -285.088 136.607C-279.345 126.688 -270.572 117.353 -259.01 108.865C-237.658 93.1868 -207.5 81.2074 -176.273 75.9969C-145.422 70.8919 -111.644 70.1508 -75.8801 73.7915C-43.7321 77.0656 -11.078 83.7243 21.1384 93.576C78.4257 111.155 129.322 138.335 168.326 172.186C170.469 174.047 172.603 175.953 174.671 177.852C190.223 192.139 204.945 208.526 221.005 229.421C225.246 234.935 229.467 240.588 233.545 246.06C243.616 259.568 254.031 273.536 265.803 286.647C266.569 287.502 267.351 288.362 268.126 289.203C302.707 326.625 348.268 351.88 399.885 362.239C450.843 372.465 509.407 368.862 573.954 351.526C579.355 350.067 584.884 348.495 590.386 346.823C644.812 330.383 696.7 305.285 746.883 281.014L754.813 277.18C761.561 273.937 768.344 270.637 774.904 267.45C827.593 241.869 877.36 217.708 933.045 203.26C951.029 198.569 966.996 195.935 981.855 195.212C1000.45 194.305 1017.56 196.482 1032.7 201.682C1045.69 206.163 1058.69 213.016 1072.43 222.635C1084.55 231.121 1095.69 240.613 1106.45 249.791C1112.76 255.166 1118.71 260.24 1124.72 265.006C1181.49 310.039 1240.62 358.511 1305.48 413.192L1305.29 413.312Z" fill="#FDFCFC"/>
<path d="M1302.87 411.792C1243.68 360.838 1183.99 310.422 1125.49 261.948C1119.53 257.041 1113.63 251.77 1107.38 246.188C1087.05 228.035 1064.01 207.461 1035.23 197.681C1007.79 188.377 975.195 189.851 935.591 202.184C888.489 216.802 846.81 238.296 802.681 261.051C788.862 268.179 774.573 275.547 760.157 282.657C734.997 295.094 707.781 308.254 679.251 320.241C648.699 333.077 620.785 342.783 593.913 349.905C588.27 351.403 582.586 352.811 577.02 354.091C546.24 361.166 516.101 365.193 487.466 366.059C455.774 367.015 426.023 364.075 399.055 357.318C349.255 344.682 305.73 318.235 269.69 278.736C268.922 277.891 268.146 277.03 267.383 276.173C256.211 263.636 245.971 250.406 236.076 237.613C231.418 231.592 226.602 225.364 221.757 219.304C205.091 198.422 190.079 182.185 174.516 168.207C172.421 166.327 170.261 164.439 168.093 162.599C128.624 129.085 77.3833 102.33 19.9044 85.2119C-49.2252 64.6651 -119.472 58.9811 -177.904 69.2042C-238.344 79.8409 -297.953 115.688 -294.936 163.622L-295.164 163.63C-295.887 152.149 -293.019 140.891 -286.639 130.168C-280.73 120.235 -271.906 110.891 -260.419 102.397C-249.587 94.3939 -236.753 87.3963 -222.266 81.5971C-208.363 76.0127 -193.462 71.7911 -177.968 69.0469C-147.149 63.6548 -113.337 62.625 -77.4675 65.9852C-45.2306 69.0064 -12.4419 75.425 19.982 85.0611C77.5041 102.189 128.774 128.97 168.264 162.48C170.435 164.323 172.596 166.21 174.691 168.091C190.264 182.077 205.28 198.32 221.953 219.209C226.799 225.27 231.616 231.498 236.274 237.521C246.167 250.312 256.4 263.539 267.574 276.073C268.336 276.928 269.111 277.789 269.879 278.632C305.892 318.109 349.376 344.526 399.13 357.151C450.378 369.994 511.867 368.877 576.95 353.922C582.51 352.642 588.19 351.235 593.833 349.74C653.906 333.81 708.873 307.793 760.024 282.509C774.439 275.4 788.727 268.031 802.546 260.905C846.683 238.145 888.373 216.646 935.498 202.022C975.17 189.668 1007.83 188.194 1035.33 197.518C1048.22 201.897 1061.02 208.765 1074.46 218.508C1086.32 227.103 1097.11 236.744 1107.56 246.077C1113.81 251.655 1119.71 256.927 1125.66 261.831C1184.18 310.32 1243.86 360.731 1303.05 411.686L1302.87 411.792Z" fill="#FDFCFC"/>
<path d="M1300.46 410.257C1242.17 359.022 1183.62 308.042 1126.44 258.737C1120.67 253.776 1114.94 248.411 1108.88 242.732C1089.05 224.162 1066.59 203.1 1037.86 193.485C1010.09 184.198 977.439 186.627 938.038 200.909C896.754 215.851 858.824 236.951 822.146 257.355C803.751 267.586 784.733 278.166 765.351 287.956C734.763 303.424 709.035 315.223 684.354 325.093C653.932 337.255 625.469 346.321 597.333 352.796C591.558 354.124 585.721 355.36 579.989 356.468C550.121 362.238 520.771 365.157 492.704 365.157C491.146 365.157 489.593 365.147 488.044 365.129C455.595 364.753 425.389 360.403 398.267 352.204C384.897 348.115 372.136 343.087 360.172 337.194C348.715 331.568 337.454 324.945 326.704 317.505C307.361 304.12 289.283 287.974 271.435 268.149C270.675 267.296 269.915 266.441 269.155 265.583C258.799 253.886 249.002 241.659 239.528 229.833C234.056 223.008 228.404 215.949 222.709 209.076C205.176 187.906 190.319 172.288 174.539 158.432C172.419 156.569 170.23 154.702 168.034 152.878C128.093 119.706 76.4811 93.3621 18.7788 76.6944C-50.7931 56.6212 -121.234 51.4934 -179.567 62.2614C-238.875 73.237 -298.406 109.358 -297.443 157.158H-297.671C-298.127 134.893 -285.717 113.722 -261.798 95.9341C-250.988 87.8938 -238.218 80.8524 -223.845 74.9819C-209.976 69.312 -195.108 64.9808 -179.631 62.1025C-148.851 56.4266 -115 55.1049 -79.0263 58.1845C-46.7119 60.9463 -13.7796 67.1233 18.8541 76.5404C76.5928 93.2178 128.235 119.577 168.194 152.768C170.39 154.59 172.581 156.46 174.703 158.325C190.49 172.187 205.351 187.812 222.891 208.988C228.591 215.861 234.243 222.92 239.713 229.746C249.184 241.568 258.979 253.794 269.333 265.489C270.093 266.346 270.853 267.2 271.613 268.053C309.538 310.181 350.995 337.658 398.351 352.057C463.944 371.887 533.295 365.317 579.923 356.314C585.655 355.206 591.487 353.972 597.251 352.642C661.958 337.752 720.998 310.183 765.208 287.827C784.588 278.04 803.603 267.461 821.993 257.23C858.683 236.821 896.62 215.715 937.924 200.768C955.556 194.377 971.513 190.454 986.716 188.767C1005.45 186.695 1022.69 188.232 1037.95 193.337C1050.81 197.643 1063.49 204.564 1076.71 214.496C1088.36 223.245 1098.88 233.101 1109.05 242.632C1115.11 248.308 1120.84 253.674 1126.61 258.631C1183.79 307.931 1242.34 358.918 1300.63 410.153L1300.46 410.257Z" fill="#FDFCFC"/>
<path d="M1298.04 408.729L1127.39 255.538C1121.81 250.536 1116.28 245.092 1110.42 239.322C1091.08 220.306 1069.16 198.752 1040.51 189.297C1012.8 180.154 979.154 183.634 940.51 199.641C903.36 215.03 869.474 235.494 836.706 255.284C815.347 268.184 793.261 281.523 770.568 293.262C702.362 328.547 642.753 349.387 582.979 358.85C558.181 362.774 533.719 364.748 509.996 364.748C502.806 364.748 495.689 364.566 488.644 364.204C455.429 362.492 424.765 356.743 397.503 347.102C372.234 338.168 349.121 325.553 326.843 308.538C309.059 294.952 292.003 278.754 273.181 257.564C263.25 246.374 253.628 234.761 244.326 223.525C223.272 198.097 201.503 171.793 174.558 148.661C133.212 113.171 78.9482 85.336 17.6276 68.1689C-52.3844 48.5675 -123.016 43.9928 -181.259 55.3024C-237.644 66.2472 -298.841 100.76 -299.967 150.675H-300.195C-299.691 128.364 -286.901 107.196 -263.202 89.46C-241.77 73.4231 -212.696 61.2426 -181.318 55.1484C-150.57 49.1789 -116.687 47.5735 -80.6085 50.3725C-48.2142 52.8877 -15.136 58.8247 17.7074 68.0197C48.0874 76.5274 76.8609 87.6909 103.365 101.253C129.887 114.796 153.869 130.693 174.729 148.557C201.692 171.709 223.466 198.008 244.524 223.442C253.827 234.677 263.448 246.296 273.377 257.478C300.838 288.395 339.776 326.508 397.606 346.958C463.926 370.409 534.992 366.287 582.931 358.699C642.667 349.243 702.257 328.41 770.438 293.139C793.122 281.403 815.206 268.066 836.558 255.169C869.335 235.374 903.227 214.905 940.394 199.509C979.106 183.474 1012.82 179.991 1040.6 189.158C1053.43 193.392 1065.99 200.374 1079 210.504C1090.45 219.423 1100.7 229.493 1110.6 239.234C1116.46 244.996 1122 250.437 1127.56 255.438L1298.21 408.629L1298.04 408.729Z" fill="#FDFCFC"/>
<path d="M1296.66 396.953C1253.21 354.303 1215.92 319.688 1179.33 288.031C1161.57 272.651 1143.42 257.514 1125.41 243.039C1119.96 238.66 1114.56 234.003 1108.85 229.071C1094.48 216.677 1079.63 203.86 1062.53 194.349C1053.36 189.233 1044.52 185.569 1035.52 183.15C1007.9 175.65 975.503 180.609 939.216 197.891C920.436 206.82 903.336 216.983 889.086 225.747C873.999 235.024 859.118 245.256 844.724 255.15C824.037 269.372 802.647 284.077 779.651 296.708C765.658 304.415 751.474 311.304 737.491 317.181C709.272 329.017 679.352 338.67 648.243 345.974C628.938 350.464 609.54 353.858 590.591 356.062C574.504 357.935 558.254 359.019 541.958 359.306C518.1 359.698 494.858 358.201 472.874 354.852C449.5 351.285 427.381 345.609 407.128 337.954C389.071 331.134 372.016 322.548 354.985 311.683C323.252 291.48 297.941 268.12 279.437 250.025C270.344 241.094 261.47 231.987 252.886 223.18C228.169 197.816 204.822 173.858 175.594 152.518C151.653 135.168 124.464 120.248 94.7956 108.178C71.8976 98.8482 46.9931 91.2182 20.7754 85.4985C14.5305 84.1379 8.16702 82.8714 1.86737 81.733C-25.2646 76.8468 -55.7915 73.6651 -88.8766 72.2753C-122.242 70.8417 -151.107 72.0823 -177.113 76.0717C-191.779 78.2997 -206.004 81.8035 -219.466 86.504C-266.769 103.045 -297.145 130.815 -300.723 160.787L-301.008 160.769C-300.026 152.703 -297.219 144.803 -292.695 137.375C-288.363 130.218 -282.408 123.316 -275.002 116.86C-261.008 104.665 -241.849 94.1048 -219.598 86.3223C-206.115 81.6148 -191.868 78.1056 -177.179 75.8738C-151.15 71.8861 -122.26 70.6374 -88.8675 72.0726C-55.7551 73.464 -25.2054 76.6474 1.93576 81.5368C8.24225 82.6719 14.608 83.9433 20.8597 85.3055C47.098 91.0285 72.0207 98.665 94.9392 108.009C124.633 120.089 151.845 135.021 175.806 152.385C205.04 173.738 228.392 197.701 253.119 223.073C261.701 231.88 270.574 240.986 279.665 249.915C298.16 268 323.459 291.349 355.172 311.539C372.185 322.378 389.221 330.96 407.26 337.774C446.894 352.747 492.209 359.923 541.949 359.101C558.232 358.815 574.467 357.732 590.541 355.858C609.478 353.657 628.86 350.266 648.152 345.779C679.245 338.48 709.149 328.834 737.354 317.005C751.326 311.133 765.501 304.249 779.484 296.548C802.467 283.925 823.851 269.223 844.532 255.005C858.928 245.113 873.812 234.875 888.906 225.594C903.163 216.826 920.272 206.658 939.066 197.722C955.22 190.027 970.865 184.712 985.562 181.919C1003.62 178.491 1020.46 178.838 1035.63 182.96C1044.66 185.393 1053.52 189.061 1062.71 194.19C1079.84 203.715 1094.7 216.539 1109.07 228.941C1114.79 233.873 1120.18 238.529 1125.63 242.904C1143.64 257.381 1161.79 272.521 1179.56 287.901C1216.16 319.561 1253.44 354.176 1296.9 396.833L1296.66 396.953Z" fill="#FDFCFC"/>
<path d="M1295.29 385.172C1255 341.797 1217.18 305.5 1179.69 274.21C1161.4 258.927 1142.48 244.235 1123.44 230.541C1118.38 226.909 1113.41 223.133 1108.12 219.137C1092.3 207.171 1075.95 194.798 1057.64 186.237C1048.39 181.895 1039.53 178.873 1030.54 176.993C996.14 169.798 961.19 183.426 937.927 196.129C921.445 205.1 906.395 215.244 891.146 225.715C877.801 234.881 865.245 244.741 851.953 255.178C832.224 270.671 811.825 286.692 788.735 300.144C775.035 308.17 760.737 315.109 746.238 320.768C719.232 331.309 689.658 339.501 655.827 345.802C636.911 349.324 617.646 351.818 598.198 353.262C582.143 354.445 565.995 354.865 549.862 354.521C526.378 353.998 503.432 351.65 481.644 347.547C458.979 343.294 437.172 336.996 416.753 328.807C399.074 321.694 382.008 312.869 364.573 301.829C332.911 281.806 305.786 259.607 285.685 242.504C278.248 236.18 270.929 229.803 263.85 223.642C235.657 199.102 209.029 175.923 176.658 156.394C152.465 141.798 125.303 129.455 95.9323 119.715C73.7091 112.343 50.1613 106.819 23.9253 102.829C17.8719 101.909 11.7136 101.075 5.62372 100.365C-21.1252 97.2402 -49.6708 96.058 -84.2083 94.8352C-109.106 93.9092 -141.698 93.2995 -173.007 96.8396C-187.638 98.4436 -201.945 101.292 -215.621 105.324C-262.958 119.355 -295.072 143.87 -301.522 170.9L-301.859 170.86C-300.149 163.692 -296.686 156.66 -291.565 149.963C-286.686 143.58 -280.275 137.46 -272.511 131.767C-257.757 120.954 -238.131 111.732 -215.753 105.099C-202.054 101.06 -187.723 98.2063 -173.067 96.598C-141.726 93.0562 -109.108 93.666 -84.1946 94.5936C-49.6435 95.8147 -21.0865 96.9986 5.68073 100.125C11.7752 100.84 17.938 101.671 23.9959 102.59C50.2524 106.589 73.8299 112.114 96.0759 119.495C125.488 129.246 152.663 141.598 176.879 156.208C209.273 175.749 235.913 198.938 264.114 223.487C271.182 229.649 278.512 236.018 285.948 242.347C306.034 259.443 333.143 281.632 364.794 301.646C382.209 312.673 399.259 321.488 416.915 328.593C456.587 344.559 501.319 353.201 549.867 354.281C565.984 354.625 582.116 354.205 598.155 353.022C617.586 351.578 636.835 349.084 655.734 345.562C689.537 339.265 719.086 331.084 746.067 320.551C760.548 314.898 774.827 307.967 788.512 299.956C811.579 286.515 831.971 270.501 851.693 255.016C864.99 244.574 877.548 234.712 890.909 225.54C906.165 215.064 921.222 204.915 937.72 195.936C952.8 187.703 967.674 181.779 981.931 178.328C999.218 174.144 1015.61 173.625 1030.64 176.761C1039.66 178.646 1048.55 181.68 1057.83 186.032C1076.17 194.611 1092.54 206.994 1108.37 218.97C1113.64 222.966 1118.63 226.74 1123.68 230.369C1142.73 244.068 1161.66 258.765 1179.95 274.053C1217.46 305.351 1255.28 341.654 1295.58 385.039L1295.29 385.172Z" fill="#FDFCFC"/>
<path d="M1293.9 373.393C1256.2 328.708 1218.95 291.745 1180.04 260.393C1161.22 245.202 1141.5 230.956 1121.44 218.046C1117.15 215.289 1112.74 212.358 1108.47 209.525C1090.84 197.826 1072.62 185.73 1052.72 178.126C1043.37 174.532 1034.49 172.15 1025.54 170.84C991.213 165.813 958.235 180.86 936.623 194.366C921.969 203.483 908.579 213.826 895.62 223.812L893.194 225.684C881.431 234.749 870.394 244.695 858.716 255.224C840.113 271.989 820.868 289.327 797.803 303.581C784.376 311.936 769.964 318.927 754.969 324.36C728.826 333.832 699.736 340.6 663.399 345.627C644.394 348.253 625.142 349.872 605.8 350.469C589.783 350.958 573.738 350.716 557.765 349.744C510.455 346.825 466.25 336.704 426.375 319.657C409.138 312.29 392.059 303.231 374.163 291.964C343.878 272.936 316.935 253.379 291.951 234.978C288.599 232.509 285.28 230.06 281.994 227.63C247.853 202.412 215.614 178.593 177.725 160.268C152.992 148.297 125.86 138.538 97.077 131.255C75.9505 125.903 53.057 122.28 27.081 120.159C21.2282 119.685 15.2751 119.295 9.38815 118.998C-5.43185 118.27 -21.1433 118.151 -37.7805 118.025C-51.1436 117.924 -64.9604 117.821 -79.5387 117.399C-107.699 116.512 -139.614 115.506 -168.899 117.608C-184.008 118.693 -198.432 120.892 -211.763 124.145C-259.08 135.691 -292.931 156.953 -302.306 181.022L-302.691 180.946C-300.218 174.601 -296.079 168.411 -290.414 162.548C-284.987 156.942 -278.12 151.6 -270.003 146.672C-254.479 137.248 -234.383 129.365 -211.89 123.877C-198.53 120.616 -184.074 118.412 -168.937 117.326C-139.624 115.218 -107.692 116.228 -79.5205 117.115C-64.949 117.537 -51.1322 117.64 -37.7737 117.741C-21.1297 117.868 -5.39764 117.986 9.42236 118.714C15.3162 119.009 21.2784 119.402 27.1334 119.877C53.1254 122 76.0576 125.632 97.2137 130.985C126.024 138.283 153.188 148.047 177.951 160.028C215.874 178.376 248.129 202.203 282.277 227.43C285.568 229.861 288.886 232.31 292.234 234.778C317.22 253.176 344.147 272.726 374.423 291.75C392.3 303.006 409.359 312.053 426.576 319.412C466.398 336.44 510.546 346.546 557.794 349.459C573.751 350.431 589.779 350.674 605.779 350.185C625.102 349.589 644.337 347.974 663.324 345.353C699.615 340.317 728.682 333.566 754.798 324.109C769.764 318.687 784.148 311.709 797.552 303.369C820.598 289.132 839.823 271.806 858.412 255.043C870.1 244.502 881.139 234.561 892.911 225.486L895.337 223.614C908.299 213.615 921.703 203.275 936.377 194.148C958.064 180.599 991.158 165.509 1025.65 170.558C1034.63 171.873 1043.56 174.265 1052.93 177.872C1072.88 185.493 1091.12 197.603 1108.77 209.313C1113.04 212.144 1117.45 215.073 1121.73 217.831C1141.8 230.747 1161.52 245.003 1180.35 260.2C1219.28 291.565 1256.54 328.542 1294.26 373.242L1293.9 373.393Z" fill="#FDFCFC"/>
<path d="M1292.53 361.611C1257.91 316.249 1220.19 277.546 1180.4 246.575C1161.05 231.48 1140.56 217.676 1119.48 205.546C1116.44 203.796 1113.33 201.978 1110.31 200.219C1090.38 188.606 1069.79 176.597 1047.85 170.013C1038.43 167.158 1029.51 165.414 1020.59 164.681C986.351 161.872 955.333 178.303 935.34 192.597C922.926 201.422 911.722 211.237 900.885 220.728C899.008 222.372 897.133 224.01 895.26 225.644C884.952 234.615 875.315 244.635 865.112 255.246C847.766 273.282 829.826 291.932 806.892 307.012C793.422 315.868 779.304 322.716 763.713 327.946C731.109 338.887 698.535 342.938 670.967 345.46C651.873 347.181 632.63 347.92 613.386 347.672C597.41 347.466 581.467 346.56 565.647 344.961C519.758 340.289 476.132 328.697 435.984 310.506C419.28 302.94 402.19 293.641 383.74 282.099C365.101 270.462 347.73 259.264 330.933 248.435C319.515 241.074 308.732 234.122 298.201 227.452C258.392 202.238 221.928 180.069 178.793 164.135C153.25 154.728 126.196 147.562 98.2246 142.793C78.017 139.333 56.4162 137.648 30.2487 137.489C24.6034 137.458 18.8487 137.505 13.1601 137.628C4.51202 137.828 -4.4324 138.246 -13.9035 138.687C-32.0751 139.535 -52.6635 140.497 -74.8639 139.959C-83.3136 139.753 -91.9342 139.462 -100.272 139.18C-121.718 138.455 -143.893 137.706 -164.796 138.369C-180.138 138.856 -194.646 140.406 -207.918 142.959C-255.155 152.048 -290.741 170.06 -303.106 191.142L-303.527 191.017C-300.29 185.504 -295.493 180.152 -289.268 175.125C-283.292 170.295 -275.971 165.734 -267.506 161.568C-251.197 153.54 -230.633 146.998 -208.036 142.651C-194.712 140.093 -180.184 138.544 -164.808 138.05C-143.893 137.38 -121.716 138.129 -100.252 138.861C-91.916 139.143 -83.2953 139.433 -74.8479 139.639C-52.6818 140.178 -32.0956 139.216 -13.9332 138.369C-4.45975 137.927 4.48926 137.508 13.1464 137.31C18.8464 137.186 24.6011 137.138 30.2464 137.169C56.4504 137.331 78.0831 139.016 98.3249 142.484C126.334 147.256 153.425 154.43 179.003 163.848C198.488 171.045 218.232 180.162 239.366 191.723C258.29 202.071 276.692 213.393 298.504 227.209C309.036 233.88 319.822 240.831 331.238 248.193C348.035 259.023 365.404 270.22 384.041 281.856C402.475 293.393 419.545 302.675 436.23 310.236C476.324 328.398 519.888 339.977 565.714 344.643C581.514 346.24 597.438 347.145 613.395 347.351C632.616 347.599 651.837 346.86 670.908 345.139C698.441 342.624 730.977 338.579 763.52 327.657C779.062 322.442 793.148 315.611 806.582 306.778C829.48 291.724 847.394 273.088 864.735 255.067C874.945 244.452 884.587 234.425 894.907 225.443C896.782 223.811 898.657 222.173 900.529 220.529C911.373 211.026 922.588 201.208 935.028 192.376C948.035 183.082 961.38 175.932 974.7 171.132C990.466 165.439 1005.94 163.165 1020.66 164.373C1029.63 165.109 1038.59 166.861 1048.04 169.725C1070.04 176.328 1090.67 188.351 1110.61 199.98C1113.63 201.738 1116.75 203.556 1119.79 205.306C1140.88 217.443 1161.39 231.253 1180.75 246.364C1201.88 262.809 1222.57 281.554 1242.25 302.054C1259.64 320.18 1276.7 340.164 1292.95 361.463L1292.53 361.611Z" fill="#FDFCFC"/>
<path d="M1291.17 349.826C1259.13 303.167 1221.98 263.778 1180.77 232.757C1160.9 217.758 1139.62 204.402 1117.53 193.056L1114.37 191.435C1091.4 179.622 1067.65 167.408 1042.98 161.907C1033.42 159.776 1024.48 158.664 1015.63 158.529C981.537 157.983 952.455 175.794 934.067 190.831C923.246 199.631 913.643 209.272 904.354 218.598C902.056 220.902 899.682 223.286 897.336 225.609C888.405 234.453 880.106 244.511 871.319 255.157C855.334 274.525 838.804 294.551 815.988 310.457C802.787 319.655 788.551 326.554 772.465 331.548C740.773 341.386 708.598 343.969 678.547 345.295C660.018 346.106 640.654 345.975 620.993 344.882C605.064 343.977 589.223 342.407 573.553 340.179C529.226 333.854 486.179 320.793 445.616 301.357C429.371 293.573 412.759 284.33 393.338 272.237C356.422 249.331 329.007 233.198 304.47 219.929C255.648 193.535 218.386 178.007 179.879 168.008C153.875 161.276 126.87 156.688 99.3954 154.334C80.2252 152.681 59.8807 152.831 33.4327 154.82C28.0132 155.232 22.4682 155.719 16.9506 156.264C11.7408 156.787 6.44437 157.387 0.83786 158.022C-19.8623 160.365 -43.3258 163.021 -70.1796 162.525C-84.3339 162.264 -98.789 161.552 -112.772 160.858C-128.659 160.071 -145.091 159.259 -160.666 159.149C-176.286 159.038 -190.883 159.929 -204.048 161.792C-251.13 168.459 -288.453 183.224 -303.884 201.29L-304.324 201.1C-300.314 196.407 -294.851 191.9 -288.086 187.705C-281.556 183.651 -273.781 179.874 -264.978 176.465C-247.878 169.845 -226.836 164.648 -204.146 161.435C-190.949 159.565 -176.33 158.678 -160.661 158.784C-145.071 158.894 -128.632 159.706 -112.736 160.493C-98.7594 161.184 -84.3088 161.899 -70.1659 162.16C-43.36 162.655 -19.9215 160.002 0.758057 157.662C6.36002 157.024 11.6564 156.423 16.8754 155.897C22.3998 155.351 27.9493 154.866 33.3734 154.454C59.8625 152.464 80.2434 152.316 99.4524 153.967C126.969 156.325 154.014 160.92 180.057 167.662C218.617 177.675 255.917 193.219 304.773 219.634C329.329 232.909 356.744 249.047 393.659 271.958C413.064 284.033 429.658 293.278 445.885 301.051C486.394 320.461 529.376 333.503 573.638 339.809C589.288 342.032 605.108 343.599 621.016 344.501C640.654 345.591 660.004 345.73 678.499 344.914C708.504 343.589 740.627 341.011 772.244 331.195C788.272 326.22 802.458 319.345 815.612 310.178C838.382 294.313 854.892 274.308 870.861 254.961C879.653 244.307 887.961 234.242 896.903 225.385C899.249 223.064 901.623 220.682 903.919 218.374C913.214 209.043 922.829 199.392 933.666 190.582C945.665 180.767 958.244 173.003 971.058 167.505C986.065 161.065 1001.06 157.921 1015.63 158.153C1024.52 158.296 1033.51 159.406 1043.11 161.547C1067.87 167.061 1091.65 179.298 1114.66 191.127L1117.81 192.748C1139.93 204.1 1161.23 217.479 1181.13 232.494C1222.38 263.541 1259.56 302.96 1291.61 349.653L1291.17 349.826Z" fill="#FDFCFC"/>
<path d="M689.881 345.123C688.603 345.123 687.343 345.123 686.101 345.123C667.665 345.068 648.31 344.046 628.572 342.084C612.695 340.484 596.956 338.253 581.43 335.401C559.727 331.402 537.942 325.654 516.678 318.32C496.158 311.238 475.47 302.453 455.219 292.21C435.383 282.177 416.842 270.997 402.911 262.371C370.307 242.262 339.299 225.447 310.735 212.404C264.465 191.28 223.231 178.402 180.967 171.878C154.94 167.902 128.396 165.888 101.776 165.866H100.549C77.9222 165.922 56.4423 168.912 36.5995 172.136C31.4352 172.981 26.0932 173.905 20.7215 174.881C17.778 175.423 14.8323 175.981 11.711 176.571C-10.2888 180.741 -35.2251 185.465 -65.5195 185.077C-83.9692 184.842 -102.813 183.481 -121.037 182.158C-132.802 181.308 -144.977 180.429 -156.576 179.901C-172.536 179.171 -187.212 179.406 -200.215 180.596C-247.046 184.884 -286.112 196.406 -304.714 211.408L-305.141 211.139C-295.601 203.443 -281.249 196.776 -262.482 191.329C-244.561 186.125 -223.056 182.273 -200.288 180.188C-187.249 178.994 -172.529 178.759 -156.539 179.489C-144.923 180.019 -132.75 180.898 -120.971 181.748C-102.761 183.063 -83.9282 184.422 -65.5012 184.657C-35.2867 185.045 -10.3914 180.327 11.5627 176.166C14.6841 175.574 17.6321 175.016 20.5779 174.474C25.9541 173.501 31.2939 172.572 36.4695 171.727C56.3442 168.498 77.8629 165.502 100.538 165.446C127.608 165.404 154.607 167.422 181.074 171.466C202.889 174.833 224.034 179.792 245.721 186.622C266.606 193.202 287.969 201.519 311.029 212.047C339.621 225.1 370.656 241.924 403.271 262.049C417.179 270.661 435.711 281.833 455.534 291.857C496.626 312.637 539.027 327.148 581.558 334.984C597.062 337.832 612.779 340.06 628.633 341.659C648.349 343.618 667.678 344.638 686.089 344.693C714.893 344.777 748.333 344.088 780.965 334.737C797.477 330.005 811.763 323.086 824.636 313.584C847.247 296.897 862.238 275.475 876.734 254.766C884.189 244.111 891.235 234.047 898.893 225.335C901.346 222.544 903.823 219.668 906.216 216.886C914.306 207.492 922.669 197.776 932.304 188.797C943.317 178.467 955.134 170.088 967.416 163.893C981.666 156.712 996.194 152.692 1010.6 151.949C1019.49 151.49 1028.51 151.959 1038.19 153.383C1064.04 157.187 1089.67 168.241 1115.84 180.204C1138.65 190.634 1161.36 203.924 1181.5 218.638C1203.88 234.934 1224.9 254.052 1243.98 275.46C1260.99 294.533 1276.57 315.527 1290.27 337.861L1289.75 338.023C1260.3 290.06 1223.74 249.988 1181.08 218.922C1160.97 204.229 1138.3 190.959 1115.52 180.544C1089.43 168.622 1063.85 157.588 1038.08 153.796C1028.47 152.382 1019.49 151.915 1010.66 152.371C984.195 153.738 956.532 166.768 932.765 189.061C923.148 198.025 914.792 207.73 906.709 217.117C904.315 219.899 901.839 222.776 899.383 225.567C891.739 234.263 884.7 244.319 877.251 254.965C870.138 265.128 862.783 275.638 854.342 285.741C844.766 297.194 835.19 306.4 825.053 313.883C812.123 323.426 797.773 330.377 781.186 335.127C766.555 339.32 750.83 342.092 733.11 343.603C718.112 344.888 703.041 345.123 689.881 345.123Z" fill="#FDFCFC"/>
<path d="M726.444 345.936C714.816 345.936 703.644 345.449 693.662 344.943C675.29 344.027 655.944 342.12 636.158 339.279C620.339 336.983 604.704 334.089 589.318 330.611C548.075 321.263 507.356 305.708 464.83 283.055C446.286 273.177 428.806 262.549 412.495 252.509C380.306 232.757 348.171 216.726 317.013 204.885C271.185 187.47 228.307 178.211 182.073 175.75C155.284 174.357 128.366 174.912 101.735 177.405C79.7925 179.484 59.0992 184.5 39.7945 189.461C34.9632 190.708 29.8241 192.07 24.5185 193.515C23.1931 193.877 21.8547 194.244 20.5034 194.616C-1.73798 200.733 -26.9046 207.655 -59.2031 207.655C-59.748 207.655 -60.2906 207.655 -60.8401 207.655C-82.6917 207.492 -105.001 205.279 -126.579 203.133C-135.134 202.282 -143.978 201.403 -152.469 200.691C-169.049 199.303 -183.411 198.894 -196.37 199.442C-243.514 201.435 -283.307 209.507 -305.541 221.585L-305.922 221.231C-294.93 215.259 -279.036 210.076 -259.964 206.239C-241.204 202.467 -219.225 199.961 -196.407 198.996C-183.411 198.447 -169.012 198.857 -152.403 200.248C-143.905 200.96 -135.056 201.841 -126.5 202.691C-104.942 204.835 -82.6529 207.051 -60.8356 207.209C-27.8645 207.449 -2.28973 200.414 20.2754 194.208C21.6267 193.835 22.9651 193.467 24.2905 193.105C29.5983 191.665 34.7397 190.303 39.5665 189.051C58.9077 184.083 79.6329 179.058 101.637 176.972C128.31 174.475 155.272 173.919 182.103 175.315C204.755 176.496 227.156 179.444 248.902 184.106C271.586 188.95 293.962 195.62 317.302 204.491C348.502 216.347 380.666 232.384 412.905 252.168C429.209 262.203 446.679 272.825 465.206 282.695C507.669 305.317 548.326 320.852 589.502 330.183C604.867 333.657 620.48 336.546 636.277 338.839C656.035 341.677 675.353 343.579 693.698 344.496C724.565 346.038 757.402 346.829 789.705 338.303C806.702 333.815 821.084 326.852 833.677 317.013C856.107 299.486 870.068 275.581 882.387 254.491C888.584 243.878 894.439 233.855 900.898 225.31C903.23 222.229 905.574 219.041 907.843 215.958C914.938 206.318 922.273 196.348 930.96 187.038C941.008 176.192 952.061 167.197 963.812 160.303C977.31 152.383 991.371 147.492 1005.6 145.769C1014.49 144.693 1023.55 144.519 1033.28 145.239C1060.47 147.255 1088.09 157.217 1113.89 167.68C1137.71 177.342 1161.24 190.179 1181.91 204.804C1204.91 221.021 1226.1 240.333 1244.89 262.192C1261.69 281.74 1276.53 303.237 1288.98 326.086L1288.39 326.249C1261.92 277.673 1224.95 235.786 1181.46 205.118C1160.83 190.523 1137.35 177.712 1113.58 168.066C1087.84 157.626 1060.29 147.69 1033.21 145.687C1023.54 144.97 1014.54 145.142 1005.7 146.212C979.426 149.396 953.067 163.983 931.477 187.288C922.813 196.58 915.481 206.537 908.392 216.168C906.124 219.25 903.78 222.438 901.445 225.524C895.002 234.049 889.154 244.063 882.961 254.664C870.622 275.79 856.639 299.732 834.135 317.316C821.474 327.209 807.003 334.211 789.917 338.723C775.085 342.637 759.082 344.903 740.997 345.649C736.109 345.853 731.239 345.936 726.444 345.936Z" fill="#FDFCFC"/>
<path d="M749.392 347.693H748.895C732.465 347.664 716.334 346.234 701.218 344.774C682.878 343 663.538 340.211 643.741 336.483C627.985 333.492 612.452 329.936 597.202 325.828C557.607 315.148 518.603 298.649 474.451 273.907C458.55 264.999 442.903 255.406 427.771 246.132L422.089 242.65C389.713 222.895 356.479 207.659 323.294 197.37C277.851 183.277 232.021 177.471 183.184 179.62C156.065 180.839 129.183 183.96 102.928 188.938C82.6355 192.819 64.5369 199.045 42.9954 206.777C38.627 208.35 33.9666 210.051 28.3259 212.128L28.0113 212.245C17.122 216.275 4.78949 220.843 -9.04782 224.325C-24.9371 228.315 -40.3522 230.235 -56.1595 230.214C-80.8108 230.17 -105.964 226.905 -130.289 223.749C-136.249 222.976 -142.412 222.176 -148.363 221.453C-165.428 219.382 -179.875 218.336 -192.526 218.258C-239.111 217.967 -280.612 222.875 -306.385 231.718L-306.684 231.281C-294.059 226.944 -277.03 223.425 -257.436 221.103C-237.805 218.774 -215.358 217.62 -192.519 217.764C-179.831 217.842 -165.349 218.899 -148.246 220.967C-142.291 221.688 -136.126 222.489 -130.164 223.263C-105.868 226.416 -80.7447 229.675 -56.1549 229.719H-55.8266C-20.653 229.719 6.14383 219.793 27.6898 211.812L28.0067 211.695C33.6497 209.62 38.3123 207.919 42.6808 206.344C64.2587 198.594 82.3824 192.359 102.745 188.466C129.046 183.479 155.976 180.352 183.142 179.132C207.041 178.081 229.584 178.882 252.062 181.584C276.287 184.503 299.676 189.511 323.568 196.92C356.817 207.229 390.114 222.491 422.536 242.279L428.22 245.759C443.345 255.032 458.988 264.619 474.878 273.521C518.973 298.232 557.92 314.711 597.448 325.371C612.677 329.473 628.188 333.024 643.921 336.011C663.689 339.731 683.001 342.517 701.314 344.289C734.116 347.463 766.23 349.665 798.442 341.857C815.925 337.619 830.405 330.61 842.712 320.433C864.942 302.049 877.086 276.573 887.802 254.096C892.818 243.573 897.555 233.632 902.9 225.279C904.952 222.065 907.02 218.74 909.015 215.524C915.253 205.47 921.703 195.075 929.612 185.273C938.716 173.907 949.004 164.294 960.192 156.703C972.944 148.049 986.532 142.289 1000.58 139.584C1009.29 137.907 1018.18 137.09 1027.74 137.09H1028.36C1058.06 137.198 1088.62 146.796 1111.93 155.146C1136.77 164.039 1161.1 176.424 1182.3 190.957C1205.93 207.103 1227.29 226.602 1245.78 248.915C1262.38 268.936 1276.47 290.939 1287.67 314.309L1287.02 314.471C1270.36 279.696 1238.59 230.102 1181.83 191.313C1160.67 176.811 1136.4 164.457 1111.63 155.585C1088.37 147.259 1057.91 137.69 1028.36 137.584C1018.63 137.544 1009.6 138.358 1000.77 140.059C974.736 145.072 949.678 161.217 930.212 185.521C922.321 195.3 915.877 205.686 909.646 215.727C907.651 218.944 905.588 222.271 903.529 225.486C898.198 233.819 893.465 243.746 888.456 254.258C877.722 276.777 865.556 302.301 843.237 320.757C830.849 331.003 816.271 338.057 798.67 342.325C783.745 345.934 767.62 347.693 749.392 347.693Z" fill="#FDFCFC"/>
<path d="M767.639 349.975C764.1 349.975 760.481 349.894 756.781 349.732C740.575 349.023 724.825 346.897 708.774 344.595C690.164 341.925 671.382 338.354 651.318 333.677C635.454 329.948 619.897 325.692 605.077 321.028C567.487 309.235 530.163 291.875 484.059 264.741C472.609 258.003 461.164 250.936 450.087 244.1C444.061 240.37 437.832 236.532 431.663 232.775C398.908 212.886 364.555 198.44 329.564 189.836C283.328 178.464 235.806 176.376 184.285 183.47C157.062 187.213 129.337 193.085 104.097 200.451C83.8235 206.367 66.1627 214.675 47.4621 223.479L46.1693 224.087C43.2479 225.466 40.2946 226.862 37.3093 228.278L32.1063 230.741C21.2011 235.93 9.42715 241.334 -4.07959 245.498C-19.7569 250.331 -35.2677 252.708 -51.5036 252.767C-78.5216 252.859 -106.08 248.388 -132.726 244.071C-136.532 243.455 -140.465 242.816 -144.284 242.211C-162.188 239.373 -176.306 237.738 -188.712 237.069C-234.499 234.592 -277.709 236.337 -307.272 241.858L-307.461 241.348C-277.821 235.814 -234.526 234.062 -188.659 236.543C-176.217 237.216 -162.068 238.854 -144.129 241.697C-140.305 242.302 -136.377 242.941 -132.567 243.557C-106.244 247.827 -79.0346 252.241 -52.3745 252.241H-51.5127C-17.0277 252.118 7.51877 241.794 31.6822 230.305L36.8852 227.843C39.8766 226.427 42.8314 225.029 45.7498 223.651L47.0426 223.043C65.7728 214.232 83.4633 205.91 103.815 199.974C129.098 192.597 156.875 186.714 184.144 182.963C235.797 175.858 283.444 177.947 329.806 189.347C364.886 197.975 399.316 212.455 432.144 232.385C438.316 236.143 444.547 239.991 450.573 243.713C461.64 250.547 473.081 257.612 484.524 264.347C530.58 291.449 567.845 308.781 605.364 320.558C620.162 325.206 635.688 329.453 651.534 333.18C671.555 337.85 690.319 341.416 708.899 344.082C737.103 348.128 772.203 353.164 807.167 345.407C825.136 341.419 839.714 334.367 851.734 323.85C873.75 304.583 883.958 277.488 892.966 253.581C896.878 243.202 900.574 233.386 904.888 225.245C906.568 222.073 908.251 218.792 909.881 215.619C915.353 204.976 920.994 193.971 928.249 183.509C936.432 171.613 945.953 161.381 956.555 153.098C968.566 143.713 981.685 137.084 995.543 133.398C1004.51 131.022 1013.89 129.523 1023.42 128.941C1036.62 128.091 1050.68 129 1066.39 131.711C1079.7 133.996 1093.95 137.564 1109.97 142.604C1135.81 150.73 1160.96 162.661 1182.7 177.105C1206.96 193.175 1228.48 212.865 1246.68 235.63C1263.06 256.13 1276.41 278.637 1286.35 302.526L1285.64 302.676C1264.65 252.241 1227.91 207.783 1182.19 177.49C1160.52 163.086 1135.44 151.186 1109.68 143.086C1075.15 132.23 1047.78 127.9 1023.51 129.463C1014.04 130.041 1004.73 131.529 995.826 133.889C962.846 142.657 941.245 165.836 928.933 183.738C921.694 194.178 916.053 205.17 910.595 215.8C908.967 218.974 907.28 222.256 905.599 225.432C901.299 233.54 897.619 243.345 893.7 253.719C884.674 277.674 874.443 304.829 852.327 324.182C840.214 334.783 825.519 341.89 807.411 345.913C795.122 348.631 782.028 349.975 767.639 349.975Z" fill="#FDFCFC"/>
<path d="M783.446 352.598C759.335 352.598 736.155 348.192 716.323 344.424C697.664 340.879 678.881 336.448 658.901 330.881C643.126 326.454 627.665 321.532 612.964 316.253C568.88 300.45 529.58 277.763 493.679 255.602C486.346 251.078 478.943 246.414 471.791 241.904C461.848 235.641 451.567 229.166 441.266 222.93C408.015 202.834 372.552 189.175 335.864 182.321C288.401 173.456 239.192 175.095 185.411 187.336C157.725 193.638 130.023 202.16 105.299 211.985C86.2314 219.56 70.1004 229.122 53.0209 239.244L49.3729 241.401L48.7117 241.794C44.5598 244.257 40.2757 246.803 35.9118 249.359C25.483 255.508 13.9987 261.87 0.715393 266.732C-14.7042 272.374 -30.2493 275.187 -46.8112 275.327C-75.888 275.585 -105.521 269.771 -134.174 264.148C-136.182 263.755 -138.181 263.364 -140.173 262.974C-159.072 259.287 -172.854 257.101 -184.861 255.884C-229.498 251.366 -274.424 249.946 -308.117 251.992L-308.184 251.428C-274.44 249.381 -229.444 250.804 -184.749 255.328C-172.704 256.548 -158.889 258.734 -139.958 262.431L-133.957 263.607C-105.357 269.218 -75.7832 275.017 -46.818 274.764C-10.8465 274.44 14.4866 261.257 35.4079 248.919C39.7604 246.363 44.0536 243.817 48.2055 241.356L48.8667 240.963L52.5147 238.806C69.6147 228.666 85.7822 219.088 104.916 211.489C129.684 201.65 157.436 193.114 185.172 186.801C210.667 180.997 234.614 177.646 258.378 176.558C284.888 175.343 311.026 177.1 336.069 181.778C372.875 188.653 408.441 202.353 441.779 222.492C452.087 228.736 462.37 235.213 472.315 241.477C479.472 245.987 486.875 250.65 494.203 255.172C530.063 277.304 569.316 299.965 613.32 315.741C628.005 321.011 643.438 325.925 659.191 330.346C679.143 335.905 697.896 340.329 716.526 343.869C745.131 349.305 780.733 356.071 815.909 348.951C834.377 345.221 849.042 338.122 860.772 327.261C882.56 307.089 890.714 278.325 897.907 252.946C900.796 242.75 903.527 233.118 906.892 225.215C908.137 222.296 909.387 219.267 910.595 216.343C915.324 204.907 920.214 193.08 926.902 181.739C934.179 169.306 942.937 158.454 952.93 149.489C964.207 139.371 976.856 131.876 990.527 127.21C999.401 124.181 1008.81 122.021 1018.5 120.788C1031.9 119.048 1046.77 119.107 1062.68 120.962C1076.63 122.583 1091.87 125.65 1108 130.069C1134.85 137.427 1160.81 148.903 1183.08 163.259C1207.97 179.252 1229.66 199.135 1247.56 222.353C1263.73 243.331 1276.34 266.343 1285.03 290.749L1284.26 290.888C1265.84 239.168 1229.72 193.998 1182.55 163.672C1160.35 149.364 1134.47 137.925 1107.71 130.59C1073.03 121.085 1043.89 118.059 1018.64 121.346C1009.03 122.57 999.684 124.715 990.874 127.721C958.347 138.821 938.534 163.343 927.64 181.958C920.969 193.271 916.085 205.08 911.363 216.5C910.153 219.419 908.903 222.45 907.658 225.377C904.302 233.26 901.578 242.878 898.691 253.063C895.23 265.272 891.306 279.11 885.613 292.084C879.09 306.948 871.172 318.569 861.406 327.612C855.759 332.84 849.27 337.29 842.118 340.836C834.425 344.652 825.681 347.568 816.126 349.501C805.195 351.711 794.226 352.598 783.446 352.598Z" fill="#FDFCFC"/>
<path d="M797.698 355.465C789.718 355.465 781.376 354.913 772.552 353.812C755.178 351.643 738.548 347.71 723.874 344.244C705.379 339.866 686.069 334.43 666.48 328.075C650.805 322.961 635.451 317.371 620.843 311.464C578.921 294.52 542.803 271.995 503.293 246.447C499.782 244.177 496.225 241.859 492.766 239.62C479.191 230.799 465.151 221.679 450.849 213.061C417.052 192.742 380.483 179.869 342.159 174.803C293.823 168.412 241.451 173.927 186.531 191.193C158.35 200.054 130.671 211.224 106.503 223.499C88.2968 232.742 73.3104 243.637 57.4438 255.173C55.8266 256.338 54.2039 257.515 52.576 258.704C48.5222 261.646 44.1606 264.803 39.7191 267.964C30.4099 274.613 19.0646 282.192 5.5191 287.956C-9.6543 294.407 -25.2358 297.658 -42.1192 297.893C-73.0223 298.326 -104.479 291.048 -134.902 284.012L-136.062 283.743C-150.957 280.298 -166.714 276.82 -181.019 274.707C-224.622 268.267 -270.064 263.796 -308.973 262.117L-308.92 261.511C-269.973 263.191 -224.487 267.673 -180.846 274.11C-166.5 276.229 -150.716 279.714 -135.798 283.165L-134.637 283.433C-104.281 290.455 -72.8878 297.715 -42.1351 297.285C-6.62186 296.789 17.9064 282.69 39.1241 267.535C43.5609 264.375 47.9225 261.211 51.9741 258.277C53.602 257.099 55.2216 255.923 56.8328 254.75C72.7267 243.194 87.7405 232.278 106.006 223.006C130.224 210.702 157.951 199.512 186.186 190.632C211.95 182.523 237.306 176.95 261.545 174.044C289.238 170.724 316.413 170.776 342.314 174.206C380.787 179.291 417.49 192.207 451.403 212.596C465.717 221.222 479.761 230.347 493.355 239.171C496.802 241.412 500.368 243.728 503.879 245.996C543.353 271.52 579.432 294.022 621.279 310.935C635.871 316.835 651.195 322.415 666.847 327.522C686.407 333.869 705.689 339.3 724.155 343.667C753.111 350.514 789.135 359.034 824.661 352.507C843.608 349.025 858.378 341.888 869.806 330.686C891.354 309.579 897.59 277.765 902.599 252.196C904.55 242.24 906.395 232.836 908.894 225.18C909.68 222.767 910.476 220.281 911.242 217.883C915.234 205.396 919.361 192.469 925.554 179.976C935.114 160.529 953.269 134.52 985.502 121.023C994.278 117.333 1003.72 114.511 1013.57 112.635C1039.7 107.548 1070.81 109.194 1106.03 117.525C1133.89 124.114 1160.67 135.131 1183.48 149.402C1208.99 165.321 1230.85 185.404 1248.46 209.069C1256.69 220.181 1263.77 231.702 1269.66 243.541C1275.43 255.117 1280.13 266.951 1283.72 278.965L1282.88 279.092C1267.04 226.092 1231.54 180.196 1182.92 149.859C1160.19 135.647 1133.51 124.667 1105.76 118.102C1070.7 109.81 1039.76 108.168 1013.79 113.222C1004.02 115.083 994.646 117.884 985.935 121.546C953.931 134.95 935.873 160.825 926.365 180.172C920.189 192.635 916.067 205.535 912.081 218.012C911.313 220.419 910.519 222.905 909.731 225.32C907.241 232.942 905.399 242.339 903.451 252.282C900.93 265.145 898.073 279.726 893.191 293.484C887.58 309.295 880.159 321.58 870.503 331.037C864.995 336.433 858.554 340.983 851.351 344.561C843.599 348.417 834.689 351.286 824.865 353.091C816.242 354.674 807.242 355.465 797.698 355.465Z" fill="#FDFCFC"/>
<path d="M810.83 358.498C801.277 358.498 791.202 357.616 780.438 355.852C763 352.993 746.224 348.248 731.418 344.061C712.781 338.792 693.481 332.467 674.051 325.265C658.478 319.469 643.225 313.211 628.715 306.668C588.79 288.667 554.544 265.487 518.288 240.936L512.898 237.287C496.04 225.883 478.604 214.097 460.433 203.194C426.046 182.617 388.369 170.532 348.448 167.276C298.302 163.184 244.2 172.525 187.64 195.039C159.352 206.3 130.955 220.499 107.678 235.007C90.1038 245.965 76.0088 258.294 61.0862 271.349C59.3215 272.894 57.5469 274.444 55.7625 275.998C52.1988 279.107 47.9534 282.793 43.512 286.564C35.288 293.564 24.0773 302.456 10.2924 309.154C-4.63705 316.404 -20.2596 320.1 -37.4554 320.449C-51.5914 320.7 -67.1911 319.151 -85.1461 315.704C-100.564 312.746 -115.47 308.88 -131.982 304.5C-147.046 300.455 -162.944 296.274 -177.208 293.514C-219.456 285.339 -264.076 278.178 -309.852 272.231L-309.687 271.592C-263.896 277.544 -219.242 284.708 -176.969 292.888C-162.666 295.656 -146.743 299.842 -131.66 303.893C-103.999 311.234 -69.5737 320.374 -37.4805 319.802C-0.772461 319.054 22.7959 303.186 42.812 286.147C47.2512 282.38 51.492 278.687 55.0556 275.588C56.8401 274.035 58.6147 272.485 60.3794 270.94C75.3271 257.865 89.4449 245.514 107.076 234.521C130.398 219.977 158.853 205.757 187.195 194.473C243.924 171.891 298.213 162.526 348.551 166.63C367.99 168.231 386.983 171.893 404.897 177.496C424.302 183.543 443.185 192.021 461.019 202.695C479.213 213.604 496.657 225.399 513.527 236.815L518.917 240.462C555.139 264.99 589.353 288.158 629.205 306.116C643.692 312.65 658.923 318.898 674.472 324.688C693.875 331.878 713.148 338.193 731.753 343.456C760.998 351.726 797.392 362.019 833.381 356.048C852.875 352.814 867.741 345.634 878.829 334.097C900.183 312.061 903.989 278.4 907.046 251.354C908.138 241.679 909.173 232.542 910.886 225.154C911.238 223.629 911.592 222.097 911.946 220.556C915.138 206.639 918.448 192.25 924.196 178.206C932.404 158.006 948.82 130.616 980.467 114.84C989.147 110.493 998.623 107.01 1008.63 104.487C1022.7 100.889 1038.38 99.1974 1055.23 99.4601C1070.62 99.6969 1087.04 101.557 1104.05 104.987C1132.93 110.807 1160.52 121.376 1183.87 135.552C1210.01 151.393 1232.04 171.661 1249.34 195.79C1257.43 207.121 1264.26 218.885 1269.77 230.974C1275.19 242.817 1279.41 254.921 1282.4 267.191L1281.5 267.303C1268.45 213.802 1232.64 165.962 1183.27 136.05C1160.02 121.942 1132.55 111.41 1103.81 105.616C1068.38 98.4709 1035.57 98.2957 1008.94 105.107C999.01 107.611 989.609 111.067 980.993 115.379C949.566 131.046 933.239 158.295 925.076 178.394C919.344 192.402 916.043 206.774 912.851 220.668C912.495 222.21 912.142 223.743 911.791 225.267C910.083 232.63 909.055 241.753 907.96 251.414C904.894 278.538 901.077 312.295 879.583 334.472C874.239 340.034 867.848 344.688 860.591 348.301C852.78 352.193 843.696 355.012 833.591 356.689C826.127 357.911 818.49 358.519 810.83 358.498Z" fill="#FDFCFC"/>
<path d="M823.169 361.654C812.284 361.654 800.752 360.404 788.324 357.889C770.74 354.332 753.859 348.778 738.966 343.879C720.147 337.686 700.856 330.479 681.631 322.456C666.171 315.986 651.02 309.061 636.596 301.874C601.081 284.185 570.727 262.514 538.591 239.57C533.347 235.821 527.907 231.949 522.514 228.131C503.568 214.736 487.389 203.691 470.022 193.33C435.024 172.48 396.241 161.181 354.75 159.748C302.608 157.946 246.762 171.114 188.766 198.886C159.949 212.683 131.579 229.597 108.877 246.516C91.7769 259.261 78.4046 273.135 64.2504 287.822C62.4978 289.642 60.7361 291.466 58.9654 293.295C55.8076 296.557 51.6329 300.854 47.3191 305.164C29.168 323.34 5.47198 342.058 -32.7727 343.01C-33.9652 343.036 -35.1622 343.05 -36.3569 343.05C-66.2249 343.05 -96.6994 334.645 -127.885 325.259L-129.83 324.668C-145.279 319.979 -159.869 315.55 -173.378 312.326C-224.281 300.176 -273.509 289.921 -310.707 282.344L-310.44 281.681C-273.231 289.261 -223.992 299.519 -173.07 311.672C-159.527 314.904 -144.919 319.34 -129.452 324.034L-127.507 324.625C-95.1809 334.355 -63.6097 343.031 -32.8069 342.32C5.00458 341.373 28.5251 322.803 46.5211 304.764C50.8303 300.458 55.0027 296.169 58.1491 292.904C59.9214 291.077 61.6823 289.253 63.4319 287.431C77.6089 272.721 91.0016 258.825 108.159 246.039C130.906 229.088 159.333 212.138 188.205 198.315C215.015 185.484 241.821 175.631 267.9 169.024C297.811 161.449 327.052 158.094 354.807 159.054C396.515 160.494 435.494 171.846 470.656 192.795C488.05 203.173 504.245 214.228 523.21 227.635C528.602 231.449 534.035 235.327 539.288 239.077C571.393 261.998 601.717 283.648 637.164 301.303C651.565 308.479 666.695 315.394 682.133 321.856C701.33 329.868 720.594 337.063 739.386 343.246C768.884 352.952 805.597 365.031 842.134 359.593C862.109 356.62 877.068 349.397 887.873 337.511C908.958 314.471 910.217 278.916 911.248 250.347C911.581 241.025 911.895 232.219 912.901 225.126L912.923 224.964C915.181 209.071 917.513 192.649 922.86 176.44C927.49 162.302 933.941 149.59 942.028 138.655C951.148 126.33 962.393 116.235 975.452 108.653C984.035 103.646 993.542 99.4987 1003.71 96.3286C1031.47 87.5894 1065.5 86.2401 1102.1 92.4366C1117.05 94.9861 1131.54 98.7487 1145.29 103.651C1159.21 108.587 1172.29 114.639 1184.28 121.689C1211.06 137.453 1233.25 157.912 1250.25 182.502C1265.53 204.6 1276.2 229.808 1281.1 255.401L1280.14 255.494C1269.65 200.72 1234.49 152.144 1183.66 122.222C1159.87 108.211 1131.59 98.1433 1101.86 93.1177C1065.47 86.9666 1031.66 88.2964 1004.09 96.9757C993.998 100.119 984.562 104.231 976.043 109.197C951.658 123.352 933.587 146.658 923.781 176.602C918.448 192.769 916.118 209.175 913.865 225.04L913.842 225.202C912.839 232.271 912.524 241.064 912.194 250.373C911.17 279.029 909.898 314.692 888.662 337.895C883.454 343.624 877.109 348.379 869.809 352.025C861.936 355.956 852.683 358.732 842.31 360.276C836.013 361.204 829.599 361.666 823.169 361.654Z" fill="#FDFCFC"/>
<path d="M-32.0632 365.626C-45.4171 365.626 -59.9544 363.776 -76.3636 359.997C-92.6678 356.243 -108.792 351.06 -123.788 346.02C-126.504 345.102 -129.2 344.187 -131.875 343.276C-145.199 338.747 -157.782 334.469 -169.547 331.138C-216.449 317.853 -261.155 305.915 -304.389 294.371L-311.555 292.457L-311.194 291.774L-304.028 293.688C-260.79 305.233 -216.08 317.173 -169.166 330.46C-157.372 333.8 -144.77 338.082 -131.432 342.622C-128.757 343.532 -126.062 344.446 -123.348 345.365C-92.5675 355.713 -59.8541 365.739 -28.1302 364.846C10.8578 363.691 34.2346 342.084 50.238 323.391C54.342 318.608 58.2841 313.846 61.2663 310.229C62.9125 308.234 64.5496 306.244 66.1775 304.258C79.6979 287.79 92.4681 272.235 109.269 257.568C131.431 238.205 159.831 218.529 189.243 202.158C216.525 186.97 244.056 174.969 271.074 166.493C302.064 156.763 332.333 151.721 361.041 151.492C404.238 151.035 444.359 161.603 480.285 182.906C500.194 194.728 518.044 207.516 532.88 218.469C540.953 224.429 549.029 230.538 556.836 236.446C584.476 257.365 613.058 278.986 645.115 296.502C659.433 304.328 674.461 311.908 689.783 319.043C708.741 327.844 727.993 335.923 747.011 343.055C776.73 354.203 813.719 368.078 850.88 363.153C871.334 360.443 886.389 353.178 896.907 340.936C917.714 316.852 916.31 279.349 915.181 249.215C914.846 240.296 914.531 231.886 914.91 225.109C915.767 209.831 917.053 192.075 921.522 174.684C925.279 159.948 930.959 146.616 938.394 135.06C946.807 121.987 957.587 111.028 970.432 102.485C978.929 96.8323 988.466 92.0276 998.782 88.2026C1013.48 82.7359 1029.97 79.2995 1047.8 77.986C1064.5 76.7584 1082.1 77.4038 1100.13 79.9028C1131.06 84.2445 1160.06 93.8284 1184.67 107.841C1198.62 115.83 1211.46 125.263 1222.81 135.88C1233.56 145.935 1243.1 157.158 1251.14 169.224C1266.19 191.796 1276.1 217.524 1279.79 243.627L1278.77 243.7C1270.85 187.649 1236.32 138.339 1184.02 108.41C1160.07 94.6877 1130.21 84.8181 1099.93 80.6196C1062.5 75.4302 1027.69 78.273 999.256 88.8448C989.016 92.6417 979.548 97.4109 971.114 103.022C946.91 119.118 930.557 143.275 922.509 174.818C918.058 192.17 916.773 209.887 915.92 225.141C915.541 231.894 915.856 240.299 916.191 249.199C916.747 264.065 917.379 280.916 915.261 297.201C912.805 316.103 907.083 330.534 897.766 341.31C892.693 347.212 886.398 352.067 879.052 355.743C871.115 359.716 861.697 362.446 851.054 363.852C845.753 364.547 840.374 364.893 834.984 364.886C803.048 364.886 772.102 353.278 746.52 343.681C727.478 336.546 708.196 328.447 689.213 319.633C673.868 312.498 658.82 304.904 644.479 297.066C612.358 279.514 583.749 257.867 556.079 236.931C548.274 231.024 540.201 224.917 532.139 218.961C517.319 208.022 499.496 195.252 479.626 183.446C443.905 162.258 404.016 151.75 361.066 152.201C293.607 152.739 230.743 179.966 189.886 202.713C160.515 219.073 132.179 238.708 110.058 258.024C93.3117 272.647 80.562 288.177 67.0621 304.621C65.4327 306.608 63.7949 308.599 62.1487 310.594C59.1642 314.212 55.213 318.98 51.1112 323.765C44.3943 331.613 33.8494 343.034 19.8752 351.598C13.0922 355.755 5.87375 359.024 -1.57956 361.311C-9.9744 363.876 -18.9614 365.321 -28.0914 365.572C-29.4047 365.607 -30.7286 365.625 -32.0632 365.626Z" fill="#FDFCFC"/>
<path d="M-27.7756 388.205C-41.1432 388.205 -55.6532 386.213 -71.9757 382.146C-88.875 377.93 -105.583 372.015 -119.698 366.78C-124.03 365.169 -128.362 363.537 -132.548 361.953C-144.249 357.532 -155.303 353.358 -165.725 349.952C-203.149 337.708 -240.333 325.753 -276.293 314.192C-288.186 310.369 -300.486 306.408 -312.406 302.575L-311.95 301.872C-300.03 305.713 -287.732 309.666 -275.837 313.49C-239.877 325.053 -202.69 337.005 -165.257 349.252C-154.808 352.67 -143.741 356.849 -132.026 361.275C-127.843 362.856 -123.515 364.489 -119.183 366.101C-89.9125 376.957 -55.961 388.448 -23.4505 387.366C16.4518 386.007 38.8733 362.412 53.9464 342.008C57.811 336.781 61.5479 331.533 64.3706 327.545C65.8192 325.499 67.2632 323.454 68.7026 321.412C81.6279 303.064 93.8441 285.732 110.356 269.084C131.833 247.437 160.21 225.034 190.263 206C232.112 179.609 296.794 147.415 367.275 143.922C412.103 141.642 453.357 151.427 489.894 173.009C506.31 182.708 522.543 193.899 542.534 209.292C552.639 217.076 562.662 225.134 572.359 232.93C597.581 253.212 623.659 274.185 653.046 291.692C667.285 300.173 682.212 308.422 697.415 316.21C715.824 325.63 735.069 334.592 754.613 342.846C784.634 355.448 821.996 371.133 859.605 366.695C880.225 364.311 895.809 356.794 905.921 344.356C926.441 319.182 922.038 277.998 918.821 247.926C917.909 239.493 917.068 231.517 916.899 225.087C916.525 210.797 916.555 191.953 920.153 172.924C926.356 139.946 941.585 114.169 965.388 96.3076C973.777 89.9904 983.346 84.5233 993.828 80.06C1008.8 73.6624 1025.7 69.3568 1044.05 67.2746C1061.34 65.3091 1079.54 65.3399 1098.14 67.367C1113.92 69.1328 1129.32 72.2958 1144 76.7825C1158.67 81.2339 1172.46 87.0179 1185.04 93.9902C1199.31 101.937 1212.35 111.399 1223.79 122.126C1234.63 132.291 1244.13 143.671 1252.02 155.945C1266.84 178.993 1275.98 205.244 1278.45 231.853L1277.37 231.903C1272.05 174.573 1238.16 124.527 1184.37 94.5968C1159.99 81.0184 1129.31 71.6175 1097.97 68.1276C1059.35 63.9112 1023.53 68.2736 994.392 80.72C983.994 85.1479 974.501 90.5713 966.179 96.8379C942.526 114.579 927.403 140.212 921.229 173.026C917.645 192 917.613 210.812 917.987 225.073C918.153 231.48 919.006 239.441 919.906 247.869C921.568 263.413 923.452 281.031 922.373 298.233C921.119 318.263 916.044 333.476 906.869 344.742C901.929 350.818 895.679 355.781 888.297 359.491C880.292 363.514 870.699 366.193 859.797 367.455C842.879 369.451 824.671 367.656 804.13 361.969C786.276 357.024 769.171 349.845 754.077 343.509C734.506 335.239 715.233 326.269 696.797 316.836C681.573 309.037 666.623 300.781 652.367 292.282C622.92 274.74 596.812 253.744 571.563 233.441C561.871 225.647 551.851 217.589 541.755 209.814C521.798 194.447 505.594 183.279 489.219 173.6C452.887 152.16 411.893 142.43 367.353 144.7C297.172 148.177 232.705 180.274 190.981 206.586C160.99 225.582 132.673 247.938 111.241 269.538C94.7767 286.134 82.5787 303.441 69.667 321.756C68.2291 323.798 66.7851 325.843 65.335 327.889C62.5101 331.882 58.7709 337.133 54.9018 342.364C39.6942 362.948 17.0537 386.753 -23.414 388.132C-24.8534 388.18 -26.3073 388.205 -27.7756 388.205Z" fill="#FDFCFC"/>
<path d="M-23.4044 410.783C-59.93 410.783 -98.2522 394.827 -132.229 380.681C-142.669 376.334 -152.521 372.229 -161.903 368.757L-313.254 312.682L-312.727 311.964L-161.376 368.037C-151.98 371.519 -142.106 375.63 -131.654 379.981C-96.3643 394.673 -56.3686 411.326 -18.7942 409.885C22.0018 408.318 43.4931 382.739 57.6588 360.629C62.2917 353.4 66.7673 346.034 71.0948 338.924C82.928 319.464 95.167 299.341 111.451 280.614C124.383 265.743 140.45 250.147 157.908 235.514C177.06 219.46 197.569 204.732 218.859 191.739C242.332 177.414 266.199 165.565 289.795 156.522C315.894 146.518 341.608 139.981 366.22 137.111C415.53 131.346 460.384 140.095 499.516 163.118C532.038 182.253 559.681 205.906 586.414 228.783C609.683 248.697 633.744 269.289 660.992 286.89C692.646 307.321 726.493 325.964 762.224 342.65C792.32 356.697 829.753 374.177 868.34 370.247C900.933 366.931 919.775 351.42 925.944 322.829C931.188 298.504 926.202 269.664 922.189 246.484C920.821 238.584 919.531 231.123 918.897 225.077C915.399 191.723 917.629 164.188 925.714 140.902C930.757 126.375 938.199 113.424 947.83 102.41C958.592 90.1077 972.406 79.8521 988.888 71.9221C1003.15 65.0672 1019.22 60.0838 1036.66 57.1258C1053.26 54.3041 1070.74 53.3587 1088.61 54.3155C1123.76 56.1966 1158.14 65.3689 1185.42 80.1408C1200.01 88.0368 1213.23 97.5366 1224.77 108.373C1235.7 118.644 1245.16 130.184 1252.9 142.67C1267.5 166.184 1275.86 192.961 1277.13 220.081L1275.99 220.108C1273.3 162.359 1239.18 110.275 1184.73 80.7879C1126.9 49.4715 1044.81 46.027 989.531 72.5967C934.775 98.9167 912.043 148.772 920.039 225.012C920.671 231.044 921.961 238.495 923.327 246.385C927.346 269.614 932.349 298.523 927.078 322.953C924.205 336.25 918.432 346.953 909.918 354.738C905.238 359.048 899.409 362.66 892.763 365.366C885.743 368.214 877.583 370.127 868.507 371.05C864.757 371.43 860.974 371.62 857.186 371.618C843.203 371.618 828.31 369.102 811.99 364.007C793.602 358.266 775.861 349.984 761.602 343.327C725.818 326.619 691.921 307.95 660.222 287.49C632.916 269.85 608.828 249.237 585.536 229.302C558.835 206.452 531.226 182.824 498.786 163.742C459.912 140.876 415.373 132.184 366.403 137.91C267.346 149.492 165.307 220.224 112.411 281.04C96.168 299.717 83.9471 319.813 72.1276 339.247C67.7956 346.366 63.3223 353.729 58.6756 360.966C49.2706 375.644 39.9796 386.155 29.4438 394.038C22.866 398.959 15.7296 402.837 8.23978 405.566C-0.145996 408.611 -9.34296 410.358 -18.7463 410.694C-20.2906 410.754 -21.8433 410.784 -23.4044 410.783Z" fill="#FDFCFC"/>
</g>
</g>
</svg>
