<svg width="1140" height="215" viewBox="0 0 1140 215" fill="none" xmlns="http://www.w3.org/2000/svg">
<mask id="mask0_88648_1397" style="mask-type:luminance" maskUnits="userSpaceOnUse" x="0" y="-273" width="1140" height="488">
<path d="M1140 -272.283H0V214.222H1140V-272.283Z" fill="white"/>
</mask>
<g mask="url(#mask0_88648_1397)">
<path d="M318.147 179.347C312.404 179.355 306.67 179.025 301.003 178.359C289.442 176.981 278.757 174.151 269.252 169.947C259.035 165.431 250.075 159.277 242.619 151.656C227.628 136.34 220.13 117.997 212.879 100.249C211.454 96.7657 209.981 93.1639 208.486 89.6692C198.278 65.8498 185.344 44.9852 168.939 25.8834C136.214 -12.2262 90.1924 -44.741 35.844 -68.1598C-27.0042 -95.2419 -94.572 -108.733 -154.433 -106.145C-189.612 -104.625 -236.092 -90.1612 -256.865 -65.458C-269.193 -50.798 -270.187 -34.5309 -259.737 -18.4129L-259.945 -18.3448C-265.417 -26.797 -267.811 -35.2704 -267.038 -43.5296C-266.329 -51.1061 -262.973 -58.5124 -257.061 -65.5424C-247.658 -76.732 -232.152 -86.634 -212.218 -94.2008C-193.8 -101.193 -173.282 -105.493 -154.447 -106.307C-123.124 -107.659 -89.8137 -104.657 -55.4335 -97.3874C-24.2705 -90.792 6.47986 -81.0084 35.9626 -68.3025C90.3405 -44.8578 136.39 -12.3267 169.133 25.8072C185.549 44.922 198.492 65.7979 208.702 89.6302C210.2 93.1266 211.666 96.7284 213.098 100.213C220.344 117.938 227.838 136.268 242.806 151.564C257.282 166.357 276.874 175.319 301.04 178.199C334.506 182.19 375.14 173.844 409.746 155.879C459.612 129.989 494.217 92.3093 527.683 55.8619C533.55 49.4741 539.615 42.869 545.62 36.4909C561.211 19.9286 582.328 -1.5328 607.408 -20.6525C633.058 -40.1954 659.123 -54.5538 687.096 -64.5499C704.052 -70.6294 722.252 -74.7644 741.023 -76.8017C758.262 -78.6585 776.509 -78.7753 795.257 -77.1471C827.417 -74.353 862.061 -66.4602 901.179 -53.0181C978.198 -26.5506 1055.13 5.57505 1129.85 42.4684C1200.87 77.5357 1270.53 117.214 1336.86 160.402L1336.71 160.521C1199.18 71.0036 1052.61 -0.799805 901.079 -52.8721C815.472 -82.2911 747.509 -85.9545 687.199 -64.4039C625.842 -42.4787 582.978 -2.91125 545.8 36.58C539.797 42.9581 533.732 49.5633 527.866 55.9495C494.388 92.405 459.771 130.103 409.871 156.007C393.747 164.38 375.607 170.911 357.417 174.894C347.807 177.002 338.252 178.372 329.018 178.98C325.349 179.225 321.725 179.347 318.147 179.347Z" fill="#FDFCFC"/>
<path d="M323.904 170.264C308.874 170.264 294.948 168.229 282.511 164.212C268.637 159.733 256.662 152.792 246.925 143.583C246.063 142.772 245.208 141.924 244.382 141.076C229.562 125.832 221.724 107.721 214.15 90.2114C212.617 86.6729 211.035 83.0127 209.428 79.4612C199.87 58.3145 188.356 39.6765 174.231 22.485C172.492 20.3687 170.69 18.2475 168.873 16.1815C135.667 -21.6038 89.2717 -53.7035 34.7021 -76.6714C-28.5998 -103.291 -96.3682 -116.224 -156.113 -113.086C-191.036 -111.234 -237.302 -96.5322 -258.164 -72.0204C-270.656 -57.3425 -272.072 -41.0462 -262.268 -24.878L-262.475 -24.8131C-267.621 -33.2848 -269.733 -41.7743 -268.757 -50.0433C-267.858 -57.6377 -264.365 -65.0617 -258.369 -72.0982C-248.871 -83.2603 -233.412 -93.1802 -213.663 -100.789C-195.411 -107.819 -174.985 -112.241 -156.143 -113.242C-124.857 -114.885 -91.5095 -112.17 -57.0222 -105.174C-25.7862 -98.8366 5.1123 -89.2914 34.807 -76.8044C89.4085 -53.8235 135.829 -21.6962 169.056 16.102C170.88 18.1696 172.676 20.2908 174.416 22.4087C188.552 39.6116 200.071 58.2593 209.633 79.4191C211.229 82.9706 212.825 86.6307 214.355 90.1709C221.924 107.667 229.752 125.76 244.558 140.99C245.383 141.836 246.236 142.679 247.096 143.492C267.223 162.526 294.88 170.269 323.963 170.269H323.893L323.904 170.264ZM330.108 170.151C357.147 169.163 385.056 161.773 408.982 150.78C460.611 126.967 497.72 90.1919 533.607 54.6268C535.085 53.1608 536.562 51.6969 538.04 50.2352C541.284 47.0227 545.13 43.2231 549.059 39.391C566.672 22.2012 587.987 2.21064 612.536 -15.7884C638.656 -34.9389 664.748 -49.1498 692.309 -59.2334C709.054 -65.3774 726.974 -69.7439 745.499 -72.1939C762.512 -74.427 780.488 -75.0594 798.926 -74.0702C830.782 -72.3626 865.032 -65.8888 903.635 -54.2856C941.276 -42.9825 972.215 -32.3426 1001 -20.8011C1041.79 -4.43504 1080.64 14.4203 1113.26 30.7069C1189.11 68.6819 1263.53 111.801 1334.45 158.867L1334.3 158.985C1263.38 111.924 1188.97 68.81 1113.14 30.8399C1080.52 14.5549 1041.67 -4.29881 1000.9 -20.66C972.117 -32.1983 941.185 -42.8349 903.544 -54.1364C819.446 -79.4347 752.357 -81.0078 692.416 -59.0988C630.193 -36.3271 585.89 3.72854 549.253 39.4867C545.326 43.3187 541.48 47.1183 538.236 50.3293L533.803 54.7208C497.905 90.2973 460.784 127.087 409.117 150.916C396.484 156.738 382.87 161.405 368.597 164.806C355.482 167.908 342.566 169.7 330.108 170.151Z" fill="#FDFCFC"/>
<path d="M330.258 161.388C328.451 161.388 326.654 161.36 324.868 161.304C309.852 160.832 295.956 158.385 283.566 154.018C270.016 149.245 258.276 142.18 248.682 133.006C247.829 132.195 246.979 131.344 246.158 130.492C231.489 115.316 223.331 97.4616 215.442 80.181C213.798 76.5808 212.097 72.8574 210.376 69.2443C200.344 48.1624 188.529 29.6752 174.252 12.7188C172.487 10.622 170.656 8.51869 168.814 6.46888C135.125 -30.9758 88.3572 -62.6749 33.5642 -85.192C-30.1914 -111.351 -98.1491 -123.727 -157.789 -120.037C-191.369 -117.929 -237.5 -104.065 -259.434 -78.6177C-272.106 -63.9155 -273.951 -47.5722 -264.769 -31.3521L-264.981 -31.2904C-269.79 -39.7881 -271.627 -48.2971 -270.453 -56.5887C-269.363 -64.2106 -265.725 -71.6493 -259.639 -78.7101C-250.043 -89.8446 -234.63 -99.771 -215.072 -107.414C-196.992 -114.478 -176.661 -119.022 -157.821 -120.206C-126.585 -122.137 -93.1878 -119.711 -58.5934 -112.994C-27.2799 -106.913 3.76233 -97.6093 33.6668 -85.3396C88.4894 -62.8079 135.286 -31.0942 168.994 6.37481C170.838 8.42624 172.669 10.5296 174.436 12.6297C188.72 29.599 200.542 48.0992 210.581 69.1859C212.303 72.799 214.001 76.5241 215.65 80.1242C223.532 97.3871 231.685 115.237 246.327 130.396C247.148 131.245 247.996 132.088 248.835 132.904C287.848 170.167 356.987 166.166 408.207 145.673C461.995 123.96 501.965 87.8743 540.62 52.9756L541.017 52.6172C544.761 49.2343 548.632 45.738 552.485 42.2854C593.147 5.86075 637.837 -31.571 697.505 -53.9243C714.048 -60.1331 731.69 -64.7307 749.956 -67.5935C766.748 -70.2044 784.453 -71.3509 802.579 -70.999C834.177 -70.3877 868.031 -65.3231 906.075 -55.5411C946.054 -45.2872 976.144 -35.8604 1003.63 -24.9772C1042.79 -9.43986 1080.73 10.1939 1114.21 27.5167C1188.73 66.2928 1262.02 109.973 1332.03 157.346L1331.87 157.462C1261.88 110.096 1188.59 66.4193 1114.07 27.6465C1080.61 10.3269 1042.68 -9.30364 1003.53 -24.8361C976.068 -35.7112 945.972 -45.1348 906.011 -55.3855C823.545 -76.6084 757.33 -76.0976 697.619 -53.7767C637.99 -31.4364 593.318 5.98075 552.675 42.3892C548.821 45.8418 544.95 49.3381 541.206 52.721L540.807 53.0793C521.546 70.4703 501.625 88.4532 480.116 104.514C455.948 122.565 432.464 136.076 408.33 145.817C383.081 155.923 355.578 161.388 330.258 161.388Z" fill="#FDFCFC"/>
<path d="M1329.47 155.937C1260.37 108.26 1188.22 64.0282 1115.04 24.4526C1111.94 22.7887 1108.83 21.1179 1105.72 19.44C1074.02 2.37657 1041.24 -15.2641 1006.18 -29.0128C972.177 -42.3106 937.712 -50.4417 908.483 -56.6414C827.8 -73.8605 762.458 -71.2609 702.842 -48.4633C641.645 -24.991 594.226 13.9716 556.124 45.2945C553.844 47.1746 551.559 49.0563 549.268 50.9396L544.205 55.1138C522.508 72.9604 502.777 88.9195 480.971 103.479C456.062 120.113 432.054 132.295 407.571 140.723C384.623 148.622 360.113 152.803 337.313 152.803C333.159 152.803 329.069 152.663 325.044 152.384C310.361 151.361 296.772 148.492 284.643 143.838C271.419 138.767 259.902 131.562 250.443 122.432C249.597 121.621 248.753 120.766 247.935 119.915C233.443 104.818 224.97 87.207 216.774 70.176C215.009 66.5078 213.183 62.7163 211.338 59.0302C200.825 38.0229 188.707 19.6816 174.288 2.95876C172.494 0.878143 170.64 -1.20734 168.766 -3.23769C134.596 -40.3565 87.4546 -71.6404 32.4404 -93.7083C-31.7803 -119.409 -99.9272 -131.226 -159.463 -126.99C-200.165 -124.035 -241.784 -106.87 -260.674 -85.2447C-273.545 -70.5117 -275.827 -54.1084 -267.286 -37.825L-267.5 -37.7699C-271.976 -46.2967 -273.535 -54.8316 -272.136 -63.1363C-270.847 -70.7825 -267.06 -78.2504 -260.875 -85.3291C-251.176 -96.4344 -235.815 -106.357 -216.453 -114.033C-198.546 -121.128 -178.318 -125.788 -159.492 -127.154C-128.284 -129.376 -94.8633 -127.237 -60.1595 -120.799C-28.7684 -114.973 2.41742 -105.91 32.5339 -93.8591C87.5868 -71.775 134.751 -40.4716 168.951 -3.33176C170.823 -1.2998 172.683 0.787308 174.478 2.86794C188.905 19.6005 201.03 37.9531 211.548 58.9783C213.395 62.6611 215.221 66.4559 216.986 70.1257C225.176 87.1534 233.646 104.747 248.117 119.826C248.933 120.674 249.775 121.519 250.625 122.336C291.355 161.637 360.576 156.729 407.478 140.583C463.436 121.322 506.256 86.0945 544.05 55.0133C545.738 53.6229 547.427 52.2321 549.116 50.8407C551.396 48.9563 553.68 47.074 555.969 45.1939C577.718 27.3197 599.196 9.94983 622.808 -6.05134C649.96 -24.4591 676.112 -38.3764 702.754 -48.5946C719.097 -54.874 736.46 -59.7064 754.455 -62.9838C771.035 -65.9742 788.468 -67.6365 806.27 -67.9203C837.666 -68.4246 871.125 -64.7855 908.553 -56.7971C937.792 -50.5958 972.272 -42.4598 1006.3 -29.1555C1041.37 -15.4036 1074.15 2.24359 1105.86 19.3102C1108.97 20.987 1112.08 22.6579 1115.18 24.3228C1188.37 63.9033 1260.53 108.145 1329.64 155.82L1329.47 155.937Z" fill="#FDFCFC"/>
<path d="M1327.05 154.41C1257.56 105.523 1186.55 60.724 1115.98 21.2554C1111.76 18.8943 1107.44 16.4601 1103.27 14.107C1073.35 -2.74551 1042.42 -20.1721 1008.82 -33.191C975.267 -46.1483 940.514 -52.9513 910.942 -57.8974C832.223 -71.1952 767.758 -66.5053 708.049 -43.1401C651.102 -20.7819 606.489 12.8389 563.344 45.3521L558.609 48.9198C554.867 51.7399 550.998 54.6557 547.184 57.5147C503.996 89.8414 460.772 120.139 406.793 135.636C393.952 139.348 380.531 141.95 366.818 143.386C352.397 144.87 338.388 144.891 325.18 143.446C310.834 141.878 297.551 138.581 285.693 133.656C272.793 128.295 261.525 120.96 252.177 111.857C251.336 111.034 250.499 110.185 249.689 109.336C235.38 94.3302 226.6 76.9765 218.107 60.1986C216.212 56.4541 214.251 52.5767 212.272 48.8209C201.274 27.8768 188.852 9.68309 174.297 -6.80296C172.473 -8.8625 170.592 -10.9285 168.692 -12.9459C134.036 -49.7355 86.528 -80.6075 31.2882 -102.226C-33.3703 -127.456 -101.709 -138.714 -161.144 -133.932C-201.472 -130.614 -242.9 -113.327 -261.89 -91.8912C-274.975 -77.1209 -277.709 -60.6608 -269.797 -44.2898L-270.012 -44.238C-274.152 -52.8037 -275.431 -61.3695 -273.815 -69.6984C-272.323 -77.3771 -268.377 -84.8725 -262.084 -91.9755C-252.28 -103.042 -236.972 -112.957 -217.818 -120.65C-200.086 -127.771 -179.97 -132.545 -161.169 -134.091C-129.99 -136.611 -96.5332 -134.764 -61.7244 -128.601C-30.2604 -123.032 1.0759 -114.209 31.4022 -102.375C86.6717 -80.7454 134.212 -49.8555 168.886 -13.0432C170.788 -11.0258 172.673 -8.95819 174.493 -6.89703C189.057 9.59389 201.488 27.7973 212.491 48.7527C214.47 52.5134 216.431 56.3876 218.326 60.1321C226.814 76.9052 235.588 94.2475 249.883 109.237C250.69 110.085 251.527 110.931 252.366 111.754C292.113 150.512 358.158 149.419 406.708 135.477C460.635 119.993 503.85 89.7068 547.02 57.3947C550.834 54.5373 554.703 51.6215 558.445 48.7998L563.18 45.2321C584.359 29.2731 606.259 12.7708 630.041 -2.58173C656.977 -19.9694 682.458 -33.2851 707.94 -43.286C739.32 -55.672 774.128 -63.0284 809.926 -64.8399C841.185 -66.4778 874.245 -64.2577 910.997 -58.0515C940.582 -53.1021 975.356 -46.2943 1008.93 -33.3289C1042.55 -20.3035 1073.49 -2.87201 1103.41 13.9854C1107.58 16.3385 1111.91 18.771 1116.13 21.1338C1186.69 60.604 1257.72 105.408 1327.21 154.3L1327.05 154.41Z" fill="#FDFCFC"/>
<path d="M1324.63 152.884C1255.73 103.453 1185.85 58.0911 1116.92 18.0598C1111.74 15.05 1106.43 11.9234 1101.3 8.89731C1072.99 -7.772 1043.73 -25.0105 1011.45 -37.371C978.054 -50.1045 943.141 -55.5339 913.394 -59.1535C836.854 -68.6274 773.256 -61.852 713.246 -37.8332C660.874 -16.787 617.874 13.0423 576.289 41.8905C571.913 44.9263 567.397 48.0643 562.978 51.1049C557.8 54.6726 553.844 57.389 550.153 59.8993C530.385 73.3382 506.844 88.8107 482.143 101.679C455.966 115.316 431.071 124.754 406.005 130.533C393.097 133.534 379.738 135.446 366.203 136.229C351.991 137.023 338.232 136.44 325.309 134.492C311.307 132.384 298.329 128.67 286.738 123.465C274.166 117.813 263.124 110.348 253.906 101.277C253.076 100.454 252.244 99.6047 251.437 98.7516C237.314 83.8451 228.238 66.7607 219.462 50.2389C217.426 46.4085 215.321 42.4451 213.199 38.5985C201.705 17.7128 188.978 -0.333344 174.295 -16.5697C172.448 -18.6114 170.535 -20.6612 168.611 -22.6591C133.476 -59.1194 85.5917 -89.5812 30.1284 -110.749C-34.9587 -135.52 -103.489 -146.222 -162.817 -140.89C-196.574 -137.789 -240.665 -123.505 -263.068 -98.5864C-276.388 -83.7707 -279.582 -67.236 -272.307 -50.771L-272.535 -50.7224C-276.338 -59.3319 -277.323 -67.9382 -275.499 -76.298C-273.798 -84.0155 -269.685 -91.5418 -263.276 -98.6772C-253.367 -109.705 -238.118 -119.597 -219.174 -127.306C-201.618 -134.442 -181.624 -139.33 -162.858 -141.053C-131.72 -143.853 -98.2287 -142.291 -63.3128 -136.411C-31.7553 -131.095 -0.277649 -122.511 30.2584 -110.897C85.7536 -89.7158 133.668 -59.2378 168.821 -22.7564C170.747 -20.7552 172.663 -18.7022 174.521 -16.6621C189.213 -0.416031 201.945 17.6382 213.445 38.5336C215.57 42.3835 217.674 46.3453 219.71 50.1773C228.482 66.6909 237.551 83.7657 251.66 98.656C252.467 99.5074 253.297 100.355 254.125 101.178C287.185 133.762 343.957 144.679 405.957 130.379C462.111 117.427 507.916 88.4021 550.019 59.7826C553.71 57.2722 557.666 54.5591 562.844 50.9882C567.253 47.9475 571.779 44.8095 576.154 41.7737C596.624 27.5726 617.794 12.8883 640.37 -0.862015C665.906 -16.4124 689.712 -28.5523 713.157 -37.9743C729.138 -44.3944 745.965 -49.6843 763.397 -53.7679C779.736 -57.5596 796.546 -60.2383 813.598 -61.7676C844.779 -64.5732 877.438 -63.7704 913.462 -59.314C943.227 -55.6847 978.164 -50.2585 1011.58 -37.5137C1043.89 -25.1467 1073.16 -7.90337 1101.47 8.77243C1106.61 11.7969 1111.92 14.9251 1117.1 17.9333C1186.02 57.9695 1255.91 103.335 1324.8 152.77L1324.63 152.884Z" fill="#FDFCFC"/>
<path d="M1322.21 151.355C1253.91 101.378 1185.17 55.4601 1117.89 14.8612C1112.16 11.4087 1106.28 7.78419 1100.59 4.27974C1073.51 -12.4139 1045.5 -29.6751 1014.1 -41.5507C980.684 -54.1318 945.7 -58.1454 915.871 -60.4125C842.801 -66.116 778.232 -56.9924 718.468 -32.5196C670.882 -12.9442 630.091 13.2412 590.642 38.5638C582.676 43.6786 574.436 48.9685 566.426 54.0103C561.529 57.0915 557.186 59.8062 553.15 62.2923C534.383 73.85 509.42 88.6674 482.746 100.775C455.942 112.938 430.591 121.009 405.244 125.437C377.599 130.268 350.009 130.303 325.456 125.543C311.807 122.895 299.14 118.766 287.806 113.268C275.569 107.335 264.76 99.7402 255.681 90.6945C254.858 89.8707 254.032 89.0193 253.23 88.1663C239.306 73.3732 229.951 56.5694 220.902 40.3266C218.713 36.3956 216.451 32.3316 214.171 28.3828C202.171 7.55229 189.143 -10.3463 174.339 -26.3328C172.465 -28.3567 170.525 -30.387 168.573 -32.3687C132.96 -68.4999 84.7012 -98.5481 29.0145 -119.267C-36.5469 -143.568 -105.277 -153.711 -164.491 -147.833C-204.619 -143.762 -244.704 -126.67 -264.209 -105.302C-277.785 -90.4332 -281.453 -73.8125 -274.821 -57.2373L-275.049 -57.1919C-278.514 -65.8549 -279.221 -74.5034 -277.148 -82.9021C-275.233 -90.6635 -270.949 -98.2302 -264.41 -105.39C-254.389 -116.367 -239.2 -126.243 -220.474 -133.953C-203.108 -141.111 -183.238 -146.098 -164.523 -147.995C-133.422 -151.076 -99.8944 -149.808 -64.8713 -144.208C-33.2523 -139.158 -1.62869 -130.815 29.1171 -119.419C84.8357 -98.6892 133.122 -68.6215 168.758 -32.4693C170.712 -30.4876 172.652 -28.4556 174.529 -26.4301C189.349 -10.4338 202.374 7.47282 214.379 28.3131C216.659 32.2635 218.923 36.3275 221.111 40.2584C230.156 56.4996 239.506 73.2954 253.417 88.0739C254.219 88.9269 255.042 89.775 255.863 90.5988C288.362 122.974 344.183 135.938 405.187 125.279C460.801 115.56 509.096 89.2025 553 62.1691C557.033 59.6814 561.376 56.9796 566.274 53.8871C574.281 48.8453 582.521 43.557 590.487 38.4422C629.945 13.1131 670.743 -13.0788 718.352 -32.6606C734.16 -39.1565 750.722 -44.6774 767.855 -49.1629C783.908 -53.3351 800.433 -56.5231 817.249 -58.6919C848.424 -62.7056 880.69 -63.3202 915.891 -60.5731C945.736 -58.3027 980.755 -54.2891 1014.2 -41.6934C1045.63 -29.8097 1073.65 -12.542 1100.74 4.15811C1106.43 7.66095 1112.31 11.2854 1118.03 14.738C1185.32 55.3336 1254.07 101.261 1322.37 151.242L1322.21 151.355Z" fill="#FDFCFC"/>
<path d="M1319.79 149.827C1252.1 99.2985 1184.49 52.8145 1118.83 11.6594C1112.8 7.87927 1106.59 3.87531 1100.59 0.00111389C1074.49 -16.8336 1047.51 -34.2424 1016.74 -45.7304C983.184 -58.2044 948.163 -60.7894 918.331 -61.67C848.023 -63.8965 784.352 -52.6291 723.672 -27.2075C681.12 -9.2944 643.188 13.3768 606.503 35.3003C593.89 42.8379 581.974 49.9587 569.856 56.9125C564.927 59.7424 560.438 62.2835 556.128 64.6836C528.312 80.1448 505.191 91.3247 483.326 99.8645C455.895 110.581 430.099 117.277 404.463 120.338C394.688 121.516 384.793 122.112 374.88 122.122C357.634 122.122 340.947 120.267 325.584 116.592C297.782 109.943 274.849 97.6704 257.426 80.1189C256.605 79.2869 255.786 78.4355 254.991 77.5858C241.281 62.9225 231.662 46.4154 222.359 30.4515C220.002 26.407 217.571 22.2263 215.111 18.1624C202.601 -2.61952 189.27 -20.3689 174.356 -36.1009C172.452 -38.1069 170.48 -40.1194 168.506 -42.0833C132.413 -77.8901 83.7808 -107.52 27.8729 -127.791C-38.1376 -151.63 -107.048 -161.217 -166.171 -154.792C-206.475 -150.321 -245.394 -133.548 -265.319 -112.072C-279.168 -97.1411 -283.331 -80.4199 -277.337 -63.7182L-277.565 -63.6792C-280.691 -72.4007 -281.106 -81.1026 -278.796 -89.5419C-276.66 -97.3552 -272.184 -104.966 -265.515 -112.161C-255.397 -123.069 -240.273 -132.919 -221.778 -140.63C-204.598 -147.798 -184.865 -152.883 -166.212 -154.953C-135.147 -158.329 -101.583 -157.343 -66.4552 -152.022C-34.7632 -147.22 -2.98914 -139.118 27.9687 -127.942C83.9176 -107.661 132.577 -78.0052 168.693 -42.1822C170.674 -40.2183 172.644 -38.2042 174.548 -36.1965C189.468 -20.4565 202.806 -2.69737 215.323 18.0926C217.779 22.1582 220.216 26.3405 222.571 30.385C231.871 46.3408 241.495 62.8398 255.175 77.4917C255.966 78.3399 256.785 79.1912 257.603 80.0215C290.146 112.799 343.658 127.436 404.419 120.179C462.259 113.271 513.492 88.1835 555.98 64.5556C560.289 62.1571 564.779 59.6159 569.706 56.7861C581.824 49.8339 593.737 42.7147 606.35 35.1755C643.04 13.2487 680.981 -9.42088 723.542 -27.347C739.185 -33.9229 755.484 -39.6748 772.309 -44.5563C788.088 -49.1114 804.33 -52.8087 820.896 -55.6162C852.132 -60.8883 884.004 -62.9138 918.325 -61.8321C948.179 -60.9499 983.229 -58.3633 1016.82 -45.8748C1047.62 -34.3721 1074.61 -16.9568 1100.72 -0.115646C1106.73 3.75693 1112.93 7.76088 1118.96 11.541C1184.63 52.6962 1252.25 99.1834 1319.94 149.709L1319.79 149.827Z" fill="#FDFCFC"/>
<path d="M1317.38 148.3C1249.36 96.4966 1184.72 50.757 1119.79 8.46667C1113.6 4.4303 1107.49 0.311218 1101.04 -4.0511C1075.79 -21.1048 1049.68 -38.739 1019.39 -49.9108C985.416 -62.3783 948.857 -63.4162 920.804 -62.928C853.699 -61.9096 790.926 -48.495 728.894 -21.8994C691.677 -5.86578 657.315 13.3885 624.087 32.0103C606.622 41.7956 590.126 51.0392 573.304 59.8092C568.311 62.4153 563.671 64.7894 559.123 67.0695C530.942 81.1701 507.045 91.3007 483.924 98.9486C455.857 108.231 429.616 113.558 403.7 115.235C390.613 116.098 377.433 115.934 364.397 114.749C351.136 113.543 338.143 111.146 325.73 107.613C298.826 99.9038 276.432 87.086 259.186 69.5182C258.375 68.6847 257.561 67.8317 256.772 66.9819C243.292 52.4679 233.432 36.277 223.894 20.6196C221.35 16.4421 218.719 12.1219 216.072 7.92178C203.037 -12.8147 189.396 -30.4165 174.389 -45.889C172.457 -47.8772 170.462 -49.8718 168.461 -51.8179C131.883 -87.2906 82.8785 -116.523 26.7449 -136.335C-25.0795 -154.534 -78.5067 -164.037 -127.502 -164.037C-141.016 -164.061 -154.509 -163.294 -167.846 -161.742C-207.664 -156.95 -246.34 -140.115 -266.381 -118.871C-280.517 -103.869 -285.184 -87.036 -279.851 -70.1915L-280.079 -70.1559C-282.863 -78.9454 -282.979 -87.7074 -280.426 -96.1969C-278.057 -104.069 -273.399 -111.726 -266.577 -118.96C-256.354 -129.801 -241.299 -139.606 -223.043 -147.312C-205.808 -154.589 -186.736 -159.637 -167.892 -161.908C-136.861 -165.573 -103.263 -164.874 -68.0278 -159.833C-36.2515 -155.281 -4.33145 -147.413 26.8361 -136.462C82.9925 -116.632 132.033 -87.3895 168.632 -51.8957C170.638 -49.9497 172.635 -47.9534 174.56 -45.962C189.582 -30.4813 203.224 -12.8715 216.263 7.87801C218.912 12.0782 221.544 16.4 224.088 20.5774C233.621 36.2283 243.468 52.4127 256.945 66.9154C257.734 67.7636 258.541 68.6166 259.357 69.4485C291.603 102.299 344.201 118.933 403.663 115.084C463.835 111.192 518.272 87.3147 558.977 66.9479C563.523 64.6776 568.161 62.2953 573.154 59.6908C589.98 50.9191 606.481 41.6756 623.936 31.8887C657.172 13.2652 691.538 -5.99388 728.768 -22.0323C760.704 -35.7242 792.043 -45.709 824.578 -52.5395C855.956 -59.1317 887.427 -62.5842 920.794 -63.0902C939.83 -63.4145 955.357 -62.8453 969.666 -61.2755C988.134 -59.2484 1004.44 -55.5769 1019.49 -50.0535C1049.81 -38.8638 1075.93 -21.2296 1101.19 -4.16949C1107.65 0.192841 1113.75 4.31192 1119.94 8.34666C1184.88 50.6402 1249.52 96.3831 1317.55 148.189L1317.38 148.3Z" fill="#FDFCFC"/>
<path d="M1314.96 146.772C1247.56 94.4012 1184.03 48.1151 1120.74 5.26855C1114.47 1.02946 1108.3 -3.33772 1101.76 -7.96115C1077.27 -25.284 1051.95 -43.1971 1022.02 -54.09C987.766 -66.5008 951.249 -66.0045 923.262 -64.1866C859.935 -60.2135 798.06 -44.6421 734.099 -16.5788C702.585 -2.68744 672.578 13.2132 643.561 28.59C620.624 40.7527 598.957 52.2261 576.734 62.72C571.718 65.0941 566.786 67.3645 562.101 69.4662C533.861 82.1154 508.478 91.4676 484.501 98.0403C455.789 105.909 429.097 109.869 402.92 110.145C389.783 110.297 376.66 109.443 363.78 107.597C350.681 105.716 337.949 102.722 325.856 98.6776C299.864 89.9416 278.024 76.5789 260.931 58.9626C260.129 58.1306 259.321 57.276 258.535 56.4214C245.311 42.0841 235.231 26.2353 225.489 10.9088C222.732 6.57239 219.88 2.08842 217.014 -2.27229C203.443 -22.9699 189.506 -40.4224 174.403 -55.6257C172.444 -57.5977 170.422 -59.5745 168.391 -61.5011C131.331 -96.6544 81.9557 -125.47 25.5987 -144.838C-41.3056 -167.736 -110.599 -176.208 -169.519 -168.693C-208.824 -163.593 -247.24 -146.722 -267.393 -125.718C-281.857 -110.637 -287.033 -93.677 -282.361 -76.6704L-282.589 -76.6395C-285.024 -85.5053 -284.837 -94.3354 -282.03 -102.882C-279.427 -110.817 -274.566 -118.531 -267.584 -125.809C-257.26 -136.572 -242.276 -146.327 -224.264 -154.026C-207.226 -161.301 -188.309 -166.432 -169.556 -168.866C-138.561 -172.818 -104.927 -172.408 -69.5867 -167.647C-37.7397 -163.343 -5.67834 -155.723 25.6967 -144.981C82.088 -125.601 131.489 -96.7695 168.573 -61.6049C170.607 -59.6767 172.631 -57.6983 174.59 -55.7263C189.699 -40.51 203.644 -23.0477 217.226 -2.34363C220.094 2.01871 222.946 6.50427 225.703 10.8407C235.443 26.1623 245.514 42.0046 258.731 56.3322C259.52 57.1852 260.327 58.0382 261.127 58.8701C293.711 92.452 344.069 110.602 402.923 109.986C450.677 109.483 501.22 96.5646 561.985 69.3332C566.67 67.2251 571.59 64.9547 576.613 62.5886C598.834 52.0963 620.496 40.6164 643.433 28.4635C672.453 13.0851 702.464 -2.81718 733.985 -16.715C766.234 -30.8626 797.069 -41.5738 828.252 -49.4585C859.844 -57.4469 890.918 -62.3168 923.251 -64.3439C951.265 -66.1651 987.823 -66.6597 1022.13 -54.2311C1052.09 -43.3269 1077.43 -25.404 1101.93 -8.07306C1108.47 -3.44963 1114.64 0.917572 1120.9 5.15504C1184.19 48.0032 1247.73 94.2926 1315.13 146.665L1314.96 146.772Z" fill="#FDFCFC"/>
<path d="M1312.54 145.245C1245.77 92.3033 1183.34 45.4723 1121.69 2.07111C1115.43 -2.33339 1109.25 -6.91304 1102.71 -11.7603C1078.91 -29.3928 1054.29 -47.6255 1024.66 -58.2686C990.083 -70.6339 953.626 -68.5987 925.73 -65.4445C866.147 -58.8362 806.91 -41.6203 739.311 -11.2656C713.957 0.170502 689.18 12.7159 665.211 24.8493C636.109 39.5839 608.623 53.5029 580.167 65.625C575.039 67.811 569.964 69.9079 565.082 71.8587C536.338 83.3322 510.171 91.5946 485.084 97.123C471.032 100.219 457.161 102.462 443.854 103.788C429.661 105.204 415.628 105.627 402.144 105.047C374.784 103.868 349.164 98.7073 325.992 89.7102C300.967 79.9947 279.667 66.0888 262.686 48.3799C261.888 47.5432 261.09 46.6869 260.305 45.8355C247.362 31.709 237.109 16.2365 227.191 1.27486C224.188 -3.25452 221.085 -7.93794 217.964 -12.4949C203.85 -33.1584 189.609 -50.4634 174.429 -65.4007C172.441 -67.3468 170.391 -69.3139 168.332 -71.2226C130.792 -106.037 81.0426 -134.439 24.4622 -153.358C-42.889 -175.792 -112.374 -183.701 -171.194 -175.645C-234.174 -166.887 -295.545 -129.023 -284.875 -83.1387L-285.103 -83.1112C-287.772 -94.5895 -286.211 -105.899 -280.458 -116.725C-275.214 -126.618 -266.582 -135.916 -254.833 -144.378C-243.91 -152.247 -230.807 -159.04 -215.884 -164.57C-201.693 -169.831 -186.244 -173.715 -171.242 -175.803C-140.284 -180.044 -106.615 -179.923 -71.1679 -175.44C-39.2479 -171.404 -7.03375 -164.024 24.5534 -153.505C81.1681 -134.575 130.947 -106.152 168.508 -71.3215C170.56 -69.4112 172.612 -67.4505 174.607 -65.4948C189.794 -50.551 204.042 -33.2379 218.155 -12.5646C221.276 -8.00929 224.382 -3.32101 227.384 1.20511C237.298 16.1635 247.547 31.6296 260.483 45.7463C261.263 46.5977 262.063 47.4524 262.861 48.2891C295.495 82.3218 344.962 102.421 402.149 104.886C450.562 106.97 503.818 96.1289 564.961 71.7193C569.843 69.7732 574.916 67.6732 580.041 65.4871C608.496 53.3683 635.979 39.451 665.085 24.718C689.048 12.5845 713.827 0.0375061 739.185 -11.4002C806.814 -41.7679 866.078 -58.9918 925.689 -65.6035C944.435 -67.723 959.955 -68.3992 974.536 -67.7327C993.175 -66.8813 1009.6 -63.8326 1024.76 -58.4129C1054.43 -47.7552 1079.05 -29.5128 1102.87 -11.8705C1109.41 -7.0233 1115.59 -2.44691 1121.84 1.95758C1183.5 45.3604 1245.94 92.1946 1312.71 145.138L1312.54 145.245Z" fill="#FDFCFC"/>
<path d="M1310.13 143.717C1243.99 90.2013 1182.66 42.8205 1122.64 -1.12553C1116.43 -5.66624 1110.29 -10.4372 1103.79 -15.4807C1080.64 -33.4506 1056.69 -52.0335 1027.31 -62.4495C991.965 -74.9171 953.819 -70.8483 928.194 -66.7032C858.642 -55.5931 796.316 -29.758 744.519 -5.95164C725.905 2.64328 707.335 11.7409 689.375 20.5418C653.351 38.1971 619.322 54.8729 583.604 68.5275C578.36 70.5384 573.116 72.4633 568.068 74.2504C538.761 84.5952 511.809 91.776 485.671 96.1999C456.042 101.216 427.679 102.477 401.37 99.9477C374.343 97.353 349.026 90.8873 326.13 80.7436C302.11 70.1054 281.353 55.6578 264.438 37.803C263.647 36.9646 262.842 36.1068 262.076 35.2538C249.454 21.3851 239.071 6.33748 229.016 -8.21553C225.724 -12.9752 222.329 -17.9148 218.909 -22.7053C204.032 -43.625 189.903 -60.296 174.449 -75.1587C172.435 -77.095 170.345 -79.0345 168.272 -80.927C130.251 -115.42 80.1274 -143.411 23.3235 -161.88C-44.4746 -183.839 -114.161 -191.195 -172.871 -182.595C-236.077 -173.214 -296.193 -135.87 -287.388 -89.6112L-287.616 -89.5901C-289.82 -100.937 -287.886 -112.497 -281.998 -123.159C-276.583 -133.051 -267.91 -142.369 -256.234 -150.841C-245.336 -158.742 -232.294 -165.587 -217.474 -171.185C-203.368 -176.517 -187.96 -180.515 -172.918 -182.748C-141.995 -187.277 -108.29 -187.451 -72.7352 -183.234C-40.7309 -179.453 -8.37994 -172.312 23.417 -162.015C80.2596 -143.547 130.42 -115.54 168.448 -81.0341C170.548 -79.14 172.616 -77.1939 174.629 -75.2625C190.094 -60.39 204.228 -43.7159 219.112 -22.7847C222.532 -17.9862 225.936 -13.0546 229.228 -8.28688C239.26 6.26126 249.65 21.3056 262.263 35.1646C263.04 36.0176 263.834 36.8754 264.623 37.7122C297.507 72.4163 346.085 94.4712 401.402 99.7871C451.015 104.558 505.498 96.1561 567.965 74.1045C573.02 72.3206 578.246 70.394 583.494 68.3848C619.204 54.735 653.226 38.0593 689.248 20.4088C707.207 11.6063 725.778 2.50543 744.396 -6.08788C779.225 -22.0955 808.198 -33.9225 835.573 -43.3072C867.799 -54.3541 898.077 -62.0587 928.141 -66.8622C946.468 -69.8266 962.439 -71.1677 976.974 -70.965C995.691 -70.7023 1012.18 -67.9649 1027.4 -62.5939C1056.83 -52.1648 1080.79 -33.5657 1103.95 -15.5893C1110.45 -10.5475 1116.59 -5.78462 1122.8 -1.23904C1182.82 42.7086 1244.15 90.0911 1310.29 143.61L1310.13 143.717Z" fill="#FDFCFC"/>
<path d="M1307.71 142.187C1242.21 88.0927 1181.98 40.1686 1123.58 -4.32393C1117.46 -8.98952 1111.4 -13.9178 1104.98 -19.1364C1082.44 -37.4615 1059.13 -56.4254 1029.94 -66.6291C994.221 -79.069 956.17 -73.3477 930.652 -67.9637C867.64 -54.7778 811.434 -29.6709 749.725 -0.637848C738.597 4.61641 727.34 10.0426 716.453 15.2887C674.586 35.469 631.291 56.3368 587.034 71.4315C581.657 73.2672 576.279 75.0203 571.046 76.642C541.543 85.7737 513.016 92.048 486.255 95.2751C455.943 98.9369 427.121 98.7925 400.593 94.8486C373.943 90.8852 348.933 83.1222 326.265 71.7753C303.317 60.2905 283.103 45.3013 266.185 27.2243C265.403 26.3827 264.614 25.5248 263.844 24.6702C251.602 11.1291 241.153 -3.42876 231.048 -17.5082C227.4 -22.5809 223.643 -27.8254 219.86 -32.9288C204.402 -53.8307 189.978 -70.3541 174.47 -84.9314C172.434 -86.845 170.327 -88.7683 168.211 -90.6462C129.704 -124.804 79.2115 -152.382 22.1796 -170.401C-46.0562 -191.89 -115.929 -198.689 -174.552 -189.546C-235.75 -179.899 -296.988 -143.863 -289.907 -96.0854L-290.135 -96.0675C-291.85 -107.462 -289.587 -118.982 -283.548 -129.606C-277.969 -139.514 -269.245 -148.837 -257.622 -157.319C-236.176 -172.963 -205.916 -184.767 -174.6 -189.705C-143.713 -194.522 -109.971 -194.976 -74.3123 -191.055C-42.2304 -187.526 -9.73355 -180.627 22.2731 -170.548C79.3438 -152.52 129.859 -124.925 168.382 -90.7468C170.5 -88.8689 172.607 -86.9439 174.645 -85.0287C190.149 -70.4449 204.591 -53.9151 220.054 -33.0051C223.839 -27.9 227.603 -22.6555 231.244 -17.5828C241.347 -3.50661 251.794 11.048 264.028 24.581C264.799 25.434 265.586 26.2919 266.37 27.1319C300.214 63.2955 346.644 86.6591 400.639 94.688C450.635 102.122 507.936 96 570.955 76.4911C576.185 74.8694 581.562 73.118 586.936 71.2839C631.168 56.1941 674.465 35.3295 716.326 15.1541C727.213 9.90636 738.471 4.48019 749.6 -0.775681C776.611 -13.4832 808.041 -28.0621 839.234 -40.2313C871.863 -52.9631 901.747 -62.0851 930.589 -68.1243C948.746 -71.9563 964.718 -73.9445 979.413 -74.2007C997.942 -74.5251 1014.98 -72.0277 1030.04 -66.7799C1043.12 -62.2084 1056.28 -55.3859 1070.28 -45.9202C1082.63 -37.5636 1094.08 -28.2519 1105.16 -19.2483C1111.57 -14.0314 1117.63 -9.10304 1123.75 -4.43907C1182.15 40.0535 1242.38 87.9808 1307.88 142.077L1307.71 142.187Z" fill="#FDFCFC"/>
<path d="M1305.29 140.66C1240.44 85.98 1181.31 37.5095 1124.54 -7.52147C1118.53 -12.2892 1112.57 -17.3667 1106.27 -22.741C1084.31 -41.4536 1061.61 -60.8036 1032.59 -70.8077C1005.47 -80.1276 972.931 -79.6086 933.122 -69.2233C877.465 -54.7903 827.709 -30.6272 775.032 -5.05165C768.472 -1.86665 761.691 1.42537 754.943 4.67847C752.298 5.95528 749.654 7.23317 747.01 8.51213C696.821 32.7871 644.921 57.8892 590.475 74.3363C584.971 76.0002 579.44 77.5797 574.034 79.0392C543.883 87.1363 514.551 92.29 486.853 94.3561C455.845 96.6686 426.557 95.1215 399.824 89.7553C373.59 84.4913 348.888 75.4261 326.408 62.811C304.615 50.5868 284.943 35.0559 267.937 16.653C267.162 15.8113 266.38 14.9502 265.611 14.0956C253.837 0.977798 243.42 -12.9866 233.347 -26.5033C229.266 -31.9749 225.048 -37.6329 220.807 -43.1402C204.751 -64.0275 190.027 -80.4081 174.491 -94.6887C172.425 -96.5861 170.291 -98.4915 168.148 -100.35C129.169 -134.185 78.3026 -161.359 21.0472 -178.921C-47.6469 -199.939 -117.698 -206.181 -176.223 -196.496C-236.299 -186.474 -297.439 -150.144 -292.416 -102.557L-292.644 -102.546C-293.855 -114.024 -291.313 -125.295 -285.088 -136.045C-279.345 -145.965 -270.572 -155.299 -259.01 -163.787C-237.658 -179.466 -207.5 -191.445 -176.273 -196.655C-145.422 -201.76 -111.644 -202.502 -75.8801 -198.861C-43.7321 -195.587 -11.078 -188.928 21.1384 -179.076C78.4257 -161.497 129.322 -134.318 168.326 -100.467C170.469 -98.605 172.603 -96.6996 174.671 -94.8006C190.223 -80.5135 204.945 -64.1264 221.005 -43.231C225.246 -37.7172 229.467 -32.0641 233.545 -26.5925C243.616 -13.0838 254.031 0.883743 265.803 13.9951C266.569 14.8497 267.351 15.7092 268.126 16.5508C302.707 53.9728 348.268 79.2274 399.885 89.5867C450.843 99.813 509.407 96.2096 573.954 78.8738C579.355 77.4143 584.884 75.8429 590.386 74.1709C644.812 57.7303 696.7 32.6331 746.883 8.36131L754.813 4.52766C761.561 1.28429 768.344 -2.01584 774.904 -5.20245C827.593 -30.7829 877.36 -54.9444 933.045 -69.392C951.029 -74.0835 966.996 -76.7172 981.855 -77.4404C1000.45 -78.347 1017.56 -76.1706 1032.7 -70.9699C1045.69 -66.4892 1058.69 -59.636 1072.43 -50.0177C1084.55 -41.5314 1095.69 -32.0397 1106.45 -22.861C1112.76 -17.4867 1118.71 -12.4125 1124.72 -7.64635C1181.49 37.3862 1240.62 85.8584 1305.48 140.54L1305.29 140.66Z" fill="#FDFCFC"/>
<path d="M1302.87 139.139C1243.68 88.1861 1183.99 37.7695 1125.49 -10.7043C1119.53 -15.6115 1113.63 -20.882 1107.38 -26.4639C1087.05 -44.617 1064.01 -65.1913 1035.23 -74.9717C1007.79 -84.2753 975.195 -82.8012 935.591 -70.4683C888.489 -55.8504 846.81 -34.3566 802.681 -11.6011C788.862 -4.47379 774.573 2.89514 760.157 10.0046C734.997 22.4413 707.781 35.6013 679.251 47.5888C648.699 60.4244 620.785 70.1302 593.913 77.2527C588.27 78.7511 582.586 80.1587 577.02 81.4382C546.24 88.5137 516.101 92.5403 487.466 93.4063C455.774 94.3631 426.023 91.423 399.055 84.6654C349.255 72.0292 305.73 45.5828 269.69 6.08339C268.922 5.23849 268.146 4.37737 267.383 3.52112C256.211 -9.01613 245.971 -22.2458 236.076 -35.0393C231.418 -41.0606 226.602 -47.2879 221.757 -53.3481C205.091 -74.2306 190.079 -90.4669 174.516 -104.446C172.421 -106.325 170.261 -108.213 168.093 -110.054C128.624 -143.567 77.3833 -170.322 19.9044 -187.44C-49.2252 -207.987 -119.472 -213.671 -177.904 -203.448C-238.344 -192.811 -297.953 -156.964 -294.936 -109.03L-295.164 -109.022C-295.887 -120.504 -293.019 -131.762 -286.639 -142.484C-280.73 -152.417 -271.906 -161.761 -260.419 -170.255C-249.587 -178.258 -236.753 -185.256 -222.266 -191.055C-208.363 -196.64 -193.462 -200.861 -177.968 -203.605C-147.149 -208.998 -113.337 -210.027 -77.4675 -206.667C-45.2306 -203.646 -12.4419 -197.227 19.982 -187.591C77.5041 -170.463 128.774 -143.683 168.264 -110.172C170.435 -108.33 172.596 -106.442 174.691 -104.561C190.264 -90.5756 205.28 -74.3328 221.953 -53.4438C226.799 -47.382 231.616 -41.1547 236.274 -35.1318C246.167 -22.3399 256.4 -9.11343 267.574 3.42058C268.336 4.27521 269.111 5.13632 269.879 5.9796C305.892 45.4563 349.376 71.8736 399.13 84.4984C450.378 97.3421 511.867 96.2248 576.95 81.2696C582.51 79.9901 588.19 78.5825 593.833 77.0873C653.906 61.1575 708.873 35.1408 760.024 9.85706C774.439 2.74759 788.727 -4.62137 802.546 -11.7471C846.683 -34.5074 888.373 -56.0061 935.498 -70.6304C975.17 -82.9844 1007.83 -84.4586 1035.33 -75.1339C1048.22 -70.7553 1061.02 -63.8875 1074.46 -54.1444C1086.32 -45.5495 1097.11 -35.9085 1107.56 -26.5757C1113.81 -20.9971 1119.71 -15.725 1125.66 -10.8211C1184.18 37.6673 1243.86 88.0791 1303.05 139.034L1302.87 139.139Z" fill="#FDFCFC"/>
<path d="M1300.46 137.605C1242.17 86.3694 1183.62 35.3901 1126.44 -13.9156C1120.67 -18.8764 1114.94 -24.2409 1108.88 -29.92C1089.05 -48.4899 1066.59 -69.5524 1037.86 -79.1674C1010.09 -88.4548 977.439 -86.0255 938.038 -71.7433C896.754 -56.8011 858.824 -35.7013 822.146 -15.2973C803.751 -5.06607 784.733 5.51379 765.351 15.3039C734.763 30.7715 709.035 42.5709 684.354 52.4405C653.932 64.6031 625.469 73.6684 597.333 80.1437C591.558 81.4719 585.721 82.7076 579.989 83.8153C550.121 89.5852 520.771 92.5042 492.704 92.5042C491.146 92.5042 489.593 92.4951 488.044 92.4767C455.595 92.1004 425.389 87.7511 398.267 79.5518C384.897 75.4631 372.136 70.4347 360.172 64.5415C348.715 58.9159 337.454 52.2929 326.704 44.8526C307.361 31.4672 289.283 15.3217 271.435 -4.50336C270.675 -5.35635 269.915 -6.21152 269.155 -7.06885C258.799 -18.7661 249.002 -30.9936 239.528 -42.8189C234.056 -49.6446 228.404 -56.7038 222.709 -63.5765C205.176 -84.746 190.319 -100.364 174.539 -114.22C172.419 -116.083 170.23 -117.95 168.034 -119.774C128.093 -152.946 76.4811 -179.29 18.7788 -195.958C-50.7931 -216.031 -121.234 -221.159 -179.567 -210.391C-238.875 -199.415 -298.406 -163.294 -297.443 -115.495H-297.671C-298.127 -137.759 -285.717 -158.93 -261.798 -176.718C-250.988 -184.759 -238.218 -191.8 -223.845 -197.67C-209.976 -203.34 -195.108 -207.672 -179.631 -210.55C-148.851 -216.226 -115 -217.547 -79.0263 -214.468C-46.7119 -211.706 -13.7796 -205.529 18.8541 -196.112C76.5928 -179.435 128.235 -153.076 168.194 -119.885C170.39 -118.062 172.581 -116.192 174.703 -114.327C190.49 -100.465 205.351 -84.84 222.891 -63.664C228.591 -56.7914 234.243 -49.7321 239.713 -42.9065C249.184 -31.0844 258.979 -18.8585 269.333 -7.16292C270.093 -6.30667 270.853 -5.45204 271.613 -4.59903C309.538 37.5291 350.995 65.0053 398.351 79.4043C463.944 99.2342 533.295 92.6648 579.923 83.6612C585.655 82.5536 591.487 81.3195 597.251 79.9897C661.958 65.0994 720.998 37.5307 765.208 15.1742C784.588 5.3873 803.603 -5.19095 821.993 -15.4221C858.683 -35.8311 896.62 -56.9373 937.924 -71.8844C955.556 -78.2754 971.513 -82.1983 986.716 -83.8849C1005.45 -85.9574 1022.69 -84.42 1037.95 -79.3149C1050.81 -75.0094 1063.49 -68.088 1076.71 -58.1568C1088.36 -49.4078 1098.88 -39.5512 1109.05 -30.0206C1115.11 -24.3447 1120.84 -18.9785 1126.61 -14.021C1183.79 35.2782 1242.34 86.2656 1300.63 137.501L1300.46 137.605Z" fill="#FDFCFC"/>
<path d="M1298.04 136.077L1127.39 -17.1139C1121.81 -22.1168 1116.28 -27.5608 1110.42 -33.3308C1091.08 -52.3467 1069.16 -73.9005 1040.51 -83.3549C1012.8 -92.498 979.154 -89.0179 940.51 -73.0118C903.36 -57.622 869.474 -37.158 836.706 -17.3685C815.347 -4.46803 793.261 8.87033 770.568 20.6097C702.362 55.8943 642.753 76.7346 582.979 86.1972C558.181 90.1216 533.719 92.0952 509.996 92.0952C502.806 92.0952 495.689 91.9142 488.644 91.552C455.429 89.8395 424.765 84.0906 397.503 74.4497C372.234 65.5158 349.121 52.9007 326.843 35.886C309.059 22.2995 292.003 6.10211 273.181 -15.0885C263.25 -26.2781 253.628 -37.891 244.326 -49.1276C223.272 -74.5557 201.503 -100.859 174.558 -123.991C133.212 -159.482 78.9482 -187.316 17.6276 -204.483C-52.3844 -224.085 -123.016 -228.66 -181.259 -217.35C-237.644 -206.405 -298.841 -171.892 -299.967 -121.977H-300.195C-299.691 -144.288 -286.901 -165.456 -263.202 -183.192C-241.77 -199.229 -212.696 -211.41 -181.318 -217.504C-150.57 -223.473 -116.687 -225.079 -80.6085 -222.28C-48.2142 -219.765 -15.136 -213.828 17.7074 -204.633C48.0874 -196.125 76.8609 -184.961 103.365 -171.399C129.887 -157.856 153.869 -141.959 174.729 -124.095C201.692 -100.944 223.466 -74.6448 244.524 -49.2103C253.827 -37.9753 263.448 -26.3559 273.377 -15.1744C300.838 15.743 339.776 53.8559 397.606 74.3053C463.926 97.7565 534.992 93.6342 582.931 86.0464C642.667 76.5903 702.257 55.7581 770.438 20.4865C793.122 8.75032 815.206 -4.58643 836.558 -17.4837C869.335 -37.278 903.227 -57.7469 940.394 -73.1432C979.106 -89.1784 1012.82 -92.6618 1040.6 -83.4944C1053.43 -79.2602 1065.99 -72.2788 1079 -62.1481C1090.45 -53.2289 1100.7 -43.1598 1110.6 -33.4184C1116.46 -27.6565 1122 -22.2158 1127.56 -17.2145L1298.21 135.976L1298.04 136.077Z" fill="#FDFCFC"/>
<path d="M1296.66 124.301C1253.21 81.6503 1215.92 47.0354 1179.33 15.3785C1161.57 -0.00158691 1143.42 -15.1384 1125.41 -29.6135C1119.96 -33.9921 1114.56 -38.6496 1108.85 -43.5811C1094.48 -55.9757 1079.63 -68.7919 1062.53 -78.303C1053.36 -83.4195 1044.52 -87.0829 1035.52 -89.5024C1007.9 -97.0027 975.503 -92.0436 939.216 -74.7613C920.436 -65.8323 903.336 -55.6692 889.086 -46.9056C873.999 -37.6279 859.118 -27.3967 844.724 -17.5028C824.037 -3.28062 802.647 11.4248 779.651 24.0561C765.658 31.7624 751.474 38.6513 737.491 44.5283C709.272 56.365 679.352 66.0177 648.243 73.3213C628.938 77.8117 609.54 81.206 590.591 83.4098C574.504 85.2829 558.254 86.3666 541.958 86.6532C518.1 87.0457 494.858 85.5488 472.874 82.2C449.5 78.6323 427.381 72.9564 407.128 65.3021C389.071 58.4813 372.016 49.8961 354.985 39.0308C323.252 18.8278 297.941 -4.53256 279.437 -22.6273C270.344 -31.558 261.47 -40.6654 252.886 -49.4727C228.169 -74.8359 204.822 -98.7947 175.594 -120.134C151.653 -137.484 124.464 -152.405 94.7956 -164.475C71.8976 -173.804 46.9931 -181.434 20.7754 -187.154C14.5305 -188.514 8.16702 -189.781 1.86737 -190.919C-25.2646 -195.806 -55.7915 -198.987 -88.8766 -200.377C-122.242 -201.811 -151.107 -200.57 -177.113 -196.581C-191.779 -194.353 -206.004 -190.849 -219.466 -186.148C-266.769 -169.607 -297.145 -141.837 -300.723 -111.865L-301.008 -111.883C-300.026 -119.949 -297.219 -127.849 -292.695 -135.278C-288.363 -142.434 -282.408 -149.336 -275.002 -155.792C-261.008 -167.987 -241.849 -178.548 -219.598 -186.33C-206.115 -191.038 -191.868 -194.547 -177.179 -196.779C-151.15 -200.766 -122.26 -202.015 -88.8675 -200.58C-55.7551 -199.188 -25.2054 -196.005 1.93576 -191.116C8.24225 -189.98 14.608 -188.709 20.8597 -187.347C47.098 -181.624 72.0207 -173.987 94.9392 -164.643C124.633 -152.564 151.845 -137.631 175.806 -120.267C205.04 -98.9147 228.392 -74.951 253.119 -49.5797C261.701 -40.7724 270.574 -31.6666 279.665 -22.7376C298.16 -4.65256 323.459 18.6965 355.172 38.8864C372.185 49.7258 389.221 58.3078 407.26 65.1221C446.894 80.0951 492.209 87.2711 541.949 86.4489C558.232 86.1631 574.467 85.0794 590.541 83.2055C609.478 81.0049 628.86 77.6139 648.152 73.1267C679.245 65.828 709.149 56.1818 737.354 44.3531C751.326 38.481 765.501 31.597 779.484 23.8956C802.467 11.2724 823.851 -3.42982 844.532 -17.6471C858.928 -27.5394 873.812 -37.7771 888.906 -47.058C903.163 -55.8265 920.272 -65.9945 939.066 -74.9299C955.22 -82.6248 970.865 -87.9407 985.562 -90.7333C1003.62 -94.1615 1020.46 -93.8145 1035.63 -89.6921C1044.66 -87.2596 1053.52 -83.5914 1062.71 -78.462C1079.84 -68.9378 1094.7 -56.1135 1109.07 -43.7109C1114.79 -38.7793 1120.18 -34.1235 1125.63 -29.7482C1143.64 -15.2714 1161.79 -0.131302 1179.56 15.2488C1216.16 46.9089 1253.44 81.5238 1296.9 124.181L1296.66 124.301Z" fill="#FDFCFC"/>
<path d="M1295.29 112.52C1255 69.1445 1217.18 32.8479 1179.69 1.55751C1161.4 -13.7253 1142.48 -28.4177 1123.44 -42.1112C1118.38 -45.7438 1113.41 -49.5191 1108.12 -53.5149C1092.3 -65.4813 1075.95 -77.8548 1057.64 -86.4157C1048.39 -90.7569 1039.53 -93.7797 1030.54 -95.6593C996.14 -102.855 961.19 -89.2261 937.927 -76.5234C921.445 -67.5522 906.395 -57.4086 891.146 -46.9374C877.801 -37.7716 865.245 -27.9117 851.953 -17.4746C832.224 -1.98099 811.825 14.0396 788.735 27.4915C775.035 35.5172 760.737 42.4564 746.238 48.1161C719.232 58.6571 689.658 66.8482 655.827 73.1501C636.911 76.6721 617.646 79.1658 598.198 80.6098C582.143 81.7924 565.995 82.2128 549.862 81.8683C526.378 81.3461 503.432 78.9979 481.644 74.895C458.979 70.6418 437.172 64.344 416.753 56.1548C399.074 49.0421 382.008 40.2169 364.573 29.1765C332.911 9.1535 305.786 -13.0458 285.685 -30.1481C278.248 -36.4726 270.929 -42.8491 263.85 -49.0099C235.657 -73.5508 209.029 -96.7296 176.658 -116.258C152.465 -130.855 125.303 -143.197 95.9323 -152.937C73.7091 -160.309 50.1613 -165.833 23.9253 -169.824C17.8719 -170.743 11.7136 -171.577 5.62372 -172.287C-21.1252 -175.412 -49.6708 -176.594 -84.2083 -177.817C-109.106 -178.743 -141.698 -179.353 -173.007 -175.813C-187.638 -174.209 -201.945 -171.36 -215.621 -167.328C-262.958 -153.297 -295.072 -128.782 -301.522 -101.752L-301.859 -101.793C-300.149 -108.96 -296.686 -115.992 -291.565 -122.69C-286.686 -129.072 -280.275 -135.193 -272.511 -140.885C-257.757 -151.698 -238.131 -160.921 -215.753 -167.553C-202.054 -171.592 -187.723 -174.446 -173.067 -176.054C-141.726 -179.596 -109.108 -178.986 -84.1946 -178.059C-49.6435 -176.838 -21.0865 -175.654 5.68073 -172.527C11.7752 -171.812 17.938 -170.982 23.9959 -170.062C50.2524 -166.063 73.8299 -160.538 96.0759 -153.158C125.488 -143.407 152.663 -131.054 176.879 -116.444C209.273 -96.9031 235.913 -73.7146 264.114 -49.1656C271.182 -43.0032 278.512 -36.6348 285.948 -30.3053C306.034 -13.2095 333.143 8.97998 364.794 28.9932C382.209 40.0207 399.259 48.8361 416.915 55.9407C456.587 71.9062 501.319 80.5482 549.867 81.6283C565.984 81.9728 582.116 81.5524 598.155 80.3698C617.586 78.9259 636.835 76.4321 655.734 72.9101C689.537 66.6131 719.086 58.4317 746.067 47.8988C760.548 42.2456 774.827 35.3145 788.512 27.3034C811.579 13.8629 831.971 -2.15126 851.693 -17.6367C864.99 -28.0788 877.548 -37.9402 890.909 -47.1125C906.165 -57.5886 921.222 -67.7371 937.72 -76.7164C952.8 -84.9497 967.674 -90.8737 981.931 -94.3246C999.218 -98.5086 1015.61 -99.0275 1030.64 -95.8912C1039.66 -94.0068 1048.55 -90.9726 1057.83 -86.62C1076.17 -78.0413 1092.54 -65.6581 1108.37 -53.682C1113.64 -49.6861 1118.63 -45.9124 1123.68 -42.2831C1142.73 -28.5847 1161.66 -13.8874 1179.95 1.40022C1217.46 32.6987 1255.28 69.0018 1295.58 112.387L1295.29 112.52Z" fill="#FDFCFC"/>
<path d="M1293.9 100.741C1256.2 56.0554 1218.95 19.0923 1180.04 -12.2597C1161.22 -27.4501 1141.5 -41.6966 1121.44 -54.6068C1117.15 -57.3637 1112.74 -60.2941 1108.47 -63.1272C1090.84 -74.826 1072.62 -86.9221 1052.72 -94.5262C1043.37 -98.1199 1034.49 -100.502 1025.54 -101.812C991.213 -106.84 958.235 -91.7921 936.623 -78.2867C921.969 -69.1695 908.579 -58.8264 895.62 -48.8401L893.194 -46.9687C881.431 -37.9035 870.394 -27.9576 858.716 -17.428C840.113 -0.663055 820.868 16.6744 797.803 30.929C784.376 39.2839 769.964 46.275 754.969 51.7077C728.826 61.1799 699.736 67.9472 663.399 72.9745C644.394 75.601 625.142 77.2195 605.8 77.8168C589.783 78.3056 573.738 78.0634 557.765 77.0919C510.455 74.1729 466.25 64.0519 426.375 47.0048C409.138 39.6375 392.059 30.5787 374.163 19.3112C343.878 0.284012 316.935 -19.2735 291.951 -37.6748C288.599 -40.143 285.28 -42.5923 281.994 -45.0226C247.853 -70.2399 215.614 -94.0592 177.725 -112.384C152.992 -124.356 125.86 -134.115 97.077 -141.398C75.9505 -146.749 53.057 -150.372 27.081 -152.493C21.2282 -152.967 15.2751 -153.358 9.38815 -153.654C-5.43185 -154.383 -21.1433 -154.501 -37.7805 -154.628C-51.1436 -154.728 -64.9604 -154.832 -79.5387 -155.253C-107.699 -156.141 -139.614 -157.146 -168.899 -155.044C-184.008 -153.959 -198.432 -151.76 -211.763 -148.507C-259.08 -136.961 -292.931 -115.699 -302.306 -91.6299L-302.691 -91.7061C-300.218 -98.0518 -296.079 -104.242 -290.414 -110.104C-284.987 -115.71 -278.12 -121.052 -270.003 -125.98C-254.479 -135.404 -234.383 -143.287 -211.89 -148.775C-198.53 -152.036 -184.074 -154.24 -168.937 -155.326C-139.624 -157.435 -107.692 -156.424 -79.5205 -155.537C-64.949 -155.116 -51.1322 -155.012 -37.7737 -154.911C-21.1297 -154.785 -5.39764 -154.666 9.42236 -153.938C15.3162 -153.643 21.2784 -153.251 27.1334 -152.776C53.1254 -150.653 76.0576 -147.02 97.2137 -141.667C126.024 -134.369 153.188 -124.605 177.951 -112.624C215.874 -94.2765 248.129 -70.4491 282.277 -45.2221C285.568 -42.7917 288.886 -40.3425 292.234 -37.8743C317.22 -19.4762 344.147 0.0731964 374.423 19.0972C392.3 30.3533 409.359 39.4007 426.576 46.7599C466.398 63.7876 510.546 73.8939 557.794 76.8065C573.751 77.7785 589.779 78.0213 605.779 77.533C625.102 76.9367 644.337 75.3214 663.324 72.7004C699.615 67.6651 728.682 60.914 754.798 51.4563C769.764 46.035 784.148 39.0569 797.552 30.7166C820.598 16.4798 839.823 -0.846298 858.412 -17.6097C870.1 -28.1506 881.139 -38.0916 892.911 -47.1665L895.337 -49.0379C908.299 -59.0373 921.703 -69.3771 936.377 -78.504C958.064 -92.0531 991.158 -107.143 1025.65 -102.095C1034.63 -100.779 1043.56 -98.3874 1052.93 -94.7808C1072.88 -87.1589 1091.12 -75.0498 1108.77 -63.3396C1113.04 -60.5081 1117.45 -57.5794 1121.73 -54.8209C1141.8 -41.9058 1161.52 -27.6495 1180.35 -12.4527C1219.28 18.9123 1256.54 55.89 1294.26 100.59L1293.9 100.741Z" fill="#FDFCFC"/>
<path d="M1292.53 88.9582C1257.91 43.5965 1220.19 4.89328 1180.4 -26.0777C1161.05 -41.1723 1140.56 -54.9761 1119.48 -67.1063C1116.44 -68.8561 1113.33 -70.674 1110.31 -72.4335C1090.38 -84.0464 1069.79 -96.055 1047.85 -102.639C1038.43 -105.495 1029.51 -107.238 1020.59 -107.971C986.351 -110.78 955.333 -94.349 935.34 -80.0555C922.926 -71.2303 911.722 -61.4158 900.885 -51.9241C899.008 -50.2808 897.133 -48.6423 895.26 -47.0088C884.952 -38.0376 875.315 -28.0172 865.112 -17.4065C847.766 0.629883 829.826 19.2793 806.892 34.3593C793.422 43.2153 779.304 50.0637 763.713 55.2936C731.109 66.2352 698.535 70.2861 670.967 72.8078C651.873 74.5288 632.63 75.2681 613.386 75.0199C597.41 74.8133 581.467 73.9077 565.647 72.3083C519.758 67.6363 476.132 56.0445 435.984 37.854C419.28 30.2872 402.19 20.9885 383.74 9.44698C365.101 -2.19023 347.73 -13.388 330.933 -24.2176C319.515 -31.5784 308.732 -38.5306 298.201 -45.2006C258.392 -70.4145 221.928 -92.583 178.793 -108.518C153.25 -117.924 126.196 -125.09 98.2246 -129.859C78.017 -133.32 56.4162 -135.005 30.2487 -135.164C24.6034 -135.194 18.8487 -135.147 13.1601 -135.024C4.51202 -134.825 -4.4324 -134.406 -13.9035 -133.965C-32.0751 -133.117 -52.6635 -132.155 -74.8639 -132.694C-83.3136 -132.9 -91.9342 -133.19 -100.272 -133.472C-121.718 -134.197 -143.893 -134.946 -164.796 -134.283C-180.138 -133.796 -194.646 -132.246 -207.918 -129.694C-255.155 -120.604 -290.741 -102.592 -303.106 -81.5101L-303.527 -81.635C-300.29 -87.1487 -295.493 -92.5003 -289.268 -97.5275C-283.292 -102.357 -275.971 -106.919 -267.506 -111.085C-251.197 -119.112 -230.633 -125.654 -208.036 -130.002C-194.712 -132.559 -180.184 -134.108 -164.808 -134.602C-143.893 -135.272 -121.716 -134.523 -100.252 -133.792C-91.916 -133.509 -83.2953 -133.219 -74.8479 -133.013C-52.6818 -132.475 -32.0956 -133.436 -13.9332 -134.283C-4.45975 -134.726 4.48926 -135.144 13.1464 -135.342C18.8464 -135.467 24.6011 -135.514 30.2464 -135.483C56.4504 -135.321 78.0831 -133.636 98.3249 -130.169C126.334 -125.396 153.425 -118.222 179.003 -108.805C198.488 -101.608 218.232 -92.4905 239.366 -80.9296C258.29 -70.5816 276.692 -59.259 298.504 -45.4438C309.036 -38.7722 319.822 -31.8217 331.238 -24.4592C348.035 -13.6296 365.404 -2.43187 384.041 9.20372C402.475 20.7404 419.545 30.0229 436.23 37.5832C476.324 55.7461 519.888 67.3249 565.714 71.9905C581.514 73.588 597.438 74.4925 613.395 74.6987C632.616 74.947 651.837 74.2077 670.908 72.4868C698.441 69.9715 730.977 65.927 763.52 55.005C779.062 49.7896 793.148 42.9591 806.582 34.1258C829.48 19.0717 847.394 0.435257 864.735 -17.5849C874.945 -28.2005 884.587 -38.2273 894.907 -47.2098C896.782 -48.8413 898.657 -50.4792 900.529 -52.1236C911.373 -61.6266 922.588 -71.4443 935.028 -80.276C948.035 -89.5699 961.38 -96.7199 974.7 -101.52C990.466 -107.214 1005.94 -109.487 1020.66 -108.279C1029.63 -107.543 1038.59 -105.792 1048.04 -102.928C1070.04 -96.3242 1090.67 -84.301 1110.61 -72.6719C1113.63 -70.914 1116.75 -69.0961 1119.79 -67.3463C1140.88 -55.2096 1161.39 -41.3993 1180.75 -26.2885C1201.88 -9.84296 1222.57 8.90208 1242.25 29.4018C1259.64 47.5274 1276.7 67.5114 1292.95 88.8106L1292.53 88.9582Z" fill="#FDFCFC"/>
<path d="M1291.17 77.174C1259.13 30.5149 1221.98 -8.87421 1180.77 -39.8954C1160.9 -54.8944 1139.62 -68.2506 1117.53 -79.5959L1114.37 -81.2176C1091.4 -93.03 1067.65 -105.244 1042.98 -110.745C1033.42 -112.876 1024.48 -113.989 1015.63 -114.123C981.537 -114.67 952.455 -96.8588 934.067 -81.8209C923.246 -73.0216 913.643 -63.3807 904.354 -54.0544C902.056 -51.75 899.682 -49.3661 897.336 -47.0438C888.405 -38.1991 880.106 -28.1415 871.319 -17.4951C855.334 1.8727 838.804 21.8989 815.988 37.8044C802.787 47.0026 788.551 53.9012 772.465 58.896C740.773 68.7332 708.598 71.3165 678.547 72.6431C660.018 73.4539 640.654 73.3225 620.993 72.2295C605.064 71.3249 589.223 69.7545 573.553 67.5266C529.226 61.2021 486.179 48.141 445.616 28.7051C429.371 20.921 412.759 11.6774 393.338 -0.415504C356.422 -23.3218 329.007 -39.4543 304.47 -52.723C255.648 -79.1175 218.386 -94.6452 179.879 -104.644C153.875 -111.376 126.87 -115.964 99.3954 -118.319C80.2252 -119.971 59.8807 -119.822 33.4327 -117.832C28.0132 -117.42 22.4682 -116.934 16.9506 -116.389C11.7408 -115.865 6.44437 -115.265 0.83786 -114.631C-19.8623 -112.287 -43.3258 -109.631 -70.1796 -110.127C-84.3339 -110.388 -98.789 -111.1 -112.772 -111.794C-128.659 -112.581 -145.091 -113.393 -160.666 -113.504C-176.286 -113.614 -190.883 -112.724 -204.048 -110.86C-251.13 -104.194 -288.453 -89.4282 -303.884 -71.3626L-304.324 -71.5523C-300.314 -76.2455 -294.851 -80.7522 -288.086 -84.9475C-281.556 -89.0017 -273.781 -92.7786 -264.978 -96.1874C-247.878 -102.807 -226.836 -108.005 -204.146 -111.217C-190.949 -113.087 -176.33 -113.974 -160.661 -113.869C-145.071 -113.758 -128.632 -112.946 -112.736 -112.159C-98.7594 -111.469 -84.3088 -110.753 -70.1659 -110.492C-43.36 -109.998 -19.9215 -112.651 0.758057 -114.991C6.36002 -115.628 11.6564 -116.23 16.8754 -116.755C22.3998 -117.302 27.9493 -117.787 33.3734 -118.199C59.8625 -120.188 80.2434 -120.336 99.4524 -118.685C126.969 -116.327 154.014 -111.732 180.057 -104.99C218.617 -94.9776 255.917 -79.4338 304.773 -53.0181C329.329 -39.743 356.744 -23.6056 393.659 -0.694427C413.064 11.3806 429.658 20.6259 445.885 28.3986C486.394 47.8086 529.376 60.8502 573.638 67.1569C589.288 69.38 605.108 70.9465 621.016 71.8484C640.654 72.9382 660.004 73.0777 678.499 72.262C708.504 70.9371 740.627 68.3586 772.244 58.5425C788.272 53.5672 802.458 46.6929 815.612 37.5255C838.382 21.6605 854.892 1.6554 870.861 -17.6913C879.653 -28.3458 887.961 -38.41 896.903 -47.2676C899.249 -49.5882 901.623 -51.9705 903.919 -54.2782C913.214 -63.6093 922.829 -73.26 933.666 -82.0706C945.665 -91.885 958.244 -99.6497 971.058 -105.147C986.065 -111.587 1001.06 -114.731 1015.63 -114.499C1024.52 -114.357 1033.51 -113.246 1043.11 -111.105C1067.87 -105.592 1091.65 -93.3543 1114.66 -81.5257L1117.81 -79.904C1139.93 -68.5522 1161.23 -55.1733 1181.13 -40.1581C1222.38 -9.11097 1259.56 30.3074 1291.61 77.0005L1291.17 77.174Z" fill="#FDFCFC"/>
<path d="M689.881 72.4704C688.603 72.4704 687.343 72.4704 686.101 72.4704C667.665 72.4152 648.31 71.3936 628.572 69.4313C612.695 67.8318 596.956 65.6006 581.43 62.7484C559.727 58.7493 537.942 53.002 516.678 45.6672C496.158 38.5853 475.47 29.8006 455.219 19.558C435.383 9.52466 416.842 -1.65524 402.911 -10.281C370.307 -30.3899 339.299 -47.2051 310.735 -60.2484C264.465 -81.3724 223.231 -94.2502 180.967 -100.774C154.94 -104.75 128.396 -106.765 101.776 -106.786H100.549C77.9222 -106.731 56.4423 -103.74 36.5995 -100.516C31.4352 -99.6715 26.0932 -98.7472 20.7215 -97.7709C17.778 -97.2293 14.8323 -96.6714 11.711 -96.0811C-10.2888 -91.9118 -35.2251 -87.1878 -65.5195 -87.5754C-83.9692 -87.8105 -102.813 -89.1711 -121.037 -90.4944C-132.802 -91.3442 -144.977 -92.2231 -156.576 -92.7518C-172.536 -93.4816 -187.212 -93.2464 -200.215 -92.0561C-247.046 -87.7684 -286.112 -76.2463 -304.714 -61.2441L-305.141 -61.5133C-295.601 -69.2098 -281.249 -75.8765 -262.482 -81.3238C-244.561 -86.5278 -223.056 -90.3793 -200.288 -92.4648C-187.249 -93.6583 -172.529 -93.8935 -156.539 -93.1637C-144.923 -92.6334 -132.75 -91.7545 -120.971 -90.9047C-102.761 -89.5895 -83.9282 -88.2305 -65.5012 -87.9954C-35.2867 -87.6078 -10.3914 -92.3253 11.5627 -96.4865C14.6841 -97.0784 17.6321 -97.6363 20.5779 -98.178C25.9541 -99.151 31.2939 -100.08 36.4695 -100.925C56.3442 -104.154 77.8629 -107.151 100.538 -107.206C127.608 -107.249 154.607 -105.231 181.074 -101.186C202.889 -97.8196 224.034 -92.8604 245.721 -86.0299C266.606 -79.4507 287.969 -71.1331 311.029 -60.6051C339.621 -47.5522 370.656 -30.7288 403.271 -10.6037C417.179 -1.99093 435.711 9.18085 455.534 19.2045C496.626 39.9848 539.027 54.4956 581.558 62.3316C597.062 65.1796 612.779 67.4081 628.633 69.0065C648.349 70.9655 667.678 71.9855 686.089 72.0406C714.893 72.125 748.333 71.4358 780.965 62.0851C797.477 57.353 811.763 50.4333 824.636 40.9319C847.247 24.2447 862.238 2.82223 876.734 -17.8867C884.189 -28.5412 891.235 -38.6053 898.893 -47.317C901.346 -50.108 903.823 -52.9848 906.216 -55.766C914.306 -65.1604 922.669 -74.8759 932.304 -83.8552C943.317 -94.1854 955.134 -102.565 967.416 -108.759C981.666 -115.94 996.194 -119.96 1010.6 -120.703C1019.49 -121.162 1028.51 -120.693 1038.19 -119.27C1064.04 -115.465 1089.67 -104.412 1115.84 -92.4486C1138.65 -82.0179 1161.36 -68.7282 1181.5 -54.0146C1203.88 -37.7183 1224.9 -18.6002 1243.98 2.80763C1260.99 21.8803 1276.57 42.8746 1290.27 65.2085L1289.75 65.3707C1260.3 17.4077 1223.74 -22.6642 1181.08 -53.7308C1160.97 -68.4233 1138.3 -81.6935 1115.52 -92.108C1089.43 -104.031 1063.85 -115.065 1038.08 -118.856C1028.47 -120.27 1019.49 -120.737 1010.66 -120.282C984.195 -118.914 956.532 -105.884 932.765 -83.5909C923.148 -74.6278 914.792 -64.922 906.709 -55.5357C904.315 -52.7529 901.839 -49.876 899.383 -47.0851C891.739 -38.3896 884.7 -28.3336 877.251 -17.6872C870.138 -7.52413 862.783 2.98602 854.342 13.0891C844.766 24.5415 835.19 33.7478 825.053 41.2302C812.123 50.7738 797.773 57.7244 781.186 62.4743C766.555 66.668 750.83 69.4395 733.11 70.9509C718.112 72.2352 703.041 72.4704 689.881 72.4704Z" fill="#FDFCFC"/>
<path d="M726.444 73.2834C714.816 73.2834 703.644 72.7969 693.662 72.291C675.29 71.3747 655.944 69.4676 636.158 66.6264C620.339 64.3302 604.704 61.4368 589.318 57.9585C548.075 48.6111 507.356 33.0559 464.83 10.4026C446.286 0.524887 428.806 -10.1036 412.495 -20.1435C380.306 -39.8956 348.171 -55.926 317.013 -67.7675C271.185 -85.1828 228.307 -94.441 182.073 -96.9027C155.284 -98.2955 128.366 -97.7407 101.735 -95.247C79.7925 -93.168 59.0992 -88.1521 39.7945 -83.1914C34.9632 -81.9443 29.8241 -80.5821 24.5185 -79.1372C23.1931 -78.775 21.8547 -78.408 20.5034 -78.036C-1.73798 -71.919 -26.9046 -64.9977 -59.2031 -64.9977C-59.748 -64.9977 -60.2906 -64.9977 -60.8401 -64.9977C-82.6917 -65.1599 -105.001 -67.3735 -126.579 -69.519C-135.134 -70.3704 -143.978 -71.2493 -152.469 -71.9612C-169.049 -73.3494 -183.411 -73.7581 -196.37 -73.2099C-243.514 -71.2169 -283.307 -63.1457 -305.541 -51.0674L-305.922 -51.4209C-294.93 -57.3936 -279.036 -62.5765 -259.964 -66.4134C-241.204 -70.1855 -219.225 -72.691 -196.407 -73.6559C-183.411 -74.2056 -169.012 -73.7953 -152.403 -72.4039C-143.905 -71.692 -135.056 -70.8114 -126.5 -69.9617C-104.942 -67.8178 -82.6529 -65.601 -60.8356 -65.4437C-27.8645 -65.2037 -2.28973 -72.2385 20.2754 -78.4447C21.6267 -78.8177 22.9651 -79.1853 24.2905 -79.5475C29.5983 -80.9875 34.7397 -82.3497 39.5665 -83.6017C58.9077 -88.5689 79.6329 -93.5945 101.637 -95.68C128.31 -98.1775 155.272 -98.7328 182.103 -97.3373C204.755 -96.1568 227.156 -93.2087 248.902 -88.5462C271.586 -83.7022 293.962 -77.0322 317.302 -68.1616C348.502 -56.3055 380.666 -40.2686 412.905 -20.4841C429.209 -10.4491 446.679 0.172974 465.206 10.0425C507.669 32.6651 548.326 48.1992 589.502 57.5304C604.867 61.0044 620.48 63.894 636.277 66.1869C656.035 69.0249 675.353 70.9271 693.698 71.8434C724.565 73.3856 757.402 74.177 789.705 65.6502C806.702 61.163 821.084 54.1994 833.677 44.3607C856.107 26.8335 870.068 2.92822 882.387 -18.1618C888.584 -28.7741 894.439 -38.7978 900.898 -47.3424C903.23 -50.4236 905.574 -53.6118 907.843 -56.6947C914.938 -66.334 922.273 -76.3041 930.96 -85.6142C941.008 -96.46 952.061 -105.456 963.812 -112.349C977.31 -120.27 991.371 -125.161 1005.6 -126.883C1014.49 -127.96 1023.55 -128.133 1033.28 -127.413C1060.47 -125.397 1088.09 -115.435 1113.89 -104.972C1137.71 -95.3103 1161.24 -82.473 1181.91 -67.8486C1204.91 -51.6318 1226.1 -32.3191 1244.89 -10.4604C1261.69 9.08739 1276.53 30.5844 1288.98 53.434L1288.39 53.5962C1261.92 5.02019 1224.95 -36.8663 1181.46 -67.534C1160.83 -82.1292 1137.35 -94.9405 1113.58 -104.586C1087.84 -115.027 1060.29 -124.963 1033.21 -126.966C1023.54 -127.682 1014.54 -127.51 1005.7 -126.44C979.426 -123.257 953.067 -108.67 931.477 -85.3645C922.813 -76.0722 915.481 -66.115 908.392 -56.4839C906.124 -53.4027 903.78 -50.2144 901.445 -47.1283C895.002 -38.6031 889.154 -28.5892 882.961 -17.9883C870.622 3.13742 856.639 27.08 834.135 44.6639C821.474 54.5562 807.003 61.5586 789.917 66.0702C775.085 69.9849 759.082 72.2504 740.997 72.9964C736.109 73.2007 731.239 73.2834 726.444 73.2834Z" fill="#FDFCFC"/>
<path d="M749.392 75.0409H748.895C732.465 75.0117 716.334 73.5814 701.218 72.1219C682.878 70.3478 663.538 67.5585 643.741 63.8302C627.985 60.8399 612.452 57.2838 597.202 53.1758C557.607 42.4953 518.603 25.9963 474.451 1.25424C458.55 -7.65368 442.903 -17.246 427.771 -26.5204L422.089 -30.0021C389.713 -49.7575 356.479 -64.9932 323.294 -75.2828C277.851 -89.3753 232.021 -95.1809 183.184 -93.0322C156.065 -91.8134 129.183 -88.6922 102.928 -83.714C82.6355 -79.8333 64.5369 -73.6076 42.9954 -65.8754C38.627 -64.3024 33.9666 -62.6012 28.3259 -60.5239L28.0113 -60.4071C17.122 -56.3772 4.78949 -51.8089 -9.04782 -48.3272C-24.9371 -44.3378 -40.3522 -42.4177 -56.1595 -42.4388C-80.8108 -42.4826 -105.964 -45.7471 -130.289 -48.9029C-136.249 -49.6764 -142.412 -50.4759 -148.363 -51.1992C-165.428 -53.2701 -179.875 -54.3161 -192.526 -54.3939C-239.111 -54.6858 -280.612 -49.777 -306.385 -40.9339L-306.684 -41.3718C-294.059 -45.7082 -277.03 -49.2272 -257.436 -51.5495C-237.805 -53.8782 -215.358 -55.0328 -192.519 -54.8885C-179.831 -54.8107 -165.349 -53.7533 -148.246 -51.6857C-142.291 -50.964 -136.126 -50.1629 -130.164 -49.3894C-105.868 -46.2368 -80.7447 -42.9772 -56.1549 -42.9334H-55.8266C-20.653 -42.9334 6.14383 -52.8598 27.6898 -60.8401L28.0067 -60.9569C33.6497 -63.0326 38.3123 -64.7338 42.6808 -66.3084C64.2587 -74.0585 82.3824 -80.2938 102.745 -84.1859C129.046 -89.1736 155.976 -92.3003 183.142 -93.5203C207.041 -94.5712 229.584 -93.7701 252.062 -91.0683C276.287 -88.1493 299.676 -83.1415 323.568 -75.732C356.817 -65.423 390.114 -50.1613 422.536 -30.3735L428.22 -26.8933C443.345 -17.6206 458.988 -8.03316 474.878 0.868271C518.973 25.5795 557.92 42.0591 597.448 52.7184C612.677 56.8202 628.188 60.3713 643.921 63.3583C663.689 67.0784 683.001 69.8645 701.314 71.637C734.116 74.8106 766.23 77.0129 798.442 69.2045C815.925 64.967 830.405 57.9581 842.712 47.7804C864.942 29.397 877.086 3.92029 887.802 -18.5563C892.818 -29.0794 897.555 -39.0203 902.9 -47.3736C904.952 -50.5878 907.02 -53.9123 909.015 -57.1281C915.253 -67.1825 921.703 -77.5775 929.612 -87.379C938.716 -98.7454 949.004 -108.359 960.192 -115.95C972.944 -124.603 986.532 -130.363 1000.58 -133.068C1009.29 -134.745 1018.18 -135.562 1027.74 -135.562H1028.36C1058.06 -135.454 1088.62 -125.857 1111.93 -117.507C1136.77 -108.613 1161.1 -96.2285 1182.3 -81.695C1205.93 -65.5495 1227.29 -46.0503 1245.78 -23.7376C1262.38 -3.71623 1276.47 18.2868 1287.67 41.6569L1287.02 41.8191C1270.36 7.04367 1238.59 -42.5507 1181.83 -81.3398C1160.67 -95.8409 1136.4 -108.195 1111.63 -117.067C1088.37 -125.393 1057.91 -134.962 1028.36 -135.068C1018.63 -135.108 1009.6 -134.294 1000.77 -132.593C974.736 -127.581 949.678 -111.435 930.212 -87.1309C922.321 -77.3521 915.877 -66.9668 909.646 -56.9254C907.651 -53.7079 905.588 -50.3818 903.529 -47.166C898.198 -38.8338 893.465 -28.9059 888.456 -18.3941C877.722 4.12462 865.556 29.6483 843.237 48.1047C830.849 58.3506 816.271 65.4048 798.67 69.6731C783.745 73.2814 767.62 75.0409 749.392 75.0409Z" fill="#FDFCFC"/>
<path d="M767.639 77.323C764.1 77.323 760.481 77.2419 756.781 77.0798C740.575 76.3711 724.825 74.245 708.774 71.9422C690.164 69.2729 671.382 65.702 651.318 61.0251C635.454 57.2952 619.897 53.0399 605.077 48.3759C567.487 36.583 530.163 19.2229 484.059 -7.91116C472.609 -14.6493 461.164 -21.7166 450.087 -28.552C444.061 -32.2819 437.832 -36.1204 431.663 -39.8778C398.908 -59.7662 364.555 -74.2122 329.564 -82.8168C283.328 -94.1881 235.806 -96.2768 184.285 -89.1819C157.062 -85.4391 129.337 -79.567 104.097 -72.2013C83.8235 -66.2854 66.1627 -57.9775 47.4621 -49.1733L46.1693 -48.5652C43.2479 -47.1868 40.2946 -45.79 37.3093 -44.3748L32.1063 -41.9114C21.2011 -36.722 9.42715 -31.3186 -4.07959 -27.1541C-19.7569 -22.3215 -35.2677 -19.9441 -51.5036 -19.8857C-78.5216 -19.7933 -106.08 -24.2642 -132.726 -28.5812C-136.532 -29.1974 -140.465 -29.8363 -144.284 -30.4412C-162.188 -33.2792 -176.306 -34.9139 -188.712 -35.5836C-234.499 -38.0599 -277.709 -36.315 -307.272 -30.7948L-307.461 -31.304C-277.821 -36.8388 -234.526 -38.5902 -188.659 -36.109C-176.217 -35.436 -162.068 -33.7981 -144.129 -30.9553C-140.305 -30.3504 -136.377 -29.7115 -132.567 -29.0952C-106.244 -24.8253 -79.0346 -20.4111 -52.3745 -20.4111H-51.5127C-17.0277 -20.5344 7.51877 -30.858 31.6822 -42.3477L36.8852 -44.8094C39.8766 -46.2257 42.8314 -47.623 45.7498 -49.0014L47.0426 -49.6096C65.7728 -58.4202 83.4633 -66.7427 103.815 -72.678C129.098 -80.0551 156.875 -85.9386 184.144 -89.6895C235.797 -96.7941 283.444 -94.7054 329.806 -83.305C364.886 -74.6776 399.316 -60.1976 432.144 -40.267C438.316 -36.5096 444.547 -32.6613 450.573 -28.9396C461.64 -22.1058 473.081 -15.0401 484.524 -8.30522C530.58 18.7964 567.845 36.129 605.364 47.9056C620.162 52.5534 635.688 56.8006 651.534 60.5272C671.555 65.1977 690.319 68.7637 708.899 71.4298C737.103 75.4759 772.203 80.5112 807.167 72.7547C825.136 68.767 839.714 61.7143 851.734 51.1976C873.75 31.9304 883.958 4.8353 892.966 -19.0716C896.878 -29.4504 900.574 -39.2664 904.888 -47.4073C906.568 -50.5793 908.251 -53.86 909.881 -57.0337C915.353 -67.6768 920.994 -78.6815 928.249 -89.143C936.432 -101.04 945.953 -111.271 956.555 -119.554C968.566 -128.939 981.685 -135.569 995.543 -139.255C1004.51 -141.63 1013.89 -143.13 1023.42 -143.711C1036.62 -144.561 1050.68 -143.653 1066.39 -140.941C1079.7 -138.656 1093.95 -135.089 1109.97 -130.048C1135.81 -121.922 1160.96 -109.991 1182.7 -95.5471C1206.96 -79.4778 1228.48 -59.7873 1246.68 -37.022C1263.06 -16.5223 1276.41 5.98506 1286.35 29.8741L1285.64 30.0233C1264.65 -20.4111 1227.91 -64.8696 1182.19 -95.1627C1160.52 -109.567 1135.44 -121.466 1109.68 -129.567C1075.15 -140.422 1047.78 -144.752 1023.51 -143.189C1014.04 -142.612 1004.73 -141.123 995.826 -138.763C962.846 -129.995 941.245 -106.816 928.933 -88.9144C921.694 -78.474 916.053 -67.4822 910.595 -56.852C908.967 -53.6784 907.28 -50.3961 905.599 -47.2208C901.299 -39.1124 897.619 -29.3077 893.7 -18.9338C884.674 5.02179 874.443 32.1769 852.327 51.5301C840.214 62.1311 825.519 69.2373 807.411 73.2607C795.122 75.9786 782.028 77.323 767.639 77.323Z" fill="#FDFCFC"/>
<path d="M783.446 79.9461C759.335 79.9461 736.155 75.54 716.323 71.7712C697.664 68.2262 678.881 63.7958 658.901 58.2285C643.126 53.8013 627.665 48.8795 612.964 43.6009C568.88 27.7976 529.58 5.11021 493.679 -17.0501C486.346 -21.5746 478.943 -26.2386 471.791 -30.7485C461.848 -37.0114 451.567 -43.4868 441.266 -49.7222C408.015 -69.8181 372.552 -83.4776 335.864 -90.3308C288.401 -99.1966 239.192 -97.5571 185.411 -85.3166C157.725 -79.0147 130.023 -70.4928 105.299 -60.667C86.2314 -53.0921 70.1004 -43.5306 53.0209 -33.4081L49.3729 -31.2512L48.7117 -30.8588C44.5598 -28.3954 40.2757 -25.8494 35.9118 -23.2936C25.483 -17.1442 13.9987 -10.7823 0.715393 -5.92049C-14.7042 -0.278656 -30.2493 2.53497 -46.8112 2.67444C-75.888 2.93228 -105.521 -2.88147 -134.174 -8.50385C-136.182 -8.89737 -138.181 -9.28874 -140.173 -9.67795C-159.072 -13.3657 -172.854 -15.5517 -184.861 -16.7679C-229.498 -21.286 -274.424 -22.7066 -308.117 -20.66L-308.184 -21.2243C-274.44 -23.2709 -229.444 -21.8487 -184.749 -17.3242C-172.704 -16.1047 -158.889 -13.9187 -139.958 -10.2212L-133.957 -9.04549C-105.357 -3.43445 -75.7832 2.3647 -46.818 2.11172C-10.8465 1.78738 14.4866 -11.3953 35.4079 -23.7331C39.7604 -26.2889 44.0536 -28.8349 48.2055 -31.2966L48.8667 -31.6891L52.5147 -33.8459C69.6147 -43.9863 85.7822 -53.564 104.916 -61.1632C129.684 -71.002 157.436 -79.5385 185.172 -85.8518C210.667 -91.6558 234.614 -95.0062 258.378 -96.0943C284.888 -97.309 311.026 -95.5527 336.069 -90.8741C372.875 -83.9998 408.441 -70.2998 441.779 -50.1601C452.087 -43.9166 462.37 -37.4396 472.315 -31.175C479.472 -26.6651 486.875 -22.0027 494.203 -17.4799C530.063 4.65128 569.316 27.3127 613.32 43.0885C628.005 48.3589 643.438 53.2726 659.191 57.6934C679.143 63.2525 697.896 67.6764 716.526 71.2166C745.131 76.6525 780.733 83.4182 815.909 76.299C834.377 72.5691 849.042 65.4693 860.772 54.6089C882.56 34.4368 890.714 5.67293 897.907 -19.7064C900.796 -29.902 903.527 -39.5348 906.892 -47.4373C908.137 -50.3563 909.387 -53.3856 910.595 -56.3095C915.324 -67.7456 920.214 -79.5726 926.902 -90.913C934.179 -103.346 942.937 -114.199 952.93 -123.163C964.207 -133.281 976.856 -140.777 990.527 -145.442C999.401 -148.471 1008.81 -150.632 1018.5 -151.864C1031.9 -153.604 1046.77 -153.546 1062.68 -151.691C1076.63 -150.069 1091.87 -147.002 1108 -142.583C1134.85 -135.226 1160.81 -123.749 1183.08 -109.394C1207.97 -93.4007 1229.66 -73.5172 1247.56 -50.2995C1263.73 -29.3214 1276.34 -6.30971 1285.03 18.0967L1284.26 18.2361C1265.84 -33.4843 1229.72 -78.6547 1182.55 -108.98C1160.35 -123.288 1134.47 -134.728 1107.71 -142.063C1073.03 -151.567 1043.89 -154.593 1018.64 -151.306C1009.03 -150.082 999.684 -147.938 990.874 -144.931C958.347 -133.831 938.534 -109.309 927.64 -90.6941C920.969 -79.3812 916.085 -67.5721 911.363 -56.1522C910.153 -53.2332 908.903 -50.2022 907.658 -47.2751C904.302 -39.3921 901.578 -29.7739 898.691 -19.5897C895.23 -7.38002 891.306 6.45782 885.613 19.4313C879.09 34.2957 871.172 45.9167 861.406 54.9592C855.759 60.1875 849.27 64.6374 842.118 68.184C834.425 71.9999 825.681 74.9156 816.126 76.8487C805.195 79.0591 794.226 79.9461 783.446 79.9461Z" fill="#FDFCFC"/>
<path d="M797.698 82.8125C789.718 82.8125 781.376 82.2612 772.552 81.16C755.178 78.9902 738.548 75.0576 723.874 71.5921C705.379 67.2135 686.069 61.7776 666.48 55.4223C650.805 50.3091 635.451 44.7191 620.843 38.8113C578.921 21.868 542.803 -0.657227 503.293 -26.2053C499.782 -28.4756 496.225 -30.793 492.766 -33.0326C479.191 -41.8529 465.151 -50.9733 450.849 -59.5909C417.052 -79.9106 380.483 -92.7836 342.159 -97.8497C293.823 -104.241 241.451 -98.7254 186.531 -81.4593C158.35 -72.5984 130.671 -61.4283 106.503 -49.1537C88.2968 -39.9101 73.3104 -29.0156 57.4438 -17.479C55.8266 -16.3146 54.2039 -15.1378 52.576 -13.9486C48.5222 -11.0068 44.1606 -7.84941 39.7191 -4.68874C30.4099 1.96017 19.0646 9.53992 5.5191 15.3034C-9.6543 21.7545 -25.2358 25.0059 -42.1192 25.2411C-73.0223 25.6741 -104.479 18.396 -134.902 11.3595L-136.062 11.0903C-150.957 7.6458 -166.714 4.1673 -181.019 2.05424C-224.622 -4.38547 -270.064 -8.85646 -308.973 -10.5349L-308.92 -11.1414C-269.973 -9.46135 -224.487 -4.97902 -180.846 1.45744C-166.5 3.577 -150.716 7.06198 -135.798 10.5129L-134.637 10.7805C-104.281 17.8024 -72.8878 25.0627 -42.1351 24.6329C-6.62186 24.1367 17.9064 10.0378 39.1241 -5.11687C43.5609 -8.27754 47.9225 -11.4414 51.9741 -14.3751C53.602 -15.5535 55.2216 -16.7292 56.8328 -17.9022C72.7267 -29.4584 87.7405 -40.3739 106.006 -49.6467C130.224 -61.9505 157.951 -73.1401 186.186 -82.0204C211.95 -90.1289 237.306 -95.7026 261.545 -98.6087C289.238 -101.928 316.413 -101.876 342.314 -98.4465C380.787 -93.3609 417.49 -80.4458 451.403 -60.0563C465.717 -51.4306 479.761 -42.3053 493.355 -33.4818C496.802 -31.2406 500.368 -28.9248 503.879 -26.6561C543.353 -1.13239 579.432 21.3701 621.279 38.2827C635.871 44.1824 651.195 49.7626 666.847 54.8693C686.407 61.2166 705.689 66.6476 724.155 71.0148C753.111 77.8615 789.135 86.3819 824.661 79.8546C843.608 76.3728 858.378 69.2358 869.806 58.0332C891.354 36.9269 897.59 5.11273 902.599 -20.4564C904.55 -30.4119 906.395 -39.8161 908.894 -47.472C909.68 -49.8851 910.476 -52.3712 911.242 -54.7696C915.234 -67.2566 919.361 -80.1831 925.554 -92.6765C935.114 -112.124 953.269 -138.132 985.502 -151.63C994.278 -155.32 1003.72 -158.141 1013.57 -160.017C1039.7 -165.104 1070.81 -163.458 1106.03 -155.128C1133.89 -148.539 1160.67 -137.521 1183.48 -123.25C1208.99 -107.332 1230.85 -87.2487 1248.46 -63.5835C1256.69 -52.4712 1263.77 -40.9504 1269.66 -29.1113C1275.43 -17.5352 1280.13 -5.70169 1283.72 6.31276L1282.88 6.43925C1267.04 -46.5607 1231.54 -92.456 1182.92 -122.793C1160.19 -137.005 1133.51 -147.986 1105.76 -154.55C1070.7 -162.842 1039.76 -164.485 1013.79 -159.43C1004.02 -157.569 994.646 -154.769 985.935 -151.106C953.931 -137.703 935.873 -111.827 926.365 -92.4803C920.189 -80.0177 916.067 -67.1171 912.081 -54.6399C911.313 -52.2333 910.519 -49.7473 909.731 -47.3326C907.241 -39.7107 905.399 -30.313 903.451 -20.3704C900.93 -7.50722 898.073 7.07333 893.191 20.8317C887.58 36.6431 880.159 48.9274 870.503 58.3851C864.995 63.7804 858.554 68.3309 851.351 71.9083C843.599 75.7647 834.689 78.6335 824.865 80.4384C816.242 82.0212 807.242 82.8125 797.698 82.8125Z" fill="#FDFCFC"/>
<path d="M810.83 85.8461C801.277 85.8461 791.202 84.9639 780.438 83.1995C763 80.3404 746.224 75.5954 731.418 71.4082C712.781 66.1394 693.481 59.8148 674.051 52.6129C658.478 46.8169 643.225 40.5589 628.715 34.0154C588.79 16.0147 554.544 -7.1657 518.288 -31.7164L512.898 -35.3652C496.04 -46.7689 478.604 -58.5553 460.433 -69.4579C426.046 -90.0355 388.369 -102.12 348.448 -105.377C298.302 -109.468 244.2 -100.127 187.64 -77.6133C159.352 -66.3524 130.955 -52.1529 107.678 -37.6453C90.1038 -26.6876 76.0088 -14.3579 61.0862 -1.30333C59.3215 0.241608 57.5469 1.7914 55.7625 3.34605C52.1988 6.45483 47.9534 10.1409 43.512 13.9113C35.288 20.9122 24.0773 29.8038 10.2924 36.5014C-4.63705 43.752 -20.2596 47.4478 -37.4554 47.7964C-51.5914 48.0478 -67.1911 46.4991 -85.1461 43.0514C-100.564 40.0934 -115.47 36.2274 -131.982 31.8472C-147.046 27.8027 -162.944 23.622 -177.208 20.8619C-219.456 12.687 -264.076 5.5256 -309.852 -0.421112L-309.687 -1.06007C-263.896 4.89151 -219.242 12.0561 -176.969 20.2359C-162.666 23.0041 -146.743 27.1897 -131.66 31.2407C-103.999 38.582 -69.5737 47.7219 -37.4805 47.1494C-0.772461 46.4018 22.7959 30.5336 42.812 13.4946C47.2512 9.72739 51.492 6.03481 55.0556 2.93576C56.8401 1.38219 58.6147 -0.167068 60.3794 -1.71199C75.3271 -14.7876 89.4449 -27.1384 107.076 -38.1318C130.398 -52.6751 158.853 -66.8956 187.195 -78.1793C243.924 -100.761 298.213 -110.127 348.551 -106.022C367.99 -104.422 386.983 -100.759 404.897 -95.1568C424.302 -89.1095 443.185 -80.6313 461.019 -69.9574C479.213 -59.0483 496.657 -47.2538 513.527 -35.8371L518.917 -32.1899C555.139 -7.66194 589.353 15.5054 629.205 33.464C643.692 39.9978 658.923 46.2461 674.472 52.0355C693.875 59.2261 713.148 65.541 731.753 70.8033C760.998 79.0739 797.392 89.3667 833.381 83.3957C852.875 80.162 867.741 72.9812 878.829 61.4445C900.183 39.4091 903.989 5.74777 907.046 -21.2987C908.138 -30.9737 909.173 -40.1103 910.886 -47.4986C911.238 -49.023 911.592 -50.5555 911.946 -52.0961C915.138 -66.0134 918.448 -80.4027 924.196 -94.4464C932.404 -114.646 948.82 -142.036 980.467 -157.812C989.147 -162.159 998.623 -165.642 1008.63 -168.165C1022.7 -171.764 1038.38 -173.455 1055.23 -173.192C1070.62 -172.955 1087.04 -171.095 1104.05 -167.666C1132.93 -161.845 1160.52 -151.277 1183.87 -137.1C1210.01 -121.259 1232.04 -100.992 1249.34 -76.8625C1257.43 -65.5313 1264.26 -53.7674 1269.77 -41.6784C1275.19 -29.8349 1279.41 -17.7318 1282.4 -5.46132L1281.5 -5.34943C1268.45 -58.8504 1232.64 -106.69 1183.27 -136.602C1160.02 -150.711 1132.55 -161.242 1103.81 -167.036C1068.38 -174.181 1035.57 -174.357 1008.94 -167.546C999.01 -165.041 989.609 -161.586 980.993 -157.274C949.566 -141.607 933.239 -114.358 925.076 -94.2583C919.344 -80.2502 916.043 -65.8788 912.851 -51.9842C912.495 -50.4426 912.142 -48.9095 911.791 -47.3851C910.083 -40.0227 909.055 -30.8991 907.96 -21.2387C904.894 5.88562 901.077 39.6426 879.583 61.8192C874.239 67.3815 867.848 72.0358 860.591 75.6489C852.78 79.5409 843.696 82.3594 833.591 84.0363C826.127 85.2589 818.49 85.8662 810.83 85.8461Z" fill="#FDFCFC"/>
<path d="M823.169 89.0019C812.284 89.0019 800.752 87.7516 788.324 85.2363C770.74 81.68 753.859 76.1257 738.966 71.2266C720.147 65.0333 700.856 57.8266 681.631 49.8041C666.171 43.3336 651.02 36.409 636.596 29.2217C601.081 11.5323 570.727 -10.1382 538.591 -33.0819C533.347 -36.8312 527.907 -40.7038 522.514 -44.5212C503.568 -57.9164 487.389 -68.9617 470.022 -79.3226C435.024 -100.173 396.241 -111.471 354.75 -112.904C302.608 -114.706 246.762 -101.538 188.766 -73.7667C159.949 -59.9694 131.579 -43.0552 108.877 -26.1362C91.7769 -13.3914 78.4046 0.482162 64.2504 15.1698C62.4978 16.9893 60.7361 18.8137 58.9654 20.643C55.8076 23.9042 51.6329 28.2016 47.3191 32.5121C29.168 50.6879 5.47198 69.4054 -32.7727 70.3574C-33.9652 70.3833 -35.1622 70.3979 -36.3569 70.3979C-66.2249 70.3979 -96.6994 61.9927 -127.885 52.6064L-129.83 52.0161C-145.279 47.3262 -159.869 42.8973 -173.378 39.6734C-224.281 27.5238 -273.509 17.2682 -310.707 9.69171L-310.44 9.02843C-273.231 16.6082 -223.992 26.867 -173.07 39.0199C-159.527 42.2519 -144.919 46.6872 -129.452 51.382L-127.507 51.9723C-95.1809 61.7024 -63.6097 70.3784 -32.8069 69.6681C5.00458 68.7211 28.5251 50.1511 46.5211 32.1115C50.8303 27.8059 55.0027 23.5166 58.1491 20.2521C59.9214 18.425 61.6823 16.6006 63.4319 14.7789C77.6089 0.068634 91.0016 -13.8276 108.159 -26.6129C130.906 -43.5644 159.333 -60.5143 188.205 -74.3375C215.015 -87.1683 241.821 -97.0217 267.9 -103.628C297.811 -111.203 327.052 -114.559 354.807 -113.599C396.515 -112.158 435.494 -100.807 470.656 -79.8578C488.05 -69.479 504.245 -58.4239 523.21 -45.0175C528.602 -41.2032 534.035 -37.3258 539.288 -33.5749C571.393 -10.654 601.717 10.9955 637.164 28.6508C651.565 35.8268 666.695 42.7417 682.133 49.2041C701.33 57.2152 720.594 64.4106 739.386 70.5941C768.884 80.2999 805.597 92.3782 842.134 86.9407C862.109 83.9681 877.068 76.7451 887.873 64.8582C908.958 41.8189 910.217 6.26347 911.248 -22.3058C911.581 -31.6272 911.895 -40.433 912.901 -47.5262L912.923 -47.6884C915.181 -63.5809 917.513 -80.0037 922.86 -96.2125C927.49 -110.35 933.941 -123.063 942.028 -133.998C951.148 -146.323 962.393 -156.418 975.452 -163.999C984.035 -169.007 993.542 -173.154 1003.71 -176.324C1031.47 -185.063 1065.5 -186.412 1102.1 -180.216C1117.05 -177.666 1131.54 -173.904 1145.29 -169.002C1159.21 -164.066 1172.29 -158.014 1184.28 -150.964C1211.06 -135.199 1233.25 -114.74 1250.25 -90.1506C1265.53 -68.0519 1276.2 -42.8444 1281.1 -17.251L1280.14 -17.1586C1269.65 -71.9326 1234.49 -120.509 1183.66 -150.43C1159.87 -164.442 1131.59 -174.509 1101.86 -179.535C1065.47 -185.686 1031.66 -184.356 1004.09 -175.677C993.998 -172.533 984.562 -168.422 976.043 -163.456C951.658 -149.3 933.587 -125.995 923.781 -96.0503C918.448 -79.8837 916.118 -63.4771 913.865 -47.6122L913.842 -47.45C912.839 -40.3811 912.524 -31.5883 912.194 -22.2798C911.17 6.377 909.898 42.0395 888.662 65.2426C883.454 70.972 877.109 75.7267 869.809 79.3723C861.936 83.3033 852.683 86.0796 842.31 87.6234C836.013 88.5515 829.599 89.0134 823.169 89.0019Z" fill="#FDFCFC"/>
<path d="M-32.0632 92.9736C-45.4171 92.9736 -59.9544 91.1233 -76.3636 87.3448C-92.6678 83.5905 -108.792 78.4076 -123.788 73.3674C-126.504 72.4495 -129.2 71.5349 -131.875 70.6235C-145.199 66.0942 -157.782 61.8162 -169.547 58.4852C-216.449 45.2004 -261.155 33.2631 -304.389 21.7184L-311.555 19.8048L-311.194 19.1221L-304.028 21.0356C-260.79 32.5804 -216.08 44.5209 -169.166 57.8073C-157.372 61.148 -144.77 65.4293 -131.432 69.97C-128.757 70.8792 -126.062 71.7933 -123.348 72.7122C-92.5675 83.0602 -59.8541 93.0871 -28.1302 92.1936C10.8578 91.0389 34.2346 69.4316 50.238 50.7384C54.342 45.9561 58.2841 41.1932 61.2663 37.5768C62.9125 35.5822 64.5496 33.5918 66.1775 31.6058C79.6979 15.1376 92.4681 -0.417648 109.269 -15.0842C131.431 -34.4471 159.831 -54.123 189.243 -70.4939C216.525 -85.6826 244.056 -97.6831 271.074 -106.16C302.064 -115.89 332.333 -120.932 361.041 -121.16C404.238 -121.618 444.359 -111.049 480.285 -89.7466C500.194 -77.9245 518.044 -65.1359 532.88 -54.183C540.953 -48.2233 549.029 -42.1144 556.836 -36.2066C584.476 -15.2869 613.058 6.33342 645.115 23.8492C659.433 31.6755 674.461 39.2553 689.783 46.3907C708.741 55.1916 727.993 63.2708 747.011 70.403C776.73 81.5504 813.719 95.4256 850.88 90.5005C871.334 87.7907 886.389 80.5255 896.907 68.2834C917.714 44.1998 916.31 6.69669 915.181 -23.4375C914.846 -32.3567 914.531 -40.7668 914.91 -47.5438C915.767 -62.8217 917.053 -80.5776 921.522 -97.9685C925.279 -112.705 930.959 -126.037 938.394 -137.593C946.807 -150.665 957.587 -161.625 970.432 -170.168C978.929 -175.82 988.466 -180.625 998.782 -184.45C1013.48 -189.916 1029.97 -193.353 1047.8 -194.666C1064.5 -195.894 1082.1 -195.249 1100.13 -192.75C1131.06 -188.408 1160.06 -178.824 1184.67 -164.811C1198.62 -156.823 1211.46 -147.389 1222.81 -136.772C1233.56 -126.718 1243.1 -115.494 1251.14 -103.429C1266.19 -80.8565 1276.1 -55.1284 1279.79 -29.0258L1278.77 -28.9528C1270.85 -85.0031 1236.32 -134.314 1184.02 -164.242C1160.07 -177.965 1130.21 -187.834 1099.93 -192.033C1062.5 -197.222 1027.69 -194.379 999.256 -183.808C989.016 -180.011 979.548 -175.241 971.114 -169.631C946.91 -153.534 930.557 -129.377 922.509 -97.8339C918.058 -80.4819 916.773 -62.765 915.92 -47.5114C915.541 -40.7587 915.856 -32.3535 916.191 -23.4537C916.747 -8.58769 917.379 8.26324 915.261 24.5482C912.805 43.4506 907.083 57.8819 897.766 68.658C892.693 74.5594 886.398 79.4147 879.052 83.091C871.115 87.0641 861.697 89.7935 851.054 91.1995C845.753 91.8948 840.374 92.2411 834.984 92.2341C803.048 92.2341 772.102 80.6261 746.52 71.029C727.478 63.8935 708.196 55.7948 689.213 46.981C673.868 39.8456 658.82 32.2512 644.479 24.4136C612.358 6.86211 583.749 -14.7858 556.079 -35.7217C548.274 -41.6279 540.201 -47.7352 532.139 -53.6916C517.319 -64.6299 499.496 -77.4007 479.626 -89.2065C443.905 -110.394 404.016 -120.902 361.066 -120.452C293.607 -119.913 230.743 -92.6867 189.886 -69.9393C160.515 -53.5797 132.179 -33.9444 110.058 -14.6285C93.3117 -0.00572205 80.562 15.5251 67.0621 31.969C65.4327 33.9561 63.7949 35.947 62.1487 37.9417C59.1642 41.5597 55.213 46.3274 51.1112 51.113C44.3943 58.9604 33.8494 70.3819 19.8752 78.946C13.0922 83.1024 5.87375 86.3717 -1.57956 88.6583C-9.9744 91.2237 -18.9614 92.6684 -28.0914 92.9201C-29.4047 92.9547 -30.7286 92.9725 -32.0632 92.9736Z" fill="#FDFCFC"/>
<path d="M-27.7756 115.552C-41.1432 115.552 -55.6532 113.561 -71.9757 109.494C-88.875 105.277 -105.583 99.3629 -119.698 94.1281C-124.03 92.5162 -128.362 90.8847 -132.548 89.3004C-144.249 84.8796 -155.303 80.7054 -165.725 77.2999C-203.149 65.0562 -240.333 53.1011 -276.293 41.5401C-288.186 37.7162 -300.486 33.756 -312.406 29.9223L-311.95 29.2202C-300.03 33.0603 -287.732 37.014 -275.837 40.8379C-239.877 52.4005 -202.69 64.3524 -165.257 76.5993C-154.808 80.0179 -143.741 84.1969 -132.026 88.6225C-127.843 90.2036 -123.515 91.8367 -119.183 93.4486C-89.9125 104.304 -55.961 115.795 -23.4505 114.714C16.4518 113.355 38.8733 89.7593 53.9464 69.3553C57.811 64.1285 61.5479 58.8808 64.3706 54.8931C65.8192 52.8465 67.2632 50.8021 68.7026 48.7599C81.6279 30.4121 93.8441 13.0795 110.356 -3.56871C131.833 -25.215 160.21 -47.6185 190.263 -66.6523C232.112 -93.0436 296.794 -125.237 367.275 -128.73C412.103 -131.01 453.357 -121.225 489.894 -99.6438C506.31 -89.9445 522.543 -78.7533 542.534 -63.3602C552.639 -55.5761 562.662 -47.518 572.359 -39.7225C597.581 -19.4401 623.659 1.53313 653.046 19.0392C667.285 27.5206 682.212 35.7701 697.415 43.5575C715.824 52.9778 735.069 61.9393 754.613 70.1937C784.634 82.7958 821.996 98.4807 859.605 94.0422C880.225 91.6583 895.809 84.1418 905.921 71.7034C926.441 46.53 922.038 5.3457 918.821 -24.7268C917.909 -33.1596 917.068 -41.1351 916.899 -47.565C916.525 -61.8553 916.555 -80.6993 920.153 -99.7282C926.356 -132.707 941.585 -158.483 965.388 -176.345C973.777 -182.662 983.346 -188.129 993.828 -192.592C1008.8 -198.99 1025.7 -203.295 1044.05 -205.378C1061.34 -207.343 1079.54 -207.312 1098.14 -205.285C1113.92 -203.52 1129.32 -200.356 1144 -195.87C1158.67 -191.418 1172.46 -185.634 1185.04 -178.662C1199.31 -170.716 1212.35 -161.253 1223.79 -150.526C1234.63 -140.361 1244.13 -128.982 1252.02 -116.707C1266.84 -93.6598 1275.98 -67.408 1278.45 -40.7993L1277.37 -40.7491C1272.05 -98.0789 1238.16 -148.126 1184.37 -178.056C1159.99 -191.634 1129.31 -201.035 1097.97 -204.525C1059.35 -208.741 1023.53 -204.379 994.392 -191.932C983.994 -187.504 974.501 -182.081 966.179 -175.814C942.526 -158.073 927.403 -132.441 921.229 -99.626C917.645 -80.6523 917.613 -61.8407 917.987 -47.5796C918.153 -41.1723 919.006 -33.2115 919.906 -24.7836C921.568 -9.23973 923.452 8.37825 922.373 25.5811C921.119 45.6105 916.044 60.8236 906.869 72.0894C901.929 78.1659 895.679 83.1282 888.297 86.8387C880.292 90.8621 870.699 93.5411 859.797 94.8028C842.879 96.799 824.671 95.0038 804.13 89.3166C786.276 84.3721 769.171 77.1928 754.077 70.8569C734.506 62.5863 715.233 53.6168 696.797 44.1834C681.573 36.3848 666.623 28.1288 652.367 19.6295C622.92 2.08774 596.812 -18.9082 571.563 -39.2117C561.871 -47.0056 551.851 -55.0637 541.755 -62.8381C521.798 -78.2052 505.594 -89.3737 489.219 -99.0519C452.887 -120.492 411.893 -130.222 367.353 -127.952C297.172 -124.475 232.705 -92.3787 190.981 -66.0668C160.99 -47.0704 132.673 -24.7139 111.241 -3.11462C94.7767 13.4817 82.5787 30.7883 69.667 49.1037C68.2291 51.1459 66.7851 53.1903 65.335 55.2368C62.5101 59.2295 58.7709 64.4804 54.9018 69.712C39.6942 90.2961 17.0537 114.101 -23.414 115.479C-24.8534 115.528 -26.3073 115.552 -27.7756 115.552Z" fill="#FDFCFC"/>
<path d="M-23.4044 138.131C-59.93 138.131 -98.2522 122.175 -132.229 108.029C-142.669 103.681 -152.521 99.5767 -161.903 96.1047L-313.254 40.0301L-312.727 39.3117L-161.376 95.3847C-151.98 98.8664 -142.106 102.977 -131.654 107.328C-96.3643 122.021 -56.3686 138.674 -18.7942 137.232C22.0018 135.666 43.4931 110.087 57.6588 87.9768C62.2917 80.7473 66.7673 73.3816 71.0948 66.2722C82.928 46.812 95.167 26.6884 111.451 7.96123C124.383 -6.90964 140.45 -22.5054 157.908 -37.1378C177.06 -53.1925 197.569 -67.9207 218.859 -80.9136C242.332 -95.238 266.199 -107.088 289.795 -116.13C315.894 -126.134 341.608 -132.671 366.22 -135.542C415.53 -141.307 460.384 -132.558 499.516 -109.535C532.038 -90.3989 559.681 -66.7466 586.414 -43.8695C609.683 -23.9552 633.744 -3.36299 660.992 14.2372C692.646 34.6684 726.493 53.3116 762.224 69.9972C792.32 84.0442 829.753 101.524 868.34 97.5951C900.933 94.2787 919.775 78.7673 925.944 50.177C931.188 25.8517 926.202 -2.98839 922.189 -26.1688C920.821 -34.068 919.531 -41.5294 918.897 -47.575C915.399 -80.9298 917.629 -108.464 925.714 -131.75C930.757 -146.277 938.199 -159.228 947.83 -170.243C958.592 -182.545 972.406 -192.8 988.888 -200.73C1003.15 -207.585 1019.22 -212.569 1036.66 -215.527C1053.26 -218.348 1070.74 -219.294 1088.61 -218.337C1123.76 -216.456 1158.14 -207.283 1185.42 -192.512C1200.01 -184.616 1213.23 -175.116 1224.77 -164.28C1235.7 -154.008 1245.16 -142.468 1252.9 -129.983C1267.5 -106.468 1275.86 -79.6909 1277.13 -52.5714L1275.99 -52.5439C1273.3 -110.294 1239.18 -162.377 1184.73 -191.864C1126.9 -223.181 1044.81 -226.625 989.531 -200.056C934.775 -173.736 912.043 -123.88 920.039 -47.6399C920.671 -41.6088 921.961 -34.1572 923.327 -26.2677C927.346 -3.03865 932.349 25.8711 927.078 50.3002C924.205 63.598 918.432 74.3011 909.918 82.0852C905.238 86.3961 899.409 90.0079 892.763 92.7137C885.743 95.5614 877.583 97.475 868.507 98.3978C864.757 98.778 860.974 98.9677 857.186 98.9654C843.203 98.9654 828.31 96.4501 811.99 91.3548C793.602 85.614 775.861 77.3321 761.602 70.6751C725.818 53.9666 691.921 35.2972 660.222 14.8372C632.916 -2.8019 608.828 -23.4151 585.536 -43.3505C558.835 -66.2001 531.226 -89.828 498.786 -108.91C459.912 -131.776 415.373 -140.468 366.403 -134.742C267.346 -123.16 165.307 -52.4287 112.411 8.38773C96.168 27.0647 83.9471 47.1606 72.1276 66.5949C67.7956 73.7141 63.3223 81.0766 58.6756 88.3141C49.2706 102.992 39.9796 113.502 29.4438 121.385C22.866 126.307 15.7296 130.184 8.23978 132.914C-0.145996 135.958 -9.34296 137.706 -18.7463 138.042C-20.2906 138.102 -21.8433 138.132 -23.4044 138.131Z" fill="#FDFCFC"/>
</g>
</svg>
